%FSLAX45Y45*%
G04 Gerber Fmt 4.5, Leading zero omitted, Abs format (unit mm)*
G04 Created by KiCad (PCBNEW (6.0.4)) date 2023-11-12 13:57:50*
%MOMM*%
%LPD*%
G01*
G04 APERTURE LIST*
%TA.AperFunction,Profile*%
%ADD10C,0.050000*%
%TD*%
%ADD11C,0.200000*%
%ADD12C,0.320000*%
%ADD13C,0.600000*%
%ADD14C,0.700000*%
G04 APERTURE END LIST*
D10*
X6000000Y-3400000D02*
X12060000Y-3400000D01*
X12060000Y-3400000D02*
X12060000Y-16250000D01*
X12060000Y-16250000D02*
X6000000Y-16250000D01*
X6000000Y-16250000D02*
X6000000Y-3400000D01*
D11*
D12*
X6590000Y-3540000D02*
X6910000Y-3860000D01*
X6910000Y-3540000D02*
X6590000Y-3860000D01*
X6590000Y-15790000D02*
X6910000Y-16110000D01*
X6910000Y-15790000D02*
X6590000Y-16110000D01*
X11150000Y-3540000D02*
X11470000Y-3860000D01*
X11470000Y-3540000D02*
X11150000Y-3860000D01*
X11150000Y-15790000D02*
X11470000Y-16110000D01*
X11470000Y-15790000D02*
X11150000Y-16110000D01*
D13*
X7524256Y-6124256D02*
G75*
G03*
X7524256Y-6124256I-300000J0D01*
G01*
X7524256Y-8024256D02*
G75*
G03*
X7524256Y-8024256I-300000J0D01*
G01*
X7524256Y-9924257D02*
G75*
G03*
X7524256Y-9924257I-300000J0D01*
G01*
X7524256Y-11824256D02*
G75*
G03*
X7524256Y-11824256I-300000J0D01*
G01*
X7524256Y-13724256D02*
G75*
G03*
X7524256Y-13724256I-300000J0D01*
G01*
X9024257Y-6124256D02*
G75*
G03*
X9024257Y-6124256I-300000J0D01*
G01*
X9024257Y-8024256D02*
G75*
G03*
X9024257Y-8024256I-300000J0D01*
G01*
X9024257Y-9924257D02*
G75*
G03*
X9024257Y-9924257I-300000J0D01*
G01*
X9024257Y-11824256D02*
G75*
G03*
X9024257Y-11824256I-300000J0D01*
G01*
X9024257Y-13724256D02*
G75*
G03*
X9024257Y-13724256I-300000J0D01*
G01*
D14*
X10524257Y-5774256D02*
X10524257Y-6474256D01*
X10174257Y-6124256D02*
X10874257Y-6124256D01*
X10524257Y-7674256D02*
X10524257Y-8374256D01*
X10174257Y-8024256D02*
X10874257Y-8024256D01*
X10524257Y-9574257D02*
X10524257Y-10274257D01*
X10174257Y-9924257D02*
X10874257Y-9924257D01*
X10524257Y-13374256D02*
X10524257Y-14074256D01*
X10174257Y-13724256D02*
X10874257Y-13724256D01*
X10527083Y-11450000D02*
X10527083Y-12150000D01*
X10177083Y-11800000D02*
X10877083Y-11800000D01*
D11*
X6255119Y-16562976D02*
X6255119Y-16362976D01*
X6302738Y-16362976D01*
X6331309Y-16372500D01*
X6350357Y-16391548D01*
X6359881Y-16410595D01*
X6369405Y-16448690D01*
X6369405Y-16477262D01*
X6359881Y-16515357D01*
X6350357Y-16534405D01*
X6331309Y-16553452D01*
X6302738Y-16562976D01*
X6255119Y-16562976D01*
X6455119Y-16562976D02*
X6455119Y-16429643D01*
X6455119Y-16467738D02*
X6464643Y-16448690D01*
X6474167Y-16439167D01*
X6493214Y-16429643D01*
X6512262Y-16429643D01*
X6578928Y-16562976D02*
X6578928Y-16429643D01*
X6578928Y-16362976D02*
X6569405Y-16372500D01*
X6578928Y-16382024D01*
X6588452Y-16372500D01*
X6578928Y-16362976D01*
X6578928Y-16382024D01*
X6702738Y-16562976D02*
X6683690Y-16553452D01*
X6674167Y-16534405D01*
X6674167Y-16362976D01*
X6807500Y-16562976D02*
X6788452Y-16553452D01*
X6778928Y-16534405D01*
X6778928Y-16362976D01*
X7036071Y-16562976D02*
X7036071Y-16362976D01*
X7102738Y-16505833D01*
X7169405Y-16362976D01*
X7169405Y-16562976D01*
X7350357Y-16562976D02*
X7350357Y-16458214D01*
X7340833Y-16439167D01*
X7321786Y-16429643D01*
X7283690Y-16429643D01*
X7264643Y-16439167D01*
X7350357Y-16553452D02*
X7331309Y-16562976D01*
X7283690Y-16562976D01*
X7264643Y-16553452D01*
X7255119Y-16534405D01*
X7255119Y-16515357D01*
X7264643Y-16496309D01*
X7283690Y-16486786D01*
X7331309Y-16486786D01*
X7350357Y-16477262D01*
X7445595Y-16429643D02*
X7445595Y-16629643D01*
X7445595Y-16439167D02*
X7464643Y-16429643D01*
X7502738Y-16429643D01*
X7521786Y-16439167D01*
X7531309Y-16448690D01*
X7540833Y-16467738D01*
X7540833Y-16524881D01*
X7531309Y-16543928D01*
X7521786Y-16553452D01*
X7502738Y-16562976D01*
X7464643Y-16562976D01*
X7445595Y-16553452D01*
X7626548Y-16543928D02*
X7636071Y-16553452D01*
X7626548Y-16562976D01*
X7617024Y-16553452D01*
X7626548Y-16543928D01*
X7626548Y-16562976D01*
X7626548Y-16439167D02*
X7636071Y-16448690D01*
X7626548Y-16458214D01*
X7617024Y-16448690D01*
X7626548Y-16439167D01*
X7626548Y-16458214D01*
X5797500Y-16792500D02*
X5997500Y-16992500D01*
X5997500Y-16792500D02*
X5797500Y-16992500D01*
X6236071Y-16782976D02*
X6359881Y-16782976D01*
X6293214Y-16859167D01*
X6321786Y-16859167D01*
X6340833Y-16868690D01*
X6350357Y-16878214D01*
X6359881Y-16897262D01*
X6359881Y-16944881D01*
X6350357Y-16963929D01*
X6340833Y-16973452D01*
X6321786Y-16982976D01*
X6264643Y-16982976D01*
X6245595Y-16973452D01*
X6236071Y-16963929D01*
X6445595Y-16963929D02*
X6455119Y-16973452D01*
X6445595Y-16982976D01*
X6436071Y-16973452D01*
X6445595Y-16963929D01*
X6445595Y-16982976D01*
X6531309Y-16802024D02*
X6540833Y-16792500D01*
X6559881Y-16782976D01*
X6607500Y-16782976D01*
X6626548Y-16792500D01*
X6636071Y-16802024D01*
X6645595Y-16821071D01*
X6645595Y-16840119D01*
X6636071Y-16868690D01*
X6521786Y-16982976D01*
X6645595Y-16982976D01*
X6769405Y-16782976D02*
X6788452Y-16782976D01*
X6807500Y-16792500D01*
X6817024Y-16802024D01*
X6826548Y-16821071D01*
X6836071Y-16859167D01*
X6836071Y-16906786D01*
X6826548Y-16944881D01*
X6817024Y-16963929D01*
X6807500Y-16973452D01*
X6788452Y-16982976D01*
X6769405Y-16982976D01*
X6750357Y-16973452D01*
X6740833Y-16963929D01*
X6731309Y-16944881D01*
X6721786Y-16906786D01*
X6721786Y-16859167D01*
X6731309Y-16821071D01*
X6740833Y-16802024D01*
X6750357Y-16792500D01*
X6769405Y-16782976D01*
X6959881Y-16782976D02*
X6978928Y-16782976D01*
X6997976Y-16792500D01*
X7007500Y-16802024D01*
X7017024Y-16821071D01*
X7026548Y-16859167D01*
X7026548Y-16906786D01*
X7017024Y-16944881D01*
X7007500Y-16963929D01*
X6997976Y-16973452D01*
X6978928Y-16982976D01*
X6959881Y-16982976D01*
X6940833Y-16973452D01*
X6931309Y-16963929D01*
X6921786Y-16944881D01*
X6912262Y-16906786D01*
X6912262Y-16859167D01*
X6921786Y-16821071D01*
X6931309Y-16802024D01*
X6940833Y-16792500D01*
X6959881Y-16782976D01*
X7112262Y-16982976D02*
X7112262Y-16849643D01*
X7112262Y-16868690D02*
X7121786Y-16859167D01*
X7140833Y-16849643D01*
X7169405Y-16849643D01*
X7188452Y-16859167D01*
X7197976Y-16878214D01*
X7197976Y-16982976D01*
X7197976Y-16878214D02*
X7207500Y-16859167D01*
X7226548Y-16849643D01*
X7255119Y-16849643D01*
X7274167Y-16859167D01*
X7283690Y-16878214D01*
X7283690Y-16982976D01*
X7378928Y-16982976D02*
X7378928Y-16849643D01*
X7378928Y-16868690D02*
X7388452Y-16859167D01*
X7407500Y-16849643D01*
X7436071Y-16849643D01*
X7455119Y-16859167D01*
X7464643Y-16878214D01*
X7464643Y-16982976D01*
X7464643Y-16878214D02*
X7474167Y-16859167D01*
X7493214Y-16849643D01*
X7521786Y-16849643D01*
X7540833Y-16859167D01*
X7550357Y-16878214D01*
X7550357Y-16982976D01*
X7940833Y-16773452D02*
X7769405Y-17030595D01*
X8197976Y-16782976D02*
X8217024Y-16782976D01*
X8236071Y-16792500D01*
X8245595Y-16802024D01*
X8255119Y-16821071D01*
X8264643Y-16859167D01*
X8264643Y-16906786D01*
X8255119Y-16944881D01*
X8245595Y-16963929D01*
X8236071Y-16973452D01*
X8217024Y-16982976D01*
X8197976Y-16982976D01*
X8178928Y-16973452D01*
X8169405Y-16963929D01*
X8159881Y-16944881D01*
X8150357Y-16906786D01*
X8150357Y-16859167D01*
X8159881Y-16821071D01*
X8169405Y-16802024D01*
X8178928Y-16792500D01*
X8197976Y-16782976D01*
X8350357Y-16963929D02*
X8359881Y-16973452D01*
X8350357Y-16982976D01*
X8340833Y-16973452D01*
X8350357Y-16963929D01*
X8350357Y-16982976D01*
X8550357Y-16982976D02*
X8436071Y-16982976D01*
X8493214Y-16982976D02*
X8493214Y-16782976D01*
X8474167Y-16811548D01*
X8455119Y-16830595D01*
X8436071Y-16840119D01*
X8626548Y-16802024D02*
X8636071Y-16792500D01*
X8655119Y-16782976D01*
X8702738Y-16782976D01*
X8721786Y-16792500D01*
X8731310Y-16802024D01*
X8740833Y-16821071D01*
X8740833Y-16840119D01*
X8731310Y-16868690D01*
X8617024Y-16982976D01*
X8740833Y-16982976D01*
X8912262Y-16782976D02*
X8874167Y-16782976D01*
X8855119Y-16792500D01*
X8845595Y-16802024D01*
X8826548Y-16830595D01*
X8817024Y-16868690D01*
X8817024Y-16944881D01*
X8826548Y-16963929D01*
X8836071Y-16973452D01*
X8855119Y-16982976D01*
X8893214Y-16982976D01*
X8912262Y-16973452D01*
X8921786Y-16963929D01*
X8931310Y-16944881D01*
X8931310Y-16897262D01*
X8921786Y-16878214D01*
X8912262Y-16868690D01*
X8893214Y-16859167D01*
X8855119Y-16859167D01*
X8836071Y-16868690D01*
X8826548Y-16878214D01*
X8817024Y-16897262D01*
X9055119Y-16782976D02*
X9074167Y-16782976D01*
X9093214Y-16792500D01*
X9102738Y-16802024D01*
X9112262Y-16821071D01*
X9121786Y-16859167D01*
X9121786Y-16906786D01*
X9112262Y-16944881D01*
X9102738Y-16963929D01*
X9093214Y-16973452D01*
X9074167Y-16982976D01*
X9055119Y-16982976D01*
X9036071Y-16973452D01*
X9026548Y-16963929D01*
X9017024Y-16944881D01*
X9007500Y-16906786D01*
X9007500Y-16859167D01*
X9017024Y-16821071D01*
X9026548Y-16802024D01*
X9036071Y-16792500D01*
X9055119Y-16782976D01*
X9197976Y-16782976D02*
X9197976Y-16821071D01*
X9274167Y-16782976D02*
X9274167Y-16821071D01*
X9569405Y-17059167D02*
X9559881Y-17049643D01*
X9540833Y-17021071D01*
X9531310Y-17002024D01*
X9521786Y-16973452D01*
X9512262Y-16925833D01*
X9512262Y-16887738D01*
X9521786Y-16840119D01*
X9531310Y-16811548D01*
X9540833Y-16792500D01*
X9559881Y-16763928D01*
X9569405Y-16754405D01*
X9731310Y-16849643D02*
X9731310Y-16982976D01*
X9683690Y-16773452D02*
X9636071Y-16916310D01*
X9759881Y-16916310D01*
X9988452Y-16982976D02*
X9988452Y-16782976D01*
X10074167Y-16982976D02*
X10074167Y-16878214D01*
X10064643Y-16859167D01*
X10045595Y-16849643D01*
X10017024Y-16849643D01*
X9997976Y-16859167D01*
X9988452Y-16868690D01*
X10197976Y-16982976D02*
X10178929Y-16973452D01*
X10169405Y-16963929D01*
X10159881Y-16944881D01*
X10159881Y-16887738D01*
X10169405Y-16868690D01*
X10178929Y-16859167D01*
X10197976Y-16849643D01*
X10226548Y-16849643D01*
X10245595Y-16859167D01*
X10255119Y-16868690D01*
X10264643Y-16887738D01*
X10264643Y-16944881D01*
X10255119Y-16963929D01*
X10245595Y-16973452D01*
X10226548Y-16982976D01*
X10197976Y-16982976D01*
X10378929Y-16982976D02*
X10359881Y-16973452D01*
X10350357Y-16954405D01*
X10350357Y-16782976D01*
X10531310Y-16973452D02*
X10512262Y-16982976D01*
X10474167Y-16982976D01*
X10455119Y-16973452D01*
X10445595Y-16954405D01*
X10445595Y-16878214D01*
X10455119Y-16859167D01*
X10474167Y-16849643D01*
X10512262Y-16849643D01*
X10531310Y-16859167D01*
X10540833Y-16878214D01*
X10540833Y-16897262D01*
X10445595Y-16916310D01*
X10617024Y-16973452D02*
X10636071Y-16982976D01*
X10674167Y-16982976D01*
X10693214Y-16973452D01*
X10702738Y-16954405D01*
X10702738Y-16944881D01*
X10693214Y-16925833D01*
X10674167Y-16916310D01*
X10645595Y-16916310D01*
X10626548Y-16906786D01*
X10617024Y-16887738D01*
X10617024Y-16878214D01*
X10626548Y-16859167D01*
X10645595Y-16849643D01*
X10674167Y-16849643D01*
X10693214Y-16859167D01*
X10769405Y-17059167D02*
X10778929Y-17049643D01*
X10797976Y-17021071D01*
X10807500Y-17002024D01*
X10817024Y-16973452D01*
X10826548Y-16925833D01*
X10826548Y-16887738D01*
X10817024Y-16840119D01*
X10807500Y-16811548D01*
X10797976Y-16792500D01*
X10778929Y-16763928D01*
X10769405Y-16754405D01*
X11131310Y-17059167D02*
X11121786Y-17049643D01*
X11102738Y-17021071D01*
X11093214Y-17002024D01*
X11083690Y-16973452D01*
X11074167Y-16925833D01*
X11074167Y-16887738D01*
X11083690Y-16840119D01*
X11093214Y-16811548D01*
X11102738Y-16792500D01*
X11121786Y-16763928D01*
X11131310Y-16754405D01*
X11207500Y-16849643D02*
X11207500Y-16982976D01*
X11207500Y-16868690D02*
X11217024Y-16859167D01*
X11236071Y-16849643D01*
X11264643Y-16849643D01*
X11283690Y-16859167D01*
X11293214Y-16878214D01*
X11293214Y-16982976D01*
X11417024Y-16982976D02*
X11397976Y-16973452D01*
X11388452Y-16963929D01*
X11378928Y-16944881D01*
X11378928Y-16887738D01*
X11388452Y-16868690D01*
X11397976Y-16859167D01*
X11417024Y-16849643D01*
X11445595Y-16849643D01*
X11464643Y-16859167D01*
X11474167Y-16868690D01*
X11483690Y-16887738D01*
X11483690Y-16944881D01*
X11474167Y-16963929D01*
X11464643Y-16973452D01*
X11445595Y-16982976D01*
X11417024Y-16982976D01*
X11540833Y-16849643D02*
X11617024Y-16849643D01*
X11569405Y-16782976D02*
X11569405Y-16954405D01*
X11578928Y-16973452D01*
X11597976Y-16982976D01*
X11617024Y-16982976D01*
X11836071Y-16849643D02*
X11836071Y-17049643D01*
X11836071Y-16859167D02*
X11855119Y-16849643D01*
X11893214Y-16849643D01*
X11912262Y-16859167D01*
X11921786Y-16868690D01*
X11931309Y-16887738D01*
X11931309Y-16944881D01*
X11921786Y-16963929D01*
X11912262Y-16973452D01*
X11893214Y-16982976D01*
X11855119Y-16982976D01*
X11836071Y-16973452D01*
X12045595Y-16982976D02*
X12026548Y-16973452D01*
X12017024Y-16954405D01*
X12017024Y-16782976D01*
X12207500Y-16982976D02*
X12207500Y-16878214D01*
X12197976Y-16859167D01*
X12178928Y-16849643D01*
X12140833Y-16849643D01*
X12121786Y-16859167D01*
X12207500Y-16973452D02*
X12188452Y-16982976D01*
X12140833Y-16982976D01*
X12121786Y-16973452D01*
X12112262Y-16954405D01*
X12112262Y-16935357D01*
X12121786Y-16916310D01*
X12140833Y-16906786D01*
X12188452Y-16906786D01*
X12207500Y-16897262D01*
X12274167Y-16849643D02*
X12350357Y-16849643D01*
X12302738Y-16782976D02*
X12302738Y-16954405D01*
X12312262Y-16973452D01*
X12331309Y-16982976D01*
X12350357Y-16982976D01*
X12493214Y-16973452D02*
X12474167Y-16982976D01*
X12436071Y-16982976D01*
X12417024Y-16973452D01*
X12407500Y-16954405D01*
X12407500Y-16878214D01*
X12417024Y-16859167D01*
X12436071Y-16849643D01*
X12474167Y-16849643D01*
X12493214Y-16859167D01*
X12502738Y-16878214D01*
X12502738Y-16897262D01*
X12407500Y-16916310D01*
X12674167Y-16982976D02*
X12674167Y-16782976D01*
X12674167Y-16973452D02*
X12655119Y-16982976D01*
X12617024Y-16982976D01*
X12597976Y-16973452D01*
X12588452Y-16963929D01*
X12578928Y-16944881D01*
X12578928Y-16887738D01*
X12588452Y-16868690D01*
X12597976Y-16859167D01*
X12617024Y-16849643D01*
X12655119Y-16849643D01*
X12674167Y-16859167D01*
X12750357Y-17059167D02*
X12759881Y-17049643D01*
X12778928Y-17021071D01*
X12788452Y-17002024D01*
X12797976Y-16973452D01*
X12807500Y-16925833D01*
X12807500Y-16887738D01*
X12797976Y-16840119D01*
X12788452Y-16811548D01*
X12778928Y-16792500D01*
X12759881Y-16763928D01*
X12750357Y-16754405D01*
X5997500Y-17212500D02*
G75*
G03*
X5997500Y-17212500I-100000J0D01*
G01*
X6340833Y-17102976D02*
X6302738Y-17102976D01*
X6283690Y-17112500D01*
X6274167Y-17122024D01*
X6255119Y-17150595D01*
X6245595Y-17188690D01*
X6245595Y-17264881D01*
X6255119Y-17283929D01*
X6264643Y-17293452D01*
X6283690Y-17302976D01*
X6321786Y-17302976D01*
X6340833Y-17293452D01*
X6350357Y-17283929D01*
X6359881Y-17264881D01*
X6359881Y-17217262D01*
X6350357Y-17198214D01*
X6340833Y-17188690D01*
X6321786Y-17179167D01*
X6283690Y-17179167D01*
X6264643Y-17188690D01*
X6255119Y-17198214D01*
X6245595Y-17217262D01*
X6445595Y-17283929D02*
X6455119Y-17293452D01*
X6445595Y-17302976D01*
X6436071Y-17293452D01*
X6445595Y-17283929D01*
X6445595Y-17302976D01*
X6578928Y-17102976D02*
X6597976Y-17102976D01*
X6617024Y-17112500D01*
X6626548Y-17122024D01*
X6636071Y-17141071D01*
X6645595Y-17179167D01*
X6645595Y-17226786D01*
X6636071Y-17264881D01*
X6626548Y-17283929D01*
X6617024Y-17293452D01*
X6597976Y-17302976D01*
X6578928Y-17302976D01*
X6559881Y-17293452D01*
X6550357Y-17283929D01*
X6540833Y-17264881D01*
X6531309Y-17226786D01*
X6531309Y-17179167D01*
X6540833Y-17141071D01*
X6550357Y-17122024D01*
X6559881Y-17112500D01*
X6578928Y-17102976D01*
X6769405Y-17102976D02*
X6788452Y-17102976D01*
X6807500Y-17112500D01*
X6817024Y-17122024D01*
X6826548Y-17141071D01*
X6836071Y-17179167D01*
X6836071Y-17226786D01*
X6826548Y-17264881D01*
X6817024Y-17283929D01*
X6807500Y-17293452D01*
X6788452Y-17302976D01*
X6769405Y-17302976D01*
X6750357Y-17293452D01*
X6740833Y-17283929D01*
X6731309Y-17264881D01*
X6721786Y-17226786D01*
X6721786Y-17179167D01*
X6731309Y-17141071D01*
X6740833Y-17122024D01*
X6750357Y-17112500D01*
X6769405Y-17102976D01*
X6959881Y-17102976D02*
X6978928Y-17102976D01*
X6997976Y-17112500D01*
X7007500Y-17122024D01*
X7017024Y-17141071D01*
X7026548Y-17179167D01*
X7026548Y-17226786D01*
X7017024Y-17264881D01*
X7007500Y-17283929D01*
X6997976Y-17293452D01*
X6978928Y-17302976D01*
X6959881Y-17302976D01*
X6940833Y-17293452D01*
X6931309Y-17283929D01*
X6921786Y-17264881D01*
X6912262Y-17226786D01*
X6912262Y-17179167D01*
X6921786Y-17141071D01*
X6931309Y-17122024D01*
X6940833Y-17112500D01*
X6959881Y-17102976D01*
X7112262Y-17302976D02*
X7112262Y-17169643D01*
X7112262Y-17188690D02*
X7121786Y-17179167D01*
X7140833Y-17169643D01*
X7169405Y-17169643D01*
X7188452Y-17179167D01*
X7197976Y-17198214D01*
X7197976Y-17302976D01*
X7197976Y-17198214D02*
X7207500Y-17179167D01*
X7226548Y-17169643D01*
X7255119Y-17169643D01*
X7274167Y-17179167D01*
X7283690Y-17198214D01*
X7283690Y-17302976D01*
X7378928Y-17302976D02*
X7378928Y-17169643D01*
X7378928Y-17188690D02*
X7388452Y-17179167D01*
X7407500Y-17169643D01*
X7436071Y-17169643D01*
X7455119Y-17179167D01*
X7464643Y-17198214D01*
X7464643Y-17302976D01*
X7464643Y-17198214D02*
X7474167Y-17179167D01*
X7493214Y-17169643D01*
X7521786Y-17169643D01*
X7540833Y-17179167D01*
X7550357Y-17198214D01*
X7550357Y-17302976D01*
X7940833Y-17093452D02*
X7769405Y-17350595D01*
X8197976Y-17102976D02*
X8217024Y-17102976D01*
X8236071Y-17112500D01*
X8245595Y-17122024D01*
X8255119Y-17141071D01*
X8264643Y-17179167D01*
X8264643Y-17226786D01*
X8255119Y-17264881D01*
X8245595Y-17283929D01*
X8236071Y-17293452D01*
X8217024Y-17302976D01*
X8197976Y-17302976D01*
X8178928Y-17293452D01*
X8169405Y-17283929D01*
X8159881Y-17264881D01*
X8150357Y-17226786D01*
X8150357Y-17179167D01*
X8159881Y-17141071D01*
X8169405Y-17122024D01*
X8178928Y-17112500D01*
X8197976Y-17102976D01*
X8350357Y-17283929D02*
X8359881Y-17293452D01*
X8350357Y-17302976D01*
X8340833Y-17293452D01*
X8350357Y-17283929D01*
X8350357Y-17302976D01*
X8436071Y-17122024D02*
X8445595Y-17112500D01*
X8464643Y-17102976D01*
X8512262Y-17102976D01*
X8531310Y-17112500D01*
X8540833Y-17122024D01*
X8550357Y-17141071D01*
X8550357Y-17160119D01*
X8540833Y-17188690D01*
X8426548Y-17302976D01*
X8550357Y-17302976D01*
X8617024Y-17102976D02*
X8740833Y-17102976D01*
X8674167Y-17179167D01*
X8702738Y-17179167D01*
X8721786Y-17188690D01*
X8731310Y-17198214D01*
X8740833Y-17217262D01*
X8740833Y-17264881D01*
X8731310Y-17283929D01*
X8721786Y-17293452D01*
X8702738Y-17302976D01*
X8645595Y-17302976D01*
X8626548Y-17293452D01*
X8617024Y-17283929D01*
X8912262Y-17102976D02*
X8874167Y-17102976D01*
X8855119Y-17112500D01*
X8845595Y-17122024D01*
X8826548Y-17150595D01*
X8817024Y-17188690D01*
X8817024Y-17264881D01*
X8826548Y-17283929D01*
X8836071Y-17293452D01*
X8855119Y-17302976D01*
X8893214Y-17302976D01*
X8912262Y-17293452D01*
X8921786Y-17283929D01*
X8931310Y-17264881D01*
X8931310Y-17217262D01*
X8921786Y-17198214D01*
X8912262Y-17188690D01*
X8893214Y-17179167D01*
X8855119Y-17179167D01*
X8836071Y-17188690D01*
X8826548Y-17198214D01*
X8817024Y-17217262D01*
X9007500Y-17122024D02*
X9017024Y-17112500D01*
X9036071Y-17102976D01*
X9083690Y-17102976D01*
X9102738Y-17112500D01*
X9112262Y-17122024D01*
X9121786Y-17141071D01*
X9121786Y-17160119D01*
X9112262Y-17188690D01*
X8997976Y-17302976D01*
X9121786Y-17302976D01*
X9197976Y-17102976D02*
X9197976Y-17141071D01*
X9274167Y-17102976D02*
X9274167Y-17141071D01*
X9569405Y-17379167D02*
X9559881Y-17369643D01*
X9540833Y-17341071D01*
X9531310Y-17322024D01*
X9521786Y-17293452D01*
X9512262Y-17245833D01*
X9512262Y-17207738D01*
X9521786Y-17160119D01*
X9531310Y-17131548D01*
X9540833Y-17112500D01*
X9559881Y-17083929D01*
X9569405Y-17074405D01*
X9750357Y-17302976D02*
X9636071Y-17302976D01*
X9693214Y-17302976D02*
X9693214Y-17102976D01*
X9674167Y-17131548D01*
X9655119Y-17150595D01*
X9636071Y-17160119D01*
X9874167Y-17102976D02*
X9893214Y-17102976D01*
X9912262Y-17112500D01*
X9921786Y-17122024D01*
X9931310Y-17141071D01*
X9940833Y-17179167D01*
X9940833Y-17226786D01*
X9931310Y-17264881D01*
X9921786Y-17283929D01*
X9912262Y-17293452D01*
X9893214Y-17302976D01*
X9874167Y-17302976D01*
X9855119Y-17293452D01*
X9845595Y-17283929D01*
X9836071Y-17264881D01*
X9826548Y-17226786D01*
X9826548Y-17179167D01*
X9836071Y-17141071D01*
X9845595Y-17122024D01*
X9855119Y-17112500D01*
X9874167Y-17102976D01*
X10178929Y-17302976D02*
X10178929Y-17102976D01*
X10264643Y-17302976D02*
X10264643Y-17198214D01*
X10255119Y-17179167D01*
X10236071Y-17169643D01*
X10207500Y-17169643D01*
X10188452Y-17179167D01*
X10178929Y-17188690D01*
X10388452Y-17302976D02*
X10369405Y-17293452D01*
X10359881Y-17283929D01*
X10350357Y-17264881D01*
X10350357Y-17207738D01*
X10359881Y-17188690D01*
X10369405Y-17179167D01*
X10388452Y-17169643D01*
X10417024Y-17169643D01*
X10436071Y-17179167D01*
X10445595Y-17188690D01*
X10455119Y-17207738D01*
X10455119Y-17264881D01*
X10445595Y-17283929D01*
X10436071Y-17293452D01*
X10417024Y-17302976D01*
X10388452Y-17302976D01*
X10569405Y-17302976D02*
X10550357Y-17293452D01*
X10540833Y-17274405D01*
X10540833Y-17102976D01*
X10721786Y-17293452D02*
X10702738Y-17302976D01*
X10664643Y-17302976D01*
X10645595Y-17293452D01*
X10636071Y-17274405D01*
X10636071Y-17198214D01*
X10645595Y-17179167D01*
X10664643Y-17169643D01*
X10702738Y-17169643D01*
X10721786Y-17179167D01*
X10731310Y-17198214D01*
X10731310Y-17217262D01*
X10636071Y-17236310D01*
X10807500Y-17293452D02*
X10826548Y-17302976D01*
X10864643Y-17302976D01*
X10883690Y-17293452D01*
X10893214Y-17274405D01*
X10893214Y-17264881D01*
X10883690Y-17245833D01*
X10864643Y-17236310D01*
X10836071Y-17236310D01*
X10817024Y-17226786D01*
X10807500Y-17207738D01*
X10807500Y-17198214D01*
X10817024Y-17179167D01*
X10836071Y-17169643D01*
X10864643Y-17169643D01*
X10883690Y-17179167D01*
X10959881Y-17379167D02*
X10969405Y-17369643D01*
X10988452Y-17341071D01*
X10997976Y-17322024D01*
X11007500Y-17293452D01*
X11017024Y-17245833D01*
X11017024Y-17207738D01*
X11007500Y-17160119D01*
X10997976Y-17131548D01*
X10988452Y-17112500D01*
X10969405Y-17083929D01*
X10959881Y-17074405D01*
X11321786Y-17379167D02*
X11312262Y-17369643D01*
X11293214Y-17341071D01*
X11283690Y-17322024D01*
X11274167Y-17293452D01*
X11264643Y-17245833D01*
X11264643Y-17207738D01*
X11274167Y-17160119D01*
X11283690Y-17131548D01*
X11293214Y-17112500D01*
X11312262Y-17083929D01*
X11321786Y-17074405D01*
X11397976Y-17169643D02*
X11397976Y-17302976D01*
X11397976Y-17188690D02*
X11407500Y-17179167D01*
X11426548Y-17169643D01*
X11455119Y-17169643D01*
X11474167Y-17179167D01*
X11483690Y-17198214D01*
X11483690Y-17302976D01*
X11607500Y-17302976D02*
X11588452Y-17293452D01*
X11578928Y-17283929D01*
X11569405Y-17264881D01*
X11569405Y-17207738D01*
X11578928Y-17188690D01*
X11588452Y-17179167D01*
X11607500Y-17169643D01*
X11636071Y-17169643D01*
X11655119Y-17179167D01*
X11664643Y-17188690D01*
X11674167Y-17207738D01*
X11674167Y-17264881D01*
X11664643Y-17283929D01*
X11655119Y-17293452D01*
X11636071Y-17302976D01*
X11607500Y-17302976D01*
X11731309Y-17169643D02*
X11807500Y-17169643D01*
X11759881Y-17102976D02*
X11759881Y-17274405D01*
X11769405Y-17293452D01*
X11788452Y-17302976D01*
X11807500Y-17302976D01*
X12026548Y-17169643D02*
X12026548Y-17369643D01*
X12026548Y-17179167D02*
X12045595Y-17169643D01*
X12083690Y-17169643D01*
X12102738Y-17179167D01*
X12112262Y-17188690D01*
X12121786Y-17207738D01*
X12121786Y-17264881D01*
X12112262Y-17283929D01*
X12102738Y-17293452D01*
X12083690Y-17302976D01*
X12045595Y-17302976D01*
X12026548Y-17293452D01*
X12236071Y-17302976D02*
X12217024Y-17293452D01*
X12207500Y-17274405D01*
X12207500Y-17102976D01*
X12397976Y-17302976D02*
X12397976Y-17198214D01*
X12388452Y-17179167D01*
X12369405Y-17169643D01*
X12331309Y-17169643D01*
X12312262Y-17179167D01*
X12397976Y-17293452D02*
X12378928Y-17302976D01*
X12331309Y-17302976D01*
X12312262Y-17293452D01*
X12302738Y-17274405D01*
X12302738Y-17255357D01*
X12312262Y-17236310D01*
X12331309Y-17226786D01*
X12378928Y-17226786D01*
X12397976Y-17217262D01*
X12464643Y-17169643D02*
X12540833Y-17169643D01*
X12493214Y-17102976D02*
X12493214Y-17274405D01*
X12502738Y-17293452D01*
X12521786Y-17302976D01*
X12540833Y-17302976D01*
X12683690Y-17293452D02*
X12664643Y-17302976D01*
X12626548Y-17302976D01*
X12607500Y-17293452D01*
X12597976Y-17274405D01*
X12597976Y-17198214D01*
X12607500Y-17179167D01*
X12626548Y-17169643D01*
X12664643Y-17169643D01*
X12683690Y-17179167D01*
X12693214Y-17198214D01*
X12693214Y-17217262D01*
X12597976Y-17236310D01*
X12864643Y-17302976D02*
X12864643Y-17102976D01*
X12864643Y-17293452D02*
X12845595Y-17302976D01*
X12807500Y-17302976D01*
X12788452Y-17293452D01*
X12778928Y-17283929D01*
X12769405Y-17264881D01*
X12769405Y-17207738D01*
X12778928Y-17188690D01*
X12788452Y-17179167D01*
X12807500Y-17169643D01*
X12845595Y-17169643D01*
X12864643Y-17179167D01*
X12940833Y-17379167D02*
X12950357Y-17369643D01*
X12969405Y-17341071D01*
X12978928Y-17322024D01*
X12988452Y-17293452D01*
X12997976Y-17245833D01*
X12997976Y-17207738D01*
X12988452Y-17160119D01*
X12978928Y-17131548D01*
X12969405Y-17112500D01*
X12950357Y-17083929D01*
X12940833Y-17074405D01*
X5897500Y-17432500D02*
X5897500Y-17632500D01*
X5797500Y-17532500D02*
X5997500Y-17532500D01*
X6236071Y-17422976D02*
X6369405Y-17422976D01*
X6283690Y-17622976D01*
X6445595Y-17603929D02*
X6455119Y-17613452D01*
X6445595Y-17622976D01*
X6436071Y-17613452D01*
X6445595Y-17603929D01*
X6445595Y-17622976D01*
X6578928Y-17422976D02*
X6597976Y-17422976D01*
X6617024Y-17432500D01*
X6626548Y-17442024D01*
X6636071Y-17461071D01*
X6645595Y-17499167D01*
X6645595Y-17546786D01*
X6636071Y-17584881D01*
X6626548Y-17603929D01*
X6617024Y-17613452D01*
X6597976Y-17622976D01*
X6578928Y-17622976D01*
X6559881Y-17613452D01*
X6550357Y-17603929D01*
X6540833Y-17584881D01*
X6531309Y-17546786D01*
X6531309Y-17499167D01*
X6540833Y-17461071D01*
X6550357Y-17442024D01*
X6559881Y-17432500D01*
X6578928Y-17422976D01*
X6769405Y-17422976D02*
X6788452Y-17422976D01*
X6807500Y-17432500D01*
X6817024Y-17442024D01*
X6826548Y-17461071D01*
X6836071Y-17499167D01*
X6836071Y-17546786D01*
X6826548Y-17584881D01*
X6817024Y-17603929D01*
X6807500Y-17613452D01*
X6788452Y-17622976D01*
X6769405Y-17622976D01*
X6750357Y-17613452D01*
X6740833Y-17603929D01*
X6731309Y-17584881D01*
X6721786Y-17546786D01*
X6721786Y-17499167D01*
X6731309Y-17461071D01*
X6740833Y-17442024D01*
X6750357Y-17432500D01*
X6769405Y-17422976D01*
X6959881Y-17422976D02*
X6978928Y-17422976D01*
X6997976Y-17432500D01*
X7007500Y-17442024D01*
X7017024Y-17461071D01*
X7026548Y-17499167D01*
X7026548Y-17546786D01*
X7017024Y-17584881D01*
X7007500Y-17603929D01*
X6997976Y-17613452D01*
X6978928Y-17622976D01*
X6959881Y-17622976D01*
X6940833Y-17613452D01*
X6931309Y-17603929D01*
X6921786Y-17584881D01*
X6912262Y-17546786D01*
X6912262Y-17499167D01*
X6921786Y-17461071D01*
X6931309Y-17442024D01*
X6940833Y-17432500D01*
X6959881Y-17422976D01*
X7112262Y-17622976D02*
X7112262Y-17489643D01*
X7112262Y-17508690D02*
X7121786Y-17499167D01*
X7140833Y-17489643D01*
X7169405Y-17489643D01*
X7188452Y-17499167D01*
X7197976Y-17518214D01*
X7197976Y-17622976D01*
X7197976Y-17518214D02*
X7207500Y-17499167D01*
X7226548Y-17489643D01*
X7255119Y-17489643D01*
X7274167Y-17499167D01*
X7283690Y-17518214D01*
X7283690Y-17622976D01*
X7378928Y-17622976D02*
X7378928Y-17489643D01*
X7378928Y-17508690D02*
X7388452Y-17499167D01*
X7407500Y-17489643D01*
X7436071Y-17489643D01*
X7455119Y-17499167D01*
X7464643Y-17518214D01*
X7464643Y-17622976D01*
X7464643Y-17518214D02*
X7474167Y-17499167D01*
X7493214Y-17489643D01*
X7521786Y-17489643D01*
X7540833Y-17499167D01*
X7550357Y-17518214D01*
X7550357Y-17622976D01*
X7940833Y-17413452D02*
X7769405Y-17670595D01*
X8197976Y-17422976D02*
X8217024Y-17422976D01*
X8236071Y-17432500D01*
X8245595Y-17442024D01*
X8255119Y-17461071D01*
X8264643Y-17499167D01*
X8264643Y-17546786D01*
X8255119Y-17584881D01*
X8245595Y-17603929D01*
X8236071Y-17613452D01*
X8217024Y-17622976D01*
X8197976Y-17622976D01*
X8178928Y-17613452D01*
X8169405Y-17603929D01*
X8159881Y-17584881D01*
X8150357Y-17546786D01*
X8150357Y-17499167D01*
X8159881Y-17461071D01*
X8169405Y-17442024D01*
X8178928Y-17432500D01*
X8197976Y-17422976D01*
X8350357Y-17603929D02*
X8359881Y-17613452D01*
X8350357Y-17622976D01*
X8340833Y-17613452D01*
X8350357Y-17603929D01*
X8350357Y-17622976D01*
X8436071Y-17442024D02*
X8445595Y-17432500D01*
X8464643Y-17422976D01*
X8512262Y-17422976D01*
X8531310Y-17432500D01*
X8540833Y-17442024D01*
X8550357Y-17461071D01*
X8550357Y-17480119D01*
X8540833Y-17508690D01*
X8426548Y-17622976D01*
X8550357Y-17622976D01*
X8617024Y-17422976D02*
X8750357Y-17422976D01*
X8664643Y-17622976D01*
X8921786Y-17422976D02*
X8826548Y-17422976D01*
X8817024Y-17518214D01*
X8826548Y-17508690D01*
X8845595Y-17499167D01*
X8893214Y-17499167D01*
X8912262Y-17508690D01*
X8921786Y-17518214D01*
X8931310Y-17537262D01*
X8931310Y-17584881D01*
X8921786Y-17603929D01*
X8912262Y-17613452D01*
X8893214Y-17622976D01*
X8845595Y-17622976D01*
X8826548Y-17613452D01*
X8817024Y-17603929D01*
X9102738Y-17422976D02*
X9064643Y-17422976D01*
X9045595Y-17432500D01*
X9036071Y-17442024D01*
X9017024Y-17470595D01*
X9007500Y-17508690D01*
X9007500Y-17584881D01*
X9017024Y-17603929D01*
X9026548Y-17613452D01*
X9045595Y-17622976D01*
X9083690Y-17622976D01*
X9102738Y-17613452D01*
X9112262Y-17603929D01*
X9121786Y-17584881D01*
X9121786Y-17537262D01*
X9112262Y-17518214D01*
X9102738Y-17508690D01*
X9083690Y-17499167D01*
X9045595Y-17499167D01*
X9026548Y-17508690D01*
X9017024Y-17518214D01*
X9007500Y-17537262D01*
X9197976Y-17422976D02*
X9197976Y-17461071D01*
X9274167Y-17422976D02*
X9274167Y-17461071D01*
X9569405Y-17699167D02*
X9559881Y-17689643D01*
X9540833Y-17661071D01*
X9531310Y-17642024D01*
X9521786Y-17613452D01*
X9512262Y-17565833D01*
X9512262Y-17527738D01*
X9521786Y-17480119D01*
X9531310Y-17451548D01*
X9540833Y-17432500D01*
X9559881Y-17403929D01*
X9569405Y-17394405D01*
X9740833Y-17422976D02*
X9645595Y-17422976D01*
X9636071Y-17518214D01*
X9645595Y-17508690D01*
X9664643Y-17499167D01*
X9712262Y-17499167D01*
X9731310Y-17508690D01*
X9740833Y-17518214D01*
X9750357Y-17537262D01*
X9750357Y-17584881D01*
X9740833Y-17603929D01*
X9731310Y-17613452D01*
X9712262Y-17622976D01*
X9664643Y-17622976D01*
X9645595Y-17613452D01*
X9636071Y-17603929D01*
X9988452Y-17622976D02*
X9988452Y-17422976D01*
X10074167Y-17622976D02*
X10074167Y-17518214D01*
X10064643Y-17499167D01*
X10045595Y-17489643D01*
X10017024Y-17489643D01*
X9997976Y-17499167D01*
X9988452Y-17508690D01*
X10197976Y-17622976D02*
X10178929Y-17613452D01*
X10169405Y-17603929D01*
X10159881Y-17584881D01*
X10159881Y-17527738D01*
X10169405Y-17508690D01*
X10178929Y-17499167D01*
X10197976Y-17489643D01*
X10226548Y-17489643D01*
X10245595Y-17499167D01*
X10255119Y-17508690D01*
X10264643Y-17527738D01*
X10264643Y-17584881D01*
X10255119Y-17603929D01*
X10245595Y-17613452D01*
X10226548Y-17622976D01*
X10197976Y-17622976D01*
X10378929Y-17622976D02*
X10359881Y-17613452D01*
X10350357Y-17594405D01*
X10350357Y-17422976D01*
X10531310Y-17613452D02*
X10512262Y-17622976D01*
X10474167Y-17622976D01*
X10455119Y-17613452D01*
X10445595Y-17594405D01*
X10445595Y-17518214D01*
X10455119Y-17499167D01*
X10474167Y-17489643D01*
X10512262Y-17489643D01*
X10531310Y-17499167D01*
X10540833Y-17518214D01*
X10540833Y-17537262D01*
X10445595Y-17556310D01*
X10617024Y-17613452D02*
X10636071Y-17622976D01*
X10674167Y-17622976D01*
X10693214Y-17613452D01*
X10702738Y-17594405D01*
X10702738Y-17584881D01*
X10693214Y-17565833D01*
X10674167Y-17556310D01*
X10645595Y-17556310D01*
X10626548Y-17546786D01*
X10617024Y-17527738D01*
X10617024Y-17518214D01*
X10626548Y-17499167D01*
X10645595Y-17489643D01*
X10674167Y-17489643D01*
X10693214Y-17499167D01*
X10769405Y-17699167D02*
X10778929Y-17689643D01*
X10797976Y-17661071D01*
X10807500Y-17642024D01*
X10817024Y-17613452D01*
X10826548Y-17565833D01*
X10826548Y-17527738D01*
X10817024Y-17480119D01*
X10807500Y-17451548D01*
X10797976Y-17432500D01*
X10778929Y-17403929D01*
X10769405Y-17394405D01*
X11131310Y-17699167D02*
X11121786Y-17689643D01*
X11102738Y-17661071D01*
X11093214Y-17642024D01*
X11083690Y-17613452D01*
X11074167Y-17565833D01*
X11074167Y-17527738D01*
X11083690Y-17480119D01*
X11093214Y-17451548D01*
X11102738Y-17432500D01*
X11121786Y-17403929D01*
X11131310Y-17394405D01*
X11207500Y-17489643D02*
X11207500Y-17622976D01*
X11207500Y-17508690D02*
X11217024Y-17499167D01*
X11236071Y-17489643D01*
X11264643Y-17489643D01*
X11283690Y-17499167D01*
X11293214Y-17518214D01*
X11293214Y-17622976D01*
X11417024Y-17622976D02*
X11397976Y-17613452D01*
X11388452Y-17603929D01*
X11378928Y-17584881D01*
X11378928Y-17527738D01*
X11388452Y-17508690D01*
X11397976Y-17499167D01*
X11417024Y-17489643D01*
X11445595Y-17489643D01*
X11464643Y-17499167D01*
X11474167Y-17508690D01*
X11483690Y-17527738D01*
X11483690Y-17584881D01*
X11474167Y-17603929D01*
X11464643Y-17613452D01*
X11445595Y-17622976D01*
X11417024Y-17622976D01*
X11540833Y-17489643D02*
X11617024Y-17489643D01*
X11569405Y-17422976D02*
X11569405Y-17594405D01*
X11578928Y-17613452D01*
X11597976Y-17622976D01*
X11617024Y-17622976D01*
X11836071Y-17489643D02*
X11836071Y-17689643D01*
X11836071Y-17499167D02*
X11855119Y-17489643D01*
X11893214Y-17489643D01*
X11912262Y-17499167D01*
X11921786Y-17508690D01*
X11931309Y-17527738D01*
X11931309Y-17584881D01*
X11921786Y-17603929D01*
X11912262Y-17613452D01*
X11893214Y-17622976D01*
X11855119Y-17622976D01*
X11836071Y-17613452D01*
X12045595Y-17622976D02*
X12026548Y-17613452D01*
X12017024Y-17594405D01*
X12017024Y-17422976D01*
X12207500Y-17622976D02*
X12207500Y-17518214D01*
X12197976Y-17499167D01*
X12178928Y-17489643D01*
X12140833Y-17489643D01*
X12121786Y-17499167D01*
X12207500Y-17613452D02*
X12188452Y-17622976D01*
X12140833Y-17622976D01*
X12121786Y-17613452D01*
X12112262Y-17594405D01*
X12112262Y-17575357D01*
X12121786Y-17556310D01*
X12140833Y-17546786D01*
X12188452Y-17546786D01*
X12207500Y-17537262D01*
X12274167Y-17489643D02*
X12350357Y-17489643D01*
X12302738Y-17422976D02*
X12302738Y-17594405D01*
X12312262Y-17613452D01*
X12331309Y-17622976D01*
X12350357Y-17622976D01*
X12493214Y-17613452D02*
X12474167Y-17622976D01*
X12436071Y-17622976D01*
X12417024Y-17613452D01*
X12407500Y-17594405D01*
X12407500Y-17518214D01*
X12417024Y-17499167D01*
X12436071Y-17489643D01*
X12474167Y-17489643D01*
X12493214Y-17499167D01*
X12502738Y-17518214D01*
X12502738Y-17537262D01*
X12407500Y-17556310D01*
X12674167Y-17622976D02*
X12674167Y-17422976D01*
X12674167Y-17613452D02*
X12655119Y-17622976D01*
X12617024Y-17622976D01*
X12597976Y-17613452D01*
X12588452Y-17603929D01*
X12578928Y-17584881D01*
X12578928Y-17527738D01*
X12588452Y-17508690D01*
X12597976Y-17499167D01*
X12617024Y-17489643D01*
X12655119Y-17489643D01*
X12674167Y-17499167D01*
X12750357Y-17699167D02*
X12759881Y-17689643D01*
X12778928Y-17661071D01*
X12788452Y-17642024D01*
X12797976Y-17613452D01*
X12807500Y-17565833D01*
X12807500Y-17527738D01*
X12797976Y-17480119D01*
X12788452Y-17451548D01*
X12778928Y-17432500D01*
X12759881Y-17403929D01*
X12750357Y-17394405D01*
M02*
