G04 #@! TF.GenerationSoftware,KiCad,Pcbnew,(6.0.4)*
G04 #@! TF.CreationDate,2023-11-12T13:57:48+01:00*
G04 #@! TF.ProjectId,FrontPanel_Mixer,46726f6e-7450-4616-9e65-6c5f4d697865,rev?*
G04 #@! TF.SameCoordinates,Original*
G04 #@! TF.FileFunction,Legend,Top*
G04 #@! TF.FilePolarity,Positive*
%FSLAX46Y46*%
G04 Gerber Fmt 4.6, Leading zero omitted, Abs format (unit mm)*
G04 Created by KiCad (PCBNEW (6.0.4)) date 2023-11-12 13:57:48*
%MOMM*%
%LPD*%
G01*
G04 APERTURE LIST*
%ADD10C,0.200000*%
%ADD11C,0.120000*%
%ADD12C,0.300000*%
%ADD13C,3.200000*%
%ADD14C,6.000000*%
%ADD15C,7.000000*%
G04 APERTURE END LIST*
D10*
G36*
X87706535Y-42359400D02*
G01*
X86862339Y-42359400D01*
X86862339Y-37750000D01*
X87706535Y-37750000D01*
X87706535Y-42359400D01*
G37*
X87706535Y-42359400D02*
X86862339Y-42359400D01*
X86862339Y-37750000D01*
X87706535Y-37750000D01*
X87706535Y-42359400D01*
G36*
X99951345Y-78211653D02*
G01*
X99796475Y-78687198D01*
X96944972Y-77760803D01*
X97099136Y-77284554D01*
X99951345Y-78211653D01*
G37*
X99951345Y-78211653D02*
X99796475Y-78687198D01*
X96944972Y-77760803D01*
X97099136Y-77284554D01*
X99951345Y-78211653D01*
G36*
X105551937Y-74679995D02*
G01*
X105051699Y-74679995D01*
X105051699Y-71681031D01*
X105551937Y-71681031D01*
X105551937Y-74679995D01*
G37*
X105551937Y-74679995D02*
X105051699Y-74679995D01*
X105051699Y-71681031D01*
X105551937Y-71681031D01*
X105551937Y-74679995D01*
D11*
X68000000Y-106750000D02*
X91250000Y-106750000D01*
D10*
G36*
X113699952Y-62055778D02*
G01*
X113699952Y-62558839D01*
X110763075Y-62250158D01*
X110815287Y-61752741D01*
X113699952Y-62055778D01*
G37*
X113699952Y-62055778D02*
X113699952Y-62558839D01*
X110763075Y-62250158D01*
X110815287Y-61752741D01*
X113699952Y-62055778D01*
D11*
X68000000Y-67750000D02*
X91250000Y-67750000D01*
D10*
G36*
X103233977Y-75015698D02*
G01*
X102777130Y-75218898D01*
X101557225Y-72479579D01*
X102014425Y-72275673D01*
X103233977Y-75015698D01*
G37*
X103233977Y-75015698D02*
X102777130Y-75218898D01*
X101557225Y-72479579D01*
X102014425Y-72275673D01*
X103233977Y-75015698D01*
G36*
X103272745Y-131985358D02*
G01*
X102815898Y-132188558D01*
X101595993Y-129449239D01*
X102053193Y-129245333D01*
X103272745Y-131985358D01*
G37*
X103272745Y-131985358D02*
X102815898Y-132188558D01*
X101595993Y-129449239D01*
X102053193Y-129245333D01*
X103272745Y-131985358D01*
G36*
X100410071Y-64217459D02*
G01*
X97813627Y-65716763D01*
X97563155Y-65283200D01*
X100160305Y-63783894D01*
X100410071Y-64217459D01*
G37*
X100410071Y-64217459D02*
X97813627Y-65716763D01*
X97563155Y-65283200D01*
X100160305Y-63783894D01*
X100410071Y-64217459D01*
G36*
X105582286Y-55674310D02*
G01*
X105082048Y-55674310D01*
X105082048Y-52675346D01*
X105582286Y-52675346D01*
X105582286Y-55674310D01*
G37*
X105582286Y-55674310D02*
X105082048Y-55674310D01*
X105082048Y-52675346D01*
X105582286Y-52675346D01*
X105582286Y-55674310D01*
G36*
X111864871Y-55802439D02*
G01*
X109636374Y-57809039D01*
X109301588Y-57437211D01*
X111530437Y-55430611D01*
X111864871Y-55802439D01*
G37*
X111864871Y-55802439D02*
X109636374Y-57809039D01*
X109301588Y-57437211D01*
X111530437Y-55430611D01*
X111864871Y-55802439D01*
G36*
X111834522Y-74808124D02*
G01*
X109606025Y-76814724D01*
X109271239Y-76442896D01*
X111500088Y-74436296D01*
X111834522Y-74808124D01*
G37*
X111834522Y-74808124D02*
X109606025Y-76814724D01*
X109271239Y-76442896D01*
X111500088Y-74436296D01*
X111834522Y-74808124D01*
G36*
X100436254Y-120903387D02*
G01*
X97839810Y-122402691D01*
X97589338Y-121969128D01*
X100186488Y-120469822D01*
X100436254Y-120903387D01*
G37*
X100436254Y-120903387D02*
X97839810Y-122402691D01*
X97589338Y-121969128D01*
X100186488Y-120469822D01*
X100436254Y-120903387D01*
G36*
X90024921Y-38697514D02*
G01*
X90179432Y-38923198D01*
X90309040Y-39114453D01*
X90413710Y-39271247D01*
X90493410Y-39393545D01*
X90510696Y-39393545D01*
X90609590Y-39241685D01*
X90720025Y-39075604D01*
X90842037Y-38895367D01*
X90975656Y-38701042D01*
X91633939Y-37749953D01*
X92605137Y-37749953D01*
X91000000Y-40016903D01*
X92674282Y-42359699D01*
X91716491Y-42359699D01*
X90996471Y-41329589D01*
X90866439Y-41142727D01*
X90741501Y-40961024D01*
X90621722Y-40784481D01*
X90507169Y-40613097D01*
X90493410Y-40613097D01*
X90374937Y-40789640D01*
X90253918Y-40967903D01*
X90130319Y-41147886D01*
X90004108Y-41329589D01*
X89284088Y-42359700D01*
X88326650Y-42359700D01*
X90000932Y-40016903D01*
X88395441Y-37749953D01*
X89366993Y-37749953D01*
X90024921Y-38697514D01*
G37*
X90024921Y-38697514D02*
X90179432Y-38923198D01*
X90309040Y-39114453D01*
X90413710Y-39271247D01*
X90493410Y-39393545D01*
X90510696Y-39393545D01*
X90609590Y-39241685D01*
X90720025Y-39075604D01*
X90842037Y-38895367D01*
X90975656Y-38701042D01*
X91633939Y-37749953D01*
X92605137Y-37749953D01*
X91000000Y-40016903D01*
X92674282Y-42359699D01*
X91716491Y-42359699D01*
X90996471Y-41329589D01*
X90866439Y-41142727D01*
X90741501Y-40961024D01*
X90621722Y-40784481D01*
X90507169Y-40613097D01*
X90493410Y-40613097D01*
X90374937Y-40789640D01*
X90253918Y-40967903D01*
X90130319Y-41147886D01*
X90004108Y-41329589D01*
X89284088Y-42359700D01*
X88326650Y-42359700D01*
X90000932Y-40016903D01*
X88395441Y-37749953D01*
X89366993Y-37749953D01*
X90024921Y-38697514D01*
G36*
X105207899Y-79801249D02*
G01*
X105233269Y-79803178D01*
X105258273Y-79806356D01*
X105282878Y-79810749D01*
X105307053Y-79816328D01*
X105330767Y-79823061D01*
X105353987Y-79830916D01*
X105376683Y-79839862D01*
X105398824Y-79849869D01*
X105420376Y-79860903D01*
X105441310Y-79872936D01*
X105461593Y-79885934D01*
X105481193Y-79899866D01*
X105500080Y-79914702D01*
X105518222Y-79930410D01*
X105535588Y-79946958D01*
X105552145Y-79964316D01*
X105567862Y-79982451D01*
X105582708Y-80001333D01*
X105596651Y-80020931D01*
X105609660Y-80041212D01*
X105621703Y-80062146D01*
X105632749Y-80083701D01*
X105642766Y-80105846D01*
X105651722Y-80128550D01*
X105659587Y-80151781D01*
X105666328Y-80175508D01*
X105671914Y-80199699D01*
X105676314Y-80224324D01*
X105679496Y-80249351D01*
X105681428Y-80274749D01*
X105682079Y-80300486D01*
X105681428Y-80326223D01*
X105679496Y-80351620D01*
X105676314Y-80376647D01*
X105671914Y-80401272D01*
X105666328Y-80425463D01*
X105659587Y-80449190D01*
X105651722Y-80472421D01*
X105642766Y-80495125D01*
X105632749Y-80517270D01*
X105621703Y-80538825D01*
X105609660Y-80559759D01*
X105596651Y-80580040D01*
X105582708Y-80599637D01*
X105567862Y-80618520D01*
X105552145Y-80636655D01*
X105535588Y-80654013D01*
X105518222Y-80670561D01*
X105500080Y-80686269D01*
X105481193Y-80701104D01*
X105461593Y-80715037D01*
X105441310Y-80728035D01*
X105420376Y-80740067D01*
X105398824Y-80751102D01*
X105376683Y-80761108D01*
X105353987Y-80770055D01*
X105330767Y-80777910D01*
X105307053Y-80784642D01*
X105282878Y-80790221D01*
X105258273Y-80794615D01*
X105233269Y-80797792D01*
X105207899Y-80799721D01*
X105182193Y-80800371D01*
X105156487Y-80799721D01*
X105131117Y-80797792D01*
X105106113Y-80794615D01*
X105081508Y-80790221D01*
X105057333Y-80784642D01*
X105033619Y-80777910D01*
X105010398Y-80770055D01*
X104987702Y-80761108D01*
X104965561Y-80751102D01*
X104944009Y-80740067D01*
X104923075Y-80728035D01*
X104902792Y-80715037D01*
X104883191Y-80701104D01*
X104864304Y-80686269D01*
X104846162Y-80670561D01*
X104828797Y-80654013D01*
X104812240Y-80636655D01*
X104796523Y-80618520D01*
X104781676Y-80599637D01*
X104767733Y-80580040D01*
X104754724Y-80559759D01*
X104742681Y-80538825D01*
X104731635Y-80517270D01*
X104721618Y-80495125D01*
X104712662Y-80472421D01*
X104704797Y-80449190D01*
X104698056Y-80425463D01*
X104692470Y-80401272D01*
X104688070Y-80376647D01*
X104684889Y-80351620D01*
X104682957Y-80326223D01*
X104682306Y-80300486D01*
X104682957Y-80274749D01*
X104684889Y-80249351D01*
X104688070Y-80224324D01*
X104692470Y-80199699D01*
X104698056Y-80175508D01*
X104704797Y-80151781D01*
X104712662Y-80128550D01*
X104721618Y-80105846D01*
X104731635Y-80083701D01*
X104742681Y-80062146D01*
X104754724Y-80041212D01*
X104767733Y-80020931D01*
X104781676Y-80001333D01*
X104796523Y-79982451D01*
X104812240Y-79964316D01*
X104828797Y-79946958D01*
X104846162Y-79930410D01*
X104864304Y-79914702D01*
X104883191Y-79899866D01*
X104902792Y-79885934D01*
X104923075Y-79872936D01*
X104944009Y-79860903D01*
X104965561Y-79849869D01*
X104987702Y-79839862D01*
X105010398Y-79830916D01*
X105033619Y-79823061D01*
X105057333Y-79816328D01*
X105081508Y-79810749D01*
X105106113Y-79806356D01*
X105131117Y-79803178D01*
X105156487Y-79801249D01*
X105182193Y-79800599D01*
X105207899Y-79801249D01*
G37*
X105207899Y-79801249D02*
X105233269Y-79803178D01*
X105258273Y-79806356D01*
X105282878Y-79810749D01*
X105307053Y-79816328D01*
X105330767Y-79823061D01*
X105353987Y-79830916D01*
X105376683Y-79839862D01*
X105398824Y-79849869D01*
X105420376Y-79860903D01*
X105441310Y-79872936D01*
X105461593Y-79885934D01*
X105481193Y-79899866D01*
X105500080Y-79914702D01*
X105518222Y-79930410D01*
X105535588Y-79946958D01*
X105552145Y-79964316D01*
X105567862Y-79982451D01*
X105582708Y-80001333D01*
X105596651Y-80020931D01*
X105609660Y-80041212D01*
X105621703Y-80062146D01*
X105632749Y-80083701D01*
X105642766Y-80105846D01*
X105651722Y-80128550D01*
X105659587Y-80151781D01*
X105666328Y-80175508D01*
X105671914Y-80199699D01*
X105676314Y-80224324D01*
X105679496Y-80249351D01*
X105681428Y-80274749D01*
X105682079Y-80300486D01*
X105681428Y-80326223D01*
X105679496Y-80351620D01*
X105676314Y-80376647D01*
X105671914Y-80401272D01*
X105666328Y-80425463D01*
X105659587Y-80449190D01*
X105651722Y-80472421D01*
X105642766Y-80495125D01*
X105632749Y-80517270D01*
X105621703Y-80538825D01*
X105609660Y-80559759D01*
X105596651Y-80580040D01*
X105582708Y-80599637D01*
X105567862Y-80618520D01*
X105552145Y-80636655D01*
X105535588Y-80654013D01*
X105518222Y-80670561D01*
X105500080Y-80686269D01*
X105481193Y-80701104D01*
X105461593Y-80715037D01*
X105441310Y-80728035D01*
X105420376Y-80740067D01*
X105398824Y-80751102D01*
X105376683Y-80761108D01*
X105353987Y-80770055D01*
X105330767Y-80777910D01*
X105307053Y-80784642D01*
X105282878Y-80790221D01*
X105258273Y-80794615D01*
X105233269Y-80797792D01*
X105207899Y-80799721D01*
X105182193Y-80800371D01*
X105156487Y-80799721D01*
X105131117Y-80797792D01*
X105106113Y-80794615D01*
X105081508Y-80790221D01*
X105057333Y-80784642D01*
X105033619Y-80777910D01*
X105010398Y-80770055D01*
X104987702Y-80761108D01*
X104965561Y-80751102D01*
X104944009Y-80740067D01*
X104923075Y-80728035D01*
X104902792Y-80715037D01*
X104883191Y-80701104D01*
X104864304Y-80686269D01*
X104846162Y-80670561D01*
X104828797Y-80654013D01*
X104812240Y-80636655D01*
X104796523Y-80618520D01*
X104781676Y-80599637D01*
X104767733Y-80580040D01*
X104754724Y-80559759D01*
X104742681Y-80538825D01*
X104731635Y-80517270D01*
X104721618Y-80495125D01*
X104712662Y-80472421D01*
X104704797Y-80449190D01*
X104698056Y-80425463D01*
X104692470Y-80401272D01*
X104688070Y-80376647D01*
X104684889Y-80351620D01*
X104682957Y-80326223D01*
X104682306Y-80300486D01*
X104682957Y-80274749D01*
X104684889Y-80249351D01*
X104688070Y-80224324D01*
X104692470Y-80199699D01*
X104698056Y-80175508D01*
X104704797Y-80151781D01*
X104712662Y-80128550D01*
X104721618Y-80105846D01*
X104731635Y-80083701D01*
X104742681Y-80062146D01*
X104754724Y-80041212D01*
X104767733Y-80020931D01*
X104781676Y-80001333D01*
X104796523Y-79982451D01*
X104812240Y-79964316D01*
X104828797Y-79946958D01*
X104846162Y-79930410D01*
X104864304Y-79914702D01*
X104883191Y-79899866D01*
X104902792Y-79885934D01*
X104923075Y-79872936D01*
X104944009Y-79860903D01*
X104965561Y-79849869D01*
X104987702Y-79839862D01*
X105010398Y-79830916D01*
X105033619Y-79823061D01*
X105057333Y-79816328D01*
X105081508Y-79810749D01*
X105106113Y-79806356D01*
X105131117Y-79803178D01*
X105156487Y-79801249D01*
X105182193Y-79800599D01*
X105207899Y-79801249D01*
G36*
X99605869Y-81017048D02*
G01*
X96669700Y-81325729D01*
X96669700Y-80822314D01*
X99554010Y-80519631D01*
X99605869Y-81017048D01*
G37*
X99605869Y-81017048D02*
X96669700Y-81325729D01*
X96669700Y-80822314D01*
X99554010Y-80519631D01*
X99605869Y-81017048D01*
G36*
X105264431Y-117481492D02*
G01*
X105289801Y-117483421D01*
X105314805Y-117486599D01*
X105339410Y-117490992D01*
X105363585Y-117496571D01*
X105387299Y-117503304D01*
X105410519Y-117511159D01*
X105433215Y-117520105D01*
X105455356Y-117530112D01*
X105476908Y-117541146D01*
X105497842Y-117553179D01*
X105518125Y-117566177D01*
X105537725Y-117580109D01*
X105556612Y-117594945D01*
X105574754Y-117610653D01*
X105592120Y-117627201D01*
X105608677Y-117644559D01*
X105624394Y-117662694D01*
X105639240Y-117681576D01*
X105653183Y-117701174D01*
X105666192Y-117721455D01*
X105678235Y-117742389D01*
X105689281Y-117763944D01*
X105699298Y-117786089D01*
X105708254Y-117808793D01*
X105716119Y-117832024D01*
X105722860Y-117855751D01*
X105728446Y-117879942D01*
X105732846Y-117904567D01*
X105736028Y-117929594D01*
X105737960Y-117954992D01*
X105738611Y-117980729D01*
X105737960Y-118006466D01*
X105736028Y-118031863D01*
X105732846Y-118056890D01*
X105728446Y-118081515D01*
X105722860Y-118105706D01*
X105716119Y-118129433D01*
X105708254Y-118152664D01*
X105699298Y-118175368D01*
X105689281Y-118197513D01*
X105678235Y-118219068D01*
X105666192Y-118240002D01*
X105653183Y-118260283D01*
X105639240Y-118279880D01*
X105624394Y-118298763D01*
X105608677Y-118316898D01*
X105592120Y-118334256D01*
X105574754Y-118350804D01*
X105556612Y-118366512D01*
X105537725Y-118381347D01*
X105518125Y-118395280D01*
X105497842Y-118408278D01*
X105476908Y-118420310D01*
X105455356Y-118431345D01*
X105433215Y-118441351D01*
X105410519Y-118450298D01*
X105387299Y-118458153D01*
X105363585Y-118464885D01*
X105339410Y-118470464D01*
X105314805Y-118474858D01*
X105289801Y-118478035D01*
X105264431Y-118479964D01*
X105238725Y-118480614D01*
X105213019Y-118479964D01*
X105187649Y-118478035D01*
X105162645Y-118474858D01*
X105138040Y-118470464D01*
X105113865Y-118464885D01*
X105090151Y-118458153D01*
X105066930Y-118450298D01*
X105044234Y-118441351D01*
X105022093Y-118431345D01*
X105000541Y-118420310D01*
X104979607Y-118408278D01*
X104959324Y-118395280D01*
X104939723Y-118381347D01*
X104920836Y-118366512D01*
X104902694Y-118350804D01*
X104885329Y-118334256D01*
X104868772Y-118316898D01*
X104853055Y-118298763D01*
X104838208Y-118279880D01*
X104824265Y-118260283D01*
X104811256Y-118240002D01*
X104799213Y-118219068D01*
X104788167Y-118197513D01*
X104778150Y-118175368D01*
X104769194Y-118152664D01*
X104761329Y-118129433D01*
X104754588Y-118105706D01*
X104749002Y-118081515D01*
X104744602Y-118056890D01*
X104741421Y-118031863D01*
X104739489Y-118006466D01*
X104738838Y-117980729D01*
X104739489Y-117954992D01*
X104741421Y-117929594D01*
X104744602Y-117904567D01*
X104749002Y-117879942D01*
X104754588Y-117855751D01*
X104761329Y-117832024D01*
X104769194Y-117808793D01*
X104778150Y-117786089D01*
X104788167Y-117763944D01*
X104799213Y-117742389D01*
X104811256Y-117721455D01*
X104824265Y-117701174D01*
X104838208Y-117681576D01*
X104853055Y-117662694D01*
X104868772Y-117644559D01*
X104885329Y-117627201D01*
X104902694Y-117610653D01*
X104920836Y-117594945D01*
X104939723Y-117580109D01*
X104959324Y-117566177D01*
X104979607Y-117553179D01*
X105000541Y-117541146D01*
X105022093Y-117530112D01*
X105044234Y-117520105D01*
X105066930Y-117511159D01*
X105090151Y-117503304D01*
X105113865Y-117496571D01*
X105138040Y-117490992D01*
X105162645Y-117486599D01*
X105187649Y-117483421D01*
X105213019Y-117481492D01*
X105238725Y-117480842D01*
X105264431Y-117481492D01*
G37*
X105264431Y-117481492D02*
X105289801Y-117483421D01*
X105314805Y-117486599D01*
X105339410Y-117490992D01*
X105363585Y-117496571D01*
X105387299Y-117503304D01*
X105410519Y-117511159D01*
X105433215Y-117520105D01*
X105455356Y-117530112D01*
X105476908Y-117541146D01*
X105497842Y-117553179D01*
X105518125Y-117566177D01*
X105537725Y-117580109D01*
X105556612Y-117594945D01*
X105574754Y-117610653D01*
X105592120Y-117627201D01*
X105608677Y-117644559D01*
X105624394Y-117662694D01*
X105639240Y-117681576D01*
X105653183Y-117701174D01*
X105666192Y-117721455D01*
X105678235Y-117742389D01*
X105689281Y-117763944D01*
X105699298Y-117786089D01*
X105708254Y-117808793D01*
X105716119Y-117832024D01*
X105722860Y-117855751D01*
X105728446Y-117879942D01*
X105732846Y-117904567D01*
X105736028Y-117929594D01*
X105737960Y-117954992D01*
X105738611Y-117980729D01*
X105737960Y-118006466D01*
X105736028Y-118031863D01*
X105732846Y-118056890D01*
X105728446Y-118081515D01*
X105722860Y-118105706D01*
X105716119Y-118129433D01*
X105708254Y-118152664D01*
X105699298Y-118175368D01*
X105689281Y-118197513D01*
X105678235Y-118219068D01*
X105666192Y-118240002D01*
X105653183Y-118260283D01*
X105639240Y-118279880D01*
X105624394Y-118298763D01*
X105608677Y-118316898D01*
X105592120Y-118334256D01*
X105574754Y-118350804D01*
X105556612Y-118366512D01*
X105537725Y-118381347D01*
X105518125Y-118395280D01*
X105497842Y-118408278D01*
X105476908Y-118420310D01*
X105455356Y-118431345D01*
X105433215Y-118441351D01*
X105410519Y-118450298D01*
X105387299Y-118458153D01*
X105363585Y-118464885D01*
X105339410Y-118470464D01*
X105314805Y-118474858D01*
X105289801Y-118478035D01*
X105264431Y-118479964D01*
X105238725Y-118480614D01*
X105213019Y-118479964D01*
X105187649Y-118478035D01*
X105162645Y-118474858D01*
X105138040Y-118470464D01*
X105113865Y-118464885D01*
X105090151Y-118458153D01*
X105066930Y-118450298D01*
X105044234Y-118441351D01*
X105022093Y-118431345D01*
X105000541Y-118420310D01*
X104979607Y-118408278D01*
X104959324Y-118395280D01*
X104939723Y-118381347D01*
X104920836Y-118366512D01*
X104902694Y-118350804D01*
X104885329Y-118334256D01*
X104868772Y-118316898D01*
X104853055Y-118298763D01*
X104838208Y-118279880D01*
X104824265Y-118260283D01*
X104811256Y-118240002D01*
X104799213Y-118219068D01*
X104788167Y-118197513D01*
X104778150Y-118175368D01*
X104769194Y-118152664D01*
X104761329Y-118129433D01*
X104754588Y-118105706D01*
X104749002Y-118081515D01*
X104744602Y-118056890D01*
X104741421Y-118031863D01*
X104739489Y-118006466D01*
X104738838Y-117980729D01*
X104739489Y-117954992D01*
X104741421Y-117929594D01*
X104744602Y-117904567D01*
X104749002Y-117879942D01*
X104754588Y-117855751D01*
X104761329Y-117832024D01*
X104769194Y-117808793D01*
X104778150Y-117786089D01*
X104788167Y-117763944D01*
X104799213Y-117742389D01*
X104811256Y-117721455D01*
X104824265Y-117701174D01*
X104838208Y-117681576D01*
X104853055Y-117662694D01*
X104868772Y-117644559D01*
X104885329Y-117627201D01*
X104902694Y-117610653D01*
X104920836Y-117594945D01*
X104939723Y-117580109D01*
X104959324Y-117566177D01*
X104979607Y-117553179D01*
X105000541Y-117541146D01*
X105022093Y-117530112D01*
X105044234Y-117520105D01*
X105066930Y-117511159D01*
X105090151Y-117503304D01*
X105113865Y-117496571D01*
X105138040Y-117490992D01*
X105162645Y-117486599D01*
X105187649Y-117483421D01*
X105213019Y-117481492D01*
X105238725Y-117480842D01*
X105264431Y-117481492D01*
G36*
X113726135Y-118741706D02*
G01*
X113726135Y-119244767D01*
X110789258Y-118936086D01*
X110841470Y-118438669D01*
X113726135Y-118741706D01*
G37*
X113726135Y-118741706D02*
X113726135Y-119244767D01*
X110789258Y-118936086D01*
X110841470Y-118438669D01*
X113726135Y-118741706D01*
D11*
X91000000Y-144250000D02*
X90750000Y-129750000D01*
D10*
G36*
X100379722Y-83223144D02*
G01*
X97783278Y-84722448D01*
X97532806Y-84288885D01*
X100129956Y-82789579D01*
X100379722Y-83223144D01*
G37*
X100379722Y-83223144D02*
X97783278Y-84722448D01*
X97532806Y-84288885D01*
X100129956Y-82789579D01*
X100379722Y-83223144D01*
G36*
X99605789Y-99930779D02*
G01*
X96669620Y-100239460D01*
X96669620Y-99736045D01*
X99553930Y-99433362D01*
X99605789Y-99930779D01*
G37*
X99605789Y-99930779D02*
X96669620Y-100239460D01*
X96669620Y-99736045D01*
X99553930Y-99433362D01*
X99605789Y-99930779D01*
G36*
X112767883Y-122177373D02*
G01*
X112517764Y-122610583D01*
X109920615Y-121110925D01*
X110170733Y-120677714D01*
X112767883Y-122177373D01*
G37*
X112767883Y-122177373D02*
X112517764Y-122610583D01*
X109920615Y-121110925D01*
X110170733Y-120677714D01*
X112767883Y-122177373D01*
G36*
X100261333Y-38100473D02*
G01*
X99544491Y-38100473D01*
X99544491Y-42372612D01*
X99132797Y-42372612D01*
X99132797Y-38100473D01*
X98409603Y-38100473D01*
X98409603Y-37736054D01*
X100261333Y-37736054D01*
X100261333Y-38100473D01*
G37*
X100261333Y-38100473D02*
X99544491Y-38100473D01*
X99544491Y-42372612D01*
X99132797Y-42372612D01*
X99132797Y-38100473D01*
X98409603Y-38100473D01*
X98409603Y-37736054D01*
X100261333Y-37736054D01*
X100261333Y-38100473D01*
G36*
X99951265Y-97125384D02*
G01*
X99796395Y-97600929D01*
X96944892Y-96674534D01*
X97099056Y-96198285D01*
X99951265Y-97125384D01*
G37*
X99951265Y-97125384D02*
X99796395Y-97600929D01*
X96944892Y-96674534D01*
X97099056Y-96198285D01*
X99951265Y-97125384D01*
G36*
X100379642Y-102136875D02*
G01*
X97783198Y-103636179D01*
X97532726Y-103202616D01*
X100129876Y-101703310D01*
X100379642Y-102136875D01*
G37*
X100379642Y-102136875D02*
X97783198Y-103636179D01*
X97532726Y-103202616D01*
X100129876Y-101703310D01*
X100379642Y-102136875D01*
D11*
X67750000Y-129250000D02*
X68000000Y-144500000D01*
D10*
G36*
X113523844Y-58983118D02*
G01*
X110671635Y-59909865D01*
X110517119Y-59433968D01*
X113369326Y-58507221D01*
X113523844Y-58983118D01*
G37*
X113523844Y-58983118D02*
X110671635Y-59909865D01*
X110517119Y-59433968D01*
X113369326Y-58507221D01*
X113523844Y-58983118D01*
G36*
X100007877Y-115891896D02*
G01*
X99853007Y-116367441D01*
X97001504Y-115441046D01*
X97155668Y-114964797D01*
X100007877Y-115891896D01*
G37*
X100007877Y-115891896D02*
X99853007Y-116367441D01*
X97001504Y-115441046D01*
X97155668Y-114964797D01*
X100007877Y-115891896D01*
D11*
X67875000Y-111000000D02*
X68125000Y-125250000D01*
X91250000Y-86750000D02*
X91500000Y-73000000D01*
D10*
G36*
X113532263Y-134958463D02*
G01*
X110680054Y-135885210D01*
X110525538Y-135409313D01*
X113377745Y-134482566D01*
X113532263Y-134958463D01*
G37*
X113532263Y-134958463D02*
X110680054Y-135885210D01*
X110525538Y-135409313D01*
X113377745Y-134482566D01*
X113532263Y-134958463D01*
D11*
X68000000Y-87250000D02*
X91250000Y-86750000D01*
D10*
G36*
X99644637Y-137986708D02*
G01*
X96708468Y-138295389D01*
X96708468Y-137791974D01*
X99592778Y-137489291D01*
X99644637Y-137986708D01*
G37*
X99644637Y-137986708D02*
X96708468Y-138295389D01*
X96708468Y-137791974D01*
X99592778Y-137489291D01*
X99644637Y-137986708D01*
G36*
X109082061Y-110257048D02*
G01*
X107862508Y-112996720D01*
X107405308Y-112793520D01*
X108625214Y-110053495D01*
X109082061Y-110257048D01*
G37*
X109082061Y-110257048D02*
X107862508Y-112996720D01*
X107405308Y-112793520D01*
X108625214Y-110053495D01*
X109082061Y-110257048D01*
G36*
X109055878Y-53571120D02*
G01*
X107836325Y-56310792D01*
X107379125Y-56107592D01*
X108599031Y-53367567D01*
X109055878Y-53571120D01*
G37*
X109055878Y-53571120D02*
X107836325Y-56310792D01*
X107379125Y-56107592D01*
X108599031Y-53367567D01*
X109055878Y-53571120D01*
G36*
X101291827Y-133234544D02*
G01*
X100957041Y-133606019D01*
X98728544Y-131599419D01*
X99063330Y-131227592D01*
X101291827Y-133234544D01*
G37*
X101291827Y-133234544D02*
X100957041Y-133606019D01*
X98728544Y-131599419D01*
X99063330Y-131227592D01*
X101291827Y-133234544D01*
G36*
X113493415Y-96902534D02*
G01*
X110641206Y-97829281D01*
X110486690Y-97353384D01*
X113338897Y-96426637D01*
X113493415Y-96902534D01*
G37*
X113493415Y-96902534D02*
X110641206Y-97829281D01*
X110486690Y-97353384D01*
X113338897Y-96426637D01*
X113493415Y-96902534D01*
D11*
X91375000Y-111000000D02*
X67875000Y-111000000D01*
D10*
G36*
X109025529Y-72576805D02*
G01*
X107805976Y-75316477D01*
X107348776Y-75113277D01*
X108568682Y-72373252D01*
X109025529Y-72576805D01*
G37*
X109025529Y-72576805D02*
X107805976Y-75316477D01*
X107348776Y-75113277D01*
X108568682Y-72373252D01*
X109025529Y-72576805D01*
G36*
X103290509Y-112695941D02*
G01*
X102833662Y-112899141D01*
X101613757Y-110159822D01*
X102070957Y-109955916D01*
X103290509Y-112695941D01*
G37*
X103290509Y-112695941D02*
X102833662Y-112899141D01*
X101613757Y-110159822D01*
X102070957Y-109955916D01*
X103290509Y-112695941D01*
G36*
X101283408Y-57259199D02*
G01*
X100948622Y-57630674D01*
X98720125Y-55624074D01*
X99054911Y-55252247D01*
X101283408Y-57259199D01*
G37*
X101283408Y-57259199D02*
X100948622Y-57630674D01*
X98720125Y-55624074D01*
X99054911Y-55252247D01*
X101283408Y-57259199D01*
G36*
X111873290Y-131777784D02*
G01*
X109644793Y-133784384D01*
X109310007Y-133412556D01*
X111538856Y-131405956D01*
X111873290Y-131777784D01*
G37*
X111873290Y-131777784D02*
X109644793Y-133784384D01*
X109310007Y-133412556D01*
X111538856Y-131405956D01*
X111873290Y-131777784D01*
G36*
X100418490Y-140192804D02*
G01*
X97822046Y-141692108D01*
X97571574Y-141258545D01*
X100168724Y-139759239D01*
X100418490Y-140192804D01*
G37*
X100418490Y-140192804D02*
X97822046Y-141692108D01*
X97571574Y-141258545D01*
X100168724Y-139759239D01*
X100418490Y-140192804D01*
G36*
X112750119Y-141466790D02*
G01*
X112500000Y-141900000D01*
X109902851Y-140400342D01*
X110152969Y-139967131D01*
X112750119Y-141466790D01*
G37*
X112750119Y-141466790D02*
X112500000Y-141900000D01*
X109902851Y-140400342D01*
X110152969Y-139967131D01*
X112750119Y-141466790D01*
D11*
X68000000Y-144500000D02*
X91000000Y-144250000D01*
X91250000Y-67750000D02*
X91250000Y-54750000D01*
X91250000Y-54750000D02*
X68000000Y-54000000D01*
D10*
G36*
X83007291Y-39944584D02*
G01*
X83056800Y-40082810D01*
X83105578Y-40223642D01*
X83200921Y-40513085D01*
X83293288Y-40812847D01*
X83382644Y-41122861D01*
X83403459Y-41122861D01*
X83483838Y-40845699D01*
X83573146Y-40558681D01*
X83671449Y-40261741D01*
X83778814Y-39954814D01*
X84574682Y-37749953D01*
X85760015Y-37749953D01*
X85760015Y-42359699D01*
X84915819Y-42359699D01*
X84915819Y-40023958D01*
X84918398Y-39756988D01*
X84926136Y-39469348D01*
X84939034Y-39161003D01*
X84957092Y-38831923D01*
X84926048Y-38831923D01*
X84895621Y-38933070D01*
X84862549Y-39040238D01*
X84826829Y-39153490D01*
X84788463Y-39272895D01*
X84748374Y-39394730D01*
X84707458Y-39515738D01*
X84665682Y-39635886D01*
X84623012Y-39755142D01*
X83668749Y-42359699D01*
X83124412Y-42359699D01*
X82170149Y-39755142D01*
X82127478Y-39635886D01*
X82085702Y-39515738D01*
X82044786Y-39394730D01*
X82004696Y-39272895D01*
X81966331Y-39153490D01*
X81930613Y-39040238D01*
X81897540Y-38933070D01*
X81867113Y-38831923D01*
X81836069Y-38831923D01*
X81854126Y-39145123D01*
X81867025Y-39447608D01*
X81874764Y-39739377D01*
X81877344Y-40020431D01*
X81877344Y-42359699D01*
X81033146Y-42359699D01*
X81033146Y-37749953D01*
X82211424Y-37749953D01*
X83007291Y-39944584D01*
G37*
X83007291Y-39944584D02*
X83056800Y-40082810D01*
X83105578Y-40223642D01*
X83200921Y-40513085D01*
X83293288Y-40812847D01*
X83382644Y-41122861D01*
X83403459Y-41122861D01*
X83483838Y-40845699D01*
X83573146Y-40558681D01*
X83671449Y-40261741D01*
X83778814Y-39954814D01*
X84574682Y-37749953D01*
X85760015Y-37749953D01*
X85760015Y-42359699D01*
X84915819Y-42359699D01*
X84915819Y-40023958D01*
X84918398Y-39756988D01*
X84926136Y-39469348D01*
X84939034Y-39161003D01*
X84957092Y-38831923D01*
X84926048Y-38831923D01*
X84895621Y-38933070D01*
X84862549Y-39040238D01*
X84826829Y-39153490D01*
X84788463Y-39272895D01*
X84748374Y-39394730D01*
X84707458Y-39515738D01*
X84665682Y-39635886D01*
X84623012Y-39755142D01*
X83668749Y-42359699D01*
X83124412Y-42359699D01*
X82170149Y-39755142D01*
X82127478Y-39635886D01*
X82085702Y-39515738D01*
X82044786Y-39394730D01*
X82004696Y-39272895D01*
X81966331Y-39153490D01*
X81930613Y-39040238D01*
X81897540Y-38933070D01*
X81867113Y-38831923D01*
X81836069Y-38831923D01*
X81854126Y-39145123D01*
X81867025Y-39447608D01*
X81874764Y-39739377D01*
X81877344Y-40020431D01*
X81877344Y-42359699D01*
X81033146Y-42359699D01*
X81033146Y-37749953D01*
X82211424Y-37749953D01*
X83007291Y-39944584D01*
G36*
X109025449Y-91490536D02*
G01*
X107805896Y-94230208D01*
X107348696Y-94027008D01*
X108568602Y-91286983D01*
X109025449Y-91490536D01*
G37*
X109025449Y-91490536D02*
X107805896Y-94230208D01*
X107348696Y-94027008D01*
X108568602Y-91286983D01*
X109025449Y-91490536D01*
G36*
X99662401Y-118697291D02*
G01*
X96726232Y-119005972D01*
X96726232Y-118502557D01*
X99610542Y-118199874D01*
X99662401Y-118697291D01*
G37*
X99662401Y-118697291D02*
X96726232Y-119005972D01*
X96726232Y-118502557D01*
X99610542Y-118199874D01*
X99662401Y-118697291D01*
G36*
X105551857Y-93593726D02*
G01*
X105051619Y-93593726D01*
X105051619Y-90594762D01*
X105551857Y-90594762D01*
X105551857Y-93593726D01*
G37*
X105551857Y-93593726D02*
X105051619Y-93593726D01*
X105051619Y-90594762D01*
X105551857Y-90594762D01*
X105551857Y-93593726D01*
D11*
X91250000Y-91750000D02*
X68000000Y-92000000D01*
D10*
G36*
X112711351Y-84497130D02*
G01*
X112461232Y-84930340D01*
X109864083Y-83430682D01*
X110114201Y-82997471D01*
X112711351Y-84497130D01*
G37*
X112711351Y-84497130D02*
X112461232Y-84930340D01*
X109864083Y-83430682D01*
X110114201Y-82997471D01*
X112711351Y-84497130D01*
G36*
X105246667Y-136770909D02*
G01*
X105272037Y-136772838D01*
X105297041Y-136776016D01*
X105321646Y-136780409D01*
X105345821Y-136785988D01*
X105369535Y-136792721D01*
X105392755Y-136800576D01*
X105415451Y-136809522D01*
X105437592Y-136819529D01*
X105459144Y-136830563D01*
X105480078Y-136842596D01*
X105500361Y-136855594D01*
X105519961Y-136869526D01*
X105538848Y-136884362D01*
X105556990Y-136900070D01*
X105574356Y-136916618D01*
X105590913Y-136933976D01*
X105606630Y-136952111D01*
X105621476Y-136970993D01*
X105635419Y-136990591D01*
X105648428Y-137010872D01*
X105660471Y-137031806D01*
X105671517Y-137053361D01*
X105681534Y-137075506D01*
X105690490Y-137098210D01*
X105698355Y-137121441D01*
X105705096Y-137145168D01*
X105710682Y-137169359D01*
X105715082Y-137193984D01*
X105718264Y-137219011D01*
X105720196Y-137244409D01*
X105720847Y-137270146D01*
X105720196Y-137295883D01*
X105718264Y-137321280D01*
X105715082Y-137346307D01*
X105710682Y-137370932D01*
X105705096Y-137395123D01*
X105698355Y-137418850D01*
X105690490Y-137442081D01*
X105681534Y-137464785D01*
X105671517Y-137486930D01*
X105660471Y-137508485D01*
X105648428Y-137529419D01*
X105635419Y-137549700D01*
X105621476Y-137569297D01*
X105606630Y-137588180D01*
X105590913Y-137606315D01*
X105574356Y-137623673D01*
X105556990Y-137640221D01*
X105538848Y-137655929D01*
X105519961Y-137670764D01*
X105500361Y-137684697D01*
X105480078Y-137697695D01*
X105459144Y-137709727D01*
X105437592Y-137720762D01*
X105415451Y-137730768D01*
X105392755Y-137739715D01*
X105369535Y-137747570D01*
X105345821Y-137754302D01*
X105321646Y-137759881D01*
X105297041Y-137764275D01*
X105272037Y-137767452D01*
X105246667Y-137769381D01*
X105220961Y-137770031D01*
X105195255Y-137769381D01*
X105169885Y-137767452D01*
X105144881Y-137764275D01*
X105120276Y-137759881D01*
X105096101Y-137754302D01*
X105072387Y-137747570D01*
X105049166Y-137739715D01*
X105026470Y-137730768D01*
X105004329Y-137720762D01*
X104982777Y-137709727D01*
X104961843Y-137697695D01*
X104941560Y-137684697D01*
X104921959Y-137670764D01*
X104903072Y-137655929D01*
X104884930Y-137640221D01*
X104867565Y-137623673D01*
X104851008Y-137606315D01*
X104835291Y-137588180D01*
X104820444Y-137569297D01*
X104806501Y-137549700D01*
X104793492Y-137529419D01*
X104781449Y-137508485D01*
X104770403Y-137486930D01*
X104760386Y-137464785D01*
X104751430Y-137442081D01*
X104743565Y-137418850D01*
X104736824Y-137395123D01*
X104731238Y-137370932D01*
X104726838Y-137346307D01*
X104723657Y-137321280D01*
X104721725Y-137295883D01*
X104721074Y-137270146D01*
X104721725Y-137244409D01*
X104723657Y-137219011D01*
X104726838Y-137193984D01*
X104731238Y-137169359D01*
X104736824Y-137145168D01*
X104743565Y-137121441D01*
X104751430Y-137098210D01*
X104760386Y-137075506D01*
X104770403Y-137053361D01*
X104781449Y-137031806D01*
X104793492Y-137010872D01*
X104806501Y-136990591D01*
X104820444Y-136970993D01*
X104835291Y-136952111D01*
X104851008Y-136933976D01*
X104867565Y-136916618D01*
X104884930Y-136900070D01*
X104903072Y-136884362D01*
X104921959Y-136869526D01*
X104941560Y-136855594D01*
X104961843Y-136842596D01*
X104982777Y-136830563D01*
X105004329Y-136819529D01*
X105026470Y-136809522D01*
X105049166Y-136800576D01*
X105072387Y-136792721D01*
X105096101Y-136785988D01*
X105120276Y-136780409D01*
X105144881Y-136776016D01*
X105169885Y-136772838D01*
X105195255Y-136770909D01*
X105220961Y-136770259D01*
X105246667Y-136770909D01*
G37*
X105246667Y-136770909D02*
X105272037Y-136772838D01*
X105297041Y-136776016D01*
X105321646Y-136780409D01*
X105345821Y-136785988D01*
X105369535Y-136792721D01*
X105392755Y-136800576D01*
X105415451Y-136809522D01*
X105437592Y-136819529D01*
X105459144Y-136830563D01*
X105480078Y-136842596D01*
X105500361Y-136855594D01*
X105519961Y-136869526D01*
X105538848Y-136884362D01*
X105556990Y-136900070D01*
X105574356Y-136916618D01*
X105590913Y-136933976D01*
X105606630Y-136952111D01*
X105621476Y-136970993D01*
X105635419Y-136990591D01*
X105648428Y-137010872D01*
X105660471Y-137031806D01*
X105671517Y-137053361D01*
X105681534Y-137075506D01*
X105690490Y-137098210D01*
X105698355Y-137121441D01*
X105705096Y-137145168D01*
X105710682Y-137169359D01*
X105715082Y-137193984D01*
X105718264Y-137219011D01*
X105720196Y-137244409D01*
X105720847Y-137270146D01*
X105720196Y-137295883D01*
X105718264Y-137321280D01*
X105715082Y-137346307D01*
X105710682Y-137370932D01*
X105705096Y-137395123D01*
X105698355Y-137418850D01*
X105690490Y-137442081D01*
X105681534Y-137464785D01*
X105671517Y-137486930D01*
X105660471Y-137508485D01*
X105648428Y-137529419D01*
X105635419Y-137549700D01*
X105621476Y-137569297D01*
X105606630Y-137588180D01*
X105590913Y-137606315D01*
X105574356Y-137623673D01*
X105556990Y-137640221D01*
X105538848Y-137655929D01*
X105519961Y-137670764D01*
X105500361Y-137684697D01*
X105480078Y-137697695D01*
X105459144Y-137709727D01*
X105437592Y-137720762D01*
X105415451Y-137730768D01*
X105392755Y-137739715D01*
X105369535Y-137747570D01*
X105345821Y-137754302D01*
X105321646Y-137759881D01*
X105297041Y-137764275D01*
X105272037Y-137767452D01*
X105246667Y-137769381D01*
X105220961Y-137770031D01*
X105195255Y-137769381D01*
X105169885Y-137767452D01*
X105144881Y-137764275D01*
X105120276Y-137759881D01*
X105096101Y-137754302D01*
X105072387Y-137747570D01*
X105049166Y-137739715D01*
X105026470Y-137730768D01*
X105004329Y-137720762D01*
X104982777Y-137709727D01*
X104961843Y-137697695D01*
X104941560Y-137684697D01*
X104921959Y-137670764D01*
X104903072Y-137655929D01*
X104884930Y-137640221D01*
X104867565Y-137623673D01*
X104851008Y-137606315D01*
X104835291Y-137588180D01*
X104820444Y-137569297D01*
X104806501Y-137549700D01*
X104793492Y-137529419D01*
X104781449Y-137508485D01*
X104770403Y-137486930D01*
X104760386Y-137464785D01*
X104751430Y-137442081D01*
X104743565Y-137418850D01*
X104736824Y-137395123D01*
X104731238Y-137370932D01*
X104726838Y-137346307D01*
X104723657Y-137321280D01*
X104721725Y-137295883D01*
X104721074Y-137270146D01*
X104721725Y-137244409D01*
X104723657Y-137219011D01*
X104726838Y-137193984D01*
X104731238Y-137169359D01*
X104736824Y-137145168D01*
X104743565Y-137121441D01*
X104751430Y-137098210D01*
X104760386Y-137075506D01*
X104770403Y-137053361D01*
X104781449Y-137031806D01*
X104793492Y-137010872D01*
X104806501Y-136990591D01*
X104820444Y-136970993D01*
X104835291Y-136952111D01*
X104851008Y-136933976D01*
X104867565Y-136916618D01*
X104884930Y-136900070D01*
X104903072Y-136884362D01*
X104921959Y-136869526D01*
X104941560Y-136855594D01*
X104961843Y-136842596D01*
X104982777Y-136830563D01*
X105004329Y-136819529D01*
X105026470Y-136809522D01*
X105049166Y-136800576D01*
X105072387Y-136792721D01*
X105096101Y-136785988D01*
X105120276Y-136780409D01*
X105144881Y-136776016D01*
X105169885Y-136772838D01*
X105195255Y-136770909D01*
X105220961Y-136770259D01*
X105246667Y-136770909D01*
G36*
X111891054Y-112488367D02*
G01*
X109662557Y-114494967D01*
X109327771Y-114123139D01*
X111556620Y-112116539D01*
X111891054Y-112488367D01*
G37*
X111891054Y-112488367D02*
X109662557Y-114494967D01*
X109327771Y-114123139D01*
X111556620Y-112116539D01*
X111891054Y-112488367D01*
G36*
X99981694Y-59205968D02*
G01*
X99826824Y-59681513D01*
X96975321Y-58755118D01*
X97129485Y-58278869D01*
X99981694Y-59205968D01*
G37*
X99981694Y-59205968D02*
X99826824Y-59681513D01*
X96975321Y-58755118D01*
X97129485Y-58278869D01*
X99981694Y-59205968D01*
G36*
X101252979Y-95178615D02*
G01*
X100918193Y-95550090D01*
X98689696Y-93543490D01*
X99024482Y-93171663D01*
X101252979Y-95178615D01*
G37*
X101252979Y-95178615D02*
X100918193Y-95550090D01*
X98689696Y-93543490D01*
X99024482Y-93171663D01*
X101252979Y-95178615D01*
D11*
X68000000Y-54000000D02*
X68000000Y-67750000D01*
X68125000Y-125250000D02*
X91125000Y-125500000D01*
D10*
G36*
X112711271Y-103410861D02*
G01*
X112461152Y-103844071D01*
X109864003Y-102344413D01*
X110114121Y-101911202D01*
X112711271Y-103410861D01*
G37*
X112711271Y-103410861D02*
X112461152Y-103844071D01*
X109864003Y-102344413D01*
X110114121Y-101911202D01*
X112711271Y-103410861D01*
D11*
X68000000Y-92000000D02*
X68000000Y-106750000D01*
D10*
G36*
X113550027Y-115669046D02*
G01*
X110697818Y-116595793D01*
X110543302Y-116119896D01*
X113395509Y-115193149D01*
X113550027Y-115669046D01*
G37*
X113550027Y-115669046D02*
X110697818Y-116595793D01*
X110543302Y-116119896D01*
X113395509Y-115193149D01*
X113550027Y-115669046D01*
G36*
X95965775Y-38046817D02*
G01*
X95966854Y-38029357D01*
X95968650Y-38012298D01*
X95971164Y-37995642D01*
X95974396Y-37979392D01*
X95978344Y-37963549D01*
X95983009Y-37948115D01*
X95988389Y-37933093D01*
X95994485Y-37918484D01*
X96001295Y-37904290D01*
X96008819Y-37890514D01*
X96017057Y-37877158D01*
X96026009Y-37864222D01*
X96035672Y-37851711D01*
X96046049Y-37839625D01*
X96057136Y-37827966D01*
X96068794Y-37816816D01*
X96080881Y-37806385D01*
X96093394Y-37796673D01*
X96106333Y-37787681D01*
X96119695Y-37779409D01*
X96133480Y-37771856D01*
X96147685Y-37765023D01*
X96162309Y-37758909D01*
X96177351Y-37753514D01*
X96192809Y-37748839D01*
X96208681Y-37744883D01*
X96224966Y-37741647D01*
X96241663Y-37739130D01*
X96258769Y-37737332D01*
X96276283Y-37736253D01*
X96294204Y-37735893D01*
X97591720Y-37735893D01*
X97609646Y-37736253D01*
X97627174Y-37737332D01*
X97644304Y-37739131D01*
X97661035Y-37741649D01*
X97677368Y-37744887D01*
X97693301Y-37748843D01*
X97708834Y-37753519D01*
X97723967Y-37758915D01*
X97738699Y-37765029D01*
X97753029Y-37771863D01*
X97766958Y-37779416D01*
X97780483Y-37787688D01*
X97793606Y-37796679D01*
X97806325Y-37806389D01*
X97818640Y-37816818D01*
X97830551Y-37827966D01*
X97841829Y-37839625D01*
X97852379Y-37851711D01*
X97862202Y-37864223D01*
X97871297Y-37877159D01*
X97879664Y-37890516D01*
X97887304Y-37904292D01*
X97894217Y-37918486D01*
X97900402Y-37933096D01*
X97905859Y-37948118D01*
X97910589Y-37963552D01*
X97914591Y-37979395D01*
X97917865Y-37995646D01*
X97920412Y-38012301D01*
X97922231Y-38029359D01*
X97923323Y-38046819D01*
X97923687Y-38064677D01*
X97923687Y-42044012D01*
X97923323Y-42061928D01*
X97922231Y-42079430D01*
X97920412Y-42096519D01*
X97917865Y-42113195D01*
X97914591Y-42129458D01*
X97910589Y-42145308D01*
X97905859Y-42160745D01*
X97900402Y-42175768D01*
X97894217Y-42190378D01*
X97887304Y-42204575D01*
X97879664Y-42218358D01*
X97871297Y-42231729D01*
X97862202Y-42244686D01*
X97852379Y-42257230D01*
X97841829Y-42269360D01*
X97830551Y-42281078D01*
X97818640Y-42292165D01*
X97806325Y-42302540D01*
X97793606Y-42312204D01*
X97780483Y-42321155D01*
X97766958Y-42329394D01*
X97753029Y-42336919D01*
X97738699Y-42343729D01*
X97723967Y-42349825D01*
X97708834Y-42355207D01*
X97693301Y-42359872D01*
X97677368Y-42363821D01*
X97661035Y-42367053D01*
X97644304Y-42369568D01*
X97627174Y-42371365D01*
X97609646Y-42372444D01*
X97591720Y-42372803D01*
X96294204Y-42372803D01*
X96276283Y-42372444D01*
X96258768Y-42371365D01*
X96241661Y-42369568D01*
X96224965Y-42367053D01*
X96208680Y-42363821D01*
X96192807Y-42359872D01*
X96177350Y-42355207D01*
X96162308Y-42349825D01*
X96147684Y-42343729D01*
X96133479Y-42336919D01*
X96119694Y-42329394D01*
X96106332Y-42321155D01*
X96093394Y-42312204D01*
X96080881Y-42302540D01*
X96068794Y-42292165D01*
X96057136Y-42281078D01*
X96046049Y-42269360D01*
X96035672Y-42257230D01*
X96026009Y-42244686D01*
X96017057Y-42231729D01*
X96008819Y-42218358D01*
X96001295Y-42204575D01*
X95994485Y-42190378D01*
X95988389Y-42175768D01*
X95983009Y-42160745D01*
X95978344Y-42145308D01*
X95974396Y-42129458D01*
X95971164Y-42113195D01*
X95968650Y-42096519D01*
X95966854Y-42079430D01*
X95965775Y-42061928D01*
X95965416Y-42044012D01*
X95965416Y-42008372D01*
X96376751Y-42008372D01*
X97511638Y-42008372D01*
X97511638Y-38100657D01*
X96376751Y-38100657D01*
X96376751Y-42008372D01*
X95965416Y-42008372D01*
X95965416Y-38064677D01*
X95965775Y-38046817D01*
G37*
X95965775Y-38046817D02*
X95966854Y-38029357D01*
X95968650Y-38012298D01*
X95971164Y-37995642D01*
X95974396Y-37979392D01*
X95978344Y-37963549D01*
X95983009Y-37948115D01*
X95988389Y-37933093D01*
X95994485Y-37918484D01*
X96001295Y-37904290D01*
X96008819Y-37890514D01*
X96017057Y-37877158D01*
X96026009Y-37864222D01*
X96035672Y-37851711D01*
X96046049Y-37839625D01*
X96057136Y-37827966D01*
X96068794Y-37816816D01*
X96080881Y-37806385D01*
X96093394Y-37796673D01*
X96106333Y-37787681D01*
X96119695Y-37779409D01*
X96133480Y-37771856D01*
X96147685Y-37765023D01*
X96162309Y-37758909D01*
X96177351Y-37753514D01*
X96192809Y-37748839D01*
X96208681Y-37744883D01*
X96224966Y-37741647D01*
X96241663Y-37739130D01*
X96258769Y-37737332D01*
X96276283Y-37736253D01*
X96294204Y-37735893D01*
X97591720Y-37735893D01*
X97609646Y-37736253D01*
X97627174Y-37737332D01*
X97644304Y-37739131D01*
X97661035Y-37741649D01*
X97677368Y-37744887D01*
X97693301Y-37748843D01*
X97708834Y-37753519D01*
X97723967Y-37758915D01*
X97738699Y-37765029D01*
X97753029Y-37771863D01*
X97766958Y-37779416D01*
X97780483Y-37787688D01*
X97793606Y-37796679D01*
X97806325Y-37806389D01*
X97818640Y-37816818D01*
X97830551Y-37827966D01*
X97841829Y-37839625D01*
X97852379Y-37851711D01*
X97862202Y-37864223D01*
X97871297Y-37877159D01*
X97879664Y-37890516D01*
X97887304Y-37904292D01*
X97894217Y-37918486D01*
X97900402Y-37933096D01*
X97905859Y-37948118D01*
X97910589Y-37963552D01*
X97914591Y-37979395D01*
X97917865Y-37995646D01*
X97920412Y-38012301D01*
X97922231Y-38029359D01*
X97923323Y-38046819D01*
X97923687Y-38064677D01*
X97923687Y-42044012D01*
X97923323Y-42061928D01*
X97922231Y-42079430D01*
X97920412Y-42096519D01*
X97917865Y-42113195D01*
X97914591Y-42129458D01*
X97910589Y-42145308D01*
X97905859Y-42160745D01*
X97900402Y-42175768D01*
X97894217Y-42190378D01*
X97887304Y-42204575D01*
X97879664Y-42218358D01*
X97871297Y-42231729D01*
X97862202Y-42244686D01*
X97852379Y-42257230D01*
X97841829Y-42269360D01*
X97830551Y-42281078D01*
X97818640Y-42292165D01*
X97806325Y-42302540D01*
X97793606Y-42312204D01*
X97780483Y-42321155D01*
X97766958Y-42329394D01*
X97753029Y-42336919D01*
X97738699Y-42343729D01*
X97723967Y-42349825D01*
X97708834Y-42355207D01*
X97693301Y-42359872D01*
X97677368Y-42363821D01*
X97661035Y-42367053D01*
X97644304Y-42369568D01*
X97627174Y-42371365D01*
X97609646Y-42372444D01*
X97591720Y-42372803D01*
X96294204Y-42372803D01*
X96276283Y-42372444D01*
X96258768Y-42371365D01*
X96241661Y-42369568D01*
X96224965Y-42367053D01*
X96208680Y-42363821D01*
X96192807Y-42359872D01*
X96177350Y-42355207D01*
X96162308Y-42349825D01*
X96147684Y-42343729D01*
X96133479Y-42336919D01*
X96119694Y-42329394D01*
X96106332Y-42321155D01*
X96093394Y-42312204D01*
X96080881Y-42302540D01*
X96068794Y-42292165D01*
X96057136Y-42281078D01*
X96046049Y-42269360D01*
X96035672Y-42257230D01*
X96026009Y-42244686D01*
X96017057Y-42231729D01*
X96008819Y-42218358D01*
X96001295Y-42204575D01*
X95994485Y-42190378D01*
X95988389Y-42175768D01*
X95983009Y-42160745D01*
X95978344Y-42145308D01*
X95974396Y-42129458D01*
X95971164Y-42113195D01*
X95968650Y-42096519D01*
X95966854Y-42079430D01*
X95965775Y-42061928D01*
X95965416Y-42044012D01*
X95965416Y-42008372D01*
X96376751Y-42008372D01*
X97511638Y-42008372D01*
X97511638Y-38100657D01*
X96376751Y-38100657D01*
X96376751Y-42008372D01*
X95965416Y-42008372D01*
X95965416Y-38064677D01*
X95965775Y-38046817D01*
D11*
X68000000Y-72750000D02*
X68000000Y-87250000D01*
X91125000Y-125500000D02*
X91375000Y-111000000D01*
D10*
G36*
X112741700Y-65491445D02*
G01*
X112491581Y-65924655D01*
X109894432Y-64424997D01*
X110144550Y-63991786D01*
X112741700Y-65491445D01*
G37*
X112741700Y-65491445D02*
X112491581Y-65924655D01*
X109894432Y-64424997D01*
X110144550Y-63991786D01*
X112741700Y-65491445D01*
G36*
X101309591Y-113945127D02*
G01*
X100974805Y-114316602D01*
X98746308Y-112310002D01*
X99081094Y-111938175D01*
X101309591Y-113945127D01*
G37*
X101309591Y-113945127D02*
X100974805Y-114316602D01*
X98746308Y-112310002D01*
X99081094Y-111938175D01*
X101309591Y-113945127D01*
D11*
X91500000Y-73000000D02*
X68000000Y-72750000D01*
D10*
G36*
X99990113Y-135181313D02*
G01*
X99835243Y-135656858D01*
X96983740Y-134730463D01*
X97137904Y-134254214D01*
X99990113Y-135181313D01*
G37*
X99990113Y-135181313D02*
X99835243Y-135656858D01*
X96983740Y-134730463D01*
X97137904Y-134254214D01*
X99990113Y-135181313D01*
G36*
X113669603Y-81061463D02*
G01*
X113669603Y-81564524D01*
X110732726Y-81255843D01*
X110784938Y-80758426D01*
X113669603Y-81061463D01*
G37*
X113669603Y-81061463D02*
X113669603Y-81564524D01*
X110732726Y-81255843D01*
X110784938Y-80758426D01*
X113669603Y-81061463D01*
D11*
X91250000Y-106750000D02*
X91250000Y-91750000D01*
D10*
G36*
X99636218Y-62011363D02*
G01*
X96700049Y-62320044D01*
X96700049Y-61816629D01*
X99584359Y-61513946D01*
X99636218Y-62011363D01*
G37*
X99636218Y-62011363D02*
X96700049Y-62320044D01*
X96700049Y-61816629D01*
X99584359Y-61513946D01*
X99636218Y-62011363D01*
G36*
X103264326Y-56010013D02*
G01*
X102807479Y-56213213D01*
X101587574Y-53473894D01*
X102044774Y-53269988D01*
X103264326Y-56010013D01*
G37*
X103264326Y-56010013D02*
X102807479Y-56213213D01*
X101587574Y-53473894D01*
X102044774Y-53269988D01*
X103264326Y-56010013D01*
G36*
X94904579Y-37736125D02*
G01*
X94922497Y-37736484D01*
X94940001Y-37737563D01*
X94957092Y-37739359D01*
X94973769Y-37741874D01*
X94990033Y-37745106D01*
X95005883Y-37749054D01*
X95021320Y-37753719D01*
X95036343Y-37759099D01*
X95050953Y-37765195D01*
X95065149Y-37772006D01*
X95078932Y-37779530D01*
X95092301Y-37787768D01*
X95105257Y-37796720D01*
X95117799Y-37806383D01*
X95129928Y-37816759D01*
X95141643Y-37827847D01*
X95152793Y-37839563D01*
X95163224Y-37851693D01*
X95172936Y-37864235D01*
X95181928Y-37877192D01*
X95190201Y-37890561D01*
X95197754Y-37904345D01*
X95204588Y-37918541D01*
X95210703Y-37933151D01*
X95216098Y-37948174D01*
X95220774Y-37963611D01*
X95224730Y-37979461D01*
X95227967Y-37995725D01*
X95230485Y-38012402D01*
X95232284Y-38029493D01*
X95233363Y-38046996D01*
X95233722Y-38064914D01*
X95233722Y-39442511D01*
X95233069Y-39465232D01*
X95231112Y-39487490D01*
X95227851Y-39509287D01*
X95223288Y-39530622D01*
X95217425Y-39551497D01*
X95210264Y-39571910D01*
X95201805Y-39591864D01*
X95192051Y-39611359D01*
X95181003Y-39630394D01*
X95168662Y-39648972D01*
X95155031Y-39667091D01*
X95140110Y-39684753D01*
X95123901Y-39701958D01*
X95106405Y-39718707D01*
X95087625Y-39735000D01*
X95067562Y-39750838D01*
X94741596Y-39946277D01*
X95091201Y-40171349D01*
X95100676Y-40177405D01*
X95109850Y-40183665D01*
X95118725Y-40190130D01*
X95127299Y-40196801D01*
X95135574Y-40203677D01*
X95143549Y-40210759D01*
X95151223Y-40218046D01*
X95158597Y-40225539D01*
X95165672Y-40233239D01*
X95172445Y-40241145D01*
X95178919Y-40249257D01*
X95185092Y-40257577D01*
X95190964Y-40266103D01*
X95196536Y-40274836D01*
X95201807Y-40283777D01*
X95206778Y-40292925D01*
X95211448Y-40302281D01*
X95215817Y-40311845D01*
X95219885Y-40321618D01*
X95223652Y-40331598D01*
X95227118Y-40341787D01*
X95230283Y-40352184D01*
X95233147Y-40362791D01*
X95235710Y-40373607D01*
X95237971Y-40384632D01*
X95239931Y-40395866D01*
X95241590Y-40407310D01*
X95242948Y-40418964D01*
X95244758Y-40442902D01*
X95245361Y-40467683D01*
X95245361Y-42043894D01*
X95245001Y-42061815D01*
X95243923Y-42079329D01*
X95242127Y-42096435D01*
X95239612Y-42113132D01*
X95236381Y-42129417D01*
X95232432Y-42145289D01*
X95227768Y-42160747D01*
X95222387Y-42175788D01*
X95216292Y-42190412D01*
X95209482Y-42204618D01*
X95201957Y-42218402D01*
X95193719Y-42231764D01*
X95184768Y-42244703D01*
X95175104Y-42257216D01*
X95164728Y-42269302D01*
X95153640Y-42280960D01*
X95141925Y-42292048D01*
X95129795Y-42302424D01*
X95117253Y-42312088D01*
X95104296Y-42321039D01*
X95090927Y-42329277D01*
X95077144Y-42336802D01*
X95062947Y-42343612D01*
X95048337Y-42349708D01*
X95033314Y-42355088D01*
X95017877Y-42359753D01*
X95002026Y-42363701D01*
X94985763Y-42366933D01*
X94969085Y-42369448D01*
X94951994Y-42371244D01*
X94934490Y-42372323D01*
X94916572Y-42372682D01*
X93387638Y-42372682D01*
X93387638Y-42008263D01*
X93799328Y-42008263D01*
X94830497Y-42008263D01*
X94830497Y-40405594D01*
X94412811Y-40132897D01*
X93799328Y-40132897D01*
X93799328Y-42008263D01*
X93387638Y-42008263D01*
X93387638Y-39774474D01*
X93799328Y-39774474D01*
X94406810Y-39774474D01*
X94818851Y-39495780D01*
X94818851Y-38100544D01*
X93799328Y-38100544D01*
X93799328Y-39774474D01*
X93387638Y-39774474D01*
X93387638Y-37736125D01*
X94904579Y-37736125D01*
G37*
X94904579Y-37736125D02*
X94922497Y-37736484D01*
X94940001Y-37737563D01*
X94957092Y-37739359D01*
X94973769Y-37741874D01*
X94990033Y-37745106D01*
X95005883Y-37749054D01*
X95021320Y-37753719D01*
X95036343Y-37759099D01*
X95050953Y-37765195D01*
X95065149Y-37772006D01*
X95078932Y-37779530D01*
X95092301Y-37787768D01*
X95105257Y-37796720D01*
X95117799Y-37806383D01*
X95129928Y-37816759D01*
X95141643Y-37827847D01*
X95152793Y-37839563D01*
X95163224Y-37851693D01*
X95172936Y-37864235D01*
X95181928Y-37877192D01*
X95190201Y-37890561D01*
X95197754Y-37904345D01*
X95204588Y-37918541D01*
X95210703Y-37933151D01*
X95216098Y-37948174D01*
X95220774Y-37963611D01*
X95224730Y-37979461D01*
X95227967Y-37995725D01*
X95230485Y-38012402D01*
X95232284Y-38029493D01*
X95233363Y-38046996D01*
X95233722Y-38064914D01*
X95233722Y-39442511D01*
X95233069Y-39465232D01*
X95231112Y-39487490D01*
X95227851Y-39509287D01*
X95223288Y-39530622D01*
X95217425Y-39551497D01*
X95210264Y-39571910D01*
X95201805Y-39591864D01*
X95192051Y-39611359D01*
X95181003Y-39630394D01*
X95168662Y-39648972D01*
X95155031Y-39667091D01*
X95140110Y-39684753D01*
X95123901Y-39701958D01*
X95106405Y-39718707D01*
X95087625Y-39735000D01*
X95067562Y-39750838D01*
X94741596Y-39946277D01*
X95091201Y-40171349D01*
X95100676Y-40177405D01*
X95109850Y-40183665D01*
X95118725Y-40190130D01*
X95127299Y-40196801D01*
X95135574Y-40203677D01*
X95143549Y-40210759D01*
X95151223Y-40218046D01*
X95158597Y-40225539D01*
X95165672Y-40233239D01*
X95172445Y-40241145D01*
X95178919Y-40249257D01*
X95185092Y-40257577D01*
X95190964Y-40266103D01*
X95196536Y-40274836D01*
X95201807Y-40283777D01*
X95206778Y-40292925D01*
X95211448Y-40302281D01*
X95215817Y-40311845D01*
X95219885Y-40321618D01*
X95223652Y-40331598D01*
X95227118Y-40341787D01*
X95230283Y-40352184D01*
X95233147Y-40362791D01*
X95235710Y-40373607D01*
X95237971Y-40384632D01*
X95239931Y-40395866D01*
X95241590Y-40407310D01*
X95242948Y-40418964D01*
X95244758Y-40442902D01*
X95245361Y-40467683D01*
X95245361Y-42043894D01*
X95245001Y-42061815D01*
X95243923Y-42079329D01*
X95242127Y-42096435D01*
X95239612Y-42113132D01*
X95236381Y-42129417D01*
X95232432Y-42145289D01*
X95227768Y-42160747D01*
X95222387Y-42175788D01*
X95216292Y-42190412D01*
X95209482Y-42204618D01*
X95201957Y-42218402D01*
X95193719Y-42231764D01*
X95184768Y-42244703D01*
X95175104Y-42257216D01*
X95164728Y-42269302D01*
X95153640Y-42280960D01*
X95141925Y-42292048D01*
X95129795Y-42302424D01*
X95117253Y-42312088D01*
X95104296Y-42321039D01*
X95090927Y-42329277D01*
X95077144Y-42336802D01*
X95062947Y-42343612D01*
X95048337Y-42349708D01*
X95033314Y-42355088D01*
X95017877Y-42359753D01*
X95002026Y-42363701D01*
X94985763Y-42366933D01*
X94969085Y-42369448D01*
X94951994Y-42371244D01*
X94934490Y-42372323D01*
X94916572Y-42372682D01*
X93387638Y-42372682D01*
X93387638Y-42008263D01*
X93799328Y-42008263D01*
X94830497Y-42008263D01*
X94830497Y-40405594D01*
X94412811Y-40132897D01*
X93799328Y-40132897D01*
X93799328Y-42008263D01*
X93387638Y-42008263D01*
X93387638Y-39774474D01*
X93799328Y-39774474D01*
X94406810Y-39774474D01*
X94818851Y-39495780D01*
X94818851Y-38100544D01*
X93799328Y-38100544D01*
X93799328Y-39774474D01*
X93387638Y-39774474D01*
X93387638Y-37736125D01*
X94904579Y-37736125D01*
G36*
X113493495Y-77988803D02*
G01*
X110641286Y-78915550D01*
X110486770Y-78439653D01*
X113338977Y-77512906D01*
X113493495Y-77988803D01*
G37*
X113493495Y-77988803D02*
X110641286Y-78915550D01*
X110486770Y-78439653D01*
X113338977Y-77512906D01*
X113493495Y-77988803D01*
G36*
X105207819Y-98714980D02*
G01*
X105233189Y-98716909D01*
X105258193Y-98720087D01*
X105282798Y-98724480D01*
X105306973Y-98730059D01*
X105330687Y-98736792D01*
X105353907Y-98744647D01*
X105376603Y-98753593D01*
X105398744Y-98763600D01*
X105420296Y-98774634D01*
X105441230Y-98786667D01*
X105461513Y-98799665D01*
X105481113Y-98813597D01*
X105500000Y-98828433D01*
X105518142Y-98844141D01*
X105535508Y-98860689D01*
X105552065Y-98878047D01*
X105567782Y-98896182D01*
X105582628Y-98915064D01*
X105596571Y-98934662D01*
X105609580Y-98954943D01*
X105621623Y-98975877D01*
X105632669Y-98997432D01*
X105642686Y-99019577D01*
X105651642Y-99042281D01*
X105659507Y-99065512D01*
X105666248Y-99089239D01*
X105671834Y-99113430D01*
X105676234Y-99138055D01*
X105679416Y-99163082D01*
X105681348Y-99188480D01*
X105681999Y-99214217D01*
X105681348Y-99239954D01*
X105679416Y-99265351D01*
X105676234Y-99290378D01*
X105671834Y-99315003D01*
X105666248Y-99339194D01*
X105659507Y-99362921D01*
X105651642Y-99386152D01*
X105642686Y-99408856D01*
X105632669Y-99431001D01*
X105621623Y-99452556D01*
X105609580Y-99473490D01*
X105596571Y-99493771D01*
X105582628Y-99513368D01*
X105567782Y-99532251D01*
X105552065Y-99550386D01*
X105535508Y-99567744D01*
X105518142Y-99584292D01*
X105500000Y-99600000D01*
X105481113Y-99614835D01*
X105461513Y-99628768D01*
X105441230Y-99641766D01*
X105420296Y-99653798D01*
X105398744Y-99664833D01*
X105376603Y-99674839D01*
X105353907Y-99683786D01*
X105330687Y-99691641D01*
X105306973Y-99698373D01*
X105282798Y-99703952D01*
X105258193Y-99708346D01*
X105233189Y-99711523D01*
X105207819Y-99713452D01*
X105182113Y-99714102D01*
X105156407Y-99713452D01*
X105131037Y-99711523D01*
X105106033Y-99708346D01*
X105081428Y-99703952D01*
X105057253Y-99698373D01*
X105033539Y-99691641D01*
X105010318Y-99683786D01*
X104987622Y-99674839D01*
X104965481Y-99664833D01*
X104943929Y-99653798D01*
X104922995Y-99641766D01*
X104902712Y-99628768D01*
X104883111Y-99614835D01*
X104864224Y-99600000D01*
X104846082Y-99584292D01*
X104828717Y-99567744D01*
X104812160Y-99550386D01*
X104796443Y-99532251D01*
X104781596Y-99513368D01*
X104767653Y-99493771D01*
X104754644Y-99473490D01*
X104742601Y-99452556D01*
X104731555Y-99431001D01*
X104721538Y-99408856D01*
X104712582Y-99386152D01*
X104704717Y-99362921D01*
X104697976Y-99339194D01*
X104692390Y-99315003D01*
X104687990Y-99290378D01*
X104684809Y-99265351D01*
X104682877Y-99239954D01*
X104682226Y-99214217D01*
X104682877Y-99188480D01*
X104684809Y-99163082D01*
X104687990Y-99138055D01*
X104692390Y-99113430D01*
X104697976Y-99089239D01*
X104704717Y-99065512D01*
X104712582Y-99042281D01*
X104721538Y-99019577D01*
X104731555Y-98997432D01*
X104742601Y-98975877D01*
X104754644Y-98954943D01*
X104767653Y-98934662D01*
X104781596Y-98915064D01*
X104796443Y-98896182D01*
X104812160Y-98878047D01*
X104828717Y-98860689D01*
X104846082Y-98844141D01*
X104864224Y-98828433D01*
X104883111Y-98813597D01*
X104902712Y-98799665D01*
X104922995Y-98786667D01*
X104943929Y-98774634D01*
X104965481Y-98763600D01*
X104987622Y-98753593D01*
X105010318Y-98744647D01*
X105033539Y-98736792D01*
X105057253Y-98730059D01*
X105081428Y-98724480D01*
X105106033Y-98720087D01*
X105131037Y-98716909D01*
X105156407Y-98714980D01*
X105182113Y-98714330D01*
X105207819Y-98714980D01*
G37*
X105207819Y-98714980D02*
X105233189Y-98716909D01*
X105258193Y-98720087D01*
X105282798Y-98724480D01*
X105306973Y-98730059D01*
X105330687Y-98736792D01*
X105353907Y-98744647D01*
X105376603Y-98753593D01*
X105398744Y-98763600D01*
X105420296Y-98774634D01*
X105441230Y-98786667D01*
X105461513Y-98799665D01*
X105481113Y-98813597D01*
X105500000Y-98828433D01*
X105518142Y-98844141D01*
X105535508Y-98860689D01*
X105552065Y-98878047D01*
X105567782Y-98896182D01*
X105582628Y-98915064D01*
X105596571Y-98934662D01*
X105609580Y-98954943D01*
X105621623Y-98975877D01*
X105632669Y-98997432D01*
X105642686Y-99019577D01*
X105651642Y-99042281D01*
X105659507Y-99065512D01*
X105666248Y-99089239D01*
X105671834Y-99113430D01*
X105676234Y-99138055D01*
X105679416Y-99163082D01*
X105681348Y-99188480D01*
X105681999Y-99214217D01*
X105681348Y-99239954D01*
X105679416Y-99265351D01*
X105676234Y-99290378D01*
X105671834Y-99315003D01*
X105666248Y-99339194D01*
X105659507Y-99362921D01*
X105651642Y-99386152D01*
X105642686Y-99408856D01*
X105632669Y-99431001D01*
X105621623Y-99452556D01*
X105609580Y-99473490D01*
X105596571Y-99493771D01*
X105582628Y-99513368D01*
X105567782Y-99532251D01*
X105552065Y-99550386D01*
X105535508Y-99567744D01*
X105518142Y-99584292D01*
X105500000Y-99600000D01*
X105481113Y-99614835D01*
X105461513Y-99628768D01*
X105441230Y-99641766D01*
X105420296Y-99653798D01*
X105398744Y-99664833D01*
X105376603Y-99674839D01*
X105353907Y-99683786D01*
X105330687Y-99691641D01*
X105306973Y-99698373D01*
X105282798Y-99703952D01*
X105258193Y-99708346D01*
X105233189Y-99711523D01*
X105207819Y-99713452D01*
X105182113Y-99714102D01*
X105156407Y-99713452D01*
X105131037Y-99711523D01*
X105106033Y-99708346D01*
X105081428Y-99703952D01*
X105057253Y-99698373D01*
X105033539Y-99691641D01*
X105010318Y-99683786D01*
X104987622Y-99674839D01*
X104965481Y-99664833D01*
X104943929Y-99653798D01*
X104922995Y-99641766D01*
X104902712Y-99628768D01*
X104883111Y-99614835D01*
X104864224Y-99600000D01*
X104846082Y-99584292D01*
X104828717Y-99567744D01*
X104812160Y-99550386D01*
X104796443Y-99532251D01*
X104781596Y-99513368D01*
X104767653Y-99493771D01*
X104754644Y-99473490D01*
X104742601Y-99452556D01*
X104731555Y-99431001D01*
X104721538Y-99408856D01*
X104712582Y-99386152D01*
X104704717Y-99362921D01*
X104697976Y-99339194D01*
X104692390Y-99315003D01*
X104687990Y-99290378D01*
X104684809Y-99265351D01*
X104682877Y-99239954D01*
X104682226Y-99214217D01*
X104682877Y-99188480D01*
X104684809Y-99163082D01*
X104687990Y-99138055D01*
X104692390Y-99113430D01*
X104697976Y-99089239D01*
X104704717Y-99065512D01*
X104712582Y-99042281D01*
X104721538Y-99019577D01*
X104731555Y-98997432D01*
X104742601Y-98975877D01*
X104754644Y-98954943D01*
X104767653Y-98934662D01*
X104781596Y-98915064D01*
X104796443Y-98896182D01*
X104812160Y-98878047D01*
X104828717Y-98860689D01*
X104846082Y-98844141D01*
X104864224Y-98828433D01*
X104883111Y-98813597D01*
X104902712Y-98799665D01*
X104922995Y-98786667D01*
X104943929Y-98774634D01*
X104965481Y-98763600D01*
X104987622Y-98753593D01*
X105010318Y-98744647D01*
X105033539Y-98736792D01*
X105057253Y-98730059D01*
X105081428Y-98724480D01*
X105106033Y-98720087D01*
X105131037Y-98716909D01*
X105156407Y-98714980D01*
X105182113Y-98714330D01*
X105207819Y-98714980D01*
G36*
X113708371Y-138031123D02*
G01*
X113708371Y-138534184D01*
X110771494Y-138225503D01*
X110823706Y-137728086D01*
X113708371Y-138031123D01*
G37*
X113708371Y-138031123D02*
X113708371Y-138534184D01*
X110771494Y-138225503D01*
X110823706Y-137728086D01*
X113708371Y-138031123D01*
G36*
X103233897Y-93929429D02*
G01*
X102777050Y-94132629D01*
X101557145Y-91393310D01*
X102014345Y-91189404D01*
X103233897Y-93929429D01*
G37*
X103233897Y-93929429D02*
X102777050Y-94132629D01*
X101557145Y-91393310D01*
X102014345Y-91189404D01*
X103233897Y-93929429D01*
G36*
X105238248Y-60795564D02*
G01*
X105263618Y-60797493D01*
X105288622Y-60800671D01*
X105313227Y-60805064D01*
X105337402Y-60810643D01*
X105361116Y-60817376D01*
X105384336Y-60825231D01*
X105407032Y-60834177D01*
X105429173Y-60844184D01*
X105450725Y-60855218D01*
X105471659Y-60867251D01*
X105491942Y-60880249D01*
X105511542Y-60894181D01*
X105530429Y-60909017D01*
X105548571Y-60924725D01*
X105565937Y-60941273D01*
X105582494Y-60958631D01*
X105598211Y-60976766D01*
X105613057Y-60995648D01*
X105627000Y-61015246D01*
X105640009Y-61035527D01*
X105652052Y-61056461D01*
X105663098Y-61078016D01*
X105673115Y-61100161D01*
X105682071Y-61122865D01*
X105689936Y-61146096D01*
X105696677Y-61169823D01*
X105702263Y-61194014D01*
X105706663Y-61218639D01*
X105709845Y-61243666D01*
X105711777Y-61269064D01*
X105712428Y-61294801D01*
X105711777Y-61320538D01*
X105709845Y-61345935D01*
X105706663Y-61370962D01*
X105702263Y-61395587D01*
X105696677Y-61419778D01*
X105689936Y-61443505D01*
X105682071Y-61466736D01*
X105673115Y-61489440D01*
X105663098Y-61511585D01*
X105652052Y-61533140D01*
X105640009Y-61554074D01*
X105627000Y-61574355D01*
X105613057Y-61593952D01*
X105598211Y-61612835D01*
X105582494Y-61630970D01*
X105565937Y-61648328D01*
X105548571Y-61664876D01*
X105530429Y-61680584D01*
X105511542Y-61695419D01*
X105491942Y-61709352D01*
X105471659Y-61722350D01*
X105450725Y-61734382D01*
X105429173Y-61745417D01*
X105407032Y-61755423D01*
X105384336Y-61764370D01*
X105361116Y-61772225D01*
X105337402Y-61778957D01*
X105313227Y-61784536D01*
X105288622Y-61788930D01*
X105263618Y-61792107D01*
X105238248Y-61794036D01*
X105212542Y-61794686D01*
X105186836Y-61794036D01*
X105161466Y-61792107D01*
X105136462Y-61788930D01*
X105111857Y-61784536D01*
X105087682Y-61778957D01*
X105063968Y-61772225D01*
X105040747Y-61764370D01*
X105018051Y-61755423D01*
X104995910Y-61745417D01*
X104974358Y-61734382D01*
X104953424Y-61722350D01*
X104933141Y-61709352D01*
X104913540Y-61695419D01*
X104894653Y-61680584D01*
X104876511Y-61664876D01*
X104859146Y-61648328D01*
X104842589Y-61630970D01*
X104826872Y-61612835D01*
X104812025Y-61593952D01*
X104798082Y-61574355D01*
X104785073Y-61554074D01*
X104773030Y-61533140D01*
X104761984Y-61511585D01*
X104751967Y-61489440D01*
X104743011Y-61466736D01*
X104735146Y-61443505D01*
X104728405Y-61419778D01*
X104722819Y-61395587D01*
X104718419Y-61370962D01*
X104715238Y-61345935D01*
X104713306Y-61320538D01*
X104712655Y-61294801D01*
X104713306Y-61269064D01*
X104715238Y-61243666D01*
X104718419Y-61218639D01*
X104722819Y-61194014D01*
X104728405Y-61169823D01*
X104735146Y-61146096D01*
X104743011Y-61122865D01*
X104751967Y-61100161D01*
X104761984Y-61078016D01*
X104773030Y-61056461D01*
X104785073Y-61035527D01*
X104798082Y-61015246D01*
X104812025Y-60995648D01*
X104826872Y-60976766D01*
X104842589Y-60958631D01*
X104859146Y-60941273D01*
X104876511Y-60924725D01*
X104894653Y-60909017D01*
X104913540Y-60894181D01*
X104933141Y-60880249D01*
X104953424Y-60867251D01*
X104974358Y-60855218D01*
X104995910Y-60844184D01*
X105018051Y-60834177D01*
X105040747Y-60825231D01*
X105063968Y-60817376D01*
X105087682Y-60810643D01*
X105111857Y-60805064D01*
X105136462Y-60800671D01*
X105161466Y-60797493D01*
X105186836Y-60795564D01*
X105212542Y-60794914D01*
X105238248Y-60795564D01*
G37*
X105238248Y-60795564D02*
X105263618Y-60797493D01*
X105288622Y-60800671D01*
X105313227Y-60805064D01*
X105337402Y-60810643D01*
X105361116Y-60817376D01*
X105384336Y-60825231D01*
X105407032Y-60834177D01*
X105429173Y-60844184D01*
X105450725Y-60855218D01*
X105471659Y-60867251D01*
X105491942Y-60880249D01*
X105511542Y-60894181D01*
X105530429Y-60909017D01*
X105548571Y-60924725D01*
X105565937Y-60941273D01*
X105582494Y-60958631D01*
X105598211Y-60976766D01*
X105613057Y-60995648D01*
X105627000Y-61015246D01*
X105640009Y-61035527D01*
X105652052Y-61056461D01*
X105663098Y-61078016D01*
X105673115Y-61100161D01*
X105682071Y-61122865D01*
X105689936Y-61146096D01*
X105696677Y-61169823D01*
X105702263Y-61194014D01*
X105706663Y-61218639D01*
X105709845Y-61243666D01*
X105711777Y-61269064D01*
X105712428Y-61294801D01*
X105711777Y-61320538D01*
X105709845Y-61345935D01*
X105706663Y-61370962D01*
X105702263Y-61395587D01*
X105696677Y-61419778D01*
X105689936Y-61443505D01*
X105682071Y-61466736D01*
X105673115Y-61489440D01*
X105663098Y-61511585D01*
X105652052Y-61533140D01*
X105640009Y-61554074D01*
X105627000Y-61574355D01*
X105613057Y-61593952D01*
X105598211Y-61612835D01*
X105582494Y-61630970D01*
X105565937Y-61648328D01*
X105548571Y-61664876D01*
X105530429Y-61680584D01*
X105511542Y-61695419D01*
X105491942Y-61709352D01*
X105471659Y-61722350D01*
X105450725Y-61734382D01*
X105429173Y-61745417D01*
X105407032Y-61755423D01*
X105384336Y-61764370D01*
X105361116Y-61772225D01*
X105337402Y-61778957D01*
X105313227Y-61784536D01*
X105288622Y-61788930D01*
X105263618Y-61792107D01*
X105238248Y-61794036D01*
X105212542Y-61794686D01*
X105186836Y-61794036D01*
X105161466Y-61792107D01*
X105136462Y-61788930D01*
X105111857Y-61784536D01*
X105087682Y-61778957D01*
X105063968Y-61772225D01*
X105040747Y-61764370D01*
X105018051Y-61755423D01*
X104995910Y-61745417D01*
X104974358Y-61734382D01*
X104953424Y-61722350D01*
X104933141Y-61709352D01*
X104913540Y-61695419D01*
X104894653Y-61680584D01*
X104876511Y-61664876D01*
X104859146Y-61648328D01*
X104842589Y-61630970D01*
X104826872Y-61612835D01*
X104812025Y-61593952D01*
X104798082Y-61574355D01*
X104785073Y-61554074D01*
X104773030Y-61533140D01*
X104761984Y-61511585D01*
X104751967Y-61489440D01*
X104743011Y-61466736D01*
X104735146Y-61443505D01*
X104728405Y-61419778D01*
X104722819Y-61395587D01*
X104718419Y-61370962D01*
X104715238Y-61345935D01*
X104713306Y-61320538D01*
X104712655Y-61294801D01*
X104713306Y-61269064D01*
X104715238Y-61243666D01*
X104718419Y-61218639D01*
X104722819Y-61194014D01*
X104728405Y-61169823D01*
X104735146Y-61146096D01*
X104743011Y-61122865D01*
X104751967Y-61100161D01*
X104761984Y-61078016D01*
X104773030Y-61056461D01*
X104785073Y-61035527D01*
X104798082Y-61015246D01*
X104812025Y-60995648D01*
X104826872Y-60976766D01*
X104842589Y-60958631D01*
X104859146Y-60941273D01*
X104876511Y-60924725D01*
X104894653Y-60909017D01*
X104913540Y-60894181D01*
X104933141Y-60880249D01*
X104953424Y-60867251D01*
X104974358Y-60855218D01*
X104995910Y-60844184D01*
X105018051Y-60834177D01*
X105040747Y-60825231D01*
X105063968Y-60817376D01*
X105087682Y-60810643D01*
X105111857Y-60805064D01*
X105136462Y-60800671D01*
X105161466Y-60797493D01*
X105186836Y-60795564D01*
X105212542Y-60794914D01*
X105238248Y-60795564D01*
D11*
X90750000Y-129750000D02*
X67750000Y-129250000D01*
D10*
G36*
X101253059Y-76264884D02*
G01*
X100918273Y-76636359D01*
X98689776Y-74629759D01*
X99024562Y-74257932D01*
X101253059Y-76264884D01*
G37*
X101253059Y-76264884D02*
X100918273Y-76636359D01*
X98689776Y-74629759D01*
X99024562Y-74257932D01*
X101253059Y-76264884D01*
G36*
X105608469Y-112360238D02*
G01*
X105108231Y-112360238D01*
X105108231Y-109361274D01*
X105608469Y-109361274D01*
X105608469Y-112360238D01*
G37*
X105608469Y-112360238D02*
X105108231Y-112360238D01*
X105108231Y-109361274D01*
X105608469Y-109361274D01*
X105608469Y-112360238D01*
G36*
X113669523Y-99975194D02*
G01*
X113669523Y-100478255D01*
X110732646Y-100169574D01*
X110784858Y-99672157D01*
X113669523Y-99975194D01*
G37*
X113669523Y-99975194D02*
X113669523Y-100478255D01*
X110732646Y-100169574D01*
X110784858Y-99672157D01*
X113669523Y-99975194D01*
G36*
X111834442Y-93721855D02*
G01*
X109605945Y-95728455D01*
X109271159Y-95356627D01*
X111500008Y-93350027D01*
X111834442Y-93721855D01*
G37*
X111834442Y-93721855D02*
X109605945Y-95728455D01*
X109271159Y-95356627D01*
X111500008Y-93350027D01*
X111834442Y-93721855D01*
G36*
X105590705Y-131649655D02*
G01*
X105090467Y-131649655D01*
X105090467Y-128650691D01*
X105590705Y-128650691D01*
X105590705Y-131649655D01*
G37*
X105590705Y-131649655D02*
X105090467Y-131649655D01*
X105090467Y-128650691D01*
X105590705Y-128650691D01*
X105590705Y-131649655D01*
G36*
X109064297Y-129546465D02*
G01*
X107844744Y-132286137D01*
X107387544Y-132082937D01*
X108607450Y-129342912D01*
X109064297Y-129546465D01*
G37*
X109064297Y-129546465D02*
X107844744Y-132286137D01*
X107387544Y-132082937D01*
X108607450Y-129342912D01*
X109064297Y-129546465D01*
D12*
X87773809Y-51130952D02*
X86940476Y-49940476D01*
X86345238Y-51130952D02*
X86345238Y-48630952D01*
X87297619Y-48630952D01*
X87535714Y-48750000D01*
X87654761Y-48869047D01*
X87773809Y-49107142D01*
X87773809Y-49464285D01*
X87654761Y-49702380D01*
X87535714Y-49821428D01*
X87297619Y-49940476D01*
X86345238Y-49940476D01*
X79035714Y-79369047D02*
X79154761Y-79250000D01*
X79392857Y-79130952D01*
X79988095Y-79130952D01*
X80226190Y-79250000D01*
X80345238Y-79369047D01*
X80464285Y-79607142D01*
X80464285Y-79845238D01*
X80345238Y-80202380D01*
X78916666Y-81630952D01*
X80464285Y-81630952D01*
X78083333Y-136154761D02*
X78464285Y-136154761D01*
X78654761Y-136250000D01*
X78845238Y-136440476D01*
X78940476Y-136821428D01*
X78940476Y-137488095D01*
X78845238Y-137869047D01*
X78654761Y-138059523D01*
X78464285Y-138154761D01*
X78083333Y-138154761D01*
X77892857Y-138059523D01*
X77702380Y-137869047D01*
X77607142Y-137488095D01*
X77607142Y-136821428D01*
X77702380Y-136440476D01*
X77892857Y-136250000D01*
X78083333Y-136154761D01*
X80654761Y-136821428D02*
X80654761Y-138154761D01*
X79797619Y-136821428D02*
X79797619Y-137869047D01*
X79892857Y-138059523D01*
X80083333Y-138154761D01*
X80369047Y-138154761D01*
X80559523Y-138059523D01*
X80654761Y-137964285D01*
X81321428Y-136821428D02*
X82083333Y-136821428D01*
X81607142Y-136154761D02*
X81607142Y-137869047D01*
X81702380Y-138059523D01*
X81892857Y-138154761D01*
X82083333Y-138154761D01*
X72773809Y-51130952D02*
X71583333Y-51130952D01*
X71583333Y-48630952D01*
X80226190Y-117964285D02*
X80226190Y-119630952D01*
X79630952Y-117011904D02*
X79035714Y-118797619D01*
X80583333Y-118797619D01*
X80464285Y-62380952D02*
X79035714Y-62380952D01*
X79750000Y-62380952D02*
X79750000Y-59880952D01*
X79511904Y-60238095D01*
X79273809Y-60476190D01*
X79035714Y-60595238D01*
X78916666Y-98130952D02*
X80464285Y-98130952D01*
X79630952Y-99083333D01*
X79988095Y-99083333D01*
X80226190Y-99202380D01*
X80345238Y-99321428D01*
X80464285Y-99559523D01*
X80464285Y-100154761D01*
X80345238Y-100392857D01*
X80226190Y-100511904D01*
X79988095Y-100630952D01*
X79273809Y-100630952D01*
X79035714Y-100511904D01*
X78916666Y-100392857D01*
%LPC*%
D13*
X113100000Y-159500000D03*
D14*
X87242565Y-61242565D03*
X87242565Y-137242565D03*
X87242565Y-118242565D03*
D13*
X67500000Y-37000000D03*
D14*
X72242565Y-80242565D03*
X72242565Y-137242565D03*
D15*
X105242565Y-99242565D03*
X105242565Y-80242565D03*
D14*
X72242565Y-118242565D03*
D15*
X105270827Y-118000000D03*
D13*
X67500000Y-159500000D03*
X113100000Y-37000000D03*
D14*
X72242565Y-99242565D03*
X87242565Y-80242565D03*
D15*
X105242565Y-61242565D03*
D14*
X72242565Y-61242565D03*
X87242565Y-99242565D03*
D15*
X105242565Y-137242565D03*
M02*
