%FSLAX45Y45*%
G04 Gerber Fmt 4.5, Leading zero omitted, Abs format (unit mm)*
G04 Created by KiCad (PCBNEW (6.0.4)) date 2023-11-12 13:57:50*
%MOMM*%
%LPD*%
G01*
G04 APERTURE LIST*
%TA.AperFunction,Profile*%
%ADD10C,0.050000*%
%TD*%
%ADD11C,0.200000*%
G04 APERTURE END LIST*
D10*
X6000000Y-3400000D02*
X12060000Y-3400000D01*
X12060000Y-3400000D02*
X12060000Y-16250000D01*
X12060000Y-16250000D02*
X6000000Y-16250000D01*
X6000000Y-16250000D02*
X6000000Y-3400000D01*
D11*
X6255119Y-16562976D02*
X6255119Y-16362976D01*
X6302738Y-16362976D01*
X6331309Y-16372500D01*
X6350357Y-16391548D01*
X6359881Y-16410595D01*
X6369405Y-16448690D01*
X6369405Y-16477262D01*
X6359881Y-16515357D01*
X6350357Y-16534405D01*
X6331309Y-16553452D01*
X6302738Y-16562976D01*
X6255119Y-16562976D01*
X6455119Y-16562976D02*
X6455119Y-16429643D01*
X6455119Y-16467738D02*
X6464643Y-16448690D01*
X6474167Y-16439167D01*
X6493214Y-16429643D01*
X6512262Y-16429643D01*
X6578928Y-16562976D02*
X6578928Y-16429643D01*
X6578928Y-16362976D02*
X6569405Y-16372500D01*
X6578928Y-16382024D01*
X6588452Y-16372500D01*
X6578928Y-16362976D01*
X6578928Y-16382024D01*
X6702738Y-16562976D02*
X6683690Y-16553452D01*
X6674167Y-16534405D01*
X6674167Y-16362976D01*
X6807500Y-16562976D02*
X6788452Y-16553452D01*
X6778928Y-16534405D01*
X6778928Y-16362976D01*
X7036071Y-16562976D02*
X7036071Y-16362976D01*
X7102738Y-16505833D01*
X7169405Y-16362976D01*
X7169405Y-16562976D01*
X7350357Y-16562976D02*
X7350357Y-16458214D01*
X7340833Y-16439167D01*
X7321786Y-16429643D01*
X7283690Y-16429643D01*
X7264643Y-16439167D01*
X7350357Y-16553452D02*
X7331309Y-16562976D01*
X7283690Y-16562976D01*
X7264643Y-16553452D01*
X7255119Y-16534405D01*
X7255119Y-16515357D01*
X7264643Y-16496309D01*
X7283690Y-16486786D01*
X7331309Y-16486786D01*
X7350357Y-16477262D01*
X7445595Y-16429643D02*
X7445595Y-16629643D01*
X7445595Y-16439167D02*
X7464643Y-16429643D01*
X7502738Y-16429643D01*
X7521786Y-16439167D01*
X7531309Y-16448690D01*
X7540833Y-16467738D01*
X7540833Y-16524881D01*
X7531309Y-16543928D01*
X7521786Y-16553452D01*
X7502738Y-16562976D01*
X7464643Y-16562976D01*
X7445595Y-16553452D01*
X7626548Y-16543928D02*
X7636071Y-16553452D01*
X7626548Y-16562976D01*
X7617024Y-16553452D01*
X7626548Y-16543928D01*
X7626548Y-16562976D01*
X7626548Y-16439167D02*
X7636071Y-16448690D01*
X7626548Y-16458214D01*
X7617024Y-16448690D01*
X7626548Y-16439167D01*
X7626548Y-16458214D01*
M02*
