%FSLAX45Y45*%
G04 Gerber Fmt 4.5, Leading zero omitted, Abs format (unit mm)*
G04 Created by KiCad (PCBNEW (6.0.4)) date 2023-11-12 14:02:15*
%MOMM*%
%LPD*%
G01*
G04 APERTURE LIST*
%TA.AperFunction,Profile*%
%ADD10C,0.100000*%
%TD*%
%ADD11C,0.200000*%
%ADD12C,0.320000*%
G04 APERTURE END LIST*
D10*
X8300000Y-4800000D02*
X8300000Y-4600000D01*
X8300000Y-4800000D02*
X8300000Y-14800000D01*
X2300000Y-4600000D02*
X8300000Y-4600000D01*
X2300000Y-14800000D02*
X2300000Y-4800000D01*
X8300000Y-14800000D02*
X2300000Y-14800000D01*
X2300000Y-4800000D02*
X2300000Y-4600000D01*
D11*
D12*
X2640000Y-6640000D02*
X2960000Y-6960000D01*
X2960000Y-6640000D02*
X2640000Y-6960000D01*
X7640000Y-12340000D02*
X7960000Y-12660000D01*
X7960000Y-12340000D02*
X7640000Y-12660000D01*
D11*
X2552619Y-15115476D02*
X2552619Y-14915476D01*
X2600238Y-14915476D01*
X2628810Y-14925000D01*
X2647857Y-14944048D01*
X2657381Y-14963095D01*
X2666905Y-15001190D01*
X2666905Y-15029762D01*
X2657381Y-15067857D01*
X2647857Y-15086905D01*
X2628810Y-15105952D01*
X2600238Y-15115476D01*
X2552619Y-15115476D01*
X2752619Y-15115476D02*
X2752619Y-14982143D01*
X2752619Y-15020238D02*
X2762143Y-15001190D01*
X2771667Y-14991667D01*
X2790714Y-14982143D01*
X2809762Y-14982143D01*
X2876428Y-15115476D02*
X2876428Y-14982143D01*
X2876428Y-14915476D02*
X2866905Y-14925000D01*
X2876428Y-14934524D01*
X2885952Y-14925000D01*
X2876428Y-14915476D01*
X2876428Y-14934524D01*
X3000238Y-15115476D02*
X2981190Y-15105952D01*
X2971667Y-15086905D01*
X2971667Y-14915476D01*
X3105000Y-15115476D02*
X3085952Y-15105952D01*
X3076428Y-15086905D01*
X3076428Y-14915476D01*
X3333571Y-15115476D02*
X3333571Y-14915476D01*
X3400238Y-15058333D01*
X3466905Y-14915476D01*
X3466905Y-15115476D01*
X3647857Y-15115476D02*
X3647857Y-15010714D01*
X3638333Y-14991667D01*
X3619286Y-14982143D01*
X3581190Y-14982143D01*
X3562143Y-14991667D01*
X3647857Y-15105952D02*
X3628809Y-15115476D01*
X3581190Y-15115476D01*
X3562143Y-15105952D01*
X3552619Y-15086905D01*
X3552619Y-15067857D01*
X3562143Y-15048809D01*
X3581190Y-15039286D01*
X3628809Y-15039286D01*
X3647857Y-15029762D01*
X3743095Y-14982143D02*
X3743095Y-15182143D01*
X3743095Y-14991667D02*
X3762143Y-14982143D01*
X3800238Y-14982143D01*
X3819286Y-14991667D01*
X3828809Y-15001190D01*
X3838333Y-15020238D01*
X3838333Y-15077381D01*
X3828809Y-15096428D01*
X3819286Y-15105952D01*
X3800238Y-15115476D01*
X3762143Y-15115476D01*
X3743095Y-15105952D01*
X3924048Y-15096428D02*
X3933571Y-15105952D01*
X3924048Y-15115476D01*
X3914524Y-15105952D01*
X3924048Y-15096428D01*
X3924048Y-15115476D01*
X3924048Y-14991667D02*
X3933571Y-15001190D01*
X3924048Y-15010714D01*
X3914524Y-15001190D01*
X3924048Y-14991667D01*
X3924048Y-15010714D01*
X2095000Y-15345000D02*
X2295000Y-15545000D01*
X2295000Y-15345000D02*
X2095000Y-15545000D01*
X2533571Y-15335476D02*
X2657381Y-15335476D01*
X2590714Y-15411667D01*
X2619286Y-15411667D01*
X2638333Y-15421190D01*
X2647857Y-15430714D01*
X2657381Y-15449762D01*
X2657381Y-15497381D01*
X2647857Y-15516428D01*
X2638333Y-15525952D01*
X2619286Y-15535476D01*
X2562143Y-15535476D01*
X2543095Y-15525952D01*
X2533571Y-15516428D01*
X2743095Y-15516428D02*
X2752619Y-15525952D01*
X2743095Y-15535476D01*
X2733571Y-15525952D01*
X2743095Y-15516428D01*
X2743095Y-15535476D01*
X2828809Y-15354524D02*
X2838333Y-15345000D01*
X2857381Y-15335476D01*
X2905000Y-15335476D01*
X2924048Y-15345000D01*
X2933571Y-15354524D01*
X2943095Y-15373571D01*
X2943095Y-15392619D01*
X2933571Y-15421190D01*
X2819286Y-15535476D01*
X2943095Y-15535476D01*
X3066905Y-15335476D02*
X3085952Y-15335476D01*
X3105000Y-15345000D01*
X3114524Y-15354524D01*
X3124048Y-15373571D01*
X3133571Y-15411667D01*
X3133571Y-15459286D01*
X3124048Y-15497381D01*
X3114524Y-15516428D01*
X3105000Y-15525952D01*
X3085952Y-15535476D01*
X3066905Y-15535476D01*
X3047857Y-15525952D01*
X3038333Y-15516428D01*
X3028809Y-15497381D01*
X3019286Y-15459286D01*
X3019286Y-15411667D01*
X3028809Y-15373571D01*
X3038333Y-15354524D01*
X3047857Y-15345000D01*
X3066905Y-15335476D01*
X3257381Y-15335476D02*
X3276428Y-15335476D01*
X3295476Y-15345000D01*
X3305000Y-15354524D01*
X3314524Y-15373571D01*
X3324048Y-15411667D01*
X3324048Y-15459286D01*
X3314524Y-15497381D01*
X3305000Y-15516428D01*
X3295476Y-15525952D01*
X3276428Y-15535476D01*
X3257381Y-15535476D01*
X3238333Y-15525952D01*
X3228809Y-15516428D01*
X3219286Y-15497381D01*
X3209762Y-15459286D01*
X3209762Y-15411667D01*
X3219286Y-15373571D01*
X3228809Y-15354524D01*
X3238333Y-15345000D01*
X3257381Y-15335476D01*
X3409762Y-15535476D02*
X3409762Y-15402143D01*
X3409762Y-15421190D02*
X3419286Y-15411667D01*
X3438333Y-15402143D01*
X3466905Y-15402143D01*
X3485952Y-15411667D01*
X3495476Y-15430714D01*
X3495476Y-15535476D01*
X3495476Y-15430714D02*
X3505000Y-15411667D01*
X3524048Y-15402143D01*
X3552619Y-15402143D01*
X3571667Y-15411667D01*
X3581190Y-15430714D01*
X3581190Y-15535476D01*
X3676428Y-15535476D02*
X3676428Y-15402143D01*
X3676428Y-15421190D02*
X3685952Y-15411667D01*
X3705000Y-15402143D01*
X3733571Y-15402143D01*
X3752619Y-15411667D01*
X3762143Y-15430714D01*
X3762143Y-15535476D01*
X3762143Y-15430714D02*
X3771667Y-15411667D01*
X3790714Y-15402143D01*
X3819286Y-15402143D01*
X3838333Y-15411667D01*
X3847857Y-15430714D01*
X3847857Y-15535476D01*
X4238333Y-15325952D02*
X4066905Y-15583095D01*
X4495476Y-15335476D02*
X4514524Y-15335476D01*
X4533571Y-15345000D01*
X4543095Y-15354524D01*
X4552619Y-15373571D01*
X4562143Y-15411667D01*
X4562143Y-15459286D01*
X4552619Y-15497381D01*
X4543095Y-15516428D01*
X4533571Y-15525952D01*
X4514524Y-15535476D01*
X4495476Y-15535476D01*
X4476429Y-15525952D01*
X4466905Y-15516428D01*
X4457381Y-15497381D01*
X4447857Y-15459286D01*
X4447857Y-15411667D01*
X4457381Y-15373571D01*
X4466905Y-15354524D01*
X4476429Y-15345000D01*
X4495476Y-15335476D01*
X4647857Y-15516428D02*
X4657381Y-15525952D01*
X4647857Y-15535476D01*
X4638333Y-15525952D01*
X4647857Y-15516428D01*
X4647857Y-15535476D01*
X4847857Y-15535476D02*
X4733571Y-15535476D01*
X4790714Y-15535476D02*
X4790714Y-15335476D01*
X4771667Y-15364048D01*
X4752619Y-15383095D01*
X4733571Y-15392619D01*
X4924048Y-15354524D02*
X4933571Y-15345000D01*
X4952619Y-15335476D01*
X5000238Y-15335476D01*
X5019286Y-15345000D01*
X5028810Y-15354524D01*
X5038333Y-15373571D01*
X5038333Y-15392619D01*
X5028810Y-15421190D01*
X4914524Y-15535476D01*
X5038333Y-15535476D01*
X5209762Y-15335476D02*
X5171667Y-15335476D01*
X5152619Y-15345000D01*
X5143095Y-15354524D01*
X5124048Y-15383095D01*
X5114524Y-15421190D01*
X5114524Y-15497381D01*
X5124048Y-15516428D01*
X5133571Y-15525952D01*
X5152619Y-15535476D01*
X5190714Y-15535476D01*
X5209762Y-15525952D01*
X5219286Y-15516428D01*
X5228810Y-15497381D01*
X5228810Y-15449762D01*
X5219286Y-15430714D01*
X5209762Y-15421190D01*
X5190714Y-15411667D01*
X5152619Y-15411667D01*
X5133571Y-15421190D01*
X5124048Y-15430714D01*
X5114524Y-15449762D01*
X5352619Y-15335476D02*
X5371667Y-15335476D01*
X5390714Y-15345000D01*
X5400238Y-15354524D01*
X5409762Y-15373571D01*
X5419286Y-15411667D01*
X5419286Y-15459286D01*
X5409762Y-15497381D01*
X5400238Y-15516428D01*
X5390714Y-15525952D01*
X5371667Y-15535476D01*
X5352619Y-15535476D01*
X5333571Y-15525952D01*
X5324048Y-15516428D01*
X5314524Y-15497381D01*
X5305000Y-15459286D01*
X5305000Y-15411667D01*
X5314524Y-15373571D01*
X5324048Y-15354524D01*
X5333571Y-15345000D01*
X5352619Y-15335476D01*
X5495476Y-15335476D02*
X5495476Y-15373571D01*
X5571667Y-15335476D02*
X5571667Y-15373571D01*
X5866905Y-15611667D02*
X5857381Y-15602143D01*
X5838333Y-15573571D01*
X5828809Y-15554524D01*
X5819286Y-15525952D01*
X5809762Y-15478333D01*
X5809762Y-15440238D01*
X5819286Y-15392619D01*
X5828809Y-15364048D01*
X5838333Y-15345000D01*
X5857381Y-15316428D01*
X5866905Y-15306905D01*
X5933571Y-15354524D02*
X5943095Y-15345000D01*
X5962143Y-15335476D01*
X6009762Y-15335476D01*
X6028809Y-15345000D01*
X6038333Y-15354524D01*
X6047857Y-15373571D01*
X6047857Y-15392619D01*
X6038333Y-15421190D01*
X5924048Y-15535476D01*
X6047857Y-15535476D01*
X6285952Y-15535476D02*
X6285952Y-15335476D01*
X6371667Y-15535476D02*
X6371667Y-15430714D01*
X6362143Y-15411667D01*
X6343095Y-15402143D01*
X6314524Y-15402143D01*
X6295476Y-15411667D01*
X6285952Y-15421190D01*
X6495476Y-15535476D02*
X6476428Y-15525952D01*
X6466905Y-15516428D01*
X6457381Y-15497381D01*
X6457381Y-15440238D01*
X6466905Y-15421190D01*
X6476428Y-15411667D01*
X6495476Y-15402143D01*
X6524048Y-15402143D01*
X6543095Y-15411667D01*
X6552619Y-15421190D01*
X6562143Y-15440238D01*
X6562143Y-15497381D01*
X6552619Y-15516428D01*
X6543095Y-15525952D01*
X6524048Y-15535476D01*
X6495476Y-15535476D01*
X6676428Y-15535476D02*
X6657381Y-15525952D01*
X6647857Y-15506905D01*
X6647857Y-15335476D01*
X6828809Y-15525952D02*
X6809762Y-15535476D01*
X6771667Y-15535476D01*
X6752619Y-15525952D01*
X6743095Y-15506905D01*
X6743095Y-15430714D01*
X6752619Y-15411667D01*
X6771667Y-15402143D01*
X6809762Y-15402143D01*
X6828809Y-15411667D01*
X6838333Y-15430714D01*
X6838333Y-15449762D01*
X6743095Y-15468809D01*
X6914524Y-15525952D02*
X6933571Y-15535476D01*
X6971667Y-15535476D01*
X6990714Y-15525952D01*
X7000238Y-15506905D01*
X7000238Y-15497381D01*
X6990714Y-15478333D01*
X6971667Y-15468809D01*
X6943095Y-15468809D01*
X6924048Y-15459286D01*
X6914524Y-15440238D01*
X6914524Y-15430714D01*
X6924048Y-15411667D01*
X6943095Y-15402143D01*
X6971667Y-15402143D01*
X6990714Y-15411667D01*
X7066905Y-15611667D02*
X7076428Y-15602143D01*
X7095476Y-15573571D01*
X7105000Y-15554524D01*
X7114524Y-15525952D01*
X7124048Y-15478333D01*
X7124048Y-15440238D01*
X7114524Y-15392619D01*
X7105000Y-15364048D01*
X7095476Y-15345000D01*
X7076428Y-15316428D01*
X7066905Y-15306905D01*
X7428809Y-15611667D02*
X7419286Y-15602143D01*
X7400238Y-15573571D01*
X7390714Y-15554524D01*
X7381190Y-15525952D01*
X7371667Y-15478333D01*
X7371667Y-15440238D01*
X7381190Y-15392619D01*
X7390714Y-15364048D01*
X7400238Y-15345000D01*
X7419286Y-15316428D01*
X7428809Y-15306905D01*
X7505000Y-15402143D02*
X7505000Y-15535476D01*
X7505000Y-15421190D02*
X7514524Y-15411667D01*
X7533571Y-15402143D01*
X7562143Y-15402143D01*
X7581190Y-15411667D01*
X7590714Y-15430714D01*
X7590714Y-15535476D01*
X7714524Y-15535476D02*
X7695476Y-15525952D01*
X7685952Y-15516428D01*
X7676428Y-15497381D01*
X7676428Y-15440238D01*
X7685952Y-15421190D01*
X7695476Y-15411667D01*
X7714524Y-15402143D01*
X7743095Y-15402143D01*
X7762143Y-15411667D01*
X7771667Y-15421190D01*
X7781190Y-15440238D01*
X7781190Y-15497381D01*
X7771667Y-15516428D01*
X7762143Y-15525952D01*
X7743095Y-15535476D01*
X7714524Y-15535476D01*
X7838333Y-15402143D02*
X7914524Y-15402143D01*
X7866905Y-15335476D02*
X7866905Y-15506905D01*
X7876428Y-15525952D01*
X7895476Y-15535476D01*
X7914524Y-15535476D01*
X8133571Y-15402143D02*
X8133571Y-15602143D01*
X8133571Y-15411667D02*
X8152619Y-15402143D01*
X8190714Y-15402143D01*
X8209762Y-15411667D01*
X8219286Y-15421190D01*
X8228809Y-15440238D01*
X8228809Y-15497381D01*
X8219286Y-15516428D01*
X8209762Y-15525952D01*
X8190714Y-15535476D01*
X8152619Y-15535476D01*
X8133571Y-15525952D01*
X8343095Y-15535476D02*
X8324048Y-15525952D01*
X8314524Y-15506905D01*
X8314524Y-15335476D01*
X8505000Y-15535476D02*
X8505000Y-15430714D01*
X8495476Y-15411667D01*
X8476429Y-15402143D01*
X8438333Y-15402143D01*
X8419286Y-15411667D01*
X8505000Y-15525952D02*
X8485952Y-15535476D01*
X8438333Y-15535476D01*
X8419286Y-15525952D01*
X8409762Y-15506905D01*
X8409762Y-15487857D01*
X8419286Y-15468809D01*
X8438333Y-15459286D01*
X8485952Y-15459286D01*
X8505000Y-15449762D01*
X8571667Y-15402143D02*
X8647857Y-15402143D01*
X8600238Y-15335476D02*
X8600238Y-15506905D01*
X8609762Y-15525952D01*
X8628810Y-15535476D01*
X8647857Y-15535476D01*
X8790714Y-15525952D02*
X8771667Y-15535476D01*
X8733571Y-15535476D01*
X8714524Y-15525952D01*
X8705000Y-15506905D01*
X8705000Y-15430714D01*
X8714524Y-15411667D01*
X8733571Y-15402143D01*
X8771667Y-15402143D01*
X8790714Y-15411667D01*
X8800238Y-15430714D01*
X8800238Y-15449762D01*
X8705000Y-15468809D01*
X8971667Y-15535476D02*
X8971667Y-15335476D01*
X8971667Y-15525952D02*
X8952619Y-15535476D01*
X8914524Y-15535476D01*
X8895476Y-15525952D01*
X8885952Y-15516428D01*
X8876429Y-15497381D01*
X8876429Y-15440238D01*
X8885952Y-15421190D01*
X8895476Y-15411667D01*
X8914524Y-15402143D01*
X8952619Y-15402143D01*
X8971667Y-15411667D01*
X9047857Y-15611667D02*
X9057381Y-15602143D01*
X9076429Y-15573571D01*
X9085952Y-15554524D01*
X9095476Y-15525952D01*
X9105000Y-15478333D01*
X9105000Y-15440238D01*
X9095476Y-15392619D01*
X9085952Y-15364048D01*
X9076429Y-15345000D01*
X9057381Y-15316428D01*
X9047857Y-15306905D01*
M02*
