M48
; DRILL file {KiCad (6.0.4)} date Sun Nov 12 14:02:14 2023
; FORMAT={-:-/ absolute / metric / decimal}
; #@! TF.CreationDate,2023-11-12T14:02:14+01:00
; #@! TF.GenerationSoftware,Kicad,Pcbnew,(6.0.4)
; #@! TF.FileFunction,Plated,1,2,PTH
FMAT,2
METRIC
; #@! TA.AperFunction,Plated,PTH,ViaDrill
T1C0.400
; #@! TA.AperFunction,Plated,PTH,ViaDrill
T2C0.500
; #@! TA.AperFunction,Plated,PTH,ComponentDrill
T3C0.600
; #@! TA.AperFunction,Plated,PTH,ComponentDrill
T4C0.800
; #@! TA.AperFunction,Plated,PTH,ComponentDrill
T5C1.000
; #@! TA.AperFunction,Plated,PTH,ComponentDrill
T6C1.100
%
G90
G05
T1
X53.077Y-89.574
X64.0Y-54.0
X77.212Y-56.465
T2
X56.0Y-53.0
X57.0Y-71.0
X57.452Y-108.436
X62.0Y-107.0
X68.0Y-126.0
X72.0Y-68.0
X78.0Y-76.0
X78.99Y-94.993
T4
X26.0Y-125.92
X26.0Y-136.08
X43.0Y-131.92
X43.0Y-142.08
T5
X26.0Y-55.0
X26.0Y-57.54
X26.0Y-75.0
X26.0Y-79.0
X26.0Y-81.54
X26.0Y-84.08
X26.0Y-86.62
X26.0Y-89.16
X26.0Y-91.7
X26.0Y-100.0
X26.0Y-102.54
X26.0Y-116.0
X26.0Y-118.54
X26.0Y-140.46
X26.0Y-143.0
X28.54Y-75.0
X31.475Y-146.025
X34.015Y-146.025
X36.555Y-146.025
X41.0Y-146.0
X43.54Y-146.0
X48.0Y-146.0
X50.54Y-146.0
X53.08Y-146.0
X58.025Y-57.5
X58.025Y-60.0
X58.025Y-62.5
X58.025Y-76.5
X58.025Y-79.0
X58.025Y-81.5
X58.025Y-95.5
X58.025Y-98.0
X58.025Y-100.5
X58.025Y-114.5
X58.025Y-117.0
X58.025Y-119.5
X58.025Y-133.5
X58.025Y-136.0
X58.025Y-138.5
X60.525Y-57.5
X60.525Y-60.0
X60.525Y-62.5
X60.525Y-76.5
X60.525Y-79.0
X60.525Y-81.5
X60.525Y-95.5
X60.525Y-98.0
X60.525Y-100.5
X60.525Y-114.5
X60.525Y-117.0
X60.525Y-119.5
X60.525Y-133.5
X60.525Y-136.0
X60.525Y-138.5
X80.0Y-55.0
X80.0Y-57.54
X80.0Y-70.0
X80.0Y-72.54
X80.0Y-79.0
X80.0Y-81.54
X80.0Y-84.08
X80.0Y-86.62
X80.0Y-89.16
X80.0Y-91.7
X80.0Y-100.0
X80.0Y-102.54
X80.0Y-116.0
X80.0Y-118.54
T3
X34.5Y-55.08G85X35.5Y-55.08
G05
X34.5Y-63.38G85X35.5Y-63.38
G05
X34.5Y-66.48G85X35.5Y-66.48
G05
X34.5Y-74.08G85X35.5Y-74.08
G05
X34.5Y-82.38G85X35.5Y-82.38
G05
X34.5Y-85.48G85X35.5Y-85.48
G05
X34.5Y-93.08G85X35.5Y-93.08
G05
X34.5Y-101.38G85X35.5Y-101.38
G05
X34.5Y-104.48G85X35.5Y-104.48
G05
X34.5Y-112.08G85X35.5Y-112.08
G05
X34.5Y-120.38G85X35.5Y-120.38
G05
X34.5Y-123.48G85X35.5Y-123.48
G05
X34.5Y-131.08G85X35.5Y-131.08
G05
X34.5Y-139.38G85X35.5Y-139.38
G05
X34.5Y-142.48G85X35.5Y-142.48
G05
X49.5Y-55.08G85X50.5Y-55.08
G05
X49.5Y-63.38G85X50.5Y-63.38
G05
X49.5Y-66.48G85X50.5Y-66.48
G05
X49.5Y-74.08G85X50.5Y-74.08
G05
X49.5Y-82.38G85X50.5Y-82.38
G05
X49.5Y-85.48G85X50.5Y-85.48
G05
X49.5Y-93.08G85X50.5Y-93.08
G05
X49.5Y-101.38G85X50.5Y-101.38
G05
X49.5Y-104.48G85X50.5Y-104.48
G05
X49.5Y-112.08G85X50.5Y-112.08
G05
X49.5Y-120.38G85X50.5Y-120.38
G05
X49.5Y-123.48G85X50.5Y-123.48
G05
X49.5Y-131.08G85X50.5Y-131.08
G05
X49.5Y-139.38G85X50.5Y-139.38
G05
X49.5Y-142.48G85X50.5Y-142.48
G05
T6
X67.675Y-55.25G85X68.375Y-55.25
G05
X67.675Y-64.75G85X68.375Y-64.75
G05
X67.675Y-74.25G85X68.375Y-74.25
G05
X67.675Y-83.75G85X68.375Y-83.75
G05
X67.675Y-93.25G85X68.375Y-93.25
G05
X67.675Y-102.75G85X68.375Y-102.75
G05
X67.675Y-112.25G85X68.375Y-112.25
G05
X67.675Y-121.75G85X68.375Y-121.75
G05
X67.675Y-131.25G85X68.375Y-131.25
G05
X67.675Y-140.75G85X68.375Y-140.75
G05
T0
M30
