G04 #@! TF.GenerationSoftware,KiCad,Pcbnew,(6.0.4)*
G04 #@! TF.CreationDate,2023-11-12T14:02:13+01:00*
G04 #@! TF.ProjectId,Mixer_FRONT,4d697865-725f-4465-924f-4e542e6b6963,rev?*
G04 #@! TF.SameCoordinates,Original*
G04 #@! TF.FileFunction,Soldermask,Top*
G04 #@! TF.FilePolarity,Negative*
%FSLAX46Y46*%
G04 Gerber Fmt 4.6, Leading zero omitted, Abs format (unit mm)*
G04 Created by KiCad (PCBNEW (6.0.4)) date 2023-11-12 14:02:13*
%MOMM*%
%LPD*%
G01*
G04 APERTURE LIST*
G04 Aperture macros list*
%AMRoundRect*
0 Rectangle with rounded corners*
0 $1 Rounding radius*
0 $2 $3 $4 $5 $6 $7 $8 $9 X,Y pos of 4 corners*
0 Add a 4 corners polygon primitive as box body*
4,1,4,$2,$3,$4,$5,$6,$7,$8,$9,$2,$3,0*
0 Add four circle primitives for the rounded corners*
1,1,$1+$1,$2,$3*
1,1,$1+$1,$4,$5*
1,1,$1+$1,$6,$7*
1,1,$1+$1,$8,$9*
0 Add four rect primitives between the rounded corners*
20,1,$1+$1,$2,$3,$4,$5,0*
20,1,$1+$1,$4,$5,$6,$7,0*
20,1,$1+$1,$6,$7,$8,$9,0*
20,1,$1+$1,$8,$9,$2,$3,0*%
G04 Aperture macros list end*
%ADD10O,3.240000X2.720000*%
%ADD11R,1.800000X1.800000*%
%ADD12C,1.800000*%
%ADD13O,3.100000X2.300000*%
%ADD14RoundRect,0.650000X-0.650000X-0.650000X0.650000X-0.650000X0.650000X0.650000X-0.650000X0.650000X0*%
%ADD15C,3.200000*%
%ADD16C,1.600000*%
%ADD17O,1.600000X1.600000*%
%ADD18R,1.700000X1.700000*%
%ADD19O,1.700000X1.700000*%
G04 APERTURE END LIST*
D10*
X68025000Y-131250000D03*
X68025000Y-140750000D03*
D11*
X60525000Y-133500000D03*
D12*
X60525000Y-136000000D03*
X60525000Y-138500000D03*
X58025000Y-133500000D03*
X58025000Y-136000000D03*
X58025000Y-138500000D03*
D10*
X68025000Y-64750000D03*
X68025000Y-55250000D03*
D11*
X60525000Y-57500000D03*
D12*
X60525000Y-60000000D03*
X60525000Y-62500000D03*
X58025000Y-57500000D03*
X58025000Y-60000000D03*
X58025000Y-62500000D03*
D13*
X35000000Y-66480000D03*
D14*
X35000000Y-55080000D03*
X35000000Y-63380000D03*
D15*
X28000000Y-68000000D03*
D13*
X50000000Y-104480000D03*
D14*
X50000000Y-93080000D03*
X50000000Y-101380000D03*
D13*
X35000000Y-123480000D03*
D14*
X35000000Y-112080000D03*
X35000000Y-120380000D03*
D13*
X50000000Y-85480000D03*
D14*
X50000000Y-74080000D03*
X50000000Y-82380000D03*
D15*
X78000000Y-125000000D03*
D13*
X50000000Y-66480000D03*
D14*
X50000000Y-55080000D03*
X50000000Y-63380000D03*
D16*
X43000000Y-142080000D03*
D17*
X43000000Y-131920000D03*
D13*
X50000000Y-123480000D03*
D14*
X50000000Y-112080000D03*
X50000000Y-120380000D03*
D13*
X35000000Y-104480000D03*
D14*
X35000000Y-93080000D03*
X35000000Y-101380000D03*
D10*
X68025000Y-83750000D03*
X68025000Y-74250000D03*
D11*
X60525000Y-76500000D03*
D12*
X60525000Y-79000000D03*
X60525000Y-81500000D03*
X58025000Y-76500000D03*
X58025000Y-79000000D03*
X58025000Y-81500000D03*
D10*
X68025000Y-93250000D03*
X68025000Y-102750000D03*
D11*
X60525000Y-95500000D03*
D12*
X60525000Y-98000000D03*
X60525000Y-100500000D03*
X58025000Y-95500000D03*
X58025000Y-98000000D03*
X58025000Y-100500000D03*
D10*
X68025000Y-112250000D03*
X68025000Y-121750000D03*
D11*
X60525000Y-114500000D03*
D12*
X60525000Y-117000000D03*
X60525000Y-119500000D03*
X58025000Y-114500000D03*
X58025000Y-117000000D03*
X58025000Y-119500000D03*
D16*
X26000000Y-136080000D03*
D17*
X26000000Y-125920000D03*
D13*
X50000000Y-142480000D03*
D14*
X50000000Y-131080000D03*
X50000000Y-139380000D03*
D13*
X35000000Y-85480000D03*
D14*
X35000000Y-74080000D03*
X35000000Y-82380000D03*
D13*
X35000000Y-142480000D03*
D14*
X35000000Y-131080000D03*
X35000000Y-139380000D03*
D18*
X26000000Y-100000000D03*
D19*
X26000000Y-102540000D03*
D18*
X26000000Y-75000000D03*
D19*
X28540000Y-75000000D03*
D18*
X80000000Y-79000000D03*
D19*
X80000000Y-81540000D03*
X80000000Y-84080000D03*
X80000000Y-86620000D03*
X80000000Y-89160000D03*
X80000000Y-91700000D03*
D18*
X26000000Y-116000000D03*
D19*
X26000000Y-118540000D03*
D18*
X80000000Y-57540000D03*
D19*
X80000000Y-55000000D03*
D18*
X26000000Y-55000000D03*
D19*
X26000000Y-57540000D03*
D18*
X31475000Y-146025000D03*
D19*
X34015000Y-146025000D03*
X36555000Y-146025000D03*
D18*
X80000000Y-118540000D03*
D19*
X80000000Y-116000000D03*
D18*
X80000000Y-72540000D03*
D19*
X80000000Y-70000000D03*
D18*
X26000000Y-140460000D03*
D19*
X26000000Y-143000000D03*
D18*
X26000000Y-79000000D03*
D19*
X26000000Y-81540000D03*
X26000000Y-84080000D03*
X26000000Y-86620000D03*
X26000000Y-89160000D03*
X26000000Y-91700000D03*
D18*
X48000000Y-146000000D03*
D19*
X50540000Y-146000000D03*
X53080000Y-146000000D03*
D18*
X41000000Y-146000000D03*
D19*
X43540000Y-146000000D03*
D18*
X80000000Y-102540000D03*
D19*
X80000000Y-100000000D03*
M02*
