<?xml version="1.0" encoding="UTF-8" standalone="no"?>
<!-- Created with Inkscape (http://www.inkscape.org/) -->

<svg
   version="1.1"
   id="svg1"
   width="230.26666"
   height="488.26666"
   viewBox="0 0 230.26666 488.26666"
   sodipodi:docname="board.svg"
   inkscape:version="1.3 (0e150ed6c4, 2023-07-21)"
   xmlns:inkscape="http://www.inkscape.org/namespaces/inkscape"
   xmlns:sodipodi="http://sodipodi.sourceforge.net/DTD/sodipodi-0.dtd"
   xmlns="http://www.w3.org/2000/svg"
   xmlns:svg="http://www.w3.org/2000/svg">
  <defs
     id="defs1">
    <clipPath
       clipPathUnits="userSpaceOnUse"
       id="clipPath2">
      <path
         d="M 0,366.2 H 172.7 V 0 H 0 Z"
         transform="translate(-99.000002,-142.00001)"
         id="path2" />
    </clipPath>
  </defs>
  <sodipodi:namedview
     id="namedview1"
     pagecolor="#ffffff"
     bordercolor="#666666"
     borderopacity="1.0"
     inkscape:showpageshadow="2"
     inkscape:pageopacity="0.0"
     inkscape:pagecheckerboard="0"
     inkscape:deskcolor="#d1d1d1"
     inkscape:zoom="1.6814582"
     inkscape:cx="115.37605"
     inkscape:cy="244.13333"
     inkscape:window-width="1920"
     inkscape:window-height="1017"
     inkscape:window-x="1912"
     inkscape:window-y="-8"
     inkscape:window-maximized="1"
     inkscape:current-layer="layer-MC0">
    <inkscape:page
       x="0"
       y="0"
       inkscape:label="1"
       id="page1"
       width="230.26666"
       height="488.26666"
       margin="171.60001 83.73333 232.088 120.8672"
       bleed="0" />
  </sodipodi:namedview>
  <g
     id="layer-MC0"
     inkscape:groupmode="layer"
     inkscape:label="Ebene 3">
    <path
       id="path1"
       d="m 0,0 v -4.3 h 0.65 c -0.233,1.1 -0.3,2.484 -0.2,4.151 V 0 Z M 1,6.8 0.6,6.601 H 0.15 V 5.75 5.601 C 0.35,5.667 0.5,5.717 0.6,5.75 0.8,5.917 0.967,6 1.1,6 1.033,6.101 1,6.3 1,6.601 Z m -0.25,9 c -0.267,0 -0.467,0.034 -0.6,0.1 H -0.4 c 0.1,-1.867 0.2,-3.883 0.3,-6.049 L 0.35,9.9 c 0.2,0.133 0.35,0.25 0.45,0.35 l 0.15,0.15 c 0,0.1 0.017,0.201 0.05,0.3 H 0.6 c -0.166,0.401 -0.25,1.434 -0.25,3.1 l 0.1,1.65 H 1 C 0.934,15.584 0.85,15.7 0.75,15.8 m -1.3,6.15 h 0.25 l -0.1,0.151 c 0,0.033 0.05,0.099 0.15,0.199 H -0.3 -0.55 Z M 3.3,24.101 V 24 c 0.066,-0.1 0.117,-0.166 0.15,-0.2 0.067,0.1 0.166,0.15 0.3,0.15 0,0.134 -0.05,0.25 -0.15,0.35 -0.133,0.2 -0.433,0.301 -0.9,0.301 L 1.85,24.45 0,24.4 h -0.3 -0.25 c 0.067,0.002 0.1,0.019 0.1,0.05 H -0.6 c 0,-0.533 0.017,-1.099 0.05,-1.7 h 0.7 0.95 l 0.75,0.55 c 0.2,0.067 0.3,0.15 0.3,0.25 0.034,0.1 0.133,0.25 0.3,0.45 h 0.1 v 0.101 H 2.7 c 0.067,0 0.116,0.016 0.15,0.049 l 0.1,-0.049 c 0.1,0.033 0.166,0.049 0.2,0.049 l 0.1,-0.049 z M 3.55,22 v -0.05 c 0.033,-0.099 0.084,-0.183 0.15,-0.25 0.033,0.1 0.133,0.151 0.3,0.151 0,0.166 -0.05,0.299 -0.15,0.399 -0.166,0.2 -0.466,0.3 -0.9,0.3 L 2.05,22.4 C 2.017,22.4 1.967,22.367 1.9,22.3 1.5,22.066 1.25,21.9 1.15,21.8 1.05,21.601 0.884,21.434 0.65,21.3 0.35,21.134 0.184,21.101 0.15,21.2 L -0.1,21.601 -0.55,21.5 v -0.2 c 0,-0.199 0.033,-0.4 0.1,-0.6 h -0.1 c 0,-0.266 0.033,-0.533 0.1,-0.8 h 0.35 l -0.05,0.15 v 0.051 c -0.065,0.032 -0.115,0.048 -0.15,0.049 h 0.05 L -0.3,20.4 h 0.05 l -0.05,0.15 h 0.15 v 0.051 h 0.5 c 0,0.099 0.317,0.333 0.95,0.699 0.5,0.2 0.9,0.317 1.2,0.35 0,0.034 0.017,0.083 0.05,0.15 v 0.051 C 2.55,22.05 2.7,22.2 3,22.3 3.3,22.4 3.45,22.334 3.45,22.101 V 22 Z M 3.6,19 c 0.067,0.101 0.167,0.117 0.3,0.05 0,0.167 -0.016,0.317 -0.05,0.45 -0.166,0.2 -0.466,0.334 -0.9,0.4 H 1.7 C 1.533,19.834 1.434,19.783 1.4,19.75 1.3,19.55 1.134,19.367 0.9,19.2 0.6,19.066 0.417,19.05 0.35,19.15 l -0.2,0.35 -0.6,-0.05 V 19.3 18.851 17.9 c 0.033,0.034 0.084,0.05 0.15,0.05 0,0.067 0.017,0.116 0.05,0.151 0.1,0.066 0.2,0.099 0.3,0.099 0.167,0.1 0.25,0.116 0.25,0.05 0.134,0 0.25,-0.017 0.35,-0.05 l 1.25,0.5 c 0.2,0.1 0.3,0.2 0.3,0.3 0.067,0.033 0.184,0.15 0.35,0.351 H 2.7 v 0.099 l 0.15,-0.099 c 0.067,0 0.117,0.033 0.15,0.099 l 0.1,-0.099 c 0.1,0.066 0.167,0.099 0.2,0.099 L 3.4,19.3 H 3.45 V 19.2 C 3.517,19.101 3.566,19.033 3.6,19 m -4.15,8.05 V 26.7 H -0.1 L 0,26.601 C 0.033,26.9 0.05,27.117 0.05,27.25 L 0,27.7 h -0.55 c -0.033,-0.233 -0.033,-0.45 0,-0.65 M 0,30.45 c 0.033,0.3 0.05,0.517 0.05,0.651 L 0,31.55 h -0.55 c -0.033,-0.333 -0.033,-0.683 0,-1.05 h 0.45 z m -0.45,4.651 h 0.2 v 0.049 0.15 h -0.2 c -0.067,-0.033 -0.067,-0.1 0,-0.199 M 0.8,44.55 c -0.533,0.067 -0.9,0.15 -1.1,0.25 v -6 h 0.05 c 0.5,0 0.9,0.117 1.2,0.35 0.033,0 0.05,0.034 0.05,0.1 0.066,0.033 0.1,0.084 0.1,0.15 v 0.05 H 0.65 c -0.133,0.401 -0.2,1.433 -0.2,3.1 L 0.5,44.2 H 1.1 C 1,44.333 0.9,44.45 0.8,44.55 M -1.35,50 c 0.8,0.467 1.2,-0.283 1.2,-2.25 0,-0.5 -0.05,-0.85 -0.15,-1.05 V 45.15 H 0 c 0.967,0 1.55,-0.216 1.75,-0.65 V 44.2 H 2 c 0.1,-0.1 0.15,-0.4 0.15,-0.9 0,-0.4 0.017,-1.067 0.05,-2 C 2.2,40.567 2.083,40 1.85,39.601 V 39.55 c 0,-0.3 -0.1,-0.55 -0.3,-0.75 l -0.1,0.051 C 1.217,38.65 0.8,38.5 0.2,38.4 L 0,38.2 h -0.3 v -0.05 c -0.066,-0.2 -0.1,-0.433 -0.1,-0.7 h 0.6 c 0,0.366 0.1,0.6 0.3,0.7 l 2.2,0.201 C 3,38.05 3.15,37.75 3.15,37.45 c 0,-0.099 -0.067,-0.2 -0.2,-0.3 -0.066,0 -0.683,-0.066 -1.85,-0.2 H 0.35 v 0.151 H -0.4 c -0.034,-0.334 -0.05,-0.75 -0.05,-1.25 h 0.6 L 0.2,35.75 c 0.067,0.066 0.15,0.101 0.25,0.101 0.467,0 0.7,-0.184 0.7,-0.551 0,-0.567 -0.167,-0.85 -0.5,-0.85 -0.233,0 -0.433,0.05 -0.6,0.151 h -0.5 c -0.067,-0.601 -0.1,-1.267 -0.1,-2 V 32.15 c 0.166,0.034 0.317,0.05 0.45,0.05 v 0.1 c 0,0.334 0.3,0.483 0.9,0.45 h 3.7 c 0.434,-0.1 0.65,-0.8 0.65,-2.1 0,-0.766 -0.167,-1.15 -0.5,-1.15 l -0.9,0.15 H 0.15 C 0.05,29.75 0,29.851 0,29.95 h -0.55 c -0.033,-0.4 -0.05,-0.8 -0.05,-1.2 h 0.05 V 28.3 c 0.166,0.034 0.317,0.051 0.45,0.051 v 0.099 c 0,0.333 0.3,0.484 0.9,0.45 h 3.7 c 0.434,-0.1 0.65,-0.799 0.65,-2.1 0,-0.767 -0.167,-1.15 -0.5,-1.15 L 3.75,25.8 H 0.15 C 0.05,25.9 0,26 0,26.101 H -0.6 V 24.9 c 0.133,0.067 0.284,0.1 0.45,0.1 0.334,0 0.75,0.017 1.25,0.05 0.2,0.034 0.417,0.051 0.65,0.051 H 2.5 L 2.65,25 H 2.8 C 3.7,25 4.15,24.7 4.15,24.101 4.15,23.934 3.967,23.684 3.6,23.351 3.667,23.217 3.7,23.066 3.7,22.9 L 3.6,22.851 C 4.1,22.75 4.35,22.467 4.35,22 4.35,21.867 4.184,21.634 3.85,21.3 3.884,21.134 3.9,20.983 3.9,20.851 L 3.6,20.7 C 3.5,20.634 3.384,20.634 3.25,20.7 3.083,20.634 2.934,20.584 2.8,20.55 2.7,20.55 2.533,20.467 2.3,20.3 L 3.1,20.25 C 3.967,20.15 4.35,19.8 4.25,19.2 4.25,19.066 4.066,18.851 3.7,18.55 V 18.2 L 3.75,18.101 3.7,17.95 3.55,17.9 v 0.05 H 3.45 C 3.417,17.816 3.3,17.75 3.1,17.75 3,17.783 2.9,17.834 2.8,17.9 L 2.65,17.8 v 0.1 H 2.5 C 1.866,17.601 1.417,17.4 1.15,17.3 L 1.1,17.2 0.95,17.15 V 17.2 C 0.816,17.066 0.65,16.95 0.45,16.851 0.283,16.783 0.184,16.75 0.15,16.75 H 0 c -0.1,0 -0.15,0.033 -0.15,0.101 L -0.3,17.3 H -0.4 V 16.25 H 0.2 C 0.667,16.25 0.934,16.2 1,16.101 1.066,16.066 1.167,16 1.3,15.9 v -0.45 h 0.6 c 0.1,-0.099 0.15,-0.4 0.15,-0.9 0,-0.4 0.033,-1.067 0.1,-2 0,-0.866 -0.183,-1.484 -0.55,-1.85 L 1.55,10.7 1.3,10.25 C 1.267,10.117 1.2,10.033 1.1,10 0.8,9.8 0.583,9.617 0.45,9.45 H 0 C 0,8.684 0.017,7.9 0.05,7.101 H 1.1 V 7.25 C 1.2,7.483 1.5,7.601 2,7.601 2.366,7.601 2.684,7.4 2.95,7 3.083,6.767 3.15,6.533 3.15,6.3 3.15,5.834 2.934,5.5 2.5,5.3 H 1.75 C 1.55,5.467 1.4,5.566 1.3,5.601 L 0.2,5.101 H 0.15 V 4.3 H 1.1 C 1.033,4.2 1,4.101 1,4 L 2.35,3.9 2.5,3.75 2.3,3.55 H 1.4 L 1,3.601 V 3.45 C 1,3.417 0.983,3.384 0.95,3.351 1.05,3.25 1.1,3.15 1.1,3.05 V 2.95 H 2.2 L 2.35,2.8 2.15,2.601 h -1 L 1.1,2.75 V 2.05 L 2.3,2.2 2.45,2.05 C 2.283,1.95 2.083,1.834 1.85,1.7 H 1.1 L 1,1.851 C 0.967,1.55 0.9,1.351 0.8,1.25 H 0.2 L 0,1.4 V 0.5 L 0.6,0.601 C 0.634,0.5 0.684,0.4 0.75,0.3 h 3 C 3.85,0.066 3.934,-0.399 4,-1.1 h 0.35 l 0.05,-0.1 2.9,0.1 c 0.3,0 0.566,0.017 0.8,0.05 0.266,0.067 1.133,0.116 2.6,0.151 0.133,-0.035 0.2,-0.318 0.2,-0.851 0,-0.7 -0.167,-1.083 -0.5,-1.149 L 4,-3.05 C 3.934,-3.684 3.85,-4.05 3.75,-4.149 H 2.85 L 2.8,-4.05 H 0.95 V -4.2 -4.45 L 1,-4.5 0.75,-4.8 C 0.583,-4.833 0.333,-4.883 0,-4.95 V -7.149 C -0.366,-7.85 -0.517,-8.833 -0.45,-10.1 v -3.1 l -0.3,-0.1 c -0.033,0.067 -0.05,0.134 -0.05,0.2 -0.066,-0.066 -0.15,-0.133 -0.25,-0.2 h -6.4 c -0.6,0.533 -0.9,1.517 -0.9,2.95 0,0.333 0.2,0.55 0.6,0.65 0.566,0.167 1.983,0.301 4.25,0.4 h 1.65 c 0.3,-0.2 0.517,-0.5 0.65,-0.9 0.066,1.667 0.217,2.834 0.45,3.5 v 1.75 h -0.2 l -0.1,0.35 h 0.1 l -0.15,0.3 h 0.35 V 0.101 H -1.1 L -1.2,0.45 h 0.45 v 2.8 c 0.1,0.4 0.15,1.017 0.15,1.851 H -1.1 L -1.25,5.45 h 0.65 v 0.3 0.851 H -0.9 L -1.05,6.95 -0.7,7 c -0.033,0.867 -0.05,1.667 -0.05,2.4 h -0.6 l -0.05,0.35 0.2,0.101 h 0.45 c -0.134,2 -0.233,3.916 -0.3,5.75 L -1.1,15.9 h -0.25 l -0.15,0.35 h 0.3 v 0.25 h 0.15 c -0.033,1.033 -0.05,1.983 -0.05,2.851 L -1.35,19.3 -1.8,19.601 v 0.149 h 0.3 v 0.05 h 0.4 c -0.067,0.534 -0.1,1.051 -0.1,1.551 h -0.05 l -0.1,0.299 h -0.3 L -1.8,22 h 0.6 v 0.101 h -0.05 c -0.167,0 -0.316,0.066 -0.45,0.199 L -1.95,22.4 -2,22.7 c 0,0.1 0.1,0.167 0.3,0.2 L -1.8,23 h 0.6 c -0.033,0.367 -0.05,0.75 -0.05,1.15 -0.2,0.166 -0.35,0.267 -0.45,0.3 h -0.45 l -0.15,0.401 h 0.6 C -1.6,24.95 -1.45,25 -1.25,25 v 1.101 h -0.1 c -0.233,0 -0.35,0.116 -0.35,0.349 0,0.1 0.117,0.151 0.35,0.151 h 0.1 V 27.8 H -1.7 l -0.15,0.301 c 0,0.166 0.166,0.25 0.5,0.25 l 0.1,-0.051 c 0,0.534 0.017,1.051 0.05,1.551 h -0.05 l -0.4,0.299 v 0.35 h 0.45 c -0.033,0.367 -0.033,0.717 0,1.05 h -0.5 l -0.15,0.35 c 0,0.267 0.2,0.4 0.6,0.4 h 0.05 v 2.301 h -0.05 l -0.1,0.299 v 0.1 0.101 h 0.1 c 0,0.033 0.05,0.049 0.15,0.049 v 0.1 h -0.1 v 0.05 c -0.1,0.067 -0.166,0.1 -0.2,0.1 -0.067,0.034 -0.117,0.083 -0.15,0.15 0,0.2 0.1,0.301 0.3,0.301 h 0.15 c 0,0.866 0.017,1.649 0.05,2.349 h -0.2 c -0.167,0.067 -0.25,0.167 -0.25,0.3 0,0.233 0.083,0.351 0.25,0.351 h 0.2 V 44.55 H -1.5 c -0.233,0.167 -0.3,0.367 -0.2,0.6 l 0.65,0.2 v 1.7 L -1.1,47 l -3,-0.15 c -1.167,0 -1.8,0.05 -1.9,0.15 -0.033,0.034 -0.083,0.083 -0.15,0.15 h -0.5 c -0.267,0.134 -0.4,0.384 -0.4,0.75 0,0.333 0.05,0.65 0.15,0.95 v 0.05 c -0.1,0.367 -0.15,0.6 -0.15,0.7 -0.033,0.033 -0.084,0.084 -0.15,0.15 v 0.35 c 0.1,0.033 1.467,-0.017 4.1,-0.15 h 1.75 z"
       style="fill:#666666;fill-opacity:1;fill-rule:evenodd;stroke:none"
       transform="matrix(1.3333333,0,0,-1.3333333,132,298.93333)"
       clip-path="url(#clipPath2)" />
  </g>
</svg>
