<?xml version="1.0" encoding="UTF-8" standalone="no"?>
<!-- Created with Inkscape (http://www.inkscape.org/) -->

<svg
   version="1.1"
   id="svg1"
   width="230.26666"
   height="488.26666"
   viewBox="0 0 230.26666 488.26666"
   sodipodi:docname="cable4.svg"
   inkscape:version="1.3 (0e150ed6c4, 2023-07-21)"
   xmlns:inkscape="http://www.inkscape.org/namespaces/inkscape"
   xmlns:sodipodi="http://sodipodi.sourceforge.net/DTD/sodipodi-0.dtd"
   xmlns="http://www.w3.org/2000/svg"
   xmlns:svg="http://www.w3.org/2000/svg">
  <defs
     id="defs1">
    <clipPath
       clipPathUnits="userSpaceOnUse"
       id="clipPath2">
      <path
         d="M 0,366.2 H 172.7 V 0 H 0 Z"
         transform="translate(-16.4502,-109.75001)"
         id="path2" />
    </clipPath>
  </defs>
  <sodipodi:namedview
     id="namedview1"
     pagecolor="#ffffff"
     bordercolor="#666666"
     borderopacity="1.0"
     inkscape:showpageshadow="2"
     inkscape:pageopacity="0.0"
     inkscape:pagecheckerboard="0"
     inkscape:deskcolor="#d1d1d1"
     inkscape:zoom="1.6814582"
     inkscape:cx="115.37605"
     inkscape:cy="244.13333"
     inkscape:window-width="1920"
     inkscape:window-height="1017"
     inkscape:window-x="1912"
     inkscape:window-y="-8"
     inkscape:window-maximized="1"
     inkscape:current-layer="layer-MC0">
    <inkscape:page
       x="0"
       y="0"
       inkscape:label="1"
       id="page1"
       width="230.26666"
       height="488.26666"
       margin="82.73307 196.26666 251.86667 9.666667"
       bleed="0" />
  </sodipodi:namedview>
  <g
     id="layer-MC0"
     inkscape:groupmode="layer"
     inkscape:label="Ebene 3">
    <path
       id="path1"
       d="M 0,0 H -0.025 C -0.056,-0.1 -0.081,-0.199 -0.1,-0.3 Z m 2.25,66.9 c 0.495,0.226 1.195,0.393 2.1,0.5 l 3.8,0.15 c 0.3,-0.433 0.45,-1.3 0.45,-2.6 0,-0.634 -0.05,-1.866 -0.15,-3.7 -0.067,-1.866 -0.1,-3.717 -0.1,-5.55 0,-0.933 0.083,-2.45 0.25,-4.55 0,-0.2 -0.083,-0.299 -0.25,-0.299 -0.733,0.033 -1.25,0.199 -1.55,0.5 H 6.15 L 3.05,51.4 C 1.816,51.134 1.033,51.983 0.7,53.95 0.6,54.55 0.55,55.767 0.55,57.601 V 57.8 C 0.506,57.751 0.464,57.701 0.425,57.65 0.264,57.464 0.105,57.264 -0.05,57.05 c -0.414,-0.682 -0.714,-1.114 -0.9,-1.3 -4.267,-7.026 -6.4,-22.427 -6.4,-46.2 0,-9.633 0.25,-15.333 0.75,-17.1 v -19.599 c 0.333,-1.868 0.65,-4.851 0.95,-8.951 0.466,-3.733 1.333,-6.716 2.6,-8.95 h 0.25 c -0.2,2.366 -0.333,5.783 -0.4,10.25 -0.033,2.3 -0.05,4.533 -0.05,6.7 -0.434,6.5 -0.284,12.617 0.45,18.35 0.253,1.946 0.569,3.722 0.95,5.325 v 0.276 c 0,0.533 0.15,2.049 0.45,4.549 0.037,0 0.071,-0.008 0.1,-0.025 C -1.004,1.184 -0.187,2.459 1.15,4.2 1.296,4.215 1.454,4.231 1.625,4.25 1.717,4.399 1.775,4.582 1.8,4.8 1.804,4.844 1.812,4.885 1.825,4.925 1.796,4.969 1.771,5.011 1.75,5.05 V 8 L 1.8,8.601 c 0,0.224 -0.017,0.441 -0.05,0.649 0.112,0.295 0.229,0.661 0.35,1.101 0.033,0.132 0.267,0.449 0.7,0.949 0.023,0.025 0.048,0.05 0.075,0.075 0.479,0.194 1.121,0.336 1.925,0.425 l 3.8,0.15 C 8.9,11.517 9.05,10.65 9.05,9.351 9.05,8.974 9.033,8.383 9,7.575 8.975,7.552 8.958,7.526 8.95,7.5 8.917,7.434 8.9,7.283 8.9,7.05 8.9,6.921 8.917,6.762 8.95,6.575 8.961,6.494 8.978,6.402 9,6.3 8.977,6.289 8.952,6.281 8.925,6.275 8.92,6.078 8.912,5.869 8.9,5.65 8.833,3.783 8.8,1.934 8.8,0.101 c 0,-0.934 0.083,-2.451 0.25,-4.551 0,-0.199 -0.084,-0.3 -0.25,-0.3 -0.734,0.033 -1.25,0.2 -1.55,0.5 H 6.6 L 4.975,-4.225 C 4.828,-4.197 4.669,-4.173 4.5,-4.149 3.4,-3.95 2.683,-3.583 2.35,-3.05 c -0.2,0.333 -0.3,0.783 -0.3,1.35 0,0.634 -0.017,1.1 -0.05,1.4 V 2.5 H 1.9 C 1,1.434 0.383,-0.166 0.05,-2.3 c -0.092,-0.643 -0.2,-1.477 -0.325,-2.5 0.009,-0.096 0.017,-0.196 0.025,-0.3 0.029,-0.232 0.07,-0.432 0.125,-0.6 -0.023,-0.109 -0.048,-0.216 -0.075,-0.324 0.017,-0.19 0.034,-0.381 0.05,-0.576 -0.018,-0.073 -0.085,-0.156 -0.2,-0.25 -0.075,-0.554 -0.142,-1.154 -0.2,-1.799 -0.267,-2.5 -0.533,-4.201 -0.8,-5.101 v -28.8 c 0.233,-0.566 0.35,-1.4 0.35,-2.5 v -1.75 c -0.133,-0.599 -0.633,-0.9 -1.5,-0.9 -2.5,0 -4.133,2.467 -4.9,7.4 -0.4,5.901 -0.733,9.85 -1,11.85 v 19.9 c -0.134,0.667 -0.3,3.417 -0.5,8.25 -0.2,4.567 -0.3,7.783 -0.3,9.651 0,13.199 0.567,23.399 1.7,30.599 1.194,7.495 2.928,13.087 5.2,16.776 0.214,0.35 0.43,0.684 0.65,1 0.033,0.045 0.067,0.087 0.1,0.125 v 0.25 c 0.6,0.465 1.05,0.833 1.35,1.099 0.103,0.085 0.203,0.169 0.3,0.25 0.176,0.123 0.342,0.232 0.5,0.325 0.071,0.931 0.154,1.907 0.25,2.925 0.006,0.087 0.015,0.17 0.025,0.25 0.087,1.191 0.163,1.957 0.225,2.3 0.133,0.634 0.3,1.033 0.5,1.2 0.153,0.165 0.37,0.316 0.65,0.45"
       style="fill:#666666;fill-opacity:1;fill-rule:evenodd;stroke:none"
       transform="matrix(1.3333333,0,0,-1.3333333,21.9336,341.93333)"
       clip-path="url(#clipPath2)" />
  </g>
</svg>
