<?xml version="1.0" encoding="UTF-8" standalone="no"?>
<!-- Created with Inkscape (http://www.inkscape.org/) -->

<svg
   version="1.1"
   id="svg1"
   width="230.26666"
   height="488.20001"
   viewBox="0 0 230.26666 488.20001"
   sodipodi:docname="cable3.svg"
   inkscape:version="1.3 (0e150ed6c4, 2023-07-21)"
   xmlns:inkscape="http://www.inkscape.org/namespaces/inkscape"
   xmlns:sodipodi="http://sodipodi.sourceforge.net/DTD/sodipodi-0.dtd"
   xmlns="http://www.w3.org/2000/svg"
   xmlns:svg="http://www.w3.org/2000/svg">
  <defs
     id="defs1">
    <clipPath
       clipPathUnits="userSpaceOnUse"
       id="clipPath2">
      <path
         d="M 0,366.15 H 172.7 V 0 H 0 Z"
         transform="translate(-25.600101,-181.05081)"
         id="path2" />
    </clipPath>
  </defs>
  <sodipodi:namedview
     id="namedview1"
     pagecolor="#ffffff"
     bordercolor="#666666"
     borderopacity="1.0"
     inkscape:showpageshadow="2"
     inkscape:pageopacity="0.0"
     inkscape:pagecheckerboard="0"
     inkscape:deskcolor="#d1d1d1"
     inkscape:zoom="1.6816878"
     inkscape:cx="115.3603"
     inkscape:cy="244.10001"
     inkscape:window-width="1920"
     inkscape:window-height="1017"
     inkscape:window-x="1912"
     inkscape:window-y="-8"
     inkscape:window-maximized="1"
     inkscape:current-layer="layer-MC0">
    <inkscape:page
       x="0"
       y="0"
       inkscape:label="1"
       id="page1"
       width="230.26666"
       height="488.20001"
       margin="127.9336 185.93333 244.60001 15.899734"
       bleed="0" />
  </sodipodi:namedview>
  <g
     id="layer-MC0"
     inkscape:groupmode="layer"
     inkscape:label="Ebene 1">
    <path
       id="path1"
       d="M 0,0 0.15,-0.051 C 0.217,0.216 0.667,0.533 1.5,0.899 2.4,1.3 3,1.516 3.3,1.55 V 1.649 H 7.4 C 7.566,1.183 7.65,0.25 7.65,-1.15 c 0,-1.767 -0.25,-2.8 -0.75,-3.1 -0.233,-0.134 -1.3,-0.2 -3.2,-0.2 -1.167,0 -2.1,0.467 -2.8,1.399 -5.867,-2.366 -9.75,-7.516 -11.65,-15.449 -0.9,-3.867 -1.35,-10.067 -1.35,-18.601 0,-3.299 0.15,-6.25 0.45,-8.849 0.267,6.566 1.117,12.383 2.55,17.45 0.933,3.133 2.033,5.783 3.3,7.949 0,0.034 0.017,0.051 0.05,0.051 0.167,0.1 0.25,0.267 0.25,0.5 v 0.05 c 1.6,2.066 3.45,3.533 5.55,4.399 0.233,0.101 0.483,0.184 0.75,0.25 0.033,0.901 0.45,1.617 1.25,2.151 0.266,0.2 0.8,0.417 1.6,0.65 0.267,0.1 0.833,0.199 1.7,0.3 0.767,0.133 1.167,0.2 1.2,0.2 0.167,0.033 0.25,0.133 0.25,0.3 h 0.05 c 0.2,-0.334 0.317,-0.917 0.35,-1.75 l 0.15,-4.351 c 0,-0.133 -0.067,-0.283 -0.2,-0.449 L 6.4,-18.351 C 5.7,-18.384 5.35,-18.434 5.35,-18.5 L 3.3,-18.601 c -0.9,0.334 -1.567,0.8 -2,1.401 -0.433,-0.167 -0.85,-0.367 -1.25,-0.601 -1.433,-0.766 -2.734,-1.75 -3.9,-2.949 -0.2,-0.4 -0.5,-0.917 -0.9,-1.551 l -0.05,-0.05 c -1.467,-2.233 -2.634,-4.95 -3.5,-8.149 -1.3,-4.9 -1.95,-11.601 -1.95,-20.101 0,-1 0.033,-1.983 0.1,-2.95 1.9,-5.833 5.2,-9.649 9.9,-11.449 0.3,0.366 0.816,0.733 1.55,1.1 1.233,0.566 2.417,0.883 3.55,0.95 h 1.1 c 0.3,-0.267 0.45,-0.684 0.45,-1.25 0,-0.734 0.017,-1.167 0.05,-1.3 0.233,-0.567 0.35,-1.384 0.35,-2.45 0,-0.3 -0.2,-0.5 -0.6,-0.601 C 5.367,-68.817 4.783,-69.034 4.45,-69.2 H 2.1 c -0.467,0.033 -1.034,0.516 -1.7,1.45 -0.267,0.333 -0.483,0.633 -0.65,0.899 -3.9,0.567 -6.983,2.934 -9.25,7.101 0.533,-3.034 1.3,-6.067 2.3,-9.101 0.766,-2.233 1.617,-4.233 2.55,-6 l 0.05,-0.049 0.1,-0.201 c 1.533,-2.399 3.3,-4.2 5.3,-5.399 0.433,0.966 1.75,1.416 3.95,1.35 l 2.05,0.049 c 0.133,-0.2 0.217,-0.516 0.25,-0.95 0.033,-0.233 0.083,-0.583 0.15,-1.05 v -3.7 L 7.1,-85 6.3,-85.101 H 4.5 l -0.05,0.05 H 4.1 c -0.3,-0.033 -0.517,0.034 -0.65,0.2 -1,0.134 -1.75,0.634 -2.25,1.5 -0.1,0.134 -0.183,0.284 -0.25,0.451 -3.4,2 -6.183,5.15 -8.35,9.45 h 0.15 c -0.6,1.333 -1.15,2.783 -1.65,4.349 -1.567,4.767 -2.483,9.734 -2.75,14.901 -0.167,0.533 -0.317,1.066 -0.45,1.599 -0.767,3.034 -1.25,6.417 -1.45,10.151 -0.067,3.233 -0.1,4.967 -0.1,5.2 -0.034,2.399 -0.034,4.883 0,7.449 0.033,5.068 0.267,8.917 0.7,11.551 0.7,4.3 2.8,8.583 6.3,12.85 2.5,3.099 4.716,4.816 6.65,5.15 z"
       style="fill:#666666;fill-opacity:1;fill-rule:evenodd;stroke:none"
       transform="matrix(1.3333333,0,0,-1.3333333,34.133467,246.79893)"
       clip-path="url(#clipPath2)" />
  </g>
</svg>
