<?xml version="1.0" encoding="UTF-8" standalone="no"?>
<!-- Created with Inkscape (http://www.inkscape.org/) -->

<svg
   version="1.1"
   id="svg1"
   width="230.26666"
   height="488.20001"
   viewBox="0 0 230.26666 488.20001"
   sodipodi:docname="cable2.svg"
   inkscape:version="1.3 (0e150ed6c4, 2023-07-21)"
   xmlns:inkscape="http://www.inkscape.org/namespaces/inkscape"
   xmlns:sodipodi="http://sodipodi.sourceforge.net/DTD/sodipodi-0.dtd"
   xmlns="http://www.w3.org/2000/svg"
   xmlns:svg="http://www.w3.org/2000/svg">
  <defs
     id="defs1">
    <clipPath
       clipPathUnits="userSpaceOnUse"
       id="clipPath2">
      <path
         d="M 0,366.15 H 172.7 V 0 H 0 Z"
         transform="translate(-90.049802,-25.600598)"
         id="path2" />
    </clipPath>
  </defs>
  <sodipodi:namedview
     id="namedview1"
     pagecolor="#ffffff"
     bordercolor="#666666"
     borderopacity="1.0"
     inkscape:showpageshadow="2"
     inkscape:pageopacity="0.0"
     inkscape:pagecheckerboard="0"
     inkscape:deskcolor="#d1d1d1"
     inkscape:zoom="1.6816878"
     inkscape:cx="115.3603"
     inkscape:cy="244.10001"
     inkscape:window-width="1920"
     inkscape:window-height="1017"
     inkscape:window-x="1912"
     inkscape:window-y="-8"
     inkscape:window-maximized="1"
     inkscape:current-layer="layer-MC0">
    <inkscape:page
       x="0"
       y="0"
       inkscape:label="1"
       id="page1"
       width="230.26666"
       height="488.20001"
       margin="12.734373 51.466667 327.79868 13.199866"
       bleed="0" />
  </sodipodi:namedview>
  <g
     id="layer-MC0"
     inkscape:groupmode="layer"
     inkscape:label="Ebene 1">
    <path
       id="path1"
       d="M 0,0 C 0.552,0.351 1.052,0.801 1.5,1.35 1.367,1.316 1.283,1.3 1.25,1.3 1.175,1.3 1.117,1.309 1.075,1.325 L -5.5,1.149 -7,-1.101 h 3.8 C -1.927,-0.898 -0.86,-0.532 0,0 m -6.425,-2.65 v -0.025 c 0.025,0.01 0.05,0.018 0.075,0.025 -0.02,0.003 -0.045,0.003 -0.075,0 M 4.601,6.95 4.575,6.925 V 6.899 Z M -46.5,-14.226 c 0.811,-0.086 2.594,-0.144 5.35,-0.174 1.867,-0.1 5.15,-0.166 9.85,-0.201 l 25.95,1.25 0.55,0.151 13.3,0.75 c 12.533,0.933 21.834,2.333 27.9,4.2 3.779,1.156 5.937,2.331 6.475,3.524 -0.049,0.093 -0.1,0.202 -0.149,0.326 H 42.65 c -0.545,0.88 -1.461,1.83 -2.75,2.85 -2.766,2.166 -6.033,3.199 -9.799,3.1 L 7.15,1.649 7.101,1.6 C 6.3,1.6 5.884,1.616 5.851,1.649 L 3.5,1.55 C 3.325,1.577 3.142,1.594 2.95,1.6 1.851,-0.125 0.301,-1.25 -1.7,-1.775 -2.128,-1.999 -2.595,-2.224 -3.1,-2.45 -4.5,-3.084 -5.617,-3.4 -6.45,-3.4 l -0.1,0.049 V -3.3 L -8.9,-3.351 c -3.566,-2.533 -6.8,-4.366 -9.7,-5.5 -4.9,-1.932 -13.716,-3.599 -26.45,-5 0,-0.033 -0.3,-0.116 -0.9,-0.25 -0.224,-0.046 -0.408,-0.088 -0.55,-0.125 m 34.35,10.976 h -37.9 c -0.4,-0.134 -2.766,-0.767 -7.1,-1.9 -3.433,-0.867 -5.15,-1.484 -5.15,-1.85 0,-1.533 0.4,-2.65 1.2,-3.351 1.5,-1.333 4.517,-2 9.05,-2 12.2,0 21.95,1.234 29.25,3.701 2.467,0.834 4.734,1.85 6.8,3.049 1.9,1.201 3.184,1.984 3.85,2.351 m -24.3,3.1 -13.4,-0.201 c -9.667,-0.599 -16.966,-1.516 -21.9,-2.75 -4.333,-1.066 -6.5,-2.299 -6.5,-3.699 0,-3.301 2.217,-5.016 6.65,-5.15 h 9.1 c -0.133,0.134 -0.483,0.9 -1.05,2.3 -0.567,1.433 -0.85,2.35 -0.85,2.75 0,2.334 4.567,4.216 13.7,5.65 l 40.95,0.149 c 1,1.201 1.534,1.868 1.6,2 v 0.25 C -9.517,1.05 -11.117,0.95 -12.95,0.85 -16.716,0.583 -20.55,0.383 -24.45,0.25 -26.383,0.217 -28.333,0.166 -30.3,0.1 -34.2,0 -36.25,-0.084 -36.45,-0.15 M -5.9,94.7 c 0.218,-0.218 0.335,-0.843 0.35,-1.875 1.035,-0.196 1.935,-0.471 2.7,-0.825 1.833,-0.8 2.817,-1.95 2.951,-3.45 0.132,-0.901 0.215,-2.234 0.25,-4 0,-1.934 0.049,-3.317 0.149,-4.151 0.2,-1.866 0.75,-4.549 1.65,-8.049 0.934,-3.633 1.5,-6.3 1.701,-8 C 4.084,62.416 4.566,57.2 5.3,48.7 6.101,39.3 6.5,33.75 6.5,32.05 6.5,27.583 6.483,24.899 6.45,24 6.283,21.066 5.8,18.3 5,15.7 V 9 C 4.967,8.93 4.95,8.846 4.95,8.75 L 5.05,8.5 4.9,7.1 C 4.9,6.952 4.925,6.827 4.976,6.725 4.965,6.703 4.957,6.678 4.95,6.649 4.75,6.009 4.559,5.509 4.375,5.149 4.253,4.562 4.086,3.995 3.875,3.45 H 3.95 C 4.684,3.517 5.134,3.583 5.3,3.649 5.4,3.717 5.617,3.75 5.95,3.75 L 30.3,3.6 c 5.1,-0.201 9,-1.5 11.7,-3.9 0.179,-0.162 0.346,-0.328 0.5,-0.5 0.161,-0.315 0.336,-0.549 0.525,-0.7 0.029,-0.102 0.079,-0.177 0.15,-0.226 0.069,-0.107 0.128,-0.232 0.176,-0.375 0.099,-0.266 0.233,-0.682 0.399,-1.25 0.159,-1.193 0.26,-1.935 0.3,-2.224 C 43.94,-5.71 43.857,-5.902 43.8,-6.15 43.434,-6.55 42.75,-7.066 41.75,-7.7 41.341,-7.921 40.591,-8.246 39.5,-8.675 l -9.35,-2.426 c -1.633,-0.366 -2.834,-0.616 -3.6,-0.75 -1.3,-0.299 -2.666,-0.533 -4.1,-0.699 -1.118,-0.128 -2.101,-0.262 -2.95,-0.4 C 16.231,-13.306 12.648,-13.622 8.75,-13.9 6.517,-14 4.267,-14.134 2,-14.3 c -4.533,-0.301 -6.9,-0.467 -7.1,-0.5 l -26.6,-1.25 c -6.6,0 -12.366,0.183 -17.3,0.55 -1.395,0.109 -2.703,0.209 -3.925,0.3 -0.305,-0.058 -0.614,-0.116 -0.925,-0.175 -3.57,0.592 -6.203,0.983 -7.9,1.175 l -10.3,0.2 c -5.4,0.133 -8.1,2.566 -8.1,7.3 0,2.266 1.85,3.933 5.55,5 3.933,1.134 12.15,2.283 24.65,3.45 8.634,0.1 13.134,0.217 13.5,0.35 l 11.8,0.2 c 3.033,0.2 6.65,0.384 10.85,0.55 2.967,0.167 5,0.5 6.1,1 0.631,0.261 1.164,0.636 1.6,1.125 0.046,0.285 0.129,0.66 0.25,1.125 0.2,0.733 0.3,1.316 0.3,1.75 0.052,0 0.143,0.016 0.275,0.049 0.286,0.803 0.844,2.32 1.675,4.551 1.234,3.366 1.85,5.699 1.85,7 v 11.8 c 0,6.967 -0.2,11.25 -0.6,12.85 -0.629,2.572 -1.754,4.138 -3.375,4.7 0.049,-0.408 0.091,-0.85 0.125,-1.325 -0.143,0.044 -0.293,0.086 -0.45,0.125 H -14 c -0.292,2.257 -0.442,3.625 -0.45,4.1 0.08,0.026 0.155,0.05 0.225,0.074 0.17,-0.045 0.345,-0.087 0.525,-0.125 h 6.525 c 0.186,0.159 0.378,0.225 0.575,0.201 0.1,0 0.333,-0.083 0.7,-0.25 v -0.951 c 0.211,-0.132 0.461,-0.199 0.75,-0.199 h 0.125 c 0.122,-0.06 0.255,-0.102 0.4,-0.125 0.173,-0.161 0.365,-0.336 0.575,-0.525 1.467,-1.3 2.45,-2.651 2.95,-4.05 0.098,-0.312 0.214,-0.879 0.35,-1.7 0.078,-0.844 0.211,-1.644 0.4,-2.401 V 41.6 41.3 c 0,-0.233 0.05,-0.466 0.15,-0.7 v -0.05 l 0.025,-0.151 C -0.191,40.259 -0.2,40.108 -0.2,39.95 c 0,-0.427 0.092,-0.761 0.275,-1 0.011,-0.084 0.019,-0.167 0.026,-0.25 V 31.35 C 0.101,24.649 -0.017,20.184 -0.25,17.95 -0.696,13.453 -1.738,9.703 -3.375,6.7 -3.689,5.204 -4.031,4.088 -4.4,3.35 L 1.675,3.399 V 3.375 L 2.75,3.399 C 2.949,3.866 3.133,4.366 3.3,4.899 3.44,5.441 3.541,6.059 3.601,6.75 3.483,7.16 3.417,7.493 3.4,7.75 v 0.274 c -0.025,0.003 -0.05,0.003 -0.075,0 0.542,3.082 0.9,6.408 1.075,9.976 0.133,2.399 0.201,7.066 0.201,14 0,2.967 -0.318,8.517 -0.951,16.649 C 3.05,56.25 2.617,60.866 2.351,62.5 2.084,64 1.5,66.517 0.601,70.05 c -0.834,3.266 -1.368,5.8 -1.601,7.599 -0.267,2.234 -0.399,4.767 -0.399,7.601 0.099,0.767 0.166,1.366 0.199,1.8 0.067,0.766 -0.116,1.417 -0.55,1.95 -0.638,0.802 -1.954,1.435 -3.95,1.899 -0.05,-0.204 -0.116,-0.353 -0.2,-0.449 h -7.05 c -0.366,0.4 -0.55,1.5 -0.55,3.3 0,0.166 0.05,0.267 0.15,0.3 0.067,0.033 0.15,0.05 0.25,0.05 2.534,0.066 3.983,0.183 4.35,0.35 0.3,0.166 1.25,0.25 2.85,0.25"
       style="fill:#666666;fill-opacity:1;fill-rule:evenodd;stroke:none"
       transform="matrix(1.3333333,0,0,-1.3333333,120.0664,454.06587)"
       clip-path="url(#clipPath2)" />
  </g>
</svg>
