G04 #@! TF.GenerationSoftware,KiCad,Pcbnew,(6.0.4)*
G04 #@! TF.CreationDate,2023-11-12T14:03:14+01:00*
G04 #@! TF.ProjectId,Mixer_BACK,4d697865-725f-4424-9143-4b2e6b696361,rev?*
G04 #@! TF.SameCoordinates,Original*
G04 #@! TF.FileFunction,Soldermask,Top*
G04 #@! TF.FilePolarity,Negative*
%FSLAX46Y46*%
G04 Gerber Fmt 4.6, Leading zero omitted, Abs format (unit mm)*
G04 Created by KiCad (PCBNEW (6.0.4)) date 2023-11-12 14:03:14*
%MOMM*%
%LPD*%
G01*
G04 APERTURE LIST*
G04 Aperture macros list*
%AMRoundRect*
0 Rectangle with rounded corners*
0 $1 Rounding radius*
0 $2 $3 $4 $5 $6 $7 $8 $9 X,Y pos of 4 corners*
0 Add a 4 corners polygon primitive as box body*
4,1,4,$2,$3,$4,$5,$6,$7,$8,$9,$2,$3,0*
0 Add four circle primitives for the rounded corners*
1,1,$1+$1,$2,$3*
1,1,$1+$1,$4,$5*
1,1,$1+$1,$6,$7*
1,1,$1+$1,$8,$9*
0 Add four rect primitives between the rounded corners*
20,1,$1+$1,$2,$3,$4,$5,0*
20,1,$1+$1,$4,$5,$6,$7,0*
20,1,$1+$1,$6,$7,$8,$9,0*
20,1,$1+$1,$8,$9,$2,$3,0*%
G04 Aperture macros list end*
%ADD10RoundRect,0.250000X-0.475000X0.337500X-0.475000X-0.337500X0.475000X-0.337500X0.475000X0.337500X0*%
%ADD11RoundRect,0.250000X0.475000X-0.337500X0.475000X0.337500X-0.475000X0.337500X-0.475000X-0.337500X0*%
%ADD12RoundRect,0.250000X0.337500X0.475000X-0.337500X0.475000X-0.337500X-0.475000X0.337500X-0.475000X0*%
%ADD13RoundRect,0.250000X-0.337500X-0.475000X0.337500X-0.475000X0.337500X0.475000X-0.337500X0.475000X0*%
%ADD14R,1.700000X1.700000*%
%ADD15O,1.700000X1.700000*%
%ADD16C,3.200000*%
%ADD17C,1.600000*%
%ADD18O,1.600000X1.600000*%
%ADD19R,1.600000X2.400000*%
%ADD20O,1.600000X2.400000*%
%ADD21R,2.400000X1.600000*%
%ADD22O,2.400000X1.600000*%
%ADD23R,2.200000X2.200000*%
%ADD24O,2.200000X2.200000*%
%ADD25R,1.600000X1.600000*%
G04 APERTURE END LIST*
D10*
X111860000Y-78212500D03*
X111860000Y-80287500D03*
X111860000Y-113822500D03*
X111860000Y-115897500D03*
D11*
X111860000Y-53287500D03*
X111860000Y-51212500D03*
D12*
X121000000Y-136000000D03*
X118925000Y-136000000D03*
D10*
X111860000Y-99062500D03*
X111860000Y-101137500D03*
D13*
X91389572Y-136994888D03*
X93464572Y-136994888D03*
D14*
X87000000Y-79000000D03*
D15*
X87000000Y-81540000D03*
X87000000Y-84080000D03*
X87000000Y-86620000D03*
X87000000Y-89160000D03*
X87000000Y-91700000D03*
D13*
X96809018Y-137011512D03*
X98884018Y-137011512D03*
D10*
X111860000Y-93062500D03*
X111860000Y-95137500D03*
D14*
X87000000Y-75000000D03*
D15*
X89540000Y-75000000D03*
D10*
X111860000Y-119822500D03*
X111860000Y-121897500D03*
D14*
X102000000Y-146010000D03*
D15*
X104540000Y-146010000D03*
D14*
X141000000Y-72540000D03*
D15*
X141000000Y-70000000D03*
D14*
X87000000Y-55010000D03*
D15*
X87000000Y-57550000D03*
D14*
X109000000Y-146010000D03*
D15*
X111540000Y-146010000D03*
X114080000Y-146010000D03*
D10*
X111860000Y-57212500D03*
X111860000Y-59287500D03*
D14*
X141000000Y-102550000D03*
D15*
X141000000Y-100010000D03*
D14*
X92475000Y-146010000D03*
D15*
X95015000Y-146010000D03*
X97555000Y-146010000D03*
D13*
X107548165Y-136994888D03*
X109623165Y-136994888D03*
D14*
X87000000Y-116010000D03*
D15*
X87000000Y-118550000D03*
D13*
X113110420Y-136994888D03*
X115185420Y-136994888D03*
D14*
X87000000Y-100010000D03*
D15*
X87000000Y-102550000D03*
D14*
X141000000Y-118550000D03*
D15*
X141000000Y-116010000D03*
D16*
X139000000Y-125000000D03*
D13*
X118962500Y-140000000D03*
X121037500Y-140000000D03*
D14*
X141000000Y-57540000D03*
D15*
X141000000Y-55000000D03*
D16*
X89000000Y-68000000D03*
D14*
X87000000Y-140470000D03*
D15*
X87000000Y-143010000D03*
D10*
X111860000Y-72212500D03*
X111860000Y-74287500D03*
D14*
X141000000Y-79000000D03*
D15*
X141000000Y-81540000D03*
X141000000Y-84080000D03*
X141000000Y-86620000D03*
X141000000Y-89160000D03*
X141000000Y-91700000D03*
D17*
X87000000Y-136057500D03*
D18*
X87000000Y-133517500D03*
D17*
X130000000Y-112070000D03*
D18*
X130000000Y-114610000D03*
D17*
X127460000Y-62250000D03*
D18*
X130000000Y-62250000D03*
D17*
X127460000Y-104100000D03*
D18*
X130000000Y-104100000D03*
D17*
X122540000Y-125070000D03*
D18*
X120000000Y-125070000D03*
D17*
X125000000Y-79250000D03*
X120000000Y-79250000D03*
X103350000Y-135010000D03*
D18*
X103350000Y-132470000D03*
D17*
X127460000Y-125070000D03*
D18*
X130000000Y-125070000D03*
D17*
X122540000Y-104100000D03*
D18*
X120000000Y-104100000D03*
D19*
X107550000Y-133437500D03*
D20*
X110090000Y-133437500D03*
X112630000Y-133437500D03*
X115170000Y-133437500D03*
X115170000Y-141057500D03*
X112630000Y-141057500D03*
X110090000Y-141057500D03*
X107550000Y-141057500D03*
D21*
X107860000Y-125860000D03*
D22*
X107860000Y-123320000D03*
X107860000Y-120780000D03*
X107860000Y-118240000D03*
X107860000Y-115700000D03*
X107860000Y-113160000D03*
X107860000Y-110620000D03*
X115480000Y-110620000D03*
X115480000Y-113160000D03*
X115480000Y-115700000D03*
X115480000Y-118240000D03*
X115480000Y-120780000D03*
X115480000Y-123320000D03*
X115480000Y-125860000D03*
D17*
X103860000Y-57250000D03*
X98860000Y-57250000D03*
X98860000Y-124860000D03*
X103860000Y-124860000D03*
X130000000Y-49250000D03*
D18*
X130000000Y-51790000D03*
D17*
X93860000Y-104100000D03*
D18*
X93860000Y-101560000D03*
D17*
X105000000Y-128000000D03*
X100000000Y-128000000D03*
D21*
X107860000Y-84250000D03*
D22*
X107860000Y-81710000D03*
X107860000Y-79170000D03*
X107860000Y-76630000D03*
X107860000Y-74090000D03*
X107860000Y-71550000D03*
X107860000Y-69010000D03*
X115480000Y-69010000D03*
X115480000Y-71550000D03*
X115480000Y-74090000D03*
X115480000Y-76630000D03*
X115480000Y-79170000D03*
X115480000Y-81710000D03*
X115480000Y-84250000D03*
D17*
X93860000Y-118400000D03*
D18*
X93860000Y-115860000D03*
D17*
X93895000Y-128000000D03*
X88895000Y-128000000D03*
X98860000Y-115860000D03*
X103860000Y-115860000D03*
D21*
X107860000Y-105100000D03*
D22*
X107860000Y-102560000D03*
X107860000Y-100020000D03*
X107860000Y-97480000D03*
X107860000Y-94940000D03*
X107860000Y-92400000D03*
X107860000Y-89860000D03*
X115480000Y-89860000D03*
X115480000Y-92400000D03*
X115480000Y-94940000D03*
X115480000Y-97480000D03*
X115480000Y-100020000D03*
X115480000Y-102560000D03*
X115480000Y-105100000D03*
D17*
X93860000Y-62250000D03*
D18*
X93860000Y-59710000D03*
D17*
X93860000Y-76790000D03*
D18*
X93860000Y-74250000D03*
D17*
X93860000Y-124860000D03*
D18*
X93860000Y-122320000D03*
D17*
X93860000Y-49250000D03*
D18*
X96400000Y-49250000D03*
D17*
X98860000Y-95100000D03*
X103860000Y-95100000D03*
X98860000Y-53250000D03*
X103860000Y-53250000D03*
X120000000Y-96100000D03*
X125000000Y-96100000D03*
D23*
X132080000Y-132000000D03*
D24*
X121920000Y-132000000D03*
D17*
X130000000Y-76710000D03*
D18*
X130000000Y-79250000D03*
D19*
X91275000Y-133437500D03*
D20*
X93815000Y-133437500D03*
X96355000Y-133437500D03*
X98895000Y-133437500D03*
X98895000Y-141057500D03*
X96355000Y-141057500D03*
X93815000Y-141057500D03*
X91275000Y-141057500D03*
D17*
X120000000Y-70500000D03*
X125000000Y-70500000D03*
X120000000Y-117070000D03*
X125000000Y-117070000D03*
X101320000Y-91100000D03*
D18*
X103860000Y-91100000D03*
D17*
X120000000Y-91100000D03*
X125000000Y-91100000D03*
X93860000Y-83250000D03*
D18*
X93860000Y-80710000D03*
D17*
X98860000Y-104100000D03*
X103860000Y-104100000D03*
D21*
X107860000Y-63250000D03*
D22*
X107860000Y-60710000D03*
X107860000Y-58170000D03*
X107860000Y-55630000D03*
X107860000Y-53090000D03*
X107860000Y-50550000D03*
X107860000Y-48010000D03*
X115480000Y-48010000D03*
X115480000Y-50550000D03*
X115480000Y-53090000D03*
X115480000Y-55630000D03*
X115480000Y-58170000D03*
X115480000Y-60710000D03*
X115480000Y-63250000D03*
D25*
X125000000Y-139010000D03*
D17*
X125000000Y-137010000D03*
X130000000Y-55710000D03*
D18*
X130000000Y-58250000D03*
D17*
X125000000Y-100100000D03*
X120000000Y-100100000D03*
X93860000Y-55790000D03*
D18*
X93860000Y-53250000D03*
D17*
X101320000Y-49250000D03*
D18*
X103860000Y-49250000D03*
D17*
X125000000Y-121070000D03*
X120000000Y-121070000D03*
X127460000Y-83250000D03*
D18*
X130000000Y-83250000D03*
D17*
X103860000Y-119860000D03*
X98860000Y-119860000D03*
X130000000Y-70500000D03*
D18*
X130000000Y-73040000D03*
D17*
X120000000Y-75250000D03*
X125000000Y-75250000D03*
X98860000Y-83250000D03*
X103860000Y-83250000D03*
X93860000Y-97640000D03*
D18*
X93860000Y-95100000D03*
D17*
X120000000Y-49250000D03*
X125000000Y-49250000D03*
X101320000Y-70250000D03*
D18*
X103860000Y-70250000D03*
D17*
X103860000Y-78250000D03*
X98860000Y-78250000D03*
D14*
X140817500Y-132935000D03*
D15*
X138277500Y-132935000D03*
X140817500Y-135475000D03*
X138277500Y-135475000D03*
X140817500Y-138015000D03*
X138277500Y-138015000D03*
X140817500Y-140555000D03*
X138277500Y-140555000D03*
X140817500Y-143095000D03*
X138277500Y-143095000D03*
D17*
X125000000Y-58250000D03*
X120000000Y-58250000D03*
X98860000Y-62250000D03*
X103860000Y-62250000D03*
X130000000Y-118530000D03*
D18*
X130000000Y-121070000D03*
D17*
X101320000Y-111860000D03*
D18*
X103860000Y-111860000D03*
D17*
X98860000Y-74250000D03*
X103860000Y-74250000D03*
X93860000Y-111860000D03*
D18*
X96400000Y-111860000D03*
D17*
X122540000Y-83250000D03*
D18*
X120000000Y-83250000D03*
D17*
X122540000Y-62250000D03*
D18*
X120000000Y-62250000D03*
D25*
X131462500Y-139010000D03*
D17*
X131462500Y-137010000D03*
X98000000Y-70250000D03*
D18*
X98000000Y-67710000D03*
D17*
X120000000Y-54250000D03*
X125000000Y-54250000D03*
D23*
X121920000Y-144010000D03*
D24*
X132080000Y-144010000D03*
D17*
X103860000Y-99100000D03*
X98860000Y-99100000D03*
X120000000Y-112070000D03*
X125000000Y-112070000D03*
X93860000Y-91100000D03*
D18*
X96400000Y-91100000D03*
D17*
X130000000Y-97475000D03*
D18*
X130000000Y-100015000D03*
D17*
X130000000Y-91100000D03*
D18*
X130000000Y-93640000D03*
M02*
