G04 #@! TF.GenerationSoftware,KiCad,Pcbnew,(6.0.4)*
G04 #@! TF.CreationDate,2023-11-12T14:03:14+01:00*
G04 #@! TF.ProjectId,Mixer_BACK,4d697865-725f-4424-9143-4b2e6b696361,rev?*
G04 #@! TF.SameCoordinates,Original*
G04 #@! TF.FileFunction,Legend,Bot*
G04 #@! TF.FilePolarity,Positive*
%FSLAX46Y46*%
G04 Gerber Fmt 4.6, Leading zero omitted, Abs format (unit mm)*
G04 Created by KiCad (PCBNEW (6.0.4)) date 2023-11-12 14:03:14*
%MOMM*%
%LPD*%
G01*
G04 APERTURE LIST*
%ADD10C,1.000000*%
%ADD11C,0.200000*%
%ADD12C,0.150000*%
%ADD13C,0.120000*%
%ADD14R,1.700000X1.700000*%
%ADD15O,1.700000X1.700000*%
%ADD16C,3.200000*%
%ADD17C,1.600000*%
%ADD18O,1.600000X1.600000*%
%ADD19R,1.600000X2.400000*%
%ADD20O,1.600000X2.400000*%
%ADD21R,2.400000X1.600000*%
%ADD22O,2.400000X1.600000*%
%ADD23R,2.200000X2.200000*%
%ADD24O,2.200000X2.200000*%
%ADD25R,1.600000X1.600000*%
G04 APERTURE END LIST*
D10*
X137000000Y-130010000D02*
X142000000Y-130010000D01*
D11*
X135748027Y-129885407D02*
X135748027Y-131028265D01*
X136319456Y-132528265D02*
X136319456Y-131671122D01*
X136319456Y-132099693D02*
X134819456Y-132099693D01*
X135033742Y-131956836D01*
X135176599Y-131813979D01*
X135248027Y-131671122D01*
X134962313Y-133099693D02*
X134890885Y-133171122D01*
X134819456Y-133313979D01*
X134819456Y-133671122D01*
X134890885Y-133813979D01*
X134962313Y-133885407D01*
X135105170Y-133956836D01*
X135248027Y-133956836D01*
X135462313Y-133885407D01*
X136319456Y-133028265D01*
X136319456Y-133956836D01*
X134819456Y-134385407D02*
X136319456Y-134885407D01*
X134819456Y-135385407D01*
D12*
X87725722Y-138955995D02*
X88059055Y-138479805D01*
X88297150Y-138955995D02*
X88297150Y-137955995D01*
X87916198Y-137955995D01*
X87820960Y-138003615D01*
X87773341Y-138051234D01*
X87725722Y-138146472D01*
X87725722Y-138289329D01*
X87773341Y-138384567D01*
X87820960Y-138432186D01*
X87916198Y-138479805D01*
X88297150Y-138479805D01*
X86773341Y-138955995D02*
X87344769Y-138955995D01*
X87059055Y-138955995D02*
X87059055Y-137955995D01*
X87154293Y-138098853D01*
X87249531Y-138194091D01*
X87344769Y-138241710D01*
X86440007Y-137955995D02*
X85773341Y-137955995D01*
X86201912Y-138955995D01*
X132910532Y-112797142D02*
X132434342Y-112463809D01*
X132910532Y-112225714D02*
X131910532Y-112225714D01*
X131910532Y-112606666D01*
X131958152Y-112701904D01*
X132005771Y-112749523D01*
X132101009Y-112797142D01*
X132243866Y-112797142D01*
X132339104Y-112749523D01*
X132386723Y-112701904D01*
X132434342Y-112606666D01*
X132434342Y-112225714D01*
X132005771Y-113178095D02*
X131958152Y-113225714D01*
X131910532Y-113320952D01*
X131910532Y-113559047D01*
X131958152Y-113654285D01*
X132005771Y-113701904D01*
X132101009Y-113749523D01*
X132196247Y-113749523D01*
X132339104Y-113701904D01*
X132910532Y-113130476D01*
X132910532Y-113749523D01*
X132005771Y-114130476D02*
X131958152Y-114178095D01*
X131910532Y-114273333D01*
X131910532Y-114511428D01*
X131958152Y-114606666D01*
X132005771Y-114654285D01*
X132101009Y-114701904D01*
X132196247Y-114701904D01*
X132339104Y-114654285D01*
X132910532Y-114082857D01*
X132910532Y-114701904D01*
X129372857Y-65072380D02*
X129706190Y-64596190D01*
X129944285Y-65072380D02*
X129944285Y-64072380D01*
X129563333Y-64072380D01*
X129468095Y-64120000D01*
X129420476Y-64167619D01*
X129372857Y-64262857D01*
X129372857Y-64405714D01*
X129420476Y-64500952D01*
X129468095Y-64548571D01*
X129563333Y-64596190D01*
X129944285Y-64596190D01*
X128991904Y-64167619D02*
X128944285Y-64120000D01*
X128849047Y-64072380D01*
X128610952Y-64072380D01*
X128515714Y-64120000D01*
X128468095Y-64167619D01*
X128420476Y-64262857D01*
X128420476Y-64358095D01*
X128468095Y-64500952D01*
X129039523Y-65072380D01*
X128420476Y-65072380D01*
X128087142Y-64072380D02*
X127468095Y-64072380D01*
X127801428Y-64453333D01*
X127658571Y-64453333D01*
X127563333Y-64500952D01*
X127515714Y-64548571D01*
X127468095Y-64643809D01*
X127468095Y-64881904D01*
X127515714Y-64977142D01*
X127563333Y-65024761D01*
X127658571Y-65072380D01*
X127944285Y-65072380D01*
X128039523Y-65024761D01*
X128087142Y-64977142D01*
X129372857Y-106922380D02*
X129706190Y-106446190D01*
X129944285Y-106922380D02*
X129944285Y-105922380D01*
X129563333Y-105922380D01*
X129468095Y-105970000D01*
X129420476Y-106017619D01*
X129372857Y-106112857D01*
X129372857Y-106255714D01*
X129420476Y-106350952D01*
X129468095Y-106398571D01*
X129563333Y-106446190D01*
X129944285Y-106446190D01*
X128991904Y-106017619D02*
X128944285Y-105970000D01*
X128849047Y-105922380D01*
X128610952Y-105922380D01*
X128515714Y-105970000D01*
X128468095Y-106017619D01*
X128420476Y-106112857D01*
X128420476Y-106208095D01*
X128468095Y-106350952D01*
X129039523Y-106922380D01*
X128420476Y-106922380D01*
X127515714Y-105922380D02*
X127991904Y-105922380D01*
X128039523Y-106398571D01*
X127991904Y-106350952D01*
X127896666Y-106303333D01*
X127658571Y-106303333D01*
X127563333Y-106350952D01*
X127515714Y-106398571D01*
X127468095Y-106493809D01*
X127468095Y-106731904D01*
X127515714Y-106827142D01*
X127563333Y-106874761D01*
X127658571Y-106922380D01*
X127896666Y-106922380D01*
X127991904Y-106874761D01*
X128039523Y-106827142D01*
X122329205Y-127986242D02*
X122662538Y-127510052D01*
X122900633Y-127986242D02*
X122900633Y-126986242D01*
X122519681Y-126986242D01*
X122424443Y-127033862D01*
X122376824Y-127081481D01*
X122329205Y-127176719D01*
X122329205Y-127319576D01*
X122376824Y-127414814D01*
X122424443Y-127462433D01*
X122519681Y-127510052D01*
X122900633Y-127510052D01*
X121995871Y-126986242D02*
X121376824Y-126986242D01*
X121710157Y-127367195D01*
X121567300Y-127367195D01*
X121472062Y-127414814D01*
X121424443Y-127462433D01*
X121376824Y-127557671D01*
X121376824Y-127795766D01*
X121424443Y-127891004D01*
X121472062Y-127938623D01*
X121567300Y-127986242D01*
X121853014Y-127986242D01*
X121948252Y-127938623D01*
X121995871Y-127891004D01*
X120757776Y-126986242D02*
X120662538Y-126986242D01*
X120567300Y-127033862D01*
X120519681Y-127081481D01*
X120472062Y-127176719D01*
X120424443Y-127367195D01*
X120424443Y-127605290D01*
X120472062Y-127795766D01*
X120519681Y-127891004D01*
X120567300Y-127938623D01*
X120662538Y-127986242D01*
X120757776Y-127986242D01*
X120853014Y-127938623D01*
X120900633Y-127891004D01*
X120948252Y-127795766D01*
X120995871Y-127605290D01*
X120995871Y-127367195D01*
X120948252Y-127176719D01*
X120900633Y-127081481D01*
X120853014Y-127033862D01*
X120757776Y-126986242D01*
X127667778Y-78496101D02*
X127715397Y-78448482D01*
X127763016Y-78305625D01*
X127763016Y-78210387D01*
X127715397Y-78067530D01*
X127620159Y-77972292D01*
X127524921Y-77924673D01*
X127334445Y-77877054D01*
X127191588Y-77877054D01*
X127001112Y-77924673D01*
X126905874Y-77972292D01*
X126810636Y-78067530D01*
X126763016Y-78210387D01*
X126763016Y-78305625D01*
X126810636Y-78448482D01*
X126858255Y-78496101D01*
X126763016Y-78829435D02*
X126763016Y-79448482D01*
X127143969Y-79115149D01*
X127143969Y-79258006D01*
X127191588Y-79353244D01*
X127239207Y-79400863D01*
X127334445Y-79448482D01*
X127572540Y-79448482D01*
X127667778Y-79400863D01*
X127715397Y-79353244D01*
X127763016Y-79258006D01*
X127763016Y-78972292D01*
X127715397Y-78877054D01*
X127667778Y-78829435D01*
X126763016Y-80353244D02*
X126763016Y-79877054D01*
X127239207Y-79829435D01*
X127191588Y-79877054D01*
X127143969Y-79972292D01*
X127143969Y-80210387D01*
X127191588Y-80305625D01*
X127239207Y-80353244D01*
X127334445Y-80400863D01*
X127572540Y-80400863D01*
X127667778Y-80353244D01*
X127715397Y-80305625D01*
X127763016Y-80210387D01*
X127763016Y-79972292D01*
X127715397Y-79877054D01*
X127667778Y-79829435D01*
X104125218Y-137871420D02*
X104458551Y-137395230D01*
X104696646Y-137871420D02*
X104696646Y-136871420D01*
X104315694Y-136871420D01*
X104220456Y-136919040D01*
X104172837Y-136966659D01*
X104125218Y-137061897D01*
X104125218Y-137204754D01*
X104172837Y-137299992D01*
X104220456Y-137347611D01*
X104315694Y-137395230D01*
X104696646Y-137395230D01*
X103791884Y-136871420D02*
X103172837Y-136871420D01*
X103506170Y-137252373D01*
X103363313Y-137252373D01*
X103268075Y-137299992D01*
X103220456Y-137347611D01*
X103172837Y-137442849D01*
X103172837Y-137680944D01*
X103220456Y-137776182D01*
X103268075Y-137823801D01*
X103363313Y-137871420D01*
X103649027Y-137871420D01*
X103744265Y-137823801D01*
X103791884Y-137776182D01*
X102268075Y-136871420D02*
X102744265Y-136871420D01*
X102791884Y-137347611D01*
X102744265Y-137299992D01*
X102649027Y-137252373D01*
X102410932Y-137252373D01*
X102315694Y-137299992D01*
X102268075Y-137347611D01*
X102220456Y-137442849D01*
X102220456Y-137680944D01*
X102268075Y-137776182D01*
X102315694Y-137823801D01*
X102410932Y-137871420D01*
X102649027Y-137871420D01*
X102744265Y-137823801D01*
X102791884Y-137776182D01*
X129372857Y-127892380D02*
X129706190Y-127416190D01*
X129944285Y-127892380D02*
X129944285Y-126892380D01*
X129563333Y-126892380D01*
X129468095Y-126940000D01*
X129420476Y-126987619D01*
X129372857Y-127082857D01*
X129372857Y-127225714D01*
X129420476Y-127320952D01*
X129468095Y-127368571D01*
X129563333Y-127416190D01*
X129944285Y-127416190D01*
X128991904Y-126987619D02*
X128944285Y-126940000D01*
X128849047Y-126892380D01*
X128610952Y-126892380D01*
X128515714Y-126940000D01*
X128468095Y-126987619D01*
X128420476Y-127082857D01*
X128420476Y-127178095D01*
X128468095Y-127320952D01*
X129039523Y-127892380D01*
X128420476Y-127892380D01*
X127563333Y-126892380D02*
X127753809Y-126892380D01*
X127849047Y-126940000D01*
X127896666Y-126987619D01*
X127991904Y-127130476D01*
X128039523Y-127320952D01*
X128039523Y-127701904D01*
X127991904Y-127797142D01*
X127944285Y-127844761D01*
X127849047Y-127892380D01*
X127658571Y-127892380D01*
X127563333Y-127844761D01*
X127515714Y-127797142D01*
X127468095Y-127701904D01*
X127468095Y-127463809D01*
X127515714Y-127368571D01*
X127563333Y-127320952D01*
X127658571Y-127273333D01*
X127849047Y-127273333D01*
X127944285Y-127320952D01*
X127991904Y-127368571D01*
X128039523Y-127463809D01*
X122255257Y-106861674D02*
X122588590Y-106385484D01*
X122826685Y-106861674D02*
X122826685Y-105861674D01*
X122445733Y-105861674D01*
X122350495Y-105909294D01*
X122302876Y-105956913D01*
X122255257Y-106052151D01*
X122255257Y-106195008D01*
X122302876Y-106290246D01*
X122350495Y-106337865D01*
X122445733Y-106385484D01*
X122826685Y-106385484D01*
X121874304Y-105956913D02*
X121826685Y-105909294D01*
X121731447Y-105861674D01*
X121493352Y-105861674D01*
X121398114Y-105909294D01*
X121350495Y-105956913D01*
X121302876Y-106052151D01*
X121302876Y-106147389D01*
X121350495Y-106290246D01*
X121921923Y-106861674D01*
X121302876Y-106861674D01*
X120826685Y-106861674D02*
X120636209Y-106861674D01*
X120540971Y-106814055D01*
X120493352Y-106766436D01*
X120398114Y-106623579D01*
X120350495Y-106433103D01*
X120350495Y-106052151D01*
X120398114Y-105956913D01*
X120445733Y-105909294D01*
X120540971Y-105861674D01*
X120731447Y-105861674D01*
X120826685Y-105909294D01*
X120874304Y-105956913D01*
X120921923Y-106052151D01*
X120921923Y-106290246D01*
X120874304Y-106385484D01*
X120826685Y-106433103D01*
X120731447Y-106480722D01*
X120540971Y-106480722D01*
X120445733Y-106433103D01*
X120398114Y-106385484D01*
X120350495Y-106290246D01*
X116618283Y-130585813D02*
X116618283Y-131395337D01*
X116570664Y-131490575D01*
X116523045Y-131538194D01*
X116427807Y-131585813D01*
X116237331Y-131585813D01*
X116142093Y-131538194D01*
X116094474Y-131490575D01*
X116046855Y-131395337D01*
X116046855Y-130585813D01*
X115142093Y-130585813D02*
X115332569Y-130585813D01*
X115427807Y-130633433D01*
X115475426Y-130681052D01*
X115570664Y-130823909D01*
X115618283Y-131014385D01*
X115618283Y-131395337D01*
X115570664Y-131490575D01*
X115523045Y-131538194D01*
X115427807Y-131585813D01*
X115237331Y-131585813D01*
X115142093Y-131538194D01*
X115094474Y-131490575D01*
X115046855Y-131395337D01*
X115046855Y-131157242D01*
X115094474Y-131062004D01*
X115142093Y-131014385D01*
X115237331Y-130966766D01*
X115427807Y-130966766D01*
X115523045Y-131014385D01*
X115570664Y-131062004D01*
X115618283Y-131157242D01*
X112431904Y-127529723D02*
X112431904Y-128339247D01*
X112384285Y-128434485D01*
X112336666Y-128482104D01*
X112241428Y-128529723D01*
X112050952Y-128529723D01*
X111955714Y-128482104D01*
X111908095Y-128434485D01*
X111860476Y-128339247D01*
X111860476Y-127529723D01*
X110955714Y-127863057D02*
X110955714Y-128529723D01*
X111193809Y-127482104D02*
X111431904Y-128196390D01*
X110812857Y-128196390D01*
X97357142Y-56607142D02*
X97404761Y-56559523D01*
X97452380Y-56416666D01*
X97452380Y-56321428D01*
X97404761Y-56178571D01*
X97309523Y-56083333D01*
X97214285Y-56035714D01*
X97023809Y-55988095D01*
X96880952Y-55988095D01*
X96690476Y-56035714D01*
X96595238Y-56083333D01*
X96500000Y-56178571D01*
X96452380Y-56321428D01*
X96452380Y-56416666D01*
X96500000Y-56559523D01*
X96547619Y-56607142D01*
X97452380Y-57559523D02*
X97452380Y-56988095D01*
X97452380Y-57273809D02*
X96452380Y-57273809D01*
X96595238Y-57178571D01*
X96690476Y-57083333D01*
X96738095Y-56988095D01*
X97452380Y-58035714D02*
X97452380Y-58226190D01*
X97404761Y-58321428D01*
X97357142Y-58369047D01*
X97214285Y-58464285D01*
X97023809Y-58511904D01*
X96642857Y-58511904D01*
X96547619Y-58464285D01*
X96500000Y-58416666D01*
X96452380Y-58321428D01*
X96452380Y-58130952D01*
X96500000Y-58035714D01*
X96547619Y-57988095D01*
X96642857Y-57940476D01*
X96880952Y-57940476D01*
X96976190Y-57988095D01*
X97023809Y-58035714D01*
X97071428Y-58130952D01*
X97071428Y-58321428D01*
X97023809Y-58416666D01*
X96976190Y-58464285D01*
X96880952Y-58511904D01*
X96965161Y-124191514D02*
X97012780Y-124143895D01*
X97060399Y-124001038D01*
X97060399Y-123905800D01*
X97012780Y-123762943D01*
X96917542Y-123667705D01*
X96822304Y-123620086D01*
X96631828Y-123572467D01*
X96488971Y-123572467D01*
X96298495Y-123620086D01*
X96203257Y-123667705D01*
X96108019Y-123762943D01*
X96060399Y-123905800D01*
X96060399Y-124001038D01*
X96108019Y-124143895D01*
X96155638Y-124191514D01*
X97060399Y-125143895D02*
X97060399Y-124572467D01*
X97060399Y-124858181D02*
X96060399Y-124858181D01*
X96203257Y-124762943D01*
X96298495Y-124667705D01*
X96346114Y-124572467D01*
X96060399Y-125762943D02*
X96060399Y-125858181D01*
X96108019Y-125953419D01*
X96155638Y-126001038D01*
X96250876Y-126048657D01*
X96441352Y-126096276D01*
X96679447Y-126096276D01*
X96869923Y-126048657D01*
X96965161Y-126001038D01*
X97012780Y-125953419D01*
X97060399Y-125858181D01*
X97060399Y-125762943D01*
X97012780Y-125667705D01*
X96965161Y-125620086D01*
X96869923Y-125572467D01*
X96679447Y-125524848D01*
X96441352Y-125524848D01*
X96250876Y-125572467D01*
X96155638Y-125620086D01*
X96108019Y-125667705D01*
X96060399Y-125762943D01*
X132932101Y-49845999D02*
X132455911Y-49512666D01*
X132932101Y-49274571D02*
X131932101Y-49274571D01*
X131932101Y-49655523D01*
X131979721Y-49750761D01*
X132027340Y-49798380D01*
X132122578Y-49845999D01*
X132265435Y-49845999D01*
X132360673Y-49798380D01*
X132408292Y-49750761D01*
X132455911Y-49655523D01*
X132455911Y-49274571D01*
X132932101Y-50798380D02*
X132932101Y-50226952D01*
X132932101Y-50512666D02*
X131932101Y-50512666D01*
X132074959Y-50417428D01*
X132170197Y-50322190D01*
X132217816Y-50226952D01*
X132932101Y-51274571D02*
X132932101Y-51465047D01*
X132884482Y-51560285D01*
X132836863Y-51607904D01*
X132694006Y-51703142D01*
X132503530Y-51750761D01*
X132122578Y-51750761D01*
X132027340Y-51703142D01*
X131979721Y-51655523D01*
X131932101Y-51560285D01*
X131932101Y-51369809D01*
X131979721Y-51274571D01*
X132027340Y-51226952D01*
X132122578Y-51179333D01*
X132360673Y-51179333D01*
X132455911Y-51226952D01*
X132503530Y-51274571D01*
X132551149Y-51369809D01*
X132551149Y-51560285D01*
X132503530Y-51655523D01*
X132455911Y-51703142D01*
X132360673Y-51750761D01*
X91982615Y-102563333D02*
X91506425Y-102230000D01*
X91982615Y-101991904D02*
X90982615Y-101991904D01*
X90982615Y-102372857D01*
X91030235Y-102468095D01*
X91077854Y-102515714D01*
X91173092Y-102563333D01*
X91315949Y-102563333D01*
X91411187Y-102515714D01*
X91458806Y-102468095D01*
X91506425Y-102372857D01*
X91506425Y-101991904D01*
X90982615Y-102896666D02*
X90982615Y-103515714D01*
X91363568Y-103182380D01*
X91363568Y-103325238D01*
X91411187Y-103420476D01*
X91458806Y-103468095D01*
X91554044Y-103515714D01*
X91792139Y-103515714D01*
X91887377Y-103468095D01*
X91934996Y-103420476D01*
X91982615Y-103325238D01*
X91982615Y-103039523D01*
X91934996Y-102944285D01*
X91887377Y-102896666D01*
X98445112Y-127354373D02*
X98492731Y-127306754D01*
X98540350Y-127163897D01*
X98540350Y-127068659D01*
X98492731Y-126925802D01*
X98397493Y-126830564D01*
X98302255Y-126782945D01*
X98111779Y-126735326D01*
X97968922Y-126735326D01*
X97778446Y-126782945D01*
X97683208Y-126830564D01*
X97587970Y-126925802D01*
X97540350Y-127068659D01*
X97540350Y-127163897D01*
X97587970Y-127306754D01*
X97635589Y-127354373D01*
X97873684Y-128211516D02*
X98540350Y-128211516D01*
X97492731Y-127973421D02*
X98207017Y-127735326D01*
X98207017Y-128354373D01*
X97635589Y-128687707D02*
X97587970Y-128735326D01*
X97540350Y-128830564D01*
X97540350Y-129068659D01*
X97587970Y-129163897D01*
X97635589Y-129211516D01*
X97730827Y-129259135D01*
X97826065Y-129259135D01*
X97968922Y-129211516D01*
X98540350Y-128640088D01*
X98540350Y-129259135D01*
X112431904Y-86032380D02*
X112431904Y-86841904D01*
X112384285Y-86937142D01*
X112336666Y-86984761D01*
X112241428Y-87032380D01*
X112050952Y-87032380D01*
X111955714Y-86984761D01*
X111908095Y-86937142D01*
X111860476Y-86841904D01*
X111860476Y-86032380D01*
X111431904Y-86127619D02*
X111384285Y-86080000D01*
X111289047Y-86032380D01*
X111050952Y-86032380D01*
X110955714Y-86080000D01*
X110908095Y-86127619D01*
X110860476Y-86222857D01*
X110860476Y-86318095D01*
X110908095Y-86460952D01*
X111479523Y-87032380D01*
X110860476Y-87032380D01*
X91933316Y-116911713D02*
X91457126Y-116578380D01*
X91933316Y-116340285D02*
X90933316Y-116340285D01*
X90933316Y-116721237D01*
X90980936Y-116816475D01*
X91028555Y-116864094D01*
X91123793Y-116911713D01*
X91266650Y-116911713D01*
X91361888Y-116864094D01*
X91409507Y-116816475D01*
X91457126Y-116721237D01*
X91457126Y-116340285D01*
X91933316Y-117864094D02*
X91933316Y-117292666D01*
X91933316Y-117578380D02*
X90933316Y-117578380D01*
X91076174Y-117483142D01*
X91171412Y-117387904D01*
X91219031Y-117292666D01*
X90933316Y-118721237D02*
X90933316Y-118530761D01*
X90980936Y-118435523D01*
X91028555Y-118387904D01*
X91171412Y-118292666D01*
X91361888Y-118245047D01*
X91742840Y-118245047D01*
X91838078Y-118292666D01*
X91885697Y-118340285D01*
X91933316Y-118435523D01*
X91933316Y-118625999D01*
X91885697Y-118721237D01*
X91838078Y-118768856D01*
X91742840Y-118816475D01*
X91504745Y-118816475D01*
X91409507Y-118768856D01*
X91361888Y-118721237D01*
X91314269Y-118625999D01*
X91314269Y-118435523D01*
X91361888Y-118340285D01*
X91409507Y-118292666D01*
X91504745Y-118245047D01*
X87187110Y-127403672D02*
X87234729Y-127356053D01*
X87282348Y-127213196D01*
X87282348Y-127117958D01*
X87234729Y-126975101D01*
X87139491Y-126879863D01*
X87044253Y-126832244D01*
X86853777Y-126784625D01*
X86710920Y-126784625D01*
X86520444Y-126832244D01*
X86425206Y-126879863D01*
X86329968Y-126975101D01*
X86282348Y-127117958D01*
X86282348Y-127213196D01*
X86329968Y-127356053D01*
X86377587Y-127403672D01*
X86377587Y-127784625D02*
X86329968Y-127832244D01*
X86282348Y-127927482D01*
X86282348Y-128165577D01*
X86329968Y-128260815D01*
X86377587Y-128308434D01*
X86472825Y-128356053D01*
X86568063Y-128356053D01*
X86710920Y-128308434D01*
X87282348Y-127737006D01*
X87282348Y-128356053D01*
X86282348Y-129260815D02*
X86282348Y-128784625D01*
X86758539Y-128737006D01*
X86710920Y-128784625D01*
X86663301Y-128879863D01*
X86663301Y-129117958D01*
X86710920Y-129213196D01*
X86758539Y-129260815D01*
X86853777Y-129308434D01*
X87091872Y-129308434D01*
X87187110Y-129260815D01*
X87234729Y-129213196D01*
X87282348Y-129117958D01*
X87282348Y-128879863D01*
X87234729Y-128784625D01*
X87187110Y-128737006D01*
X96981594Y-115449180D02*
X97029213Y-115401561D01*
X97076832Y-115258704D01*
X97076832Y-115163466D01*
X97029213Y-115020609D01*
X96933975Y-114925371D01*
X96838737Y-114877752D01*
X96648261Y-114830133D01*
X96505404Y-114830133D01*
X96314928Y-114877752D01*
X96219690Y-114925371D01*
X96124452Y-115020609D01*
X96076832Y-115163466D01*
X96076832Y-115258704D01*
X96124452Y-115401561D01*
X96172071Y-115449180D01*
X97076832Y-116401561D02*
X97076832Y-115830133D01*
X97076832Y-116115847D02*
X96076832Y-116115847D01*
X96219690Y-116020609D01*
X96314928Y-115925371D01*
X96362547Y-115830133D01*
X96076832Y-117258704D02*
X96076832Y-117068228D01*
X96124452Y-116972990D01*
X96172071Y-116925371D01*
X96314928Y-116830133D01*
X96505404Y-116782514D01*
X96886356Y-116782514D01*
X96981594Y-116830133D01*
X97029213Y-116877752D01*
X97076832Y-116972990D01*
X97076832Y-117163466D01*
X97029213Y-117258704D01*
X96981594Y-117306323D01*
X96886356Y-117353942D01*
X96648261Y-117353942D01*
X96553023Y-117306323D01*
X96505404Y-117258704D01*
X96457785Y-117163466D01*
X96457785Y-116972990D01*
X96505404Y-116877752D01*
X96553023Y-116830133D01*
X96648261Y-116782514D01*
X112431904Y-106972092D02*
X112431904Y-107781616D01*
X112384285Y-107876854D01*
X112336666Y-107924473D01*
X112241428Y-107972092D01*
X112050952Y-107972092D01*
X111955714Y-107924473D01*
X111908095Y-107876854D01*
X111860476Y-107781616D01*
X111860476Y-106972092D01*
X111479523Y-106972092D02*
X110860476Y-106972092D01*
X111193809Y-107353045D01*
X111050952Y-107353045D01*
X110955714Y-107400664D01*
X110908095Y-107448283D01*
X110860476Y-107543521D01*
X110860476Y-107781616D01*
X110908095Y-107876854D01*
X110955714Y-107924473D01*
X111050952Y-107972092D01*
X111336666Y-107972092D01*
X111431904Y-107924473D01*
X111479523Y-107876854D01*
X92073591Y-60713333D02*
X91597401Y-60380000D01*
X92073591Y-60141904D02*
X91073591Y-60141904D01*
X91073591Y-60522857D01*
X91121211Y-60618095D01*
X91168830Y-60665714D01*
X91264068Y-60713333D01*
X91406925Y-60713333D01*
X91502163Y-60665714D01*
X91549782Y-60618095D01*
X91597401Y-60522857D01*
X91597401Y-60141904D01*
X92073591Y-61665714D02*
X92073591Y-61094285D01*
X92073591Y-61380000D02*
X91073591Y-61380000D01*
X91216449Y-61284761D01*
X91311687Y-61189523D01*
X91359306Y-61094285D01*
X92081213Y-74974803D02*
X91605023Y-74641470D01*
X92081213Y-74403375D02*
X91081213Y-74403375D01*
X91081213Y-74784327D01*
X91128833Y-74879565D01*
X91176452Y-74927184D01*
X91271690Y-74974803D01*
X91414547Y-74974803D01*
X91509785Y-74927184D01*
X91557404Y-74879565D01*
X91605023Y-74784327D01*
X91605023Y-74403375D01*
X92081213Y-75927184D02*
X92081213Y-75355756D01*
X92081213Y-75641470D02*
X91081213Y-75641470D01*
X91224071Y-75546232D01*
X91319309Y-75450994D01*
X91366928Y-75355756D01*
X91414547Y-76784327D02*
X92081213Y-76784327D01*
X91033594Y-76546232D02*
X91747880Y-76308137D01*
X91747880Y-76927184D01*
X91949749Y-123323333D02*
X91473559Y-122990000D01*
X91949749Y-122751904D02*
X90949749Y-122751904D01*
X90949749Y-123132857D01*
X90997369Y-123228095D01*
X91044988Y-123275714D01*
X91140226Y-123323333D01*
X91283083Y-123323333D01*
X91378321Y-123275714D01*
X91425940Y-123228095D01*
X91473559Y-123132857D01*
X91473559Y-122751904D01*
X91283083Y-124180476D02*
X91949749Y-124180476D01*
X90902130Y-123942380D02*
X91616416Y-123704285D01*
X91616416Y-124323333D01*
X92041115Y-49154760D02*
X91564925Y-48821427D01*
X92041115Y-48583331D02*
X91041115Y-48583331D01*
X91041115Y-48964284D01*
X91088735Y-49059522D01*
X91136354Y-49107141D01*
X91231592Y-49154760D01*
X91374449Y-49154760D01*
X91469687Y-49107141D01*
X91517306Y-49059522D01*
X91564925Y-48964284D01*
X91564925Y-48583331D01*
X91041115Y-50059522D02*
X91041115Y-49583331D01*
X91517306Y-49535712D01*
X91469687Y-49583331D01*
X91422068Y-49678569D01*
X91422068Y-49916665D01*
X91469687Y-50011903D01*
X91517306Y-50059522D01*
X91612544Y-50107141D01*
X91850639Y-50107141D01*
X91945877Y-50059522D01*
X91993496Y-50011903D01*
X92041115Y-49916665D01*
X92041115Y-49678569D01*
X91993496Y-49583331D01*
X91945877Y-49535712D01*
X97145924Y-94480725D02*
X97193543Y-94433106D01*
X97241162Y-94290249D01*
X97241162Y-94195011D01*
X97193543Y-94052154D01*
X97098305Y-93956916D01*
X97003067Y-93909297D01*
X96812591Y-93861678D01*
X96669734Y-93861678D01*
X96479258Y-93909297D01*
X96384020Y-93956916D01*
X96288782Y-94052154D01*
X96241162Y-94195011D01*
X96241162Y-94290249D01*
X96288782Y-94433106D01*
X96336401Y-94480725D01*
X97241162Y-95433106D02*
X97241162Y-94861678D01*
X97241162Y-95147392D02*
X96241162Y-95147392D01*
X96384020Y-95052154D01*
X96479258Y-94956916D01*
X96526877Y-94861678D01*
X96241162Y-96337868D02*
X96241162Y-95861678D01*
X96717353Y-95814059D01*
X96669734Y-95861678D01*
X96622115Y-95956916D01*
X96622115Y-96195011D01*
X96669734Y-96290249D01*
X96717353Y-96337868D01*
X96812591Y-96385487D01*
X97050686Y-96385487D01*
X97145924Y-96337868D01*
X97193543Y-96290249D01*
X97241162Y-96195011D01*
X97241162Y-95956916D01*
X97193543Y-95861678D01*
X97145924Y-95814059D01*
X97357142Y-52603515D02*
X97404761Y-52555896D01*
X97452380Y-52413039D01*
X97452380Y-52317801D01*
X97404761Y-52174944D01*
X97309523Y-52079706D01*
X97214285Y-52032087D01*
X97023809Y-51984468D01*
X96880952Y-51984468D01*
X96690476Y-52032087D01*
X96595238Y-52079706D01*
X96500000Y-52174944D01*
X96452380Y-52317801D01*
X96452380Y-52413039D01*
X96500000Y-52555896D01*
X96547619Y-52603515D01*
X97452380Y-53555896D02*
X97452380Y-52984468D01*
X97452380Y-53270182D02*
X96452380Y-53270182D01*
X96595238Y-53174944D01*
X96690476Y-53079706D01*
X96738095Y-52984468D01*
X96452380Y-53889230D02*
X96452380Y-54508277D01*
X96833333Y-54174944D01*
X96833333Y-54317801D01*
X96880952Y-54413039D01*
X96928571Y-54460658D01*
X97023809Y-54508277D01*
X97261904Y-54508277D01*
X97357142Y-54460658D01*
X97404761Y-54413039D01*
X97452380Y-54317801D01*
X97452380Y-54032087D01*
X97404761Y-53936849D01*
X97357142Y-53889230D01*
X127638912Y-95462971D02*
X127686531Y-95415352D01*
X127734150Y-95272495D01*
X127734150Y-95177257D01*
X127686531Y-95034400D01*
X127591293Y-94939162D01*
X127496055Y-94891543D01*
X127305579Y-94843924D01*
X127162722Y-94843924D01*
X126972246Y-94891543D01*
X126877008Y-94939162D01*
X126781770Y-95034400D01*
X126734150Y-95177257D01*
X126734150Y-95272495D01*
X126781770Y-95415352D01*
X126829389Y-95462971D01*
X127067484Y-96320114D02*
X127734150Y-96320114D01*
X126686531Y-96082019D02*
X127400817Y-95843924D01*
X127400817Y-96462971D01*
X126734150Y-97034400D02*
X126734150Y-97129638D01*
X126781770Y-97224876D01*
X126829389Y-97272495D01*
X126924627Y-97320114D01*
X127115103Y-97367733D01*
X127353198Y-97367733D01*
X127543674Y-97320114D01*
X127638912Y-97272495D01*
X127686531Y-97224876D01*
X127734150Y-97129638D01*
X127734150Y-97034400D01*
X127686531Y-96939162D01*
X127638912Y-96891543D01*
X127543674Y-96843924D01*
X127353198Y-96796305D01*
X127115103Y-96796305D01*
X126924627Y-96843924D01*
X126829389Y-96891543D01*
X126781770Y-96939162D01*
X126734150Y-97034400D01*
X127775815Y-129874249D02*
X127775815Y-128874249D01*
X127537720Y-128874249D01*
X127394862Y-128921869D01*
X127299624Y-129017107D01*
X127252005Y-129112345D01*
X127204386Y-129302821D01*
X127204386Y-129445678D01*
X127252005Y-129636154D01*
X127299624Y-129731392D01*
X127394862Y-129826630D01*
X127537720Y-129874249D01*
X127775815Y-129874249D01*
X126823434Y-128969488D02*
X126775815Y-128921869D01*
X126680577Y-128874249D01*
X126442481Y-128874249D01*
X126347243Y-128921869D01*
X126299624Y-128969488D01*
X126252005Y-129064726D01*
X126252005Y-129159964D01*
X126299624Y-129302821D01*
X126871053Y-129874249D01*
X126252005Y-129874249D01*
X132367733Y-130124265D02*
X132367733Y-129124265D01*
X131796305Y-130124265D02*
X132224876Y-129552837D01*
X131796305Y-129124265D02*
X132367733Y-129695694D01*
X132840367Y-77437142D02*
X132364177Y-77103809D01*
X132840367Y-76865714D02*
X131840367Y-76865714D01*
X131840367Y-77246666D01*
X131887987Y-77341904D01*
X131935606Y-77389523D01*
X132030844Y-77437142D01*
X132173701Y-77437142D01*
X132268939Y-77389523D01*
X132316558Y-77341904D01*
X132364177Y-77246666D01*
X132364177Y-76865714D01*
X131840367Y-77770476D02*
X131840367Y-78389523D01*
X132221320Y-78056190D01*
X132221320Y-78199047D01*
X132268939Y-78294285D01*
X132316558Y-78341904D01*
X132411796Y-78389523D01*
X132649891Y-78389523D01*
X132745129Y-78341904D01*
X132792748Y-78294285D01*
X132840367Y-78199047D01*
X132840367Y-77913333D01*
X132792748Y-77818095D01*
X132745129Y-77770476D01*
X131935606Y-78770476D02*
X131887987Y-78818095D01*
X131840367Y-78913333D01*
X131840367Y-79151428D01*
X131887987Y-79246666D01*
X131935606Y-79294285D01*
X132030844Y-79341904D01*
X132126082Y-79341904D01*
X132268939Y-79294285D01*
X132840367Y-78722857D01*
X132840367Y-79341904D01*
X100398953Y-130610463D02*
X100398953Y-131419987D01*
X100351334Y-131515225D01*
X100303715Y-131562844D01*
X100208477Y-131610463D01*
X100018001Y-131610463D01*
X99922763Y-131562844D01*
X99875144Y-131515225D01*
X99827525Y-131419987D01*
X99827525Y-130610463D01*
X98875144Y-130610463D02*
X99351334Y-130610463D01*
X99398953Y-131086654D01*
X99351334Y-131039035D01*
X99256096Y-130991416D01*
X99018001Y-130991416D01*
X98922763Y-131039035D01*
X98875144Y-131086654D01*
X98827525Y-131181892D01*
X98827525Y-131419987D01*
X98875144Y-131515225D01*
X98922763Y-131562844D01*
X99018001Y-131610463D01*
X99256096Y-131610463D01*
X99351334Y-131562844D01*
X99398953Y-131515225D01*
X127633702Y-69789637D02*
X127681321Y-69742018D01*
X127728940Y-69599161D01*
X127728940Y-69503923D01*
X127681321Y-69361066D01*
X127586083Y-69265828D01*
X127490845Y-69218209D01*
X127300369Y-69170590D01*
X127157512Y-69170590D01*
X126967036Y-69218209D01*
X126871798Y-69265828D01*
X126776560Y-69361066D01*
X126728940Y-69503923D01*
X126728940Y-69599161D01*
X126776560Y-69742018D01*
X126824179Y-69789637D01*
X126728940Y-70122971D02*
X126728940Y-70742018D01*
X127109893Y-70408685D01*
X127109893Y-70551542D01*
X127157512Y-70646780D01*
X127205131Y-70694399D01*
X127300369Y-70742018D01*
X127538464Y-70742018D01*
X127633702Y-70694399D01*
X127681321Y-70646780D01*
X127728940Y-70551542D01*
X127728940Y-70265828D01*
X127681321Y-70170590D01*
X127633702Y-70122971D01*
X127728940Y-71694399D02*
X127728940Y-71122971D01*
X127728940Y-71408685D02*
X126728940Y-71408685D01*
X126871798Y-71313447D01*
X126967036Y-71218209D01*
X127014655Y-71122971D01*
X127638912Y-116414993D02*
X127686531Y-116367374D01*
X127734150Y-116224517D01*
X127734150Y-116129279D01*
X127686531Y-115986422D01*
X127591293Y-115891184D01*
X127496055Y-115843565D01*
X127305579Y-115795946D01*
X127162722Y-115795946D01*
X126972246Y-115843565D01*
X126877008Y-115891184D01*
X126781770Y-115986422D01*
X126734150Y-116129279D01*
X126734150Y-116224517D01*
X126781770Y-116367374D01*
X126829389Y-116414993D01*
X127067484Y-117272136D02*
X127734150Y-117272136D01*
X126686531Y-117034041D02*
X127400817Y-116795946D01*
X127400817Y-117414993D01*
X127734150Y-118319755D02*
X127734150Y-117748327D01*
X127734150Y-118034041D02*
X126734150Y-118034041D01*
X126877008Y-117938803D01*
X126972246Y-117843565D01*
X127019865Y-117748327D01*
X103068143Y-89347871D02*
X103401476Y-88871681D01*
X103639571Y-89347871D02*
X103639571Y-88347871D01*
X103258619Y-88347871D01*
X103163381Y-88395491D01*
X103115762Y-88443110D01*
X103068143Y-88538348D01*
X103068143Y-88681205D01*
X103115762Y-88776443D01*
X103163381Y-88824062D01*
X103258619Y-88871681D01*
X103639571Y-88871681D01*
X102115762Y-89347871D02*
X102687190Y-89347871D01*
X102401476Y-89347871D02*
X102401476Y-88347871D01*
X102496714Y-88490729D01*
X102591952Y-88585967D01*
X102687190Y-88633586D01*
X101163381Y-89347871D02*
X101734809Y-89347871D01*
X101449095Y-89347871D02*
X101449095Y-88347871D01*
X101544333Y-88490729D01*
X101639571Y-88585967D01*
X101734809Y-88633586D01*
X127638912Y-90335888D02*
X127686531Y-90288269D01*
X127734150Y-90145412D01*
X127734150Y-90050174D01*
X127686531Y-89907317D01*
X127591293Y-89812079D01*
X127496055Y-89764460D01*
X127305579Y-89716841D01*
X127162722Y-89716841D01*
X126972246Y-89764460D01*
X126877008Y-89812079D01*
X126781770Y-89907317D01*
X126734150Y-90050174D01*
X126734150Y-90145412D01*
X126781770Y-90288269D01*
X126829389Y-90335888D01*
X126734150Y-90669222D02*
X126734150Y-91288269D01*
X127115103Y-90954936D01*
X127115103Y-91097793D01*
X127162722Y-91193031D01*
X127210341Y-91240650D01*
X127305579Y-91288269D01*
X127543674Y-91288269D01*
X127638912Y-91240650D01*
X127686531Y-91193031D01*
X127734150Y-91097793D01*
X127734150Y-90812079D01*
X127686531Y-90716841D01*
X127638912Y-90669222D01*
X126829389Y-91669222D02*
X126781770Y-91716841D01*
X126734150Y-91812079D01*
X126734150Y-92050174D01*
X126781770Y-92145412D01*
X126829389Y-92193031D01*
X126924627Y-92240650D01*
X127019865Y-92240650D01*
X127162722Y-92193031D01*
X127734150Y-91621603D01*
X127734150Y-92240650D01*
X92015481Y-82681496D02*
X91539291Y-82348163D01*
X92015481Y-82110067D02*
X91015481Y-82110067D01*
X91015481Y-82491020D01*
X91063101Y-82586258D01*
X91110720Y-82633877D01*
X91205958Y-82681496D01*
X91348815Y-82681496D01*
X91444053Y-82633877D01*
X91491672Y-82586258D01*
X91539291Y-82491020D01*
X91539291Y-82110067D01*
X91110720Y-83062448D02*
X91063101Y-83110067D01*
X91015481Y-83205305D01*
X91015481Y-83443401D01*
X91063101Y-83538639D01*
X91110720Y-83586258D01*
X91205958Y-83633877D01*
X91301196Y-83633877D01*
X91444053Y-83586258D01*
X92015481Y-83014829D01*
X92015481Y-83633877D01*
X97047326Y-103847146D02*
X97094945Y-103799527D01*
X97142564Y-103656670D01*
X97142564Y-103561432D01*
X97094945Y-103418574D01*
X96999707Y-103323336D01*
X96904469Y-103275717D01*
X96713993Y-103228098D01*
X96571136Y-103228098D01*
X96380660Y-103275717D01*
X96285422Y-103323336D01*
X96190184Y-103418574D01*
X96142564Y-103561432D01*
X96142564Y-103656670D01*
X96190184Y-103799527D01*
X96237803Y-103847146D01*
X97142564Y-104323336D02*
X97142564Y-104513813D01*
X97094945Y-104609051D01*
X97047326Y-104656670D01*
X96904469Y-104751908D01*
X96713993Y-104799527D01*
X96333041Y-104799527D01*
X96237803Y-104751908D01*
X96190184Y-104704289D01*
X96142564Y-104609051D01*
X96142564Y-104418574D01*
X96190184Y-104323336D01*
X96237803Y-104275717D01*
X96333041Y-104228098D01*
X96571136Y-104228098D01*
X96666374Y-104275717D01*
X96713993Y-104323336D01*
X96761612Y-104418574D01*
X96761612Y-104609051D01*
X96713993Y-104704289D01*
X96666374Y-104751908D01*
X96571136Y-104799527D01*
X112431904Y-65032380D02*
X112431904Y-65841904D01*
X112384285Y-65937142D01*
X112336666Y-65984761D01*
X112241428Y-66032380D01*
X112050952Y-66032380D01*
X111955714Y-65984761D01*
X111908095Y-65937142D01*
X111860476Y-65841904D01*
X111860476Y-65032380D01*
X110860476Y-66032380D02*
X111431904Y-66032380D01*
X111146190Y-66032380D02*
X111146190Y-65032380D01*
X111241428Y-65175238D01*
X111336666Y-65270476D01*
X111431904Y-65318095D01*
X125725678Y-141804996D02*
X125773297Y-141852615D01*
X125916154Y-141900234D01*
X126011392Y-141900234D01*
X126154249Y-141852615D01*
X126249487Y-141757377D01*
X126297106Y-141662139D01*
X126344725Y-141471663D01*
X126344725Y-141328806D01*
X126297106Y-141138330D01*
X126249487Y-141043092D01*
X126154249Y-140947854D01*
X126011392Y-140900234D01*
X125916154Y-140900234D01*
X125773297Y-140947854D01*
X125725678Y-140995473D01*
X125344725Y-140995473D02*
X125297106Y-140947854D01*
X125201868Y-140900234D01*
X124963773Y-140900234D01*
X124868535Y-140947854D01*
X124820916Y-140995473D01*
X124773297Y-141090711D01*
X124773297Y-141185949D01*
X124820916Y-141328806D01*
X125392344Y-141900234D01*
X124773297Y-141900234D01*
X124297106Y-141900234D02*
X124106630Y-141900234D01*
X124011392Y-141852615D01*
X123963773Y-141804996D01*
X123868535Y-141662139D01*
X123820916Y-141471663D01*
X123820916Y-141090711D01*
X123868535Y-140995473D01*
X123916154Y-140947854D01*
X124011392Y-140900234D01*
X124201868Y-140900234D01*
X124297106Y-140947854D01*
X124344725Y-140995473D01*
X124392344Y-141090711D01*
X124392344Y-141328806D01*
X124344725Y-141424044D01*
X124297106Y-141471663D01*
X124201868Y-141519282D01*
X124011392Y-141519282D01*
X123916154Y-141471663D01*
X123868535Y-141424044D01*
X123820916Y-141328806D01*
X132966177Y-56320473D02*
X132489987Y-55987140D01*
X132966177Y-55749045D02*
X131966177Y-55749045D01*
X131966177Y-56129997D01*
X132013797Y-56225235D01*
X132061416Y-56272854D01*
X132156654Y-56320473D01*
X132299511Y-56320473D01*
X132394749Y-56272854D01*
X132442368Y-56225235D01*
X132489987Y-56129997D01*
X132489987Y-55749045D01*
X131966177Y-56653807D02*
X131966177Y-57272854D01*
X132347130Y-56939521D01*
X132347130Y-57082378D01*
X132394749Y-57177616D01*
X132442368Y-57225235D01*
X132537606Y-57272854D01*
X132775701Y-57272854D01*
X132870939Y-57225235D01*
X132918558Y-57177616D01*
X132966177Y-57082378D01*
X132966177Y-56796664D01*
X132918558Y-56701426D01*
X132870939Y-56653807D01*
X132966177Y-58225235D02*
X132966177Y-57653807D01*
X132966177Y-57939521D02*
X131966177Y-57939521D01*
X132109035Y-57844283D01*
X132204273Y-57749045D01*
X132251892Y-57653807D01*
X127540315Y-99431530D02*
X127587934Y-99383911D01*
X127635553Y-99241054D01*
X127635553Y-99145816D01*
X127587934Y-99002959D01*
X127492696Y-98907721D01*
X127397458Y-98860102D01*
X127206982Y-98812483D01*
X127064125Y-98812483D01*
X126873649Y-98860102D01*
X126778411Y-98907721D01*
X126683173Y-99002959D01*
X126635553Y-99145816D01*
X126635553Y-99241054D01*
X126683173Y-99383911D01*
X126730792Y-99431530D01*
X126635553Y-99764864D02*
X126635553Y-100383911D01*
X127016506Y-100050578D01*
X127016506Y-100193435D01*
X127064125Y-100288673D01*
X127111744Y-100336292D01*
X127206982Y-100383911D01*
X127445077Y-100383911D01*
X127540315Y-100336292D01*
X127587934Y-100288673D01*
X127635553Y-100193435D01*
X127635553Y-99907721D01*
X127587934Y-99812483D01*
X127540315Y-99764864D01*
X126635553Y-101241054D02*
X126635553Y-101050578D01*
X126683173Y-100955340D01*
X126730792Y-100907721D01*
X126873649Y-100812483D01*
X127064125Y-100764864D01*
X127445077Y-100764864D01*
X127540315Y-100812483D01*
X127587934Y-100860102D01*
X127635553Y-100955340D01*
X127635553Y-101145816D01*
X127587934Y-101241054D01*
X127540315Y-101288673D01*
X127445077Y-101336292D01*
X127206982Y-101336292D01*
X127111744Y-101288673D01*
X127064125Y-101241054D01*
X127016506Y-101145816D01*
X127016506Y-100955340D01*
X127064125Y-100860102D01*
X127111744Y-100812483D01*
X127206982Y-100764864D01*
X92056553Y-53923349D02*
X91580363Y-53590016D01*
X92056553Y-53351921D02*
X91056553Y-53351921D01*
X91056553Y-53732873D01*
X91104173Y-53828111D01*
X91151792Y-53875730D01*
X91247030Y-53923349D01*
X91389887Y-53923349D01*
X91485125Y-53875730D01*
X91532744Y-53828111D01*
X91580363Y-53732873D01*
X91580363Y-53351921D01*
X92056553Y-54875730D02*
X92056553Y-54304302D01*
X92056553Y-54590016D02*
X91056553Y-54590016D01*
X91199411Y-54494778D01*
X91294649Y-54399540D01*
X91342268Y-54304302D01*
X91056553Y-55209064D02*
X91056553Y-55828111D01*
X91437506Y-55494778D01*
X91437506Y-55637635D01*
X91485125Y-55732873D01*
X91532744Y-55780492D01*
X91627982Y-55828111D01*
X91866077Y-55828111D01*
X91961315Y-55780492D01*
X92008934Y-55732873D01*
X92056553Y-55637635D01*
X92056553Y-55351921D01*
X92008934Y-55256683D01*
X91961315Y-55209064D01*
X99501678Y-49319090D02*
X99025488Y-48985757D01*
X99501678Y-48747661D02*
X98501678Y-48747661D01*
X98501678Y-49128614D01*
X98549298Y-49223852D01*
X98596917Y-49271471D01*
X98692155Y-49319090D01*
X98835012Y-49319090D01*
X98930250Y-49271471D01*
X98977869Y-49223852D01*
X99025488Y-49128614D01*
X99025488Y-48747661D01*
X99501678Y-49795280D02*
X99501678Y-49985757D01*
X99454059Y-50080995D01*
X99406440Y-50128614D01*
X99263583Y-50223852D01*
X99073107Y-50271471D01*
X98692155Y-50271471D01*
X98596917Y-50223852D01*
X98549298Y-50176233D01*
X98501678Y-50080995D01*
X98501678Y-49890518D01*
X98549298Y-49795280D01*
X98596917Y-49747661D01*
X98692155Y-49700042D01*
X98930250Y-49700042D01*
X99025488Y-49747661D01*
X99073107Y-49795280D01*
X99120726Y-49890518D01*
X99120726Y-50080995D01*
X99073107Y-50176233D01*
X99025488Y-50223852D01*
X98930250Y-50271471D01*
X127589613Y-120383552D02*
X127637232Y-120335933D01*
X127684851Y-120193076D01*
X127684851Y-120097838D01*
X127637232Y-119954981D01*
X127541994Y-119859743D01*
X127446756Y-119812124D01*
X127256280Y-119764505D01*
X127113423Y-119764505D01*
X126922947Y-119812124D01*
X126827709Y-119859743D01*
X126732471Y-119954981D01*
X126684851Y-120097838D01*
X126684851Y-120193076D01*
X126732471Y-120335933D01*
X126780090Y-120383552D01*
X126684851Y-120716886D02*
X126684851Y-121335933D01*
X127065804Y-121002600D01*
X127065804Y-121145457D01*
X127113423Y-121240695D01*
X127161042Y-121288314D01*
X127256280Y-121335933D01*
X127494375Y-121335933D01*
X127589613Y-121288314D01*
X127637232Y-121240695D01*
X127684851Y-121145457D01*
X127684851Y-120859743D01*
X127637232Y-120764505D01*
X127589613Y-120716886D01*
X126684851Y-121669267D02*
X126684851Y-122335933D01*
X127684851Y-121907362D01*
X129372857Y-86072380D02*
X129706190Y-85596190D01*
X129944285Y-86072380D02*
X129944285Y-85072380D01*
X129563333Y-85072380D01*
X129468095Y-85120000D01*
X129420476Y-85167619D01*
X129372857Y-85262857D01*
X129372857Y-85405714D01*
X129420476Y-85500952D01*
X129468095Y-85548571D01*
X129563333Y-85596190D01*
X129944285Y-85596190D01*
X128991904Y-85167619D02*
X128944285Y-85120000D01*
X128849047Y-85072380D01*
X128610952Y-85072380D01*
X128515714Y-85120000D01*
X128468095Y-85167619D01*
X128420476Y-85262857D01*
X128420476Y-85358095D01*
X128468095Y-85500952D01*
X129039523Y-86072380D01*
X128420476Y-86072380D01*
X127563333Y-85405714D02*
X127563333Y-86072380D01*
X127801428Y-85024761D02*
X128039523Y-85739047D01*
X127420476Y-85739047D01*
X96948728Y-119217142D02*
X96996347Y-119169523D01*
X97043966Y-119026666D01*
X97043966Y-118931428D01*
X96996347Y-118788571D01*
X96901109Y-118693333D01*
X96805871Y-118645714D01*
X96615395Y-118598095D01*
X96472538Y-118598095D01*
X96282062Y-118645714D01*
X96186824Y-118693333D01*
X96091586Y-118788571D01*
X96043966Y-118931428D01*
X96043966Y-119026666D01*
X96091586Y-119169523D01*
X96139205Y-119217142D01*
X96139205Y-119598095D02*
X96091586Y-119645714D01*
X96043966Y-119740952D01*
X96043966Y-119979047D01*
X96091586Y-120074285D01*
X96139205Y-120121904D01*
X96234443Y-120169523D01*
X96329681Y-120169523D01*
X96472538Y-120121904D01*
X97043966Y-119550476D01*
X97043966Y-120169523D01*
X96139205Y-120550476D02*
X96091586Y-120598095D01*
X96043966Y-120693333D01*
X96043966Y-120931428D01*
X96091586Y-121026666D01*
X96139205Y-121074285D01*
X96234443Y-121121904D01*
X96329681Y-121121904D01*
X96472538Y-121074285D01*
X97043966Y-120502857D01*
X97043966Y-121121904D01*
X132840367Y-71227142D02*
X132364177Y-70893809D01*
X132840367Y-70655714D02*
X131840367Y-70655714D01*
X131840367Y-71036666D01*
X131887987Y-71131904D01*
X131935606Y-71179523D01*
X132030844Y-71227142D01*
X132173701Y-71227142D01*
X132268939Y-71179523D01*
X132316558Y-71131904D01*
X132364177Y-71036666D01*
X132364177Y-70655714D01*
X131935606Y-71608095D02*
X131887987Y-71655714D01*
X131840367Y-71750952D01*
X131840367Y-71989047D01*
X131887987Y-72084285D01*
X131935606Y-72131904D01*
X132030844Y-72179523D01*
X132126082Y-72179523D01*
X132268939Y-72131904D01*
X132840367Y-71560476D01*
X132840367Y-72179523D01*
X131840367Y-72798571D02*
X131840367Y-72893809D01*
X131887987Y-72989047D01*
X131935606Y-73036666D01*
X132030844Y-73084285D01*
X132221320Y-73131904D01*
X132459415Y-73131904D01*
X132649891Y-73084285D01*
X132745129Y-73036666D01*
X132792748Y-72989047D01*
X132840367Y-72893809D01*
X132840367Y-72798571D01*
X132792748Y-72703333D01*
X132745129Y-72655714D01*
X132649891Y-72608095D01*
X132459415Y-72560476D01*
X132221320Y-72560476D01*
X132030844Y-72608095D01*
X131935606Y-72655714D01*
X131887987Y-72703333D01*
X131840367Y-72798571D01*
X127599626Y-74628455D02*
X127647245Y-74580836D01*
X127694864Y-74437979D01*
X127694864Y-74342741D01*
X127647245Y-74199884D01*
X127552007Y-74104646D01*
X127456769Y-74057027D01*
X127266293Y-74009408D01*
X127123436Y-74009408D01*
X126932960Y-74057027D01*
X126837722Y-74104646D01*
X126742484Y-74199884D01*
X126694864Y-74342741D01*
X126694864Y-74437979D01*
X126742484Y-74580836D01*
X126790103Y-74628455D01*
X126694864Y-74961789D02*
X126694864Y-75580836D01*
X127075817Y-75247503D01*
X127075817Y-75390360D01*
X127123436Y-75485598D01*
X127171055Y-75533217D01*
X127266293Y-75580836D01*
X127504388Y-75580836D01*
X127599626Y-75533217D01*
X127647245Y-75485598D01*
X127694864Y-75390360D01*
X127694864Y-75104646D01*
X127647245Y-75009408D01*
X127599626Y-74961789D01*
X127694864Y-76057027D02*
X127694864Y-76247503D01*
X127647245Y-76342741D01*
X127599626Y-76390360D01*
X127456769Y-76485598D01*
X127266293Y-76533217D01*
X126885341Y-76533217D01*
X126790103Y-76485598D01*
X126742484Y-76437979D01*
X126694864Y-76342741D01*
X126694864Y-76152265D01*
X126742484Y-76057027D01*
X126790103Y-76009408D01*
X126885341Y-75961789D01*
X127123436Y-75961789D01*
X127218674Y-76009408D01*
X127266293Y-76057027D01*
X127313912Y-76152265D01*
X127313912Y-76342741D01*
X127266293Y-76437979D01*
X127218674Y-76485598D01*
X127123436Y-76533217D01*
X97047326Y-83092320D02*
X97094945Y-83044701D01*
X97142564Y-82901844D01*
X97142564Y-82806606D01*
X97094945Y-82663748D01*
X96999707Y-82568510D01*
X96904469Y-82520891D01*
X96713993Y-82473272D01*
X96571136Y-82473272D01*
X96380660Y-82520891D01*
X96285422Y-82568510D01*
X96190184Y-82663748D01*
X96142564Y-82806606D01*
X96142564Y-82901844D01*
X96190184Y-83044701D01*
X96237803Y-83092320D01*
X96571136Y-83663748D02*
X96523517Y-83568510D01*
X96475898Y-83520891D01*
X96380660Y-83473272D01*
X96333041Y-83473272D01*
X96237803Y-83520891D01*
X96190184Y-83568510D01*
X96142564Y-83663748D01*
X96142564Y-83854225D01*
X96190184Y-83949463D01*
X96237803Y-83997082D01*
X96333041Y-84044701D01*
X96380660Y-84044701D01*
X96475898Y-83997082D01*
X96523517Y-83949463D01*
X96571136Y-83854225D01*
X96571136Y-83663748D01*
X96618755Y-83568510D01*
X96666374Y-83520891D01*
X96761612Y-83473272D01*
X96952088Y-83473272D01*
X97047326Y-83520891D01*
X97094945Y-83568510D01*
X97142564Y-83663748D01*
X97142564Y-83854225D01*
X97094945Y-83949463D01*
X97047326Y-83997082D01*
X96952088Y-84044701D01*
X96761612Y-84044701D01*
X96666374Y-83997082D01*
X96618755Y-83949463D01*
X96571136Y-83854225D01*
X92048347Y-95557142D02*
X91572157Y-95223809D01*
X92048347Y-94985714D02*
X91048347Y-94985714D01*
X91048347Y-95366666D01*
X91095967Y-95461904D01*
X91143586Y-95509523D01*
X91238824Y-95557142D01*
X91381681Y-95557142D01*
X91476919Y-95509523D01*
X91524538Y-95461904D01*
X91572157Y-95366666D01*
X91572157Y-94985714D01*
X92048347Y-96509523D02*
X92048347Y-95938095D01*
X92048347Y-96223809D02*
X91048347Y-96223809D01*
X91191205Y-96128571D01*
X91286443Y-96033333D01*
X91334062Y-95938095D01*
X91048347Y-97414285D02*
X91048347Y-96938095D01*
X91524538Y-96890476D01*
X91476919Y-96938095D01*
X91429300Y-97033333D01*
X91429300Y-97271428D01*
X91476919Y-97366666D01*
X91524538Y-97414285D01*
X91619776Y-97461904D01*
X91857871Y-97461904D01*
X91953109Y-97414285D01*
X92000728Y-97366666D01*
X92048347Y-97271428D01*
X92048347Y-97033333D01*
X92000728Y-96938095D01*
X91953109Y-96890476D01*
X127555055Y-48670371D02*
X127602674Y-48622752D01*
X127650293Y-48479895D01*
X127650293Y-48384657D01*
X127602674Y-48241800D01*
X127507436Y-48146562D01*
X127412198Y-48098943D01*
X127221722Y-48051324D01*
X127078865Y-48051324D01*
X126888389Y-48098943D01*
X126793151Y-48146562D01*
X126697913Y-48241800D01*
X126650293Y-48384657D01*
X126650293Y-48479895D01*
X126697913Y-48622752D01*
X126745532Y-48670371D01*
X126650293Y-49003705D02*
X126650293Y-49622752D01*
X127031246Y-49289419D01*
X127031246Y-49432276D01*
X127078865Y-49527514D01*
X127126484Y-49575133D01*
X127221722Y-49622752D01*
X127459817Y-49622752D01*
X127555055Y-49575133D01*
X127602674Y-49527514D01*
X127650293Y-49432276D01*
X127650293Y-49146562D01*
X127602674Y-49051324D01*
X127555055Y-49003705D01*
X126650293Y-50241800D02*
X126650293Y-50337038D01*
X126697913Y-50432276D01*
X126745532Y-50479895D01*
X126840770Y-50527514D01*
X127031246Y-50575133D01*
X127269341Y-50575133D01*
X127459817Y-50527514D01*
X127555055Y-50479895D01*
X127602674Y-50432276D01*
X127650293Y-50337038D01*
X127650293Y-50241800D01*
X127602674Y-50146562D01*
X127555055Y-50098943D01*
X127459817Y-50051324D01*
X127269341Y-50003705D01*
X127031246Y-50003705D01*
X126840770Y-50051324D01*
X126745532Y-50098943D01*
X126697913Y-50146562D01*
X126650293Y-50241800D01*
X103248906Y-68510880D02*
X103582239Y-68034690D01*
X103820334Y-68510880D02*
X103820334Y-67510880D01*
X103439382Y-67510880D01*
X103344144Y-67558500D01*
X103296525Y-67606119D01*
X103248906Y-67701357D01*
X103248906Y-67844214D01*
X103296525Y-67939452D01*
X103344144Y-67987071D01*
X103439382Y-68034690D01*
X103820334Y-68034690D01*
X102296525Y-68510880D02*
X102867953Y-68510880D01*
X102582239Y-68510880D02*
X102582239Y-67510880D01*
X102677477Y-67653738D01*
X102772715Y-67748976D01*
X102867953Y-67796595D01*
X101677477Y-67510880D02*
X101582239Y-67510880D01*
X101487001Y-67558500D01*
X101439382Y-67606119D01*
X101391763Y-67701357D01*
X101344144Y-67891833D01*
X101344144Y-68129928D01*
X101391763Y-68320404D01*
X101439382Y-68415642D01*
X101487001Y-68463261D01*
X101582239Y-68510880D01*
X101677477Y-68510880D01*
X101772715Y-68463261D01*
X101820334Y-68415642D01*
X101867953Y-68320404D01*
X101915572Y-68129928D01*
X101915572Y-67891833D01*
X101867953Y-67701357D01*
X101820334Y-67606119D01*
X101772715Y-67558500D01*
X101677477Y-67510880D01*
X97096625Y-77554777D02*
X97144244Y-77507158D01*
X97191863Y-77364301D01*
X97191863Y-77269063D01*
X97144244Y-77126206D01*
X97049006Y-77030968D01*
X96953768Y-76983349D01*
X96763292Y-76935730D01*
X96620435Y-76935730D01*
X96429959Y-76983349D01*
X96334721Y-77030968D01*
X96239483Y-77126206D01*
X96191863Y-77269063D01*
X96191863Y-77364301D01*
X96239483Y-77507158D01*
X96287102Y-77554777D01*
X96287102Y-77935730D02*
X96239483Y-77983349D01*
X96191863Y-78078587D01*
X96191863Y-78316682D01*
X96239483Y-78411920D01*
X96287102Y-78459539D01*
X96382340Y-78507158D01*
X96477578Y-78507158D01*
X96620435Y-78459539D01*
X97191863Y-77888111D01*
X97191863Y-78507158D01*
X96191863Y-79126206D02*
X96191863Y-79221444D01*
X96239483Y-79316682D01*
X96287102Y-79364301D01*
X96382340Y-79411920D01*
X96572816Y-79459539D01*
X96810911Y-79459539D01*
X97001387Y-79411920D01*
X97096625Y-79364301D01*
X97144244Y-79316682D01*
X97191863Y-79221444D01*
X97191863Y-79126206D01*
X97144244Y-79030968D01*
X97096625Y-78983349D01*
X97001387Y-78935730D01*
X96810911Y-78888111D01*
X96572816Y-78888111D01*
X96382340Y-78935730D01*
X96287102Y-78983349D01*
X96239483Y-79030968D01*
X96191863Y-79126206D01*
X140357023Y-145462380D02*
X140357023Y-146176666D01*
X140404642Y-146319523D01*
X140499880Y-146414761D01*
X140642738Y-146462380D01*
X140737976Y-146462380D01*
X139357023Y-146462380D02*
X139928452Y-146462380D01*
X139642738Y-146462380D02*
X139642738Y-145462380D01*
X139737976Y-145605238D01*
X139833214Y-145700476D01*
X139928452Y-145748095D01*
X139023690Y-145462380D02*
X138404642Y-145462380D01*
X138737976Y-145843333D01*
X138595119Y-145843333D01*
X138499880Y-145890952D01*
X138452261Y-145938571D01*
X138404642Y-146033809D01*
X138404642Y-146271904D01*
X138452261Y-146367142D01*
X138499880Y-146414761D01*
X138595119Y-146462380D01*
X138880833Y-146462380D01*
X138976071Y-146414761D01*
X139023690Y-146367142D01*
X127357142Y-57357142D02*
X127404761Y-57309523D01*
X127452380Y-57166666D01*
X127452380Y-57071428D01*
X127404761Y-56928571D01*
X127309523Y-56833333D01*
X127214285Y-56785714D01*
X127023809Y-56738095D01*
X126880952Y-56738095D01*
X126690476Y-56785714D01*
X126595238Y-56833333D01*
X126500000Y-56928571D01*
X126452380Y-57071428D01*
X126452380Y-57166666D01*
X126500000Y-57309523D01*
X126547619Y-57357142D01*
X126452380Y-57690476D02*
X126452380Y-58309523D01*
X126833333Y-57976190D01*
X126833333Y-58119047D01*
X126880952Y-58214285D01*
X126928571Y-58261904D01*
X127023809Y-58309523D01*
X127261904Y-58309523D01*
X127357142Y-58261904D01*
X127404761Y-58214285D01*
X127452380Y-58119047D01*
X127452380Y-57833333D01*
X127404761Y-57738095D01*
X127357142Y-57690476D01*
X126785714Y-59166666D02*
X127452380Y-59166666D01*
X126404761Y-58928571D02*
X127119047Y-58690476D01*
X127119047Y-59309523D01*
X97357142Y-62168909D02*
X97404761Y-62121290D01*
X97452380Y-61978433D01*
X97452380Y-61883195D01*
X97404761Y-61740337D01*
X97309523Y-61645099D01*
X97214285Y-61597480D01*
X97023809Y-61549861D01*
X96880952Y-61549861D01*
X96690476Y-61597480D01*
X96595238Y-61645099D01*
X96500000Y-61740337D01*
X96452380Y-61883195D01*
X96452380Y-61978433D01*
X96500000Y-62121290D01*
X96547619Y-62168909D01*
X96452380Y-62502242D02*
X96452380Y-63168909D01*
X97452380Y-62740337D01*
X132910532Y-119257142D02*
X132434342Y-118923809D01*
X132910532Y-118685714D02*
X131910532Y-118685714D01*
X131910532Y-119066666D01*
X131958152Y-119161904D01*
X132005771Y-119209523D01*
X132101009Y-119257142D01*
X132243866Y-119257142D01*
X132339104Y-119209523D01*
X132386723Y-119161904D01*
X132434342Y-119066666D01*
X132434342Y-118685714D01*
X131910532Y-119590476D02*
X131910532Y-120209523D01*
X132291485Y-119876190D01*
X132291485Y-120019047D01*
X132339104Y-120114285D01*
X132386723Y-120161904D01*
X132481961Y-120209523D01*
X132720056Y-120209523D01*
X132815294Y-120161904D01*
X132862913Y-120114285D01*
X132910532Y-120019047D01*
X132910532Y-119733333D01*
X132862913Y-119638095D01*
X132815294Y-119590476D01*
X132243866Y-121066666D02*
X132910532Y-121066666D01*
X131862913Y-120828571D02*
X132577199Y-120590476D01*
X132577199Y-121209523D01*
X102345093Y-109757606D02*
X102678426Y-109281416D01*
X102916521Y-109757606D02*
X102916521Y-108757606D01*
X102535569Y-108757606D01*
X102440331Y-108805226D01*
X102392712Y-108852845D01*
X102345093Y-108948083D01*
X102345093Y-109090940D01*
X102392712Y-109186178D01*
X102440331Y-109233797D01*
X102535569Y-109281416D01*
X102916521Y-109281416D01*
X101392712Y-109757606D02*
X101964140Y-109757606D01*
X101678426Y-109757606D02*
X101678426Y-108757606D01*
X101773664Y-108900464D01*
X101868902Y-108995702D01*
X101964140Y-109043321D01*
X101011759Y-108852845D02*
X100964140Y-108805226D01*
X100868902Y-108757606D01*
X100630807Y-108757606D01*
X100535569Y-108805226D01*
X100487950Y-108852845D01*
X100440331Y-108948083D01*
X100440331Y-109043321D01*
X100487950Y-109186178D01*
X101059378Y-109757606D01*
X100440331Y-109757606D01*
X97359552Y-73561568D02*
X97407171Y-73513949D01*
X97454790Y-73371092D01*
X97454790Y-73275854D01*
X97407171Y-73132997D01*
X97311933Y-73037759D01*
X97216695Y-72990140D01*
X97026219Y-72942521D01*
X96883362Y-72942521D01*
X96692886Y-72990140D01*
X96597648Y-73037759D01*
X96502410Y-73132997D01*
X96454790Y-73275854D01*
X96454790Y-73371092D01*
X96502410Y-73513949D01*
X96550029Y-73561568D01*
X97454790Y-74513949D02*
X97454790Y-73942521D01*
X97454790Y-74228235D02*
X96454790Y-74228235D01*
X96597648Y-74132997D01*
X96692886Y-74037759D01*
X96740505Y-73942521D01*
X96788124Y-75371092D02*
X97454790Y-75371092D01*
X96407171Y-75132997D02*
X97121457Y-74894902D01*
X97121457Y-75513949D01*
X95098523Y-109905503D02*
X95431857Y-109429313D01*
X95669952Y-109905503D02*
X95669952Y-108905503D01*
X95288999Y-108905503D01*
X95193761Y-108953123D01*
X95146142Y-109000742D01*
X95098523Y-109095980D01*
X95098523Y-109238837D01*
X95146142Y-109334075D01*
X95193761Y-109381694D01*
X95288999Y-109429313D01*
X95669952Y-109429313D01*
X94527095Y-109334075D02*
X94622333Y-109286456D01*
X94669952Y-109238837D01*
X94717571Y-109143599D01*
X94717571Y-109095980D01*
X94669952Y-109000742D01*
X94622333Y-108953123D01*
X94527095Y-108905503D01*
X94336618Y-108905503D01*
X94241380Y-108953123D01*
X94193761Y-109000742D01*
X94146142Y-109095980D01*
X94146142Y-109143599D01*
X94193761Y-109238837D01*
X94241380Y-109286456D01*
X94336618Y-109334075D01*
X94527095Y-109334075D01*
X94622333Y-109381694D01*
X94669952Y-109429313D01*
X94717571Y-109524551D01*
X94717571Y-109715027D01*
X94669952Y-109810265D01*
X94622333Y-109857884D01*
X94527095Y-109905503D01*
X94336618Y-109905503D01*
X94241380Y-109857884D01*
X94193761Y-109810265D01*
X94146142Y-109715027D01*
X94146142Y-109524551D01*
X94193761Y-109429313D01*
X94241380Y-109381694D01*
X94336618Y-109334075D01*
X122228695Y-86048775D02*
X122562028Y-85572585D01*
X122800123Y-86048775D02*
X122800123Y-85048775D01*
X122419171Y-85048775D01*
X122323933Y-85096395D01*
X122276314Y-85144014D01*
X122228695Y-85239252D01*
X122228695Y-85382109D01*
X122276314Y-85477347D01*
X122323933Y-85524966D01*
X122419171Y-85572585D01*
X122800123Y-85572585D01*
X121847742Y-85144014D02*
X121800123Y-85096395D01*
X121704885Y-85048775D01*
X121466790Y-85048775D01*
X121371552Y-85096395D01*
X121323933Y-85144014D01*
X121276314Y-85239252D01*
X121276314Y-85334490D01*
X121323933Y-85477347D01*
X121895361Y-86048775D01*
X121276314Y-86048775D01*
X120704885Y-85477347D02*
X120800123Y-85429728D01*
X120847742Y-85382109D01*
X120895361Y-85286871D01*
X120895361Y-85239252D01*
X120847742Y-85144014D01*
X120800123Y-85096395D01*
X120704885Y-85048775D01*
X120514409Y-85048775D01*
X120419171Y-85096395D01*
X120371552Y-85144014D01*
X120323933Y-85239252D01*
X120323933Y-85286871D01*
X120371552Y-85382109D01*
X120419171Y-85429728D01*
X120514409Y-85477347D01*
X120704885Y-85477347D01*
X120800123Y-85524966D01*
X120847742Y-85572585D01*
X120895361Y-85667823D01*
X120895361Y-85858299D01*
X120847742Y-85953537D01*
X120800123Y-86001156D01*
X120704885Y-86048775D01*
X120514409Y-86048775D01*
X120419171Y-86001156D01*
X120371552Y-85953537D01*
X120323933Y-85858299D01*
X120323933Y-85667823D01*
X120371552Y-85572585D01*
X120419171Y-85524966D01*
X120514409Y-85477347D01*
X122115972Y-65048775D02*
X122449305Y-64572585D01*
X122687400Y-65048775D02*
X122687400Y-64048775D01*
X122306448Y-64048775D01*
X122211210Y-64096395D01*
X122163591Y-64144014D01*
X122115972Y-64239252D01*
X122115972Y-64382109D01*
X122163591Y-64477347D01*
X122211210Y-64524966D01*
X122306448Y-64572585D01*
X122687400Y-64572585D01*
X121735019Y-64144014D02*
X121687400Y-64096395D01*
X121592162Y-64048775D01*
X121354067Y-64048775D01*
X121258829Y-64096395D01*
X121211210Y-64144014D01*
X121163591Y-64239252D01*
X121163591Y-64334490D01*
X121211210Y-64477347D01*
X121782638Y-65048775D01*
X121163591Y-65048775D01*
X120830257Y-64048775D02*
X120163591Y-64048775D01*
X120592162Y-65048775D01*
X132255040Y-141903593D02*
X132302659Y-141951212D01*
X132445516Y-141998831D01*
X132540754Y-141998831D01*
X132683611Y-141951212D01*
X132778849Y-141855974D01*
X132826468Y-141760736D01*
X132874087Y-141570260D01*
X132874087Y-141427403D01*
X132826468Y-141236927D01*
X132778849Y-141141689D01*
X132683611Y-141046451D01*
X132540754Y-140998831D01*
X132445516Y-140998831D01*
X132302659Y-141046451D01*
X132255040Y-141094070D01*
X131874087Y-141094070D02*
X131826468Y-141046451D01*
X131731230Y-140998831D01*
X131493135Y-140998831D01*
X131397897Y-141046451D01*
X131350278Y-141094070D01*
X131302659Y-141189308D01*
X131302659Y-141284546D01*
X131350278Y-141427403D01*
X131921706Y-141998831D01*
X131302659Y-141998831D01*
X130731230Y-141427403D02*
X130826468Y-141379784D01*
X130874087Y-141332165D01*
X130921706Y-141236927D01*
X130921706Y-141189308D01*
X130874087Y-141094070D01*
X130826468Y-141046451D01*
X130731230Y-140998831D01*
X130540754Y-140998831D01*
X130445516Y-141046451D01*
X130397897Y-141094070D01*
X130350278Y-141189308D01*
X130350278Y-141236927D01*
X130397897Y-141332165D01*
X130445516Y-141379784D01*
X130540754Y-141427403D01*
X130731230Y-141427403D01*
X130826468Y-141475022D01*
X130874087Y-141522641D01*
X130921706Y-141617879D01*
X130921706Y-141808355D01*
X130874087Y-141903593D01*
X130826468Y-141951212D01*
X130731230Y-141998831D01*
X130540754Y-141998831D01*
X130445516Y-141951212D01*
X130397897Y-141903593D01*
X130350278Y-141808355D01*
X130350278Y-141617879D01*
X130397897Y-141522641D01*
X130445516Y-141475022D01*
X130540754Y-141427403D01*
X96277313Y-69060775D02*
X95801123Y-68727442D01*
X96277313Y-68489346D02*
X95277313Y-68489346D01*
X95277313Y-68870299D01*
X95324933Y-68965537D01*
X95372552Y-69013156D01*
X95467790Y-69060775D01*
X95610647Y-69060775D01*
X95705885Y-69013156D01*
X95753504Y-68965537D01*
X95801123Y-68870299D01*
X95801123Y-68489346D01*
X95277313Y-69917918D02*
X95277313Y-69727442D01*
X95324933Y-69632203D01*
X95372552Y-69584584D01*
X95515409Y-69489346D01*
X95705885Y-69441727D01*
X96086837Y-69441727D01*
X96182075Y-69489346D01*
X96229694Y-69536965D01*
X96277313Y-69632203D01*
X96277313Y-69822680D01*
X96229694Y-69917918D01*
X96182075Y-69965537D01*
X96086837Y-70013156D01*
X95848742Y-70013156D01*
X95753504Y-69965537D01*
X95705885Y-69917918D01*
X95658266Y-69822680D01*
X95658266Y-69632203D01*
X95705885Y-69536965D01*
X95753504Y-69489346D01*
X95848742Y-69441727D01*
X127452826Y-53577340D02*
X127500445Y-53529721D01*
X127548064Y-53386864D01*
X127548064Y-53291626D01*
X127500445Y-53148769D01*
X127405207Y-53053531D01*
X127309969Y-53005912D01*
X127119493Y-52958293D01*
X126976636Y-52958293D01*
X126786160Y-53005912D01*
X126690922Y-53053531D01*
X126595684Y-53148769D01*
X126548064Y-53291626D01*
X126548064Y-53386864D01*
X126595684Y-53529721D01*
X126643303Y-53577340D01*
X126548064Y-53910674D02*
X126548064Y-54529721D01*
X126929017Y-54196388D01*
X126929017Y-54339245D01*
X126976636Y-54434483D01*
X127024255Y-54482102D01*
X127119493Y-54529721D01*
X127357588Y-54529721D01*
X127452826Y-54482102D01*
X127500445Y-54434483D01*
X127548064Y-54339245D01*
X127548064Y-54053531D01*
X127500445Y-53958293D01*
X127452826Y-53910674D01*
X126976636Y-55101150D02*
X126929017Y-55005912D01*
X126881398Y-54958293D01*
X126786160Y-54910674D01*
X126738541Y-54910674D01*
X126643303Y-54958293D01*
X126595684Y-55005912D01*
X126548064Y-55101150D01*
X126548064Y-55291626D01*
X126595684Y-55386864D01*
X126643303Y-55434483D01*
X126738541Y-55482102D01*
X126786160Y-55482102D01*
X126881398Y-55434483D01*
X126929017Y-55386864D01*
X126976636Y-55291626D01*
X126976636Y-55101150D01*
X127024255Y-55005912D01*
X127071874Y-54958293D01*
X127167112Y-54910674D01*
X127357588Y-54910674D01*
X127452826Y-54958293D01*
X127500445Y-55005912D01*
X127548064Y-55101150D01*
X127548064Y-55291626D01*
X127500445Y-55386864D01*
X127452826Y-55434483D01*
X127357588Y-55482102D01*
X127167112Y-55482102D01*
X127071874Y-55434483D01*
X127024255Y-55386864D01*
X126976636Y-55291626D01*
X127738095Y-146932380D02*
X127738095Y-145932380D01*
X127500000Y-145932380D01*
X127357142Y-145980000D01*
X127261904Y-146075238D01*
X127214285Y-146170476D01*
X127166666Y-146360952D01*
X127166666Y-146503809D01*
X127214285Y-146694285D01*
X127261904Y-146789523D01*
X127357142Y-146884761D01*
X127500000Y-146932380D01*
X127738095Y-146932380D01*
X126214285Y-146932380D02*
X126785714Y-146932380D01*
X126500000Y-146932380D02*
X126500000Y-145932380D01*
X126595238Y-146075238D01*
X126690476Y-146170476D01*
X126785714Y-146218095D01*
X122188042Y-146942853D02*
X122188042Y-145942853D01*
X121616614Y-146942853D02*
X122045185Y-146371425D01*
X121616614Y-145942853D02*
X122188042Y-146514282D01*
X97030893Y-98506800D02*
X97078512Y-98459181D01*
X97126131Y-98316324D01*
X97126131Y-98221086D01*
X97078512Y-98078229D01*
X96983274Y-97982991D01*
X96888036Y-97935372D01*
X96697560Y-97887753D01*
X96554703Y-97887753D01*
X96364227Y-97935372D01*
X96268989Y-97982991D01*
X96173751Y-98078229D01*
X96126131Y-98221086D01*
X96126131Y-98316324D01*
X96173751Y-98459181D01*
X96221370Y-98506800D01*
X96221370Y-98887753D02*
X96173751Y-98935372D01*
X96126131Y-99030610D01*
X96126131Y-99268705D01*
X96173751Y-99363943D01*
X96221370Y-99411562D01*
X96316608Y-99459181D01*
X96411846Y-99459181D01*
X96554703Y-99411562D01*
X97126131Y-98840134D01*
X97126131Y-99459181D01*
X97126131Y-100411562D02*
X97126131Y-99840134D01*
X97126131Y-100125848D02*
X96126131Y-100125848D01*
X96268989Y-100030610D01*
X96364227Y-99935372D01*
X96411846Y-99840134D01*
X127737510Y-111411157D02*
X127785129Y-111363538D01*
X127832748Y-111220681D01*
X127832748Y-111125443D01*
X127785129Y-110982586D01*
X127689891Y-110887348D01*
X127594653Y-110839729D01*
X127404177Y-110792110D01*
X127261320Y-110792110D01*
X127070844Y-110839729D01*
X126975606Y-110887348D01*
X126880368Y-110982586D01*
X126832748Y-111125443D01*
X126832748Y-111220681D01*
X126880368Y-111363538D01*
X126927987Y-111411157D01*
X126832748Y-111744491D02*
X126832748Y-112363538D01*
X127213701Y-112030205D01*
X127213701Y-112173062D01*
X127261320Y-112268300D01*
X127308939Y-112315919D01*
X127404177Y-112363538D01*
X127642272Y-112363538D01*
X127737510Y-112315919D01*
X127785129Y-112268300D01*
X127832748Y-112173062D01*
X127832748Y-111887348D01*
X127785129Y-111792110D01*
X127737510Y-111744491D01*
X126832748Y-112696872D02*
X126832748Y-113315919D01*
X127213701Y-112982586D01*
X127213701Y-113125443D01*
X127261320Y-113220681D01*
X127308939Y-113268300D01*
X127404177Y-113315919D01*
X127642272Y-113315919D01*
X127737510Y-113268300D01*
X127785129Y-113220681D01*
X127832748Y-113125443D01*
X127832748Y-112839729D01*
X127785129Y-112744491D01*
X127737510Y-112696872D01*
X95166666Y-89265707D02*
X95500000Y-88789517D01*
X95738095Y-89265707D02*
X95738095Y-88265707D01*
X95357142Y-88265707D01*
X95261904Y-88313327D01*
X95214285Y-88360946D01*
X95166666Y-88456184D01*
X95166666Y-88599041D01*
X95214285Y-88694279D01*
X95261904Y-88741898D01*
X95357142Y-88789517D01*
X95738095Y-88789517D01*
X94833333Y-88265707D02*
X94166666Y-88265707D01*
X94595238Y-89265707D01*
X132935182Y-98149759D02*
X132458992Y-97816426D01*
X132935182Y-97578331D02*
X131935182Y-97578331D01*
X131935182Y-97959283D01*
X131982802Y-98054521D01*
X132030421Y-98102140D01*
X132125659Y-98149759D01*
X132268516Y-98149759D01*
X132363754Y-98102140D01*
X132411373Y-98054521D01*
X132458992Y-97959283D01*
X132458992Y-97578331D01*
X131935182Y-98483093D02*
X131935182Y-99102140D01*
X132316135Y-98768807D01*
X132316135Y-98911664D01*
X132363754Y-99006902D01*
X132411373Y-99054521D01*
X132506611Y-99102140D01*
X132744706Y-99102140D01*
X132839944Y-99054521D01*
X132887563Y-99006902D01*
X132935182Y-98911664D01*
X132935182Y-98625950D01*
X132887563Y-98530712D01*
X132839944Y-98483093D01*
X131935182Y-99435474D02*
X131935182Y-100054521D01*
X132316135Y-99721188D01*
X132316135Y-99864045D01*
X132363754Y-99959283D01*
X132411373Y-100006902D01*
X132506611Y-100054521D01*
X132744706Y-100054521D01*
X132839944Y-100006902D01*
X132887563Y-99959283D01*
X132935182Y-99864045D01*
X132935182Y-99578331D01*
X132887563Y-99483093D01*
X132839944Y-99435474D01*
X132935182Y-91774759D02*
X132458992Y-91441426D01*
X132935182Y-91203331D02*
X131935182Y-91203331D01*
X131935182Y-91584283D01*
X131982802Y-91679521D01*
X132030421Y-91727140D01*
X132125659Y-91774759D01*
X132268516Y-91774759D01*
X132363754Y-91727140D01*
X132411373Y-91679521D01*
X132458992Y-91584283D01*
X132458992Y-91203331D01*
X132030421Y-92155712D02*
X131982802Y-92203331D01*
X131935182Y-92298569D01*
X131935182Y-92536664D01*
X131982802Y-92631902D01*
X132030421Y-92679521D01*
X132125659Y-92727140D01*
X132220897Y-92727140D01*
X132363754Y-92679521D01*
X132935182Y-92108093D01*
X132935182Y-92727140D01*
X132935182Y-93679521D02*
X132935182Y-93108093D01*
X132935182Y-93393807D02*
X131935182Y-93393807D01*
X132078040Y-93298569D01*
X132173278Y-93203331D01*
X132220897Y-93108093D01*
D13*
X87000000Y-134687500D02*
X87000000Y-134617500D01*
X88370000Y-136057500D02*
G75*
G03*
X88370000Y-136057500I-1370000J0D01*
G01*
X130000000Y-113440000D02*
X130000000Y-113510000D01*
X131370000Y-112070000D02*
G75*
G03*
X131370000Y-112070000I-1370000J0D01*
G01*
X128830000Y-62250000D02*
X128900000Y-62250000D01*
X128830000Y-62250000D02*
G75*
G03*
X128830000Y-62250000I-1370000J0D01*
G01*
X128830000Y-104100000D02*
X128900000Y-104100000D01*
X128830000Y-104100000D02*
G75*
G03*
X128830000Y-104100000I-1370000J0D01*
G01*
X121170000Y-125070000D02*
X121100000Y-125070000D01*
X123910000Y-125070000D02*
G75*
G03*
X123910000Y-125070000I-1370000J0D01*
G01*
X124770000Y-78180000D02*
X120230000Y-78180000D01*
X124770000Y-80320000D02*
X120230000Y-80320000D01*
X120230000Y-78180000D02*
X120230000Y-78195000D01*
X120230000Y-80305000D02*
X120230000Y-80320000D01*
X124770000Y-78180000D02*
X124770000Y-78195000D01*
X124770000Y-80305000D02*
X124770000Y-80320000D01*
X103350000Y-133640000D02*
X103350000Y-133570000D01*
X104720000Y-135010000D02*
G75*
G03*
X104720000Y-135010000I-1370000J0D01*
G01*
X128830000Y-125070000D02*
X128900000Y-125070000D01*
X128830000Y-125070000D02*
G75*
G03*
X128830000Y-125070000I-1370000J0D01*
G01*
X121170000Y-104100000D02*
X121100000Y-104100000D01*
X123910000Y-104100000D02*
G75*
G03*
X123910000Y-104100000I-1370000J0D01*
G01*
X106160000Y-131997500D02*
X116560000Y-131997500D01*
X116560000Y-142497500D02*
X106160000Y-142497500D01*
X116500000Y-139497500D02*
X106220000Y-139497500D01*
X106220000Y-134997500D02*
X116500000Y-134997500D01*
X106220000Y-136247500D02*
X106220000Y-134997500D01*
X106220000Y-139497500D02*
X106220000Y-138247500D01*
X116560000Y-131997500D02*
X116560000Y-142497500D01*
X106160000Y-142497500D02*
X106160000Y-131997500D01*
X116500000Y-134997500D02*
X116500000Y-139497500D01*
X106220000Y-138247500D02*
G75*
G03*
X106220000Y-136247500I0J1000000D01*
G01*
X113920000Y-109290000D02*
X113920000Y-127190000D01*
X109420000Y-109290000D02*
X113920000Y-109290000D01*
X113920000Y-127190000D02*
X112670000Y-127190000D01*
X106420000Y-127250000D02*
X106420000Y-109230000D01*
X110670000Y-127190000D02*
X109420000Y-127190000D01*
X109420000Y-127190000D02*
X109420000Y-109290000D01*
X116920000Y-127250000D02*
X106420000Y-127250000D01*
X106420000Y-109230000D02*
X116920000Y-109230000D01*
X116920000Y-109230000D02*
X116920000Y-127250000D01*
X112670000Y-127190000D02*
G75*
G03*
X110670000Y-127190000I-1000000J0D01*
G01*
X105080000Y-55380000D02*
X105080000Y-59120000D01*
X105080000Y-55380000D02*
X97640000Y-55380000D01*
X97640000Y-55380000D02*
X97640000Y-59120000D01*
X105080000Y-59120000D02*
X97640000Y-59120000D01*
X97640000Y-126230000D02*
X105080000Y-126230000D01*
X97640000Y-126230000D02*
X97640000Y-123490000D01*
X105080000Y-126230000D02*
X105080000Y-123490000D01*
X97640000Y-123490000D02*
X105080000Y-123490000D01*
X130000000Y-50620000D02*
X130000000Y-50690000D01*
X131370000Y-49250000D02*
G75*
G03*
X131370000Y-49250000I-1370000J0D01*
G01*
X93860000Y-102730000D02*
X93860000Y-102660000D01*
X95230000Y-104100000D02*
G75*
G03*
X95230000Y-104100000I-1370000J0D01*
G01*
X104770000Y-129055000D02*
X104770000Y-129070000D01*
X100230000Y-126930000D02*
X100230000Y-126945000D01*
X104770000Y-126930000D02*
X100230000Y-126930000D01*
X100230000Y-129055000D02*
X100230000Y-129070000D01*
X104770000Y-126930000D02*
X104770000Y-126945000D01*
X104770000Y-129070000D02*
X100230000Y-129070000D01*
X110670000Y-85580000D02*
X109420000Y-85580000D01*
X116920000Y-85640000D02*
X106420000Y-85640000D01*
X106420000Y-67620000D02*
X116920000Y-67620000D01*
X116920000Y-67620000D02*
X116920000Y-85640000D01*
X109420000Y-67680000D02*
X113920000Y-67680000D01*
X113920000Y-67680000D02*
X113920000Y-85580000D01*
X113920000Y-85580000D02*
X112670000Y-85580000D01*
X109420000Y-85580000D02*
X109420000Y-67680000D01*
X106420000Y-85640000D02*
X106420000Y-67620000D01*
X112670000Y-85580000D02*
G75*
G03*
X110670000Y-85580000I-1000000J0D01*
G01*
X93860000Y-117030000D02*
X93860000Y-116960000D01*
X95230000Y-118400000D02*
G75*
G03*
X95230000Y-118400000I-1370000J0D01*
G01*
X93665000Y-129070000D02*
X89125000Y-129070000D01*
X89125000Y-129055000D02*
X89125000Y-129070000D01*
X93665000Y-126930000D02*
X89125000Y-126930000D01*
X93665000Y-129055000D02*
X93665000Y-129070000D01*
X89125000Y-126930000D02*
X89125000Y-126945000D01*
X93665000Y-126930000D02*
X93665000Y-126945000D01*
X99090000Y-114805000D02*
X99090000Y-114790000D01*
X103630000Y-114805000D02*
X103630000Y-114790000D01*
X99090000Y-114790000D02*
X103630000Y-114790000D01*
X99090000Y-116930000D02*
X103630000Y-116930000D01*
X99090000Y-116930000D02*
X99090000Y-116915000D01*
X103630000Y-116930000D02*
X103630000Y-116915000D01*
X113920000Y-106430000D02*
X112670000Y-106430000D01*
X109420000Y-106430000D02*
X109420000Y-88530000D01*
X106420000Y-106490000D02*
X106420000Y-88470000D01*
X106420000Y-88470000D02*
X116920000Y-88470000D01*
X116920000Y-88470000D02*
X116920000Y-106490000D01*
X116920000Y-106490000D02*
X106420000Y-106490000D01*
X110670000Y-106430000D02*
X109420000Y-106430000D01*
X113920000Y-88530000D02*
X113920000Y-106430000D01*
X109420000Y-88530000D02*
X113920000Y-88530000D01*
X112670000Y-106430000D02*
G75*
G03*
X110670000Y-106430000I-1000000J0D01*
G01*
X93860000Y-60880000D02*
X93860000Y-60810000D01*
X95230000Y-62250000D02*
G75*
G03*
X95230000Y-62250000I-1370000J0D01*
G01*
X93860000Y-75420000D02*
X93860000Y-75350000D01*
X95230000Y-76790000D02*
G75*
G03*
X95230000Y-76790000I-1370000J0D01*
G01*
X93860000Y-123490000D02*
X93860000Y-123420000D01*
X95230000Y-124860000D02*
G75*
G03*
X95230000Y-124860000I-1370000J0D01*
G01*
X95230000Y-49250000D02*
X95300000Y-49250000D01*
X95230000Y-49250000D02*
G75*
G03*
X95230000Y-49250000I-1370000J0D01*
G01*
X99090000Y-96170000D02*
X99090000Y-96155000D01*
X99090000Y-94030000D02*
X103630000Y-94030000D01*
X99090000Y-94045000D02*
X99090000Y-94030000D01*
X99090000Y-96170000D02*
X103630000Y-96170000D01*
X103630000Y-96170000D02*
X103630000Y-96155000D01*
X103630000Y-94045000D02*
X103630000Y-94030000D01*
X99090000Y-52195000D02*
X99090000Y-52180000D01*
X99090000Y-52180000D02*
X103630000Y-52180000D01*
X99090000Y-54320000D02*
X103630000Y-54320000D01*
X99090000Y-54320000D02*
X99090000Y-54305000D01*
X103630000Y-52195000D02*
X103630000Y-52180000D01*
X103630000Y-54320000D02*
X103630000Y-54305000D01*
X126220000Y-97970000D02*
X126220000Y-94230000D01*
X118780000Y-97970000D02*
X126220000Y-97970000D01*
X118780000Y-97970000D02*
X118780000Y-94230000D01*
X118780000Y-94230000D02*
X126220000Y-94230000D01*
X129720000Y-130530000D02*
X129720000Y-133470000D01*
X124280000Y-130530000D02*
X129720000Y-130530000D01*
X123260000Y-132000000D02*
X124280000Y-132000000D01*
X124280000Y-133470000D02*
X124280000Y-130530000D01*
X130740000Y-132000000D02*
X129720000Y-132000000D01*
X129720000Y-133470000D02*
X124280000Y-133470000D01*
X128820000Y-130530000D02*
X128820000Y-133470000D01*
X128700000Y-130530000D02*
X128700000Y-133470000D01*
X128940000Y-130530000D02*
X128940000Y-133470000D01*
X130000000Y-78080000D02*
X130000000Y-78150000D01*
X131370000Y-76710000D02*
G75*
G03*
X131370000Y-76710000I-1370000J0D01*
G01*
X89945000Y-139497500D02*
X89945000Y-138247500D01*
X100225000Y-134997500D02*
X100225000Y-139497500D01*
X100285000Y-131997500D02*
X100285000Y-142497500D01*
X89885000Y-142497500D02*
X89885000Y-131997500D01*
X100285000Y-142497500D02*
X89885000Y-142497500D01*
X89885000Y-131997500D02*
X100285000Y-131997500D01*
X89945000Y-134997500D02*
X100225000Y-134997500D01*
X100225000Y-139497500D02*
X89945000Y-139497500D01*
X89945000Y-136247500D02*
X89945000Y-134997500D01*
X89945000Y-138247500D02*
G75*
G03*
X89945000Y-136247500I0J1000000D01*
G01*
X118780000Y-71870000D02*
X118780000Y-69130000D01*
X118780000Y-71870000D02*
X126220000Y-71870000D01*
X126220000Y-71870000D02*
X126220000Y-69130000D01*
X118780000Y-69130000D02*
X126220000Y-69130000D01*
X126220000Y-118940000D02*
X126220000Y-115200000D01*
X118780000Y-118940000D02*
X126220000Y-118940000D01*
X118780000Y-115200000D02*
X126220000Y-115200000D01*
X118780000Y-118940000D02*
X118780000Y-115200000D01*
X102690000Y-91100000D02*
X102760000Y-91100000D01*
X102690000Y-91100000D02*
G75*
G03*
X102690000Y-91100000I-1370000J0D01*
G01*
X118780000Y-89730000D02*
X126220000Y-89730000D01*
X118780000Y-92470000D02*
X126220000Y-92470000D01*
X118780000Y-92470000D02*
X118780000Y-89730000D01*
X126220000Y-92470000D02*
X126220000Y-89730000D01*
X93860000Y-81880000D02*
X93860000Y-81810000D01*
X95230000Y-83250000D02*
G75*
G03*
X95230000Y-83250000I-1370000J0D01*
G01*
X97640000Y-105470000D02*
X105080000Y-105470000D01*
X105080000Y-105470000D02*
X105080000Y-102730000D01*
X97640000Y-102730000D02*
X105080000Y-102730000D01*
X97640000Y-105470000D02*
X97640000Y-102730000D01*
X116920000Y-64640000D02*
X106420000Y-64640000D01*
X113920000Y-64580000D02*
X112670000Y-64580000D01*
X106420000Y-46620000D02*
X116920000Y-46620000D01*
X109420000Y-64580000D02*
X109420000Y-46680000D01*
X110670000Y-64580000D02*
X109420000Y-64580000D01*
X109420000Y-46680000D02*
X113920000Y-46680000D01*
X113920000Y-46680000D02*
X113920000Y-64580000D01*
X106420000Y-64640000D02*
X106420000Y-46620000D01*
X116920000Y-46620000D02*
X116920000Y-64640000D01*
X112670000Y-64580000D02*
G75*
G03*
X110670000Y-64580000I-1000000J0D01*
G01*
X126098000Y-135649000D02*
X123902000Y-135649000D01*
X126699000Y-136049000D02*
X126040000Y-136049000D01*
X123960000Y-137610000D02*
X122450000Y-137610000D01*
X126443000Y-135849000D02*
X123557000Y-135849000D01*
X123960000Y-136329000D02*
X123029000Y-136329000D01*
X123960000Y-137410000D02*
X122489000Y-137410000D01*
X123960000Y-136009000D02*
X123347000Y-136009000D01*
X125915000Y-135569000D02*
X124085000Y-135569000D01*
X123960000Y-136889000D02*
X122671000Y-136889000D01*
X127511000Y-137410000D02*
X126040000Y-137410000D01*
X123960000Y-136409000D02*
X122965000Y-136409000D01*
X123960000Y-137930000D02*
X122421000Y-137930000D01*
X127004000Y-136369000D02*
X126040000Y-136369000D01*
X123960000Y-137570000D02*
X122457000Y-137570000D01*
X123960000Y-136809000D02*
X122710000Y-136809000D01*
X127035000Y-136409000D02*
X126040000Y-136409000D01*
X127310000Y-136849000D02*
X126040000Y-136849000D01*
X125677000Y-135489000D02*
X124323000Y-135489000D01*
X127175000Y-136609000D02*
X126040000Y-136609000D01*
X127329000Y-136889000D02*
X126040000Y-136889000D01*
X126011000Y-135609000D02*
X123989000Y-135609000D01*
X123960000Y-136569000D02*
X122851000Y-136569000D01*
X127149000Y-136569000D02*
X126040000Y-136569000D01*
X123960000Y-136289000D02*
X123063000Y-136289000D01*
X127455000Y-137209000D02*
X126040000Y-137209000D01*
X127580000Y-138010000D02*
X126040000Y-138010000D01*
X126725000Y-140564775D02*
X126225000Y-140564775D01*
X123960000Y-137650000D02*
X122444000Y-137650000D01*
X127550000Y-137610000D02*
X126040000Y-137610000D01*
X123960000Y-136529000D02*
X122878000Y-136529000D01*
X127382000Y-137009000D02*
X126040000Y-137009000D01*
X123960000Y-136209000D02*
X123136000Y-136209000D01*
X126500000Y-135889000D02*
X123500000Y-135889000D01*
X127365000Y-136969000D02*
X126040000Y-136969000D01*
X123960000Y-137009000D02*
X122618000Y-137009000D01*
X125284000Y-135409000D02*
X124716000Y-135409000D01*
X123960000Y-137730000D02*
X122435000Y-137730000D01*
X123960000Y-137770000D02*
X122431000Y-137770000D01*
X127348000Y-136929000D02*
X126040000Y-136929000D01*
X127095000Y-136489000D02*
X126040000Y-136489000D01*
X123960000Y-137129000D02*
X122572000Y-137129000D01*
X123960000Y-136689000D02*
X122776000Y-136689000D01*
X123960000Y-137249000D02*
X122532000Y-137249000D01*
X123960000Y-136609000D02*
X122825000Y-136609000D01*
X123960000Y-136449000D02*
X122935000Y-136449000D01*
X123960000Y-137450000D02*
X122480000Y-137450000D01*
X127428000Y-137129000D02*
X126040000Y-137129000D01*
X127536000Y-137530000D02*
X126040000Y-137530000D01*
X126383000Y-135809000D02*
X123617000Y-135809000D01*
X126743000Y-136089000D02*
X126040000Y-136089000D01*
X123960000Y-137530000D02*
X122464000Y-137530000D01*
X127528000Y-137490000D02*
X126040000Y-137490000D01*
X123960000Y-136089000D02*
X123257000Y-136089000D01*
X127580000Y-137970000D02*
X126040000Y-137970000D01*
X126178000Y-135689000D02*
X123822000Y-135689000D01*
X127247000Y-136729000D02*
X126040000Y-136729000D01*
X123960000Y-137810000D02*
X122427000Y-137810000D01*
X126901000Y-136249000D02*
X126040000Y-136249000D01*
X126554000Y-135929000D02*
X123446000Y-135929000D01*
X127290000Y-136809000D02*
X126040000Y-136809000D01*
X126864000Y-136209000D02*
X126040000Y-136209000D01*
X126475000Y-140814775D02*
X126475000Y-140314775D01*
X123960000Y-137890000D02*
X122422000Y-137890000D01*
X123960000Y-137049000D02*
X122602000Y-137049000D01*
X127268000Y-136769000D02*
X126040000Y-136769000D01*
X127442000Y-137169000D02*
X126040000Y-137169000D01*
X123960000Y-136729000D02*
X122753000Y-136729000D01*
X123960000Y-138010000D02*
X122420000Y-138010000D01*
X127565000Y-137730000D02*
X126040000Y-137730000D01*
X127578000Y-137890000D02*
X126040000Y-137890000D01*
X127573000Y-137810000D02*
X126040000Y-137810000D01*
X123960000Y-136169000D02*
X123174000Y-136169000D01*
X123960000Y-136769000D02*
X122732000Y-136769000D01*
X123960000Y-136649000D02*
X122800000Y-136649000D01*
X126826000Y-136169000D02*
X126040000Y-136169000D01*
X123960000Y-137330000D02*
X122509000Y-137330000D01*
X127122000Y-136529000D02*
X126040000Y-136529000D01*
X123960000Y-137690000D02*
X122439000Y-137690000D01*
X126605000Y-135969000D02*
X123395000Y-135969000D01*
X127480000Y-137289000D02*
X126040000Y-137289000D01*
X123960000Y-137209000D02*
X122545000Y-137209000D01*
X125518000Y-135449000D02*
X124482000Y-135449000D01*
X123960000Y-137089000D02*
X122586000Y-137089000D01*
X127065000Y-136449000D02*
X126040000Y-136449000D01*
X123960000Y-137850000D02*
X122424000Y-137850000D01*
X126937000Y-136289000D02*
X126040000Y-136289000D01*
X126319000Y-135769000D02*
X123681000Y-135769000D01*
X123960000Y-136929000D02*
X122652000Y-136929000D01*
X127520000Y-137450000D02*
X126040000Y-137450000D01*
X123960000Y-137370000D02*
X122499000Y-137370000D01*
X123960000Y-137169000D02*
X122558000Y-137169000D01*
X126653000Y-136009000D02*
X126040000Y-136009000D01*
X123960000Y-136049000D02*
X123301000Y-136049000D01*
X126251000Y-135729000D02*
X123749000Y-135729000D01*
X126785000Y-136129000D02*
X126040000Y-136129000D01*
X126971000Y-136329000D02*
X126040000Y-136329000D01*
X127556000Y-137650000D02*
X126040000Y-137650000D01*
X127576000Y-137850000D02*
X126040000Y-137850000D01*
X127561000Y-137690000D02*
X126040000Y-137690000D01*
X127200000Y-136649000D02*
X126040000Y-136649000D01*
X123960000Y-137289000D02*
X122520000Y-137289000D01*
X125805000Y-135529000D02*
X124195000Y-135529000D01*
X127224000Y-136689000D02*
X126040000Y-136689000D01*
X123960000Y-136249000D02*
X123099000Y-136249000D01*
X123960000Y-137970000D02*
X122420000Y-137970000D01*
X127414000Y-137089000D02*
X126040000Y-137089000D01*
X127398000Y-137049000D02*
X126040000Y-137049000D01*
X127569000Y-137770000D02*
X126040000Y-137770000D01*
X123960000Y-137490000D02*
X122472000Y-137490000D01*
X123960000Y-136369000D02*
X122996000Y-136369000D01*
X123960000Y-136849000D02*
X122690000Y-136849000D01*
X123960000Y-136489000D02*
X122905000Y-136489000D01*
X127468000Y-137249000D02*
X126040000Y-137249000D01*
X123960000Y-136969000D02*
X122635000Y-136969000D01*
X127543000Y-137570000D02*
X126040000Y-137570000D01*
X123960000Y-136129000D02*
X123215000Y-136129000D01*
X127501000Y-137370000D02*
X126040000Y-137370000D01*
X127491000Y-137330000D02*
X126040000Y-137330000D01*
X127579000Y-137930000D02*
X126040000Y-137930000D01*
X127620000Y-138010000D02*
G75*
G03*
X127620000Y-138010000I-2620000J0D01*
G01*
X130000000Y-57080000D02*
X130000000Y-57150000D01*
X131370000Y-55710000D02*
G75*
G03*
X131370000Y-55710000I-1370000J0D01*
G01*
X120230000Y-99030000D02*
X120230000Y-99045000D01*
X124770000Y-101170000D02*
X120230000Y-101170000D01*
X124770000Y-99030000D02*
X124770000Y-99045000D01*
X120230000Y-101155000D02*
X120230000Y-101170000D01*
X124770000Y-99030000D02*
X120230000Y-99030000D01*
X124770000Y-101155000D02*
X124770000Y-101170000D01*
X93860000Y-54420000D02*
X93860000Y-54350000D01*
X95230000Y-55790000D02*
G75*
G03*
X95230000Y-55790000I-1370000J0D01*
G01*
X102690000Y-49250000D02*
X102760000Y-49250000D01*
X102690000Y-49250000D02*
G75*
G03*
X102690000Y-49250000I-1370000J0D01*
G01*
X120230000Y-120000000D02*
X120230000Y-120015000D01*
X124770000Y-122140000D02*
X120230000Y-122140000D01*
X124770000Y-120000000D02*
X124770000Y-120015000D01*
X120230000Y-122125000D02*
X120230000Y-122140000D01*
X124770000Y-122125000D02*
X124770000Y-122140000D01*
X124770000Y-120000000D02*
X120230000Y-120000000D01*
X128830000Y-83250000D02*
X128900000Y-83250000D01*
X128830000Y-83250000D02*
G75*
G03*
X128830000Y-83250000I-1370000J0D01*
G01*
X105080000Y-117990000D02*
X97640000Y-117990000D01*
X97640000Y-117990000D02*
X97640000Y-121730000D01*
X105080000Y-121730000D02*
X97640000Y-121730000D01*
X105080000Y-117990000D02*
X105080000Y-121730000D01*
X130000000Y-71870000D02*
X130000000Y-71940000D01*
X131370000Y-70500000D02*
G75*
G03*
X131370000Y-70500000I-1370000J0D01*
G01*
X118780000Y-77120000D02*
X126220000Y-77120000D01*
X126220000Y-77120000D02*
X126220000Y-73380000D01*
X118780000Y-77120000D02*
X118780000Y-73380000D01*
X118780000Y-73380000D02*
X126220000Y-73380000D01*
X97640000Y-81880000D02*
X105080000Y-81880000D01*
X105080000Y-84620000D02*
X105080000Y-81880000D01*
X97640000Y-84620000D02*
X97640000Y-81880000D01*
X97640000Y-84620000D02*
X105080000Y-84620000D01*
X93860000Y-96270000D02*
X93860000Y-96200000D01*
X95230000Y-97640000D02*
G75*
G03*
X95230000Y-97640000I-1370000J0D01*
G01*
X118780000Y-47880000D02*
X126220000Y-47880000D01*
X126220000Y-50620000D02*
X126220000Y-47880000D01*
X118780000Y-50620000D02*
X126220000Y-50620000D01*
X118780000Y-50620000D02*
X118780000Y-47880000D01*
X102690000Y-70250000D02*
X102760000Y-70250000D01*
X102690000Y-70250000D02*
G75*
G03*
X102690000Y-70250000I-1370000J0D01*
G01*
X105080000Y-80120000D02*
X97640000Y-80120000D01*
X97640000Y-76380000D02*
X97640000Y-80120000D01*
X105080000Y-76380000D02*
X97640000Y-76380000D01*
X105080000Y-76380000D02*
X105080000Y-80120000D01*
X136947500Y-131605000D02*
X136947500Y-144425000D01*
X142147500Y-132935000D02*
X142147500Y-131605000D01*
X139547500Y-131605000D02*
X136947500Y-131605000D01*
X142147500Y-134205000D02*
X142147500Y-144425000D01*
X139547500Y-134205000D02*
X139547500Y-131605000D01*
X142147500Y-144425000D02*
X136947500Y-144425000D01*
X142147500Y-134205000D02*
X139547500Y-134205000D01*
X142147500Y-131605000D02*
X140817500Y-131605000D01*
X120230000Y-57180000D02*
X120230000Y-57195000D01*
X124770000Y-59320000D02*
X120230000Y-59320000D01*
X124770000Y-57180000D02*
X120230000Y-57180000D01*
X124770000Y-59305000D02*
X124770000Y-59320000D01*
X124770000Y-57180000D02*
X124770000Y-57195000D01*
X120230000Y-59305000D02*
X120230000Y-59320000D01*
X97640000Y-63620000D02*
X97640000Y-60880000D01*
X97640000Y-63620000D02*
X105080000Y-63620000D01*
X105080000Y-63620000D02*
X105080000Y-60880000D01*
X97640000Y-60880000D02*
X105080000Y-60880000D01*
X130000000Y-119900000D02*
X130000000Y-119970000D01*
X131370000Y-118530000D02*
G75*
G03*
X131370000Y-118530000I-1370000J0D01*
G01*
X102690000Y-111860000D02*
X102760000Y-111860000D01*
X102690000Y-111860000D02*
G75*
G03*
X102690000Y-111860000I-1370000J0D01*
G01*
X99090000Y-73195000D02*
X99090000Y-73180000D01*
X99090000Y-75320000D02*
X103630000Y-75320000D01*
X99090000Y-75320000D02*
X99090000Y-75305000D01*
X103630000Y-75320000D02*
X103630000Y-75305000D01*
X99090000Y-73180000D02*
X103630000Y-73180000D01*
X103630000Y-73195000D02*
X103630000Y-73180000D01*
X95230000Y-111860000D02*
X95300000Y-111860000D01*
X95230000Y-111860000D02*
G75*
G03*
X95230000Y-111860000I-1370000J0D01*
G01*
X121170000Y-83250000D02*
X121100000Y-83250000D01*
X123910000Y-83250000D02*
G75*
G03*
X123910000Y-83250000I-1370000J0D01*
G01*
X121170000Y-62250000D02*
X121100000Y-62250000D01*
X123910000Y-62250000D02*
G75*
G03*
X123910000Y-62250000I-1370000J0D01*
G01*
X133890500Y-137129000D02*
X132502500Y-137129000D01*
X130422500Y-137370000D02*
X128961500Y-137370000D01*
X132905500Y-135849000D02*
X130019500Y-135849000D01*
X130422500Y-137490000D02*
X128934500Y-137490000D01*
X130422500Y-136849000D02*
X129152500Y-136849000D01*
X130422500Y-137209000D02*
X129007500Y-137209000D01*
X133982500Y-137450000D02*
X132502500Y-137450000D01*
X134005500Y-137570000D02*
X132502500Y-137570000D01*
X133791500Y-136889000D02*
X132502500Y-136889000D01*
X130422500Y-136529000D02*
X129340500Y-136529000D01*
X130422500Y-136289000D02*
X129525500Y-136289000D01*
X133810500Y-136929000D02*
X132502500Y-136929000D01*
X133247500Y-136129000D02*
X132502500Y-136129000D01*
X130422500Y-137690000D02*
X128901500Y-137690000D01*
X133584500Y-136529000D02*
X132502500Y-136529000D01*
X133963500Y-137370000D02*
X132502500Y-137370000D01*
X133067500Y-135969000D02*
X129857500Y-135969000D01*
X132845500Y-135809000D02*
X130079500Y-135809000D01*
X130422500Y-136569000D02*
X129313500Y-136569000D01*
X132781500Y-135769000D02*
X130143500Y-135769000D01*
X130422500Y-137890000D02*
X128884500Y-137890000D01*
X130422500Y-137610000D02*
X128912500Y-137610000D01*
X134012500Y-137610000D02*
X132502500Y-137610000D01*
X130422500Y-136609000D02*
X129287500Y-136609000D01*
X130422500Y-138010000D02*
X128882500Y-138010000D01*
X132640500Y-135689000D02*
X130284500Y-135689000D01*
X133662500Y-136649000D02*
X132502500Y-136649000D01*
X130422500Y-136929000D02*
X129114500Y-136929000D01*
X133637500Y-136609000D02*
X132502500Y-136609000D01*
X133973500Y-137410000D02*
X132502500Y-137410000D01*
X131746500Y-135409000D02*
X131178500Y-135409000D01*
X130422500Y-137330000D02*
X128971500Y-137330000D01*
X130422500Y-136769000D02*
X129194500Y-136769000D01*
X133844500Y-137009000D02*
X132502500Y-137009000D01*
X130422500Y-137970000D02*
X128882500Y-137970000D01*
X130422500Y-136889000D02*
X129133500Y-136889000D01*
X133611500Y-136569000D02*
X132502500Y-136569000D01*
X130422500Y-137450000D02*
X128942500Y-137450000D01*
X134042500Y-138010000D02*
X132502500Y-138010000D01*
X130422500Y-137570000D02*
X128919500Y-137570000D01*
X133326500Y-136209000D02*
X132502500Y-136209000D01*
X133998500Y-137530000D02*
X132502500Y-137530000D01*
X130422500Y-137049000D02*
X129064500Y-137049000D01*
X133433500Y-136329000D02*
X132502500Y-136329000D01*
X133187500Y-140564775D02*
X132687500Y-140564775D01*
X134035500Y-137810000D02*
X132502500Y-137810000D01*
X130422500Y-136209000D02*
X129598500Y-136209000D01*
X134040500Y-137890000D02*
X132502500Y-137890000D01*
X131980500Y-135449000D02*
X130944500Y-135449000D01*
X130422500Y-136689000D02*
X129238500Y-136689000D01*
X133904500Y-137169000D02*
X132502500Y-137169000D01*
X130422500Y-137650000D02*
X128906500Y-137650000D01*
X130422500Y-137770000D02*
X128893500Y-137770000D01*
X130422500Y-137810000D02*
X128889500Y-137810000D01*
X133709500Y-136729000D02*
X132502500Y-136729000D01*
X134041500Y-137930000D02*
X132502500Y-137930000D01*
X133161500Y-136049000D02*
X132502500Y-136049000D01*
X132377500Y-135569000D02*
X130547500Y-135569000D01*
X130422500Y-137410000D02*
X128951500Y-137410000D01*
X130422500Y-137169000D02*
X129020500Y-137169000D01*
X130422500Y-137129000D02*
X129034500Y-137129000D01*
X130422500Y-136169000D02*
X129636500Y-136169000D01*
X133942500Y-137289000D02*
X132502500Y-137289000D01*
X133497500Y-136409000D02*
X132502500Y-136409000D01*
X130422500Y-136369000D02*
X129458500Y-136369000D01*
X132267500Y-135529000D02*
X130657500Y-135529000D01*
X133363500Y-136249000D02*
X132502500Y-136249000D01*
X133752500Y-136809000D02*
X132502500Y-136809000D01*
X130422500Y-137930000D02*
X128883500Y-137930000D01*
X133686500Y-136689000D02*
X132502500Y-136689000D01*
X133860500Y-137049000D02*
X132502500Y-137049000D01*
X133466500Y-136369000D02*
X132502500Y-136369000D01*
X130422500Y-136409000D02*
X129427500Y-136409000D01*
X130422500Y-137009000D02*
X129080500Y-137009000D01*
X130422500Y-137289000D02*
X128982500Y-137289000D01*
X134031500Y-137770000D02*
X132502500Y-137770000D01*
X133016500Y-135929000D02*
X129908500Y-135929000D01*
X133990500Y-137490000D02*
X132502500Y-137490000D01*
X133557500Y-136489000D02*
X132502500Y-136489000D01*
X130422500Y-136489000D02*
X129367500Y-136489000D01*
X133399500Y-136289000D02*
X132502500Y-136289000D01*
X130422500Y-136089000D02*
X129719500Y-136089000D01*
X133953500Y-137330000D02*
X132502500Y-137330000D01*
X130422500Y-136449000D02*
X129397500Y-136449000D01*
X132560500Y-135649000D02*
X130364500Y-135649000D01*
X133772500Y-136849000D02*
X132502500Y-136849000D01*
X130422500Y-136009000D02*
X129809500Y-136009000D01*
X132962500Y-135889000D02*
X129962500Y-135889000D01*
X133827500Y-136969000D02*
X132502500Y-136969000D01*
X132473500Y-135609000D02*
X130451500Y-135609000D01*
X133527500Y-136449000D02*
X132502500Y-136449000D01*
X130422500Y-136129000D02*
X129677500Y-136129000D01*
X134018500Y-137650000D02*
X132502500Y-137650000D01*
X130422500Y-137249000D02*
X128994500Y-137249000D01*
X134027500Y-137730000D02*
X132502500Y-137730000D01*
X130422500Y-136329000D02*
X129491500Y-136329000D01*
X134023500Y-137690000D02*
X132502500Y-137690000D01*
X133115500Y-136009000D02*
X132502500Y-136009000D01*
X130422500Y-136049000D02*
X129763500Y-136049000D01*
X133930500Y-137249000D02*
X132502500Y-137249000D01*
X132139500Y-135489000D02*
X130785500Y-135489000D01*
X133730500Y-136769000D02*
X132502500Y-136769000D01*
X132713500Y-135729000D02*
X130211500Y-135729000D01*
X130422500Y-137089000D02*
X129048500Y-137089000D01*
X133876500Y-137089000D02*
X132502500Y-137089000D01*
X130422500Y-136649000D02*
X129262500Y-136649000D01*
X130422500Y-137850000D02*
X128886500Y-137850000D01*
X130422500Y-137530000D02*
X128926500Y-137530000D01*
X134038500Y-137850000D02*
X132502500Y-137850000D01*
X134042500Y-137970000D02*
X132502500Y-137970000D01*
X130422500Y-137730000D02*
X128897500Y-137730000D01*
X133205500Y-136089000D02*
X132502500Y-136089000D01*
X130422500Y-136809000D02*
X129172500Y-136809000D01*
X132937500Y-140814775D02*
X132937500Y-140314775D01*
X133288500Y-136169000D02*
X132502500Y-136169000D01*
X133917500Y-137209000D02*
X132502500Y-137209000D01*
X130422500Y-136969000D02*
X129097500Y-136969000D01*
X130422500Y-136729000D02*
X129215500Y-136729000D01*
X130422500Y-136249000D02*
X129561500Y-136249000D01*
X134082500Y-138010000D02*
G75*
G03*
X134082500Y-138010000I-2620000J0D01*
G01*
X98000000Y-68880000D02*
X98000000Y-68810000D01*
X99370000Y-70250000D02*
G75*
G03*
X99370000Y-70250000I-1370000J0D01*
G01*
X118780000Y-56120000D02*
X118780000Y-52380000D01*
X126220000Y-56120000D02*
X126220000Y-52380000D01*
X118780000Y-52380000D02*
X126220000Y-52380000D01*
X118780000Y-56120000D02*
X126220000Y-56120000D01*
X125060000Y-145480000D02*
X125060000Y-142540000D01*
X130740000Y-144010000D02*
X129720000Y-144010000D01*
X124280000Y-145480000D02*
X124280000Y-142540000D01*
X129720000Y-145480000D02*
X124280000Y-145480000D01*
X125180000Y-145480000D02*
X125180000Y-142540000D01*
X124280000Y-142540000D02*
X129720000Y-142540000D01*
X125300000Y-145480000D02*
X125300000Y-142540000D01*
X123260000Y-144010000D02*
X124280000Y-144010000D01*
X129720000Y-142540000D02*
X129720000Y-145480000D01*
X97640000Y-97230000D02*
X97640000Y-100970000D01*
X105080000Y-97230000D02*
X97640000Y-97230000D01*
X105080000Y-97230000D02*
X105080000Y-100970000D01*
X105080000Y-100970000D02*
X97640000Y-100970000D01*
X126220000Y-113440000D02*
X126220000Y-110700000D01*
X118780000Y-113440000D02*
X118780000Y-110700000D01*
X118780000Y-110700000D02*
X126220000Y-110700000D01*
X118780000Y-113440000D02*
X126220000Y-113440000D01*
X95230000Y-91100000D02*
X95300000Y-91100000D01*
X95230000Y-91100000D02*
G75*
G03*
X95230000Y-91100000I-1370000J0D01*
G01*
X130000000Y-98845000D02*
X130000000Y-98915000D01*
X131370000Y-97475000D02*
G75*
G03*
X131370000Y-97475000I-1370000J0D01*
G01*
X130000000Y-92470000D02*
X130000000Y-92540000D01*
X131370000Y-91100000D02*
G75*
G03*
X131370000Y-91100000I-1370000J0D01*
G01*
%LPC*%
D14*
X87000000Y-79000000D03*
D15*
X87000000Y-81540000D03*
X87000000Y-84080000D03*
X87000000Y-86620000D03*
X87000000Y-89160000D03*
X87000000Y-91700000D03*
D14*
X87000000Y-75000000D03*
D15*
X89540000Y-75000000D03*
D14*
X102000000Y-146010000D03*
D15*
X104540000Y-146010000D03*
D14*
X141000000Y-72540000D03*
D15*
X141000000Y-70000000D03*
D14*
X87000000Y-55010000D03*
D15*
X87000000Y-57550000D03*
D14*
X109000000Y-146010000D03*
D15*
X111540000Y-146010000D03*
X114080000Y-146010000D03*
D14*
X141000000Y-102550000D03*
D15*
X141000000Y-100010000D03*
D14*
X92475000Y-146010000D03*
D15*
X95015000Y-146010000D03*
X97555000Y-146010000D03*
D14*
X87000000Y-116010000D03*
D15*
X87000000Y-118550000D03*
D14*
X87000000Y-100010000D03*
D15*
X87000000Y-102550000D03*
D14*
X141000000Y-118550000D03*
D15*
X141000000Y-116010000D03*
D16*
X139000000Y-125000000D03*
D14*
X141000000Y-57540000D03*
D15*
X141000000Y-55000000D03*
D16*
X89000000Y-68000000D03*
D14*
X87000000Y-140470000D03*
D15*
X87000000Y-143010000D03*
D14*
X141000000Y-79000000D03*
D15*
X141000000Y-81540000D03*
X141000000Y-84080000D03*
X141000000Y-86620000D03*
X141000000Y-89160000D03*
X141000000Y-91700000D03*
D17*
X87000000Y-136057500D03*
D18*
X87000000Y-133517500D03*
D17*
X130000000Y-112070000D03*
D18*
X130000000Y-114610000D03*
D17*
X127460000Y-62250000D03*
D18*
X130000000Y-62250000D03*
D17*
X127460000Y-104100000D03*
D18*
X130000000Y-104100000D03*
D17*
X122540000Y-125070000D03*
D18*
X120000000Y-125070000D03*
D17*
X125000000Y-79250000D03*
X120000000Y-79250000D03*
X103350000Y-135010000D03*
D18*
X103350000Y-132470000D03*
D17*
X127460000Y-125070000D03*
D18*
X130000000Y-125070000D03*
D17*
X122540000Y-104100000D03*
D18*
X120000000Y-104100000D03*
D19*
X107550000Y-133437500D03*
D20*
X110090000Y-133437500D03*
X112630000Y-133437500D03*
X115170000Y-133437500D03*
X115170000Y-141057500D03*
X112630000Y-141057500D03*
X110090000Y-141057500D03*
X107550000Y-141057500D03*
D21*
X107860000Y-125860000D03*
D22*
X107860000Y-123320000D03*
X107860000Y-120780000D03*
X107860000Y-118240000D03*
X107860000Y-115700000D03*
X107860000Y-113160000D03*
X107860000Y-110620000D03*
X115480000Y-110620000D03*
X115480000Y-113160000D03*
X115480000Y-115700000D03*
X115480000Y-118240000D03*
X115480000Y-120780000D03*
X115480000Y-123320000D03*
X115480000Y-125860000D03*
D17*
X103860000Y-57250000D03*
X98860000Y-57250000D03*
X98860000Y-124860000D03*
X103860000Y-124860000D03*
X130000000Y-49250000D03*
D18*
X130000000Y-51790000D03*
D17*
X93860000Y-104100000D03*
D18*
X93860000Y-101560000D03*
D17*
X105000000Y-128000000D03*
X100000000Y-128000000D03*
D21*
X107860000Y-84250000D03*
D22*
X107860000Y-81710000D03*
X107860000Y-79170000D03*
X107860000Y-76630000D03*
X107860000Y-74090000D03*
X107860000Y-71550000D03*
X107860000Y-69010000D03*
X115480000Y-69010000D03*
X115480000Y-71550000D03*
X115480000Y-74090000D03*
X115480000Y-76630000D03*
X115480000Y-79170000D03*
X115480000Y-81710000D03*
X115480000Y-84250000D03*
D17*
X93860000Y-118400000D03*
D18*
X93860000Y-115860000D03*
D17*
X93895000Y-128000000D03*
X88895000Y-128000000D03*
X98860000Y-115860000D03*
X103860000Y-115860000D03*
D21*
X107860000Y-105100000D03*
D22*
X107860000Y-102560000D03*
X107860000Y-100020000D03*
X107860000Y-97480000D03*
X107860000Y-94940000D03*
X107860000Y-92400000D03*
X107860000Y-89860000D03*
X115480000Y-89860000D03*
X115480000Y-92400000D03*
X115480000Y-94940000D03*
X115480000Y-97480000D03*
X115480000Y-100020000D03*
X115480000Y-102560000D03*
X115480000Y-105100000D03*
D17*
X93860000Y-62250000D03*
D18*
X93860000Y-59710000D03*
D17*
X93860000Y-76790000D03*
D18*
X93860000Y-74250000D03*
D17*
X93860000Y-124860000D03*
D18*
X93860000Y-122320000D03*
D17*
X93860000Y-49250000D03*
D18*
X96400000Y-49250000D03*
D17*
X98860000Y-95100000D03*
X103860000Y-95100000D03*
X98860000Y-53250000D03*
X103860000Y-53250000D03*
X120000000Y-96100000D03*
X125000000Y-96100000D03*
D23*
X132080000Y-132000000D03*
D24*
X121920000Y-132000000D03*
D17*
X130000000Y-76710000D03*
D18*
X130000000Y-79250000D03*
D19*
X91275000Y-133437500D03*
D20*
X93815000Y-133437500D03*
X96355000Y-133437500D03*
X98895000Y-133437500D03*
X98895000Y-141057500D03*
X96355000Y-141057500D03*
X93815000Y-141057500D03*
X91275000Y-141057500D03*
D17*
X120000000Y-70500000D03*
X125000000Y-70500000D03*
X120000000Y-117070000D03*
X125000000Y-117070000D03*
X101320000Y-91100000D03*
D18*
X103860000Y-91100000D03*
D17*
X120000000Y-91100000D03*
X125000000Y-91100000D03*
X93860000Y-83250000D03*
D18*
X93860000Y-80710000D03*
D17*
X98860000Y-104100000D03*
X103860000Y-104100000D03*
D21*
X107860000Y-63250000D03*
D22*
X107860000Y-60710000D03*
X107860000Y-58170000D03*
X107860000Y-55630000D03*
X107860000Y-53090000D03*
X107860000Y-50550000D03*
X107860000Y-48010000D03*
X115480000Y-48010000D03*
X115480000Y-50550000D03*
X115480000Y-53090000D03*
X115480000Y-55630000D03*
X115480000Y-58170000D03*
X115480000Y-60710000D03*
X115480000Y-63250000D03*
D25*
X125000000Y-139010000D03*
D17*
X125000000Y-137010000D03*
X130000000Y-55710000D03*
D18*
X130000000Y-58250000D03*
D17*
X125000000Y-100100000D03*
X120000000Y-100100000D03*
X93860000Y-55790000D03*
D18*
X93860000Y-53250000D03*
D17*
X101320000Y-49250000D03*
D18*
X103860000Y-49250000D03*
D17*
X125000000Y-121070000D03*
X120000000Y-121070000D03*
X127460000Y-83250000D03*
D18*
X130000000Y-83250000D03*
D17*
X103860000Y-119860000D03*
X98860000Y-119860000D03*
X130000000Y-70500000D03*
D18*
X130000000Y-73040000D03*
D17*
X120000000Y-75250000D03*
X125000000Y-75250000D03*
X98860000Y-83250000D03*
X103860000Y-83250000D03*
X93860000Y-97640000D03*
D18*
X93860000Y-95100000D03*
D17*
X120000000Y-49250000D03*
X125000000Y-49250000D03*
X101320000Y-70250000D03*
D18*
X103860000Y-70250000D03*
D17*
X103860000Y-78250000D03*
X98860000Y-78250000D03*
D14*
X140817500Y-132935000D03*
D15*
X138277500Y-132935000D03*
X140817500Y-135475000D03*
X138277500Y-135475000D03*
X140817500Y-138015000D03*
X138277500Y-138015000D03*
X140817500Y-140555000D03*
X138277500Y-140555000D03*
X140817500Y-143095000D03*
X138277500Y-143095000D03*
D17*
X125000000Y-58250000D03*
X120000000Y-58250000D03*
X98860000Y-62250000D03*
X103860000Y-62250000D03*
X130000000Y-118530000D03*
D18*
X130000000Y-121070000D03*
D17*
X101320000Y-111860000D03*
D18*
X103860000Y-111860000D03*
D17*
X98860000Y-74250000D03*
X103860000Y-74250000D03*
X93860000Y-111860000D03*
D18*
X96400000Y-111860000D03*
D17*
X122540000Y-83250000D03*
D18*
X120000000Y-83250000D03*
D17*
X122540000Y-62250000D03*
D18*
X120000000Y-62250000D03*
D25*
X131462500Y-139010000D03*
D17*
X131462500Y-137010000D03*
X98000000Y-70250000D03*
D18*
X98000000Y-67710000D03*
D17*
X120000000Y-54250000D03*
X125000000Y-54250000D03*
D23*
X121920000Y-144010000D03*
D24*
X132080000Y-144010000D03*
D17*
X103860000Y-99100000D03*
X98860000Y-99100000D03*
X120000000Y-112070000D03*
X125000000Y-112070000D03*
X93860000Y-91100000D03*
D18*
X96400000Y-91100000D03*
D17*
X130000000Y-97475000D03*
D18*
X130000000Y-100015000D03*
D17*
X130000000Y-91100000D03*
D18*
X130000000Y-93640000D03*
M02*
