%FSLAX45Y45*%
G04 Gerber Fmt 4.5, Leading zero omitted, Abs format (unit mm)*
G04 Created by KiCad (PCBNEW (6.0.4)) date 2023-11-12 14:03:17*
%MOMM*%
%LPD*%
G01*
G04 APERTURE LIST*
%TA.AperFunction,Profile*%
%ADD10C,0.100000*%
%TD*%
%ADD11C,0.200000*%
%ADD12C,0.040000*%
%ADD13C,0.050000*%
%ADD14C,0.080000*%
%ADD15C,0.100000*%
%ADD16C,0.110000*%
G04 APERTURE END LIST*
D10*
X14400000Y-4801000D02*
X14400000Y-14801000D01*
X8400000Y-14801000D02*
X8400000Y-4801000D01*
X8400000Y-4601000D02*
X14400000Y-4601000D01*
X14400000Y-14801000D02*
X8400000Y-14801000D01*
X8400000Y-4801000D02*
X8400000Y-4601000D01*
X14400000Y-4801000D02*
X14400000Y-4601000D01*
D11*
D12*
X12480000Y-12780000D02*
X12520000Y-12820000D01*
X12520000Y-12780000D02*
X12480000Y-12820000D01*
D13*
X9025000Y-5200000D02*
G75*
G03*
X9025000Y-5200000I-25000J0D01*
G01*
X9025000Y-6000000D02*
G75*
G03*
X9025000Y-6000000I-25000J0D01*
G01*
X9074255Y-9819757D02*
G75*
G03*
X9074255Y-9819757I-25000J0D01*
G01*
X9087642Y-11517179D02*
G75*
G03*
X9087642Y-11517179I-25000J0D01*
G01*
X9125000Y-8142902D02*
G75*
G03*
X9125000Y-8142902I-25000J0D01*
G01*
X9125000Y-8600000D02*
G75*
G03*
X9125000Y-8600000I-25000J0D01*
G01*
X9125000Y-10585000D02*
G75*
G03*
X9125000Y-10585000I-25000J0D01*
G01*
X9725000Y-10846000D02*
G75*
G03*
X9725000Y-10846000I-25000J0D01*
G01*
X9825256Y-6498017D02*
G75*
G03*
X9825256Y-6498017I-25000J0D01*
G01*
X9839549Y-5114549D02*
G75*
G03*
X9839549Y-5114549I-25000J0D01*
G01*
X9887481Y-9070425D02*
G75*
G03*
X9887481Y-9070425I-25000J0D01*
G01*
X10158466Y-9710572D02*
G75*
G03*
X10158466Y-9710572I-25000J0D01*
G01*
X10159329Y-11777909D02*
G75*
G03*
X10159329Y-11777909I-25000J0D01*
G01*
X10160883Y-7637372D02*
G75*
G03*
X10160883Y-7637372I-25000J0D01*
G01*
X10164766Y-5509079D02*
G75*
G03*
X10164766Y-5509079I-25000J0D01*
G01*
X10223336Y-12637915D02*
G75*
G03*
X10223336Y-12637915I-25000J0D01*
G01*
X10344764Y-6597151D02*
G75*
G03*
X10344764Y-6597151I-25000J0D01*
G01*
X10425000Y-8700000D02*
G75*
G03*
X10425000Y-8700000I-25000J0D01*
G01*
X10425000Y-10946000D02*
G75*
G03*
X10425000Y-10946000I-25000J0D01*
G01*
X11225000Y-4900000D02*
G75*
G03*
X11225000Y-4900000I-25000J0D01*
G01*
X11825000Y-13000000D02*
G75*
G03*
X11825000Y-13000000I-25000J0D01*
G01*
X12125000Y-8785000D02*
G75*
G03*
X12125000Y-8785000I-25000J0D01*
G01*
X12225000Y-6600000D02*
G75*
G03*
X12225000Y-6600000I-25000J0D01*
G01*
X12225000Y-10946000D02*
G75*
G03*
X12225000Y-10946000I-25000J0D01*
G01*
X12263428Y-7762111D02*
G75*
G03*
X12263428Y-7762111I-25000J0D01*
G01*
X12285176Y-5617818D02*
G75*
G03*
X12285176Y-5617818I-25000J0D01*
G01*
X12285176Y-11919270D02*
G75*
G03*
X12285176Y-11919270I-25000J0D01*
G01*
X12290613Y-9837035D02*
G75*
G03*
X12290613Y-9837035I-25000J0D01*
G01*
X12825000Y-13100000D02*
G75*
G03*
X12825000Y-13100000I-25000J0D01*
G01*
X12825000Y-13600000D02*
G75*
G03*
X12825000Y-13600000I-25000J0D01*
G01*
X12825000Y-14000000D02*
G75*
G03*
X12825000Y-14000000I-25000J0D01*
G01*
X12825000Y-14500000D02*
G75*
G03*
X12825000Y-14500000I-25000J0D01*
G01*
X13142711Y-10885294D02*
G75*
G03*
X13142711Y-10885294I-25000J0D01*
G01*
X13225000Y-8750000D02*
G75*
G03*
X13225000Y-8750000I-25000J0D01*
G01*
X13429732Y-11830434D02*
G75*
G03*
X13429732Y-11830434I-25000J0D01*
G01*
X13450000Y-9275000D02*
G75*
G03*
X13450000Y-9275000I-25000J0D01*
G01*
X13473410Y-7904070D02*
G75*
G03*
X13473410Y-7904070I-25000J0D01*
G01*
X13475000Y-10150000D02*
G75*
G03*
X13475000Y-10150000I-25000J0D01*
G01*
X13525000Y-7300000D02*
G75*
G03*
X13525000Y-7300000I-25000J0D01*
G01*
X13625000Y-11161000D02*
G75*
G03*
X13625000Y-11161000I-25000J0D01*
G01*
X13648720Y-5701278D02*
G75*
G03*
X13648720Y-5701278I-25000J0D01*
G01*
X13960422Y-5155177D02*
G75*
G03*
X13960422Y-5155177I-25000J0D01*
G01*
D14*
X8700000Y-13311750D02*
X8700000Y-13391750D01*
X8660000Y-13351750D02*
X8740000Y-13351750D01*
X8700000Y-13565750D02*
X8700000Y-13645750D01*
X8660000Y-13605750D02*
X8740000Y-13605750D01*
X8889500Y-12760000D02*
X8889500Y-12840000D01*
X8849500Y-12800000D02*
X8929500Y-12800000D01*
X9127500Y-13303750D02*
X9127500Y-13383750D01*
X9087500Y-13343750D02*
X9167500Y-13343750D01*
X9127500Y-14065750D02*
X9127500Y-14145750D01*
X9087500Y-14105750D02*
X9167500Y-14105750D01*
X9381500Y-13303750D02*
X9381500Y-13383750D01*
X9341500Y-13343750D02*
X9421500Y-13343750D01*
X9381500Y-14065750D02*
X9381500Y-14145750D01*
X9341500Y-14105750D02*
X9421500Y-14105750D01*
X9386000Y-4885000D02*
X9386000Y-4965000D01*
X9346000Y-4925000D02*
X9426000Y-4925000D01*
X9386000Y-5285000D02*
X9386000Y-5365000D01*
X9346000Y-5325000D02*
X9426000Y-5325000D01*
X9386000Y-5539000D02*
X9386000Y-5619000D01*
X9346000Y-5579000D02*
X9426000Y-5579000D01*
X9386000Y-5931000D02*
X9386000Y-6011000D01*
X9346000Y-5971000D02*
X9426000Y-5971000D01*
X9386000Y-6185000D02*
X9386000Y-6265000D01*
X9346000Y-6225000D02*
X9426000Y-6225000D01*
X9386000Y-7385000D02*
X9386000Y-7465000D01*
X9346000Y-7425000D02*
X9426000Y-7425000D01*
X9386000Y-7639000D02*
X9386000Y-7719000D01*
X9346000Y-7679000D02*
X9426000Y-7679000D01*
X9386000Y-8031000D02*
X9386000Y-8111000D01*
X9346000Y-8071000D02*
X9426000Y-8071000D01*
X9386000Y-8285000D02*
X9386000Y-8365000D01*
X9346000Y-8325000D02*
X9426000Y-8325000D01*
X9386000Y-9070000D02*
X9386000Y-9150000D01*
X9346000Y-9110000D02*
X9426000Y-9110000D01*
X9386000Y-9470000D02*
X9386000Y-9550000D01*
X9346000Y-9510000D02*
X9426000Y-9510000D01*
X9386000Y-9724000D02*
X9386000Y-9804000D01*
X9346000Y-9764000D02*
X9426000Y-9764000D01*
X9386000Y-10116000D02*
X9386000Y-10196000D01*
X9346000Y-10156000D02*
X9426000Y-10156000D01*
X9386000Y-10370000D02*
X9386000Y-10450000D01*
X9346000Y-10410000D02*
X9426000Y-10410000D01*
X9386000Y-11146000D02*
X9386000Y-11226000D01*
X9346000Y-11186000D02*
X9426000Y-11186000D01*
X9386000Y-11546000D02*
X9386000Y-11626000D01*
X9346000Y-11586000D02*
X9426000Y-11586000D01*
X9386000Y-11800000D02*
X9386000Y-11880000D01*
X9346000Y-11840000D02*
X9426000Y-11840000D01*
X9386000Y-12192000D02*
X9386000Y-12272000D01*
X9346000Y-12232000D02*
X9426000Y-12232000D01*
X9386000Y-12446000D02*
X9386000Y-12526000D01*
X9346000Y-12486000D02*
X9426000Y-12486000D01*
X9389500Y-12760000D02*
X9389500Y-12840000D01*
X9349500Y-12800000D02*
X9429500Y-12800000D01*
X9635500Y-13303750D02*
X9635500Y-13383750D01*
X9595500Y-13343750D02*
X9675500Y-13343750D01*
X9635500Y-14065750D02*
X9635500Y-14145750D01*
X9595500Y-14105750D02*
X9675500Y-14105750D01*
X9640000Y-4885000D02*
X9640000Y-4965000D01*
X9600000Y-4925000D02*
X9680000Y-4925000D01*
X9640000Y-9070000D02*
X9640000Y-9150000D01*
X9600000Y-9110000D02*
X9680000Y-9110000D01*
X9640000Y-11146000D02*
X9640000Y-11226000D01*
X9600000Y-11186000D02*
X9680000Y-11186000D01*
X9800000Y-6731000D02*
X9800000Y-6811000D01*
X9760000Y-6771000D02*
X9840000Y-6771000D01*
X9800000Y-6985000D02*
X9800000Y-7065000D01*
X9760000Y-7025000D02*
X9840000Y-7025000D01*
X9886000Y-5285000D02*
X9886000Y-5365000D01*
X9846000Y-5325000D02*
X9926000Y-5325000D01*
X9886000Y-5685000D02*
X9886000Y-5765000D01*
X9846000Y-5725000D02*
X9926000Y-5725000D01*
X9886000Y-6185000D02*
X9886000Y-6265000D01*
X9846000Y-6225000D02*
X9926000Y-6225000D01*
X9886000Y-7385000D02*
X9886000Y-7465000D01*
X9846000Y-7425000D02*
X9926000Y-7425000D01*
X9886000Y-7785000D02*
X9886000Y-7865000D01*
X9846000Y-7825000D02*
X9926000Y-7825000D01*
X9886000Y-8285000D02*
X9886000Y-8365000D01*
X9846000Y-8325000D02*
X9926000Y-8325000D01*
X9886000Y-9470000D02*
X9886000Y-9550000D01*
X9846000Y-9510000D02*
X9926000Y-9510000D01*
X9886000Y-9870000D02*
X9886000Y-9950000D01*
X9846000Y-9910000D02*
X9926000Y-9910000D01*
X9886000Y-10370000D02*
X9886000Y-10450000D01*
X9846000Y-10410000D02*
X9926000Y-10410000D01*
X9886000Y-11546000D02*
X9886000Y-11626000D01*
X9846000Y-11586000D02*
X9926000Y-11586000D01*
X9886000Y-11946000D02*
X9886000Y-12026000D01*
X9846000Y-11986000D02*
X9926000Y-11986000D01*
X9886000Y-12446000D02*
X9886000Y-12526000D01*
X9846000Y-12486000D02*
X9926000Y-12486000D01*
X9889500Y-13303750D02*
X9889500Y-13383750D01*
X9849500Y-13343750D02*
X9929500Y-13343750D01*
X9889500Y-14065750D02*
X9889500Y-14145750D01*
X9849500Y-14105750D02*
X9929500Y-14105750D01*
X10000000Y-12760000D02*
X10000000Y-12840000D01*
X9960000Y-12800000D02*
X10040000Y-12800000D01*
X10132000Y-4885000D02*
X10132000Y-4965000D01*
X10092000Y-4925000D02*
X10172000Y-4925000D01*
X10132000Y-6985000D02*
X10132000Y-7065000D01*
X10092000Y-7025000D02*
X10172000Y-7025000D01*
X10132000Y-9070000D02*
X10132000Y-9150000D01*
X10092000Y-9110000D02*
X10172000Y-9110000D01*
X10132000Y-11146000D02*
X10132000Y-11226000D01*
X10092000Y-11186000D02*
X10172000Y-11186000D01*
X10335000Y-13207000D02*
X10335000Y-13287000D01*
X10295000Y-13247000D02*
X10375000Y-13247000D01*
X10335000Y-13461000D02*
X10335000Y-13541000D01*
X10295000Y-13501000D02*
X10375000Y-13501000D01*
X10386000Y-4885000D02*
X10386000Y-4965000D01*
X10346000Y-4925000D02*
X10426000Y-4925000D01*
X10386000Y-5285000D02*
X10386000Y-5365000D01*
X10346000Y-5325000D02*
X10426000Y-5325000D01*
X10386000Y-5685000D02*
X10386000Y-5765000D01*
X10346000Y-5725000D02*
X10426000Y-5725000D01*
X10386000Y-6185000D02*
X10386000Y-6265000D01*
X10346000Y-6225000D02*
X10426000Y-6225000D01*
X10386000Y-6985000D02*
X10386000Y-7065000D01*
X10346000Y-7025000D02*
X10426000Y-7025000D01*
X10386000Y-7385000D02*
X10386000Y-7465000D01*
X10346000Y-7425000D02*
X10426000Y-7425000D01*
X10386000Y-7785000D02*
X10386000Y-7865000D01*
X10346000Y-7825000D02*
X10426000Y-7825000D01*
X10386000Y-8285000D02*
X10386000Y-8365000D01*
X10346000Y-8325000D02*
X10426000Y-8325000D01*
X10386000Y-9070000D02*
X10386000Y-9150000D01*
X10346000Y-9110000D02*
X10426000Y-9110000D01*
X10386000Y-9470000D02*
X10386000Y-9550000D01*
X10346000Y-9510000D02*
X10426000Y-9510000D01*
X10386000Y-9870000D02*
X10386000Y-9950000D01*
X10346000Y-9910000D02*
X10426000Y-9910000D01*
X10386000Y-10370000D02*
X10386000Y-10450000D01*
X10346000Y-10410000D02*
X10426000Y-10410000D01*
X10386000Y-11146000D02*
X10386000Y-11226000D01*
X10346000Y-11186000D02*
X10426000Y-11186000D01*
X10386000Y-11546000D02*
X10386000Y-11626000D01*
X10346000Y-11586000D02*
X10426000Y-11586000D01*
X10386000Y-11946000D02*
X10386000Y-12026000D01*
X10346000Y-11986000D02*
X10426000Y-11986000D01*
X10386000Y-12446000D02*
X10386000Y-12526000D01*
X10346000Y-12486000D02*
X10426000Y-12486000D01*
X10500000Y-12760000D02*
X10500000Y-12840000D01*
X10460000Y-12800000D02*
X10540000Y-12800000D01*
X10755000Y-13303750D02*
X10755000Y-13383750D01*
X10715000Y-13343750D02*
X10795000Y-13343750D01*
X10755000Y-14065750D02*
X10755000Y-14145750D01*
X10715000Y-14105750D02*
X10795000Y-14105750D01*
X10786000Y-4761000D02*
X10786000Y-4841000D01*
X10746000Y-4801000D02*
X10826000Y-4801000D01*
X10786000Y-5015000D02*
X10786000Y-5095000D01*
X10746000Y-5055000D02*
X10826000Y-5055000D01*
X10786000Y-5269000D02*
X10786000Y-5349000D01*
X10746000Y-5309000D02*
X10826000Y-5309000D01*
X10786000Y-5523000D02*
X10786000Y-5603000D01*
X10746000Y-5563000D02*
X10826000Y-5563000D01*
X10786000Y-5777000D02*
X10786000Y-5857000D01*
X10746000Y-5817000D02*
X10826000Y-5817000D01*
X10786000Y-6031000D02*
X10786000Y-6111000D01*
X10746000Y-6071000D02*
X10826000Y-6071000D01*
X10786000Y-6285000D02*
X10786000Y-6365000D01*
X10746000Y-6325000D02*
X10826000Y-6325000D01*
X10786000Y-6861000D02*
X10786000Y-6941000D01*
X10746000Y-6901000D02*
X10826000Y-6901000D01*
X10786000Y-7115000D02*
X10786000Y-7195000D01*
X10746000Y-7155000D02*
X10826000Y-7155000D01*
X10786000Y-7369000D02*
X10786000Y-7449000D01*
X10746000Y-7409000D02*
X10826000Y-7409000D01*
X10786000Y-7623000D02*
X10786000Y-7703000D01*
X10746000Y-7663000D02*
X10826000Y-7663000D01*
X10786000Y-7877000D02*
X10786000Y-7957000D01*
X10746000Y-7917000D02*
X10826000Y-7917000D01*
X10786000Y-8131000D02*
X10786000Y-8211000D01*
X10746000Y-8171000D02*
X10826000Y-8171000D01*
X10786000Y-8385000D02*
X10786000Y-8465000D01*
X10746000Y-8425000D02*
X10826000Y-8425000D01*
X10786000Y-8946000D02*
X10786000Y-9026000D01*
X10746000Y-8986000D02*
X10826000Y-8986000D01*
X10786000Y-9200000D02*
X10786000Y-9280000D01*
X10746000Y-9240000D02*
X10826000Y-9240000D01*
X10786000Y-9454000D02*
X10786000Y-9534000D01*
X10746000Y-9494000D02*
X10826000Y-9494000D01*
X10786000Y-9708000D02*
X10786000Y-9788000D01*
X10746000Y-9748000D02*
X10826000Y-9748000D01*
X10786000Y-9962000D02*
X10786000Y-10042000D01*
X10746000Y-10002000D02*
X10826000Y-10002000D01*
X10786000Y-10216000D02*
X10786000Y-10296000D01*
X10746000Y-10256000D02*
X10826000Y-10256000D01*
X10786000Y-10470000D02*
X10786000Y-10550000D01*
X10746000Y-10510000D02*
X10826000Y-10510000D01*
X10786000Y-11022000D02*
X10786000Y-11102000D01*
X10746000Y-11062000D02*
X10826000Y-11062000D01*
X10786000Y-11276000D02*
X10786000Y-11356000D01*
X10746000Y-11316000D02*
X10826000Y-11316000D01*
X10786000Y-11530000D02*
X10786000Y-11610000D01*
X10746000Y-11570000D02*
X10826000Y-11570000D01*
X10786000Y-11784000D02*
X10786000Y-11864000D01*
X10746000Y-11824000D02*
X10826000Y-11824000D01*
X10786000Y-12038000D02*
X10786000Y-12118000D01*
X10746000Y-12078000D02*
X10826000Y-12078000D01*
X10786000Y-12292000D02*
X10786000Y-12372000D01*
X10746000Y-12332000D02*
X10826000Y-12332000D01*
X10786000Y-12546000D02*
X10786000Y-12626000D01*
X10746000Y-12586000D02*
X10826000Y-12586000D01*
X11009000Y-13303750D02*
X11009000Y-13383750D01*
X10969000Y-13343750D02*
X11049000Y-13343750D01*
X11009000Y-14065750D02*
X11009000Y-14145750D01*
X10969000Y-14105750D02*
X11049000Y-14105750D01*
X11263000Y-13303750D02*
X11263000Y-13383750D01*
X11223000Y-13343750D02*
X11303000Y-13343750D01*
X11263000Y-14065750D02*
X11263000Y-14145750D01*
X11223000Y-14105750D02*
X11303000Y-14105750D01*
X11517000Y-13303750D02*
X11517000Y-13383750D01*
X11477000Y-13343750D02*
X11557000Y-13343750D01*
X11517000Y-14065750D02*
X11517000Y-14145750D01*
X11477000Y-14105750D02*
X11557000Y-14105750D01*
X11548000Y-4761000D02*
X11548000Y-4841000D01*
X11508000Y-4801000D02*
X11588000Y-4801000D01*
X11548000Y-5015000D02*
X11548000Y-5095000D01*
X11508000Y-5055000D02*
X11588000Y-5055000D01*
X11548000Y-5269000D02*
X11548000Y-5349000D01*
X11508000Y-5309000D02*
X11588000Y-5309000D01*
X11548000Y-5523000D02*
X11548000Y-5603000D01*
X11508000Y-5563000D02*
X11588000Y-5563000D01*
X11548000Y-5777000D02*
X11548000Y-5857000D01*
X11508000Y-5817000D02*
X11588000Y-5817000D01*
X11548000Y-6031000D02*
X11548000Y-6111000D01*
X11508000Y-6071000D02*
X11588000Y-6071000D01*
X11548000Y-6285000D02*
X11548000Y-6365000D01*
X11508000Y-6325000D02*
X11588000Y-6325000D01*
X11548000Y-6861000D02*
X11548000Y-6941000D01*
X11508000Y-6901000D02*
X11588000Y-6901000D01*
X11548000Y-7115000D02*
X11548000Y-7195000D01*
X11508000Y-7155000D02*
X11588000Y-7155000D01*
X11548000Y-7369000D02*
X11548000Y-7449000D01*
X11508000Y-7409000D02*
X11588000Y-7409000D01*
X11548000Y-7623000D02*
X11548000Y-7703000D01*
X11508000Y-7663000D02*
X11588000Y-7663000D01*
X11548000Y-7877000D02*
X11548000Y-7957000D01*
X11508000Y-7917000D02*
X11588000Y-7917000D01*
X11548000Y-8131000D02*
X11548000Y-8211000D01*
X11508000Y-8171000D02*
X11588000Y-8171000D01*
X11548000Y-8385000D02*
X11548000Y-8465000D01*
X11508000Y-8425000D02*
X11588000Y-8425000D01*
X11548000Y-8946000D02*
X11548000Y-9026000D01*
X11508000Y-8986000D02*
X11588000Y-8986000D01*
X11548000Y-9200000D02*
X11548000Y-9280000D01*
X11508000Y-9240000D02*
X11588000Y-9240000D01*
X11548000Y-9454000D02*
X11548000Y-9534000D01*
X11508000Y-9494000D02*
X11588000Y-9494000D01*
X11548000Y-9708000D02*
X11548000Y-9788000D01*
X11508000Y-9748000D02*
X11588000Y-9748000D01*
X11548000Y-9962000D02*
X11548000Y-10042000D01*
X11508000Y-10002000D02*
X11588000Y-10002000D01*
X11548000Y-10216000D02*
X11548000Y-10296000D01*
X11508000Y-10256000D02*
X11588000Y-10256000D01*
X11548000Y-10470000D02*
X11548000Y-10550000D01*
X11508000Y-10510000D02*
X11588000Y-10510000D01*
X11548000Y-11022000D02*
X11548000Y-11102000D01*
X11508000Y-11062000D02*
X11588000Y-11062000D01*
X11548000Y-11276000D02*
X11548000Y-11356000D01*
X11508000Y-11316000D02*
X11588000Y-11316000D01*
X11548000Y-11530000D02*
X11548000Y-11610000D01*
X11508000Y-11570000D02*
X11588000Y-11570000D01*
X11548000Y-11784000D02*
X11548000Y-11864000D01*
X11508000Y-11824000D02*
X11588000Y-11824000D01*
X11548000Y-12038000D02*
X11548000Y-12118000D01*
X11508000Y-12078000D02*
X11588000Y-12078000D01*
X11548000Y-12292000D02*
X11548000Y-12372000D01*
X11508000Y-12332000D02*
X11588000Y-12332000D01*
X11548000Y-12546000D02*
X11548000Y-12626000D01*
X11508000Y-12586000D02*
X11588000Y-12586000D01*
X12000000Y-4885000D02*
X12000000Y-4965000D01*
X11960000Y-4925000D02*
X12040000Y-4925000D01*
X12000000Y-5385000D02*
X12000000Y-5465000D01*
X11960000Y-5425000D02*
X12040000Y-5425000D01*
X12000000Y-5785000D02*
X12000000Y-5865000D01*
X11960000Y-5825000D02*
X12040000Y-5825000D01*
X12000000Y-6185000D02*
X12000000Y-6265000D01*
X11960000Y-6225000D02*
X12040000Y-6225000D01*
X12000000Y-7010000D02*
X12000000Y-7090000D01*
X11960000Y-7050000D02*
X12040000Y-7050000D01*
X12000000Y-7485000D02*
X12000000Y-7565000D01*
X11960000Y-7525000D02*
X12040000Y-7525000D01*
X12000000Y-7885000D02*
X12000000Y-7965000D01*
X11960000Y-7925000D02*
X12040000Y-7925000D01*
X12000000Y-8285000D02*
X12000000Y-8365000D01*
X11960000Y-8325000D02*
X12040000Y-8325000D01*
X12000000Y-9070000D02*
X12000000Y-9150000D01*
X11960000Y-9110000D02*
X12040000Y-9110000D01*
X12000000Y-9570000D02*
X12000000Y-9650000D01*
X11960000Y-9610000D02*
X12040000Y-9610000D01*
X12000000Y-9970000D02*
X12000000Y-10050000D01*
X11960000Y-10010000D02*
X12040000Y-10010000D01*
X12000000Y-10370000D02*
X12000000Y-10450000D01*
X11960000Y-10410000D02*
X12040000Y-10410000D01*
X12000000Y-11167000D02*
X12000000Y-11247000D01*
X11960000Y-11207000D02*
X12040000Y-11207000D01*
X12000000Y-11667000D02*
X12000000Y-11747000D01*
X11960000Y-11707000D02*
X12040000Y-11707000D01*
X12000000Y-12067000D02*
X12000000Y-12147000D01*
X11960000Y-12107000D02*
X12040000Y-12107000D01*
X12000000Y-12467000D02*
X12000000Y-12547000D01*
X11960000Y-12507000D02*
X12040000Y-12507000D01*
X12254000Y-6185000D02*
X12254000Y-6265000D01*
X12214000Y-6225000D02*
X12294000Y-6225000D01*
X12254000Y-8285000D02*
X12254000Y-8365000D01*
X12214000Y-8325000D02*
X12294000Y-8325000D01*
X12254000Y-10370000D02*
X12254000Y-10450000D01*
X12214000Y-10410000D02*
X12294000Y-10410000D01*
X12254000Y-12467000D02*
X12254000Y-12547000D01*
X12214000Y-12507000D02*
X12294000Y-12507000D01*
X12500000Y-4885000D02*
X12500000Y-4965000D01*
X12460000Y-4925000D02*
X12540000Y-4925000D01*
X12500000Y-5385000D02*
X12500000Y-5465000D01*
X12460000Y-5425000D02*
X12540000Y-5425000D01*
X12500000Y-5785000D02*
X12500000Y-5865000D01*
X12460000Y-5825000D02*
X12540000Y-5825000D01*
X12500000Y-7010000D02*
X12500000Y-7090000D01*
X12460000Y-7050000D02*
X12540000Y-7050000D01*
X12500000Y-7485000D02*
X12500000Y-7565000D01*
X12460000Y-7525000D02*
X12540000Y-7525000D01*
X12500000Y-7885000D02*
X12500000Y-7965000D01*
X12460000Y-7925000D02*
X12540000Y-7925000D01*
X12500000Y-9070000D02*
X12500000Y-9150000D01*
X12460000Y-9110000D02*
X12540000Y-9110000D01*
X12500000Y-9570000D02*
X12500000Y-9650000D01*
X12460000Y-9610000D02*
X12540000Y-9610000D01*
X12500000Y-9970000D02*
X12500000Y-10050000D01*
X12460000Y-10010000D02*
X12540000Y-10010000D01*
X12500000Y-11167000D02*
X12500000Y-11247000D01*
X12460000Y-11207000D02*
X12540000Y-11207000D01*
X12500000Y-11667000D02*
X12500000Y-11747000D01*
X12460000Y-11707000D02*
X12540000Y-11707000D01*
X12500000Y-12067000D02*
X12500000Y-12147000D01*
X12460000Y-12107000D02*
X12540000Y-12107000D01*
X12500000Y-13661000D02*
X12500000Y-13741000D01*
X12460000Y-13701000D02*
X12540000Y-13701000D01*
X12500000Y-13861000D02*
X12500000Y-13941000D01*
X12460000Y-13901000D02*
X12540000Y-13901000D01*
X12746000Y-6185000D02*
X12746000Y-6265000D01*
X12706000Y-6225000D02*
X12786000Y-6225000D01*
X12746000Y-8285000D02*
X12746000Y-8365000D01*
X12706000Y-8325000D02*
X12786000Y-8325000D01*
X12746000Y-10370000D02*
X12746000Y-10450000D01*
X12706000Y-10410000D02*
X12786000Y-10410000D01*
X12746000Y-12467000D02*
X12746000Y-12547000D01*
X12706000Y-12507000D02*
X12786000Y-12507000D01*
X13000000Y-4885000D02*
X13000000Y-4965000D01*
X12960000Y-4925000D02*
X13040000Y-4925000D01*
X13000000Y-5139000D02*
X13000000Y-5219000D01*
X12960000Y-5179000D02*
X13040000Y-5179000D01*
X13000000Y-5531000D02*
X13000000Y-5611000D01*
X12960000Y-5571000D02*
X13040000Y-5571000D01*
X13000000Y-5785000D02*
X13000000Y-5865000D01*
X12960000Y-5825000D02*
X13040000Y-5825000D01*
X13000000Y-6185000D02*
X13000000Y-6265000D01*
X12960000Y-6225000D02*
X13040000Y-6225000D01*
X13000000Y-7010000D02*
X13000000Y-7090000D01*
X12960000Y-7050000D02*
X13040000Y-7050000D01*
X13000000Y-7264000D02*
X13000000Y-7344000D01*
X12960000Y-7304000D02*
X13040000Y-7304000D01*
X13000000Y-7631000D02*
X13000000Y-7711000D01*
X12960000Y-7671000D02*
X13040000Y-7671000D01*
X13000000Y-7885000D02*
X13000000Y-7965000D01*
X12960000Y-7925000D02*
X13040000Y-7925000D01*
X13000000Y-8285000D02*
X13000000Y-8365000D01*
X12960000Y-8325000D02*
X13040000Y-8325000D01*
X13000000Y-9070000D02*
X13000000Y-9150000D01*
X12960000Y-9110000D02*
X13040000Y-9110000D01*
X13000000Y-9324000D02*
X13000000Y-9404000D01*
X12960000Y-9364000D02*
X13040000Y-9364000D01*
X13000000Y-9707500D02*
X13000000Y-9787500D01*
X12960000Y-9747500D02*
X13040000Y-9747500D01*
X13000000Y-9961500D02*
X13000000Y-10041500D01*
X12960000Y-10001500D02*
X13040000Y-10001500D01*
X13000000Y-10370000D02*
X13000000Y-10450000D01*
X12960000Y-10410000D02*
X13040000Y-10410000D01*
X13000000Y-11167000D02*
X13000000Y-11247000D01*
X12960000Y-11207000D02*
X13040000Y-11207000D01*
X13000000Y-11421000D02*
X13000000Y-11501000D01*
X12960000Y-11461000D02*
X13040000Y-11461000D01*
X13000000Y-11813000D02*
X13000000Y-11893000D01*
X12960000Y-11853000D02*
X13040000Y-11853000D01*
X13000000Y-12067000D02*
X13000000Y-12147000D01*
X12960000Y-12107000D02*
X13040000Y-12107000D01*
X13000000Y-12467000D02*
X13000000Y-12547000D01*
X12960000Y-12507000D02*
X13040000Y-12507000D01*
X13146250Y-13661000D02*
X13146250Y-13741000D01*
X13106250Y-13701000D02*
X13186250Y-13701000D01*
X13146250Y-13861000D02*
X13146250Y-13941000D01*
X13106250Y-13901000D02*
X13186250Y-13901000D01*
D15*
X8735356Y-5536356D02*
X8735356Y-5465644D01*
X8664644Y-5465644D01*
X8664644Y-5536356D01*
X8735356Y-5536356D01*
X8735356Y-5790356D02*
X8735356Y-5719644D01*
X8664644Y-5719644D01*
X8664644Y-5790356D01*
X8735356Y-5790356D01*
X8735356Y-7535356D02*
X8735356Y-7464644D01*
X8664644Y-7464644D01*
X8664644Y-7535356D01*
X8735356Y-7535356D01*
X8735356Y-7935356D02*
X8735356Y-7864644D01*
X8664644Y-7864644D01*
X8664644Y-7935356D01*
X8735356Y-7935356D01*
X8735356Y-8189356D02*
X8735356Y-8118644D01*
X8664644Y-8118644D01*
X8664644Y-8189356D01*
X8735356Y-8189356D01*
X8735356Y-8443356D02*
X8735356Y-8372644D01*
X8664644Y-8372644D01*
X8664644Y-8443356D01*
X8735356Y-8443356D01*
X8735356Y-8697356D02*
X8735356Y-8626644D01*
X8664644Y-8626644D01*
X8664644Y-8697356D01*
X8735356Y-8697356D01*
X8735356Y-8951356D02*
X8735356Y-8880644D01*
X8664644Y-8880644D01*
X8664644Y-8951356D01*
X8735356Y-8951356D01*
X8735356Y-9205356D02*
X8735356Y-9134644D01*
X8664644Y-9134644D01*
X8664644Y-9205356D01*
X8735356Y-9205356D01*
X8735356Y-10036356D02*
X8735356Y-9965644D01*
X8664644Y-9965644D01*
X8664644Y-10036356D01*
X8735356Y-10036356D01*
X8735356Y-10290356D02*
X8735356Y-10219644D01*
X8664644Y-10219644D01*
X8664644Y-10290356D01*
X8735356Y-10290356D01*
X8735356Y-11636356D02*
X8735356Y-11565644D01*
X8664644Y-11565644D01*
X8664644Y-11636356D01*
X8735356Y-11636356D01*
X8735356Y-11890356D02*
X8735356Y-11819644D01*
X8664644Y-11819644D01*
X8664644Y-11890356D01*
X8735356Y-11890356D01*
X8735356Y-14082356D02*
X8735356Y-14011644D01*
X8664644Y-14011644D01*
X8664644Y-14082356D01*
X8735356Y-14082356D01*
X8735356Y-14336356D02*
X8735356Y-14265644D01*
X8664644Y-14265644D01*
X8664644Y-14336356D01*
X8735356Y-14336356D01*
X8989356Y-7535356D02*
X8989356Y-7464644D01*
X8918644Y-7464644D01*
X8918644Y-7535356D01*
X8989356Y-7535356D01*
X9282856Y-14636356D02*
X9282856Y-14565644D01*
X9212144Y-14565644D01*
X9212144Y-14636356D01*
X9282856Y-14636356D01*
X9536856Y-14636356D02*
X9536856Y-14565644D01*
X9466144Y-14565644D01*
X9466144Y-14636356D01*
X9536856Y-14636356D01*
X9790856Y-14636356D02*
X9790856Y-14565644D01*
X9720144Y-14565644D01*
X9720144Y-14636356D01*
X9790856Y-14636356D01*
X10235356Y-14636356D02*
X10235356Y-14565644D01*
X10164644Y-14565644D01*
X10164644Y-14636356D01*
X10235356Y-14636356D01*
X10489356Y-14636356D02*
X10489356Y-14565644D01*
X10418644Y-14565644D01*
X10418644Y-14636356D01*
X10489356Y-14636356D01*
X10935356Y-14636356D02*
X10935356Y-14565644D01*
X10864644Y-14565644D01*
X10864644Y-14636356D01*
X10935356Y-14636356D01*
X11189356Y-14636356D02*
X11189356Y-14565644D01*
X11118644Y-14565644D01*
X11118644Y-14636356D01*
X11189356Y-14636356D01*
X11443356Y-14636356D02*
X11443356Y-14565644D01*
X11372644Y-14565644D01*
X11372644Y-14636356D01*
X11443356Y-14636356D01*
X13863106Y-13328856D02*
X13863106Y-13258144D01*
X13792394Y-13258144D01*
X13792394Y-13328856D01*
X13863106Y-13328856D01*
X13863106Y-13582856D02*
X13863106Y-13512144D01*
X13792394Y-13512144D01*
X13792394Y-13582856D01*
X13863106Y-13582856D01*
X13863106Y-13836856D02*
X13863106Y-13766144D01*
X13792394Y-13766144D01*
X13792394Y-13836856D01*
X13863106Y-13836856D01*
X13863106Y-14090856D02*
X13863106Y-14020144D01*
X13792394Y-14020144D01*
X13792394Y-14090856D01*
X13863106Y-14090856D01*
X13863106Y-14344856D02*
X13863106Y-14274144D01*
X13792394Y-14274144D01*
X13792394Y-14344856D01*
X13863106Y-14344856D01*
X14117106Y-13328856D02*
X14117106Y-13258144D01*
X14046394Y-13258144D01*
X14046394Y-13328856D01*
X14117106Y-13328856D01*
X14117106Y-13582856D02*
X14117106Y-13512144D01*
X14046394Y-13512144D01*
X14046394Y-13582856D01*
X14117106Y-13582856D01*
X14117106Y-13836856D02*
X14117106Y-13766144D01*
X14046394Y-13766144D01*
X14046394Y-13836856D01*
X14117106Y-13836856D01*
X14117106Y-14090856D02*
X14117106Y-14020144D01*
X14046394Y-14020144D01*
X14046394Y-14090856D01*
X14117106Y-14090856D01*
X14117106Y-14344856D02*
X14117106Y-14274144D01*
X14046394Y-14274144D01*
X14046394Y-14344856D01*
X14117106Y-14344856D01*
X14135356Y-5535356D02*
X14135356Y-5464644D01*
X14064644Y-5464644D01*
X14064644Y-5535356D01*
X14135356Y-5535356D01*
X14135356Y-5789356D02*
X14135356Y-5718644D01*
X14064644Y-5718644D01*
X14064644Y-5789356D01*
X14135356Y-5789356D01*
X14135356Y-7035356D02*
X14135356Y-6964644D01*
X14064644Y-6964644D01*
X14064644Y-7035356D01*
X14135356Y-7035356D01*
X14135356Y-7289356D02*
X14135356Y-7218644D01*
X14064644Y-7218644D01*
X14064644Y-7289356D01*
X14135356Y-7289356D01*
X14135356Y-7935356D02*
X14135356Y-7864644D01*
X14064644Y-7864644D01*
X14064644Y-7935356D01*
X14135356Y-7935356D01*
X14135356Y-8189356D02*
X14135356Y-8118644D01*
X14064644Y-8118644D01*
X14064644Y-8189356D01*
X14135356Y-8189356D01*
X14135356Y-8443356D02*
X14135356Y-8372644D01*
X14064644Y-8372644D01*
X14064644Y-8443356D01*
X14135356Y-8443356D01*
X14135356Y-8697356D02*
X14135356Y-8626644D01*
X14064644Y-8626644D01*
X14064644Y-8697356D01*
X14135356Y-8697356D01*
X14135356Y-8951356D02*
X14135356Y-8880644D01*
X14064644Y-8880644D01*
X14064644Y-8951356D01*
X14135356Y-8951356D01*
X14135356Y-9205356D02*
X14135356Y-9134644D01*
X14064644Y-9134644D01*
X14064644Y-9205356D01*
X14135356Y-9205356D01*
X14135356Y-10036356D02*
X14135356Y-9965644D01*
X14064644Y-9965644D01*
X14064644Y-10036356D01*
X14135356Y-10036356D01*
X14135356Y-10290356D02*
X14135356Y-10219644D01*
X14064644Y-10219644D01*
X14064644Y-10290356D01*
X14135356Y-10290356D01*
X14135356Y-11636356D02*
X14135356Y-11565644D01*
X14064644Y-11565644D01*
X14064644Y-11636356D01*
X14135356Y-11636356D01*
X14135356Y-11890356D02*
X14135356Y-11819644D01*
X14064644Y-11819644D01*
X14064644Y-11890356D01*
X14135356Y-11890356D01*
D16*
X12192000Y-13255000D02*
X12247000Y-13200000D01*
X12192000Y-13145000D01*
X12137000Y-13200000D01*
X12192000Y-13255000D01*
X12192000Y-14456000D02*
X12247000Y-14401000D01*
X12192000Y-14346000D01*
X12137000Y-14401000D01*
X12192000Y-14456000D01*
X13208000Y-13255000D02*
X13263000Y-13200000D01*
X13208000Y-13145000D01*
X13153000Y-13200000D01*
X13208000Y-13255000D01*
X13208000Y-14456000D02*
X13263000Y-14401000D01*
X13208000Y-14346000D01*
X13153000Y-14401000D01*
X13208000Y-14456000D01*
D11*
X8652619Y-15116476D02*
X8652619Y-14916476D01*
X8700238Y-14916476D01*
X8728810Y-14926000D01*
X8747857Y-14945048D01*
X8757381Y-14964095D01*
X8766905Y-15002190D01*
X8766905Y-15030762D01*
X8757381Y-15068857D01*
X8747857Y-15087905D01*
X8728810Y-15106952D01*
X8700238Y-15116476D01*
X8652619Y-15116476D01*
X8852619Y-15116476D02*
X8852619Y-14983143D01*
X8852619Y-15021238D02*
X8862143Y-15002190D01*
X8871667Y-14992667D01*
X8890714Y-14983143D01*
X8909762Y-14983143D01*
X8976429Y-15116476D02*
X8976429Y-14983143D01*
X8976429Y-14916476D02*
X8966905Y-14926000D01*
X8976429Y-14935524D01*
X8985952Y-14926000D01*
X8976429Y-14916476D01*
X8976429Y-14935524D01*
X9100238Y-15116476D02*
X9081190Y-15106952D01*
X9071667Y-15087905D01*
X9071667Y-14916476D01*
X9205000Y-15116476D02*
X9185952Y-15106952D01*
X9176429Y-15087905D01*
X9176429Y-14916476D01*
X9433571Y-15116476D02*
X9433571Y-14916476D01*
X9500238Y-15059333D01*
X9566905Y-14916476D01*
X9566905Y-15116476D01*
X9747857Y-15116476D02*
X9747857Y-15011714D01*
X9738333Y-14992667D01*
X9719286Y-14983143D01*
X9681190Y-14983143D01*
X9662143Y-14992667D01*
X9747857Y-15106952D02*
X9728810Y-15116476D01*
X9681190Y-15116476D01*
X9662143Y-15106952D01*
X9652619Y-15087905D01*
X9652619Y-15068857D01*
X9662143Y-15049809D01*
X9681190Y-15040286D01*
X9728810Y-15040286D01*
X9747857Y-15030762D01*
X9843095Y-14983143D02*
X9843095Y-15183143D01*
X9843095Y-14992667D02*
X9862143Y-14983143D01*
X9900238Y-14983143D01*
X9919286Y-14992667D01*
X9928810Y-15002190D01*
X9938333Y-15021238D01*
X9938333Y-15078381D01*
X9928810Y-15097428D01*
X9919286Y-15106952D01*
X9900238Y-15116476D01*
X9862143Y-15116476D01*
X9843095Y-15106952D01*
X10024048Y-15097428D02*
X10033571Y-15106952D01*
X10024048Y-15116476D01*
X10014524Y-15106952D01*
X10024048Y-15097428D01*
X10024048Y-15116476D01*
X10024048Y-14992667D02*
X10033571Y-15002190D01*
X10024048Y-15011714D01*
X10014524Y-15002190D01*
X10024048Y-14992667D01*
X10024048Y-15011714D01*
D12*
X8355000Y-15426000D02*
X8395000Y-15466000D01*
X8395000Y-15426000D02*
X8355000Y-15466000D01*
D11*
X8690714Y-15336476D02*
X8709762Y-15336476D01*
X8728810Y-15346000D01*
X8738333Y-15355524D01*
X8747857Y-15374571D01*
X8757381Y-15412667D01*
X8757381Y-15460286D01*
X8747857Y-15498381D01*
X8738333Y-15517428D01*
X8728810Y-15526952D01*
X8709762Y-15536476D01*
X8690714Y-15536476D01*
X8671667Y-15526952D01*
X8662143Y-15517428D01*
X8652619Y-15498381D01*
X8643095Y-15460286D01*
X8643095Y-15412667D01*
X8652619Y-15374571D01*
X8662143Y-15355524D01*
X8671667Y-15346000D01*
X8690714Y-15336476D01*
X8843095Y-15517428D02*
X8852619Y-15526952D01*
X8843095Y-15536476D01*
X8833571Y-15526952D01*
X8843095Y-15517428D01*
X8843095Y-15536476D01*
X9024048Y-15403143D02*
X9024048Y-15536476D01*
X8976429Y-15326952D02*
X8928810Y-15469809D01*
X9052619Y-15469809D01*
X9166905Y-15336476D02*
X9185952Y-15336476D01*
X9205000Y-15346000D01*
X9214524Y-15355524D01*
X9224048Y-15374571D01*
X9233571Y-15412667D01*
X9233571Y-15460286D01*
X9224048Y-15498381D01*
X9214524Y-15517428D01*
X9205000Y-15526952D01*
X9185952Y-15536476D01*
X9166905Y-15536476D01*
X9147857Y-15526952D01*
X9138333Y-15517428D01*
X9128810Y-15498381D01*
X9119286Y-15460286D01*
X9119286Y-15412667D01*
X9128810Y-15374571D01*
X9138333Y-15355524D01*
X9147857Y-15346000D01*
X9166905Y-15336476D01*
X9357381Y-15336476D02*
X9376429Y-15336476D01*
X9395476Y-15346000D01*
X9405000Y-15355524D01*
X9414524Y-15374571D01*
X9424048Y-15412667D01*
X9424048Y-15460286D01*
X9414524Y-15498381D01*
X9405000Y-15517428D01*
X9395476Y-15526952D01*
X9376429Y-15536476D01*
X9357381Y-15536476D01*
X9338333Y-15526952D01*
X9328810Y-15517428D01*
X9319286Y-15498381D01*
X9309762Y-15460286D01*
X9309762Y-15412667D01*
X9319286Y-15374571D01*
X9328810Y-15355524D01*
X9338333Y-15346000D01*
X9357381Y-15336476D01*
X9509762Y-15536476D02*
X9509762Y-15403143D01*
X9509762Y-15422190D02*
X9519286Y-15412667D01*
X9538333Y-15403143D01*
X9566905Y-15403143D01*
X9585952Y-15412667D01*
X9595476Y-15431714D01*
X9595476Y-15536476D01*
X9595476Y-15431714D02*
X9605000Y-15412667D01*
X9624048Y-15403143D01*
X9652619Y-15403143D01*
X9671667Y-15412667D01*
X9681190Y-15431714D01*
X9681190Y-15536476D01*
X9776429Y-15536476D02*
X9776429Y-15403143D01*
X9776429Y-15422190D02*
X9785952Y-15412667D01*
X9805000Y-15403143D01*
X9833571Y-15403143D01*
X9852619Y-15412667D01*
X9862143Y-15431714D01*
X9862143Y-15536476D01*
X9862143Y-15431714D02*
X9871667Y-15412667D01*
X9890714Y-15403143D01*
X9919286Y-15403143D01*
X9938333Y-15412667D01*
X9947857Y-15431714D01*
X9947857Y-15536476D01*
X10338333Y-15326952D02*
X10166905Y-15584095D01*
X10595476Y-15336476D02*
X10614524Y-15336476D01*
X10633571Y-15346000D01*
X10643095Y-15355524D01*
X10652619Y-15374571D01*
X10662143Y-15412667D01*
X10662143Y-15460286D01*
X10652619Y-15498381D01*
X10643095Y-15517428D01*
X10633571Y-15526952D01*
X10614524Y-15536476D01*
X10595476Y-15536476D01*
X10576429Y-15526952D01*
X10566905Y-15517428D01*
X10557381Y-15498381D01*
X10547857Y-15460286D01*
X10547857Y-15412667D01*
X10557381Y-15374571D01*
X10566905Y-15355524D01*
X10576429Y-15346000D01*
X10595476Y-15336476D01*
X10747857Y-15517428D02*
X10757381Y-15526952D01*
X10747857Y-15536476D01*
X10738333Y-15526952D01*
X10747857Y-15517428D01*
X10747857Y-15536476D01*
X10881190Y-15336476D02*
X10900238Y-15336476D01*
X10919286Y-15346000D01*
X10928810Y-15355524D01*
X10938333Y-15374571D01*
X10947857Y-15412667D01*
X10947857Y-15460286D01*
X10938333Y-15498381D01*
X10928810Y-15517428D01*
X10919286Y-15526952D01*
X10900238Y-15536476D01*
X10881190Y-15536476D01*
X10862143Y-15526952D01*
X10852619Y-15517428D01*
X10843095Y-15498381D01*
X10833571Y-15460286D01*
X10833571Y-15412667D01*
X10843095Y-15374571D01*
X10852619Y-15355524D01*
X10862143Y-15346000D01*
X10881190Y-15336476D01*
X11138333Y-15536476D02*
X11024048Y-15536476D01*
X11081190Y-15536476D02*
X11081190Y-15336476D01*
X11062143Y-15365048D01*
X11043095Y-15384095D01*
X11024048Y-15393619D01*
X11319286Y-15336476D02*
X11224048Y-15336476D01*
X11214524Y-15431714D01*
X11224048Y-15422190D01*
X11243095Y-15412667D01*
X11290714Y-15412667D01*
X11309762Y-15422190D01*
X11319286Y-15431714D01*
X11328809Y-15450762D01*
X11328809Y-15498381D01*
X11319286Y-15517428D01*
X11309762Y-15526952D01*
X11290714Y-15536476D01*
X11243095Y-15536476D01*
X11224048Y-15526952D01*
X11214524Y-15517428D01*
X11395476Y-15336476D02*
X11528809Y-15336476D01*
X11443095Y-15536476D01*
X11595476Y-15336476D02*
X11595476Y-15374571D01*
X11671667Y-15336476D02*
X11671667Y-15374571D01*
X11966905Y-15612667D02*
X11957381Y-15603143D01*
X11938333Y-15574571D01*
X11928809Y-15555524D01*
X11919286Y-15526952D01*
X11909762Y-15479333D01*
X11909762Y-15441238D01*
X11919286Y-15393619D01*
X11928809Y-15365048D01*
X11938333Y-15346000D01*
X11957381Y-15317428D01*
X11966905Y-15307905D01*
X12147857Y-15536476D02*
X12033571Y-15536476D01*
X12090714Y-15536476D02*
X12090714Y-15336476D01*
X12071667Y-15365048D01*
X12052619Y-15384095D01*
X12033571Y-15393619D01*
X12385952Y-15536476D02*
X12385952Y-15336476D01*
X12471667Y-15536476D02*
X12471667Y-15431714D01*
X12462143Y-15412667D01*
X12443095Y-15403143D01*
X12414524Y-15403143D01*
X12395476Y-15412667D01*
X12385952Y-15422190D01*
X12595476Y-15536476D02*
X12576428Y-15526952D01*
X12566905Y-15517428D01*
X12557381Y-15498381D01*
X12557381Y-15441238D01*
X12566905Y-15422190D01*
X12576428Y-15412667D01*
X12595476Y-15403143D01*
X12624048Y-15403143D01*
X12643095Y-15412667D01*
X12652619Y-15422190D01*
X12662143Y-15441238D01*
X12662143Y-15498381D01*
X12652619Y-15517428D01*
X12643095Y-15526952D01*
X12624048Y-15536476D01*
X12595476Y-15536476D01*
X12776428Y-15536476D02*
X12757381Y-15526952D01*
X12747857Y-15507905D01*
X12747857Y-15336476D01*
X12928809Y-15526952D02*
X12909762Y-15536476D01*
X12871667Y-15536476D01*
X12852619Y-15526952D01*
X12843095Y-15507905D01*
X12843095Y-15431714D01*
X12852619Y-15412667D01*
X12871667Y-15403143D01*
X12909762Y-15403143D01*
X12928809Y-15412667D01*
X12938333Y-15431714D01*
X12938333Y-15450762D01*
X12843095Y-15469809D01*
X13005000Y-15612667D02*
X13014524Y-15603143D01*
X13033571Y-15574571D01*
X13043095Y-15555524D01*
X13052619Y-15526952D01*
X13062143Y-15479333D01*
X13062143Y-15441238D01*
X13052619Y-15393619D01*
X13043095Y-15365048D01*
X13033571Y-15346000D01*
X13014524Y-15317428D01*
X13005000Y-15307905D01*
D13*
X8395000Y-15710000D02*
G75*
G03*
X8395000Y-15710000I-25000J0D01*
G01*
D11*
X8690714Y-15600476D02*
X8709762Y-15600476D01*
X8728810Y-15610000D01*
X8738333Y-15619524D01*
X8747857Y-15638571D01*
X8757381Y-15676667D01*
X8757381Y-15724286D01*
X8747857Y-15762381D01*
X8738333Y-15781428D01*
X8728810Y-15790952D01*
X8709762Y-15800476D01*
X8690714Y-15800476D01*
X8671667Y-15790952D01*
X8662143Y-15781428D01*
X8652619Y-15762381D01*
X8643095Y-15724286D01*
X8643095Y-15676667D01*
X8652619Y-15638571D01*
X8662143Y-15619524D01*
X8671667Y-15610000D01*
X8690714Y-15600476D01*
X8843095Y-15781428D02*
X8852619Y-15790952D01*
X8843095Y-15800476D01*
X8833571Y-15790952D01*
X8843095Y-15781428D01*
X8843095Y-15800476D01*
X9033571Y-15600476D02*
X8938333Y-15600476D01*
X8928810Y-15695714D01*
X8938333Y-15686190D01*
X8957381Y-15676667D01*
X9005000Y-15676667D01*
X9024048Y-15686190D01*
X9033571Y-15695714D01*
X9043095Y-15714762D01*
X9043095Y-15762381D01*
X9033571Y-15781428D01*
X9024048Y-15790952D01*
X9005000Y-15800476D01*
X8957381Y-15800476D01*
X8938333Y-15790952D01*
X8928810Y-15781428D01*
X9166905Y-15600476D02*
X9185952Y-15600476D01*
X9205000Y-15610000D01*
X9214524Y-15619524D01*
X9224048Y-15638571D01*
X9233571Y-15676667D01*
X9233571Y-15724286D01*
X9224048Y-15762381D01*
X9214524Y-15781428D01*
X9205000Y-15790952D01*
X9185952Y-15800476D01*
X9166905Y-15800476D01*
X9147857Y-15790952D01*
X9138333Y-15781428D01*
X9128810Y-15762381D01*
X9119286Y-15724286D01*
X9119286Y-15676667D01*
X9128810Y-15638571D01*
X9138333Y-15619524D01*
X9147857Y-15610000D01*
X9166905Y-15600476D01*
X9357381Y-15600476D02*
X9376429Y-15600476D01*
X9395476Y-15610000D01*
X9405000Y-15619524D01*
X9414524Y-15638571D01*
X9424048Y-15676667D01*
X9424048Y-15724286D01*
X9414524Y-15762381D01*
X9405000Y-15781428D01*
X9395476Y-15790952D01*
X9376429Y-15800476D01*
X9357381Y-15800476D01*
X9338333Y-15790952D01*
X9328810Y-15781428D01*
X9319286Y-15762381D01*
X9309762Y-15724286D01*
X9309762Y-15676667D01*
X9319286Y-15638571D01*
X9328810Y-15619524D01*
X9338333Y-15610000D01*
X9357381Y-15600476D01*
X9509762Y-15800476D02*
X9509762Y-15667143D01*
X9509762Y-15686190D02*
X9519286Y-15676667D01*
X9538333Y-15667143D01*
X9566905Y-15667143D01*
X9585952Y-15676667D01*
X9595476Y-15695714D01*
X9595476Y-15800476D01*
X9595476Y-15695714D02*
X9605000Y-15676667D01*
X9624048Y-15667143D01*
X9652619Y-15667143D01*
X9671667Y-15676667D01*
X9681190Y-15695714D01*
X9681190Y-15800476D01*
X9776429Y-15800476D02*
X9776429Y-15667143D01*
X9776429Y-15686190D02*
X9785952Y-15676667D01*
X9805000Y-15667143D01*
X9833571Y-15667143D01*
X9852619Y-15676667D01*
X9862143Y-15695714D01*
X9862143Y-15800476D01*
X9862143Y-15695714D02*
X9871667Y-15676667D01*
X9890714Y-15667143D01*
X9919286Y-15667143D01*
X9938333Y-15676667D01*
X9947857Y-15695714D01*
X9947857Y-15800476D01*
X10338333Y-15590952D02*
X10166905Y-15848095D01*
X10595476Y-15600476D02*
X10614524Y-15600476D01*
X10633571Y-15610000D01*
X10643095Y-15619524D01*
X10652619Y-15638571D01*
X10662143Y-15676667D01*
X10662143Y-15724286D01*
X10652619Y-15762381D01*
X10643095Y-15781428D01*
X10633571Y-15790952D01*
X10614524Y-15800476D01*
X10595476Y-15800476D01*
X10576429Y-15790952D01*
X10566905Y-15781428D01*
X10557381Y-15762381D01*
X10547857Y-15724286D01*
X10547857Y-15676667D01*
X10557381Y-15638571D01*
X10566905Y-15619524D01*
X10576429Y-15610000D01*
X10595476Y-15600476D01*
X10747857Y-15781428D02*
X10757381Y-15790952D01*
X10747857Y-15800476D01*
X10738333Y-15790952D01*
X10747857Y-15781428D01*
X10747857Y-15800476D01*
X10881190Y-15600476D02*
X10900238Y-15600476D01*
X10919286Y-15610000D01*
X10928810Y-15619524D01*
X10938333Y-15638571D01*
X10947857Y-15676667D01*
X10947857Y-15724286D01*
X10938333Y-15762381D01*
X10928810Y-15781428D01*
X10919286Y-15790952D01*
X10900238Y-15800476D01*
X10881190Y-15800476D01*
X10862143Y-15790952D01*
X10852619Y-15781428D01*
X10843095Y-15762381D01*
X10833571Y-15724286D01*
X10833571Y-15676667D01*
X10843095Y-15638571D01*
X10852619Y-15619524D01*
X10862143Y-15610000D01*
X10881190Y-15600476D01*
X11138333Y-15800476D02*
X11024048Y-15800476D01*
X11081190Y-15800476D02*
X11081190Y-15600476D01*
X11062143Y-15629048D01*
X11043095Y-15648095D01*
X11024048Y-15657619D01*
X11233571Y-15800476D02*
X11271667Y-15800476D01*
X11290714Y-15790952D01*
X11300238Y-15781428D01*
X11319286Y-15752857D01*
X11328809Y-15714762D01*
X11328809Y-15638571D01*
X11319286Y-15619524D01*
X11309762Y-15610000D01*
X11290714Y-15600476D01*
X11252619Y-15600476D01*
X11233571Y-15610000D01*
X11224048Y-15619524D01*
X11214524Y-15638571D01*
X11214524Y-15686190D01*
X11224048Y-15705238D01*
X11233571Y-15714762D01*
X11252619Y-15724286D01*
X11290714Y-15724286D01*
X11309762Y-15714762D01*
X11319286Y-15705238D01*
X11328809Y-15686190D01*
X11395476Y-15600476D02*
X11528809Y-15600476D01*
X11443095Y-15800476D01*
X11595476Y-15600476D02*
X11595476Y-15638571D01*
X11671667Y-15600476D02*
X11671667Y-15638571D01*
X11966905Y-15876667D02*
X11957381Y-15867143D01*
X11938333Y-15838571D01*
X11928809Y-15819524D01*
X11919286Y-15790952D01*
X11909762Y-15743333D01*
X11909762Y-15705238D01*
X11919286Y-15657619D01*
X11928809Y-15629048D01*
X11938333Y-15610000D01*
X11957381Y-15581428D01*
X11966905Y-15571905D01*
X12128809Y-15667143D02*
X12128809Y-15800476D01*
X12081190Y-15590952D02*
X12033571Y-15733809D01*
X12157381Y-15733809D01*
X12224048Y-15619524D02*
X12233571Y-15610000D01*
X12252619Y-15600476D01*
X12300238Y-15600476D01*
X12319286Y-15610000D01*
X12328809Y-15619524D01*
X12338333Y-15638571D01*
X12338333Y-15657619D01*
X12328809Y-15686190D01*
X12214524Y-15800476D01*
X12338333Y-15800476D01*
X12576428Y-15800476D02*
X12576428Y-15600476D01*
X12662143Y-15800476D02*
X12662143Y-15695714D01*
X12652619Y-15676667D01*
X12633571Y-15667143D01*
X12605000Y-15667143D01*
X12585952Y-15676667D01*
X12576428Y-15686190D01*
X12785952Y-15800476D02*
X12766905Y-15790952D01*
X12757381Y-15781428D01*
X12747857Y-15762381D01*
X12747857Y-15705238D01*
X12757381Y-15686190D01*
X12766905Y-15676667D01*
X12785952Y-15667143D01*
X12814524Y-15667143D01*
X12833571Y-15676667D01*
X12843095Y-15686190D01*
X12852619Y-15705238D01*
X12852619Y-15762381D01*
X12843095Y-15781428D01*
X12833571Y-15790952D01*
X12814524Y-15800476D01*
X12785952Y-15800476D01*
X12966905Y-15800476D02*
X12947857Y-15790952D01*
X12938333Y-15771905D01*
X12938333Y-15600476D01*
X13119286Y-15790952D02*
X13100238Y-15800476D01*
X13062143Y-15800476D01*
X13043095Y-15790952D01*
X13033571Y-15771905D01*
X13033571Y-15695714D01*
X13043095Y-15676667D01*
X13062143Y-15667143D01*
X13100238Y-15667143D01*
X13119286Y-15676667D01*
X13128809Y-15695714D01*
X13128809Y-15714762D01*
X13033571Y-15733809D01*
X13205000Y-15790952D02*
X13224048Y-15800476D01*
X13262143Y-15800476D01*
X13281190Y-15790952D01*
X13290714Y-15771905D01*
X13290714Y-15762381D01*
X13281190Y-15743333D01*
X13262143Y-15733809D01*
X13233571Y-15733809D01*
X13214524Y-15724286D01*
X13205000Y-15705238D01*
X13205000Y-15695714D01*
X13214524Y-15676667D01*
X13233571Y-15667143D01*
X13262143Y-15667143D01*
X13281190Y-15676667D01*
X13357381Y-15876667D02*
X13366905Y-15867143D01*
X13385952Y-15838571D01*
X13395476Y-15819524D01*
X13405000Y-15790952D01*
X13414524Y-15743333D01*
X13414524Y-15705238D01*
X13405000Y-15657619D01*
X13395476Y-15629048D01*
X13385952Y-15610000D01*
X13366905Y-15581428D01*
X13357381Y-15571905D01*
D14*
X8355000Y-15934000D02*
X8355000Y-16014000D01*
X8315000Y-15974000D02*
X8395000Y-15974000D01*
D11*
X8690714Y-15864476D02*
X8709762Y-15864476D01*
X8728810Y-15874000D01*
X8738333Y-15883524D01*
X8747857Y-15902571D01*
X8757381Y-15940667D01*
X8757381Y-15988286D01*
X8747857Y-16026381D01*
X8738333Y-16045428D01*
X8728810Y-16054952D01*
X8709762Y-16064476D01*
X8690714Y-16064476D01*
X8671667Y-16054952D01*
X8662143Y-16045428D01*
X8652619Y-16026381D01*
X8643095Y-15988286D01*
X8643095Y-15940667D01*
X8652619Y-15902571D01*
X8662143Y-15883524D01*
X8671667Y-15874000D01*
X8690714Y-15864476D01*
X8843095Y-16045428D02*
X8852619Y-16054952D01*
X8843095Y-16064476D01*
X8833571Y-16054952D01*
X8843095Y-16045428D01*
X8843095Y-16064476D01*
X8966905Y-15950190D02*
X8947857Y-15940667D01*
X8938333Y-15931143D01*
X8928810Y-15912095D01*
X8928810Y-15902571D01*
X8938333Y-15883524D01*
X8947857Y-15874000D01*
X8966905Y-15864476D01*
X9005000Y-15864476D01*
X9024048Y-15874000D01*
X9033571Y-15883524D01*
X9043095Y-15902571D01*
X9043095Y-15912095D01*
X9033571Y-15931143D01*
X9024048Y-15940667D01*
X9005000Y-15950190D01*
X8966905Y-15950190D01*
X8947857Y-15959714D01*
X8938333Y-15969238D01*
X8928810Y-15988286D01*
X8928810Y-16026381D01*
X8938333Y-16045428D01*
X8947857Y-16054952D01*
X8966905Y-16064476D01*
X9005000Y-16064476D01*
X9024048Y-16054952D01*
X9033571Y-16045428D01*
X9043095Y-16026381D01*
X9043095Y-15988286D01*
X9033571Y-15969238D01*
X9024048Y-15959714D01*
X9005000Y-15950190D01*
X9166905Y-15864476D02*
X9185952Y-15864476D01*
X9205000Y-15874000D01*
X9214524Y-15883524D01*
X9224048Y-15902571D01*
X9233571Y-15940667D01*
X9233571Y-15988286D01*
X9224048Y-16026381D01*
X9214524Y-16045428D01*
X9205000Y-16054952D01*
X9185952Y-16064476D01*
X9166905Y-16064476D01*
X9147857Y-16054952D01*
X9138333Y-16045428D01*
X9128810Y-16026381D01*
X9119286Y-15988286D01*
X9119286Y-15940667D01*
X9128810Y-15902571D01*
X9138333Y-15883524D01*
X9147857Y-15874000D01*
X9166905Y-15864476D01*
X9357381Y-15864476D02*
X9376429Y-15864476D01*
X9395476Y-15874000D01*
X9405000Y-15883524D01*
X9414524Y-15902571D01*
X9424048Y-15940667D01*
X9424048Y-15988286D01*
X9414524Y-16026381D01*
X9405000Y-16045428D01*
X9395476Y-16054952D01*
X9376429Y-16064476D01*
X9357381Y-16064476D01*
X9338333Y-16054952D01*
X9328810Y-16045428D01*
X9319286Y-16026381D01*
X9309762Y-15988286D01*
X9309762Y-15940667D01*
X9319286Y-15902571D01*
X9328810Y-15883524D01*
X9338333Y-15874000D01*
X9357381Y-15864476D01*
X9509762Y-16064476D02*
X9509762Y-15931143D01*
X9509762Y-15950190D02*
X9519286Y-15940667D01*
X9538333Y-15931143D01*
X9566905Y-15931143D01*
X9585952Y-15940667D01*
X9595476Y-15959714D01*
X9595476Y-16064476D01*
X9595476Y-15959714D02*
X9605000Y-15940667D01*
X9624048Y-15931143D01*
X9652619Y-15931143D01*
X9671667Y-15940667D01*
X9681190Y-15959714D01*
X9681190Y-16064476D01*
X9776429Y-16064476D02*
X9776429Y-15931143D01*
X9776429Y-15950190D02*
X9785952Y-15940667D01*
X9805000Y-15931143D01*
X9833571Y-15931143D01*
X9852619Y-15940667D01*
X9862143Y-15959714D01*
X9862143Y-16064476D01*
X9862143Y-15959714D02*
X9871667Y-15940667D01*
X9890714Y-15931143D01*
X9919286Y-15931143D01*
X9938333Y-15940667D01*
X9947857Y-15959714D01*
X9947857Y-16064476D01*
X10338333Y-15854952D02*
X10166905Y-16112095D01*
X10595476Y-15864476D02*
X10614524Y-15864476D01*
X10633571Y-15874000D01*
X10643095Y-15883524D01*
X10652619Y-15902571D01*
X10662143Y-15940667D01*
X10662143Y-15988286D01*
X10652619Y-16026381D01*
X10643095Y-16045428D01*
X10633571Y-16054952D01*
X10614524Y-16064476D01*
X10595476Y-16064476D01*
X10576429Y-16054952D01*
X10566905Y-16045428D01*
X10557381Y-16026381D01*
X10547857Y-15988286D01*
X10547857Y-15940667D01*
X10557381Y-15902571D01*
X10566905Y-15883524D01*
X10576429Y-15874000D01*
X10595476Y-15864476D01*
X10747857Y-16045428D02*
X10757381Y-16054952D01*
X10747857Y-16064476D01*
X10738333Y-16054952D01*
X10747857Y-16045428D01*
X10747857Y-16064476D01*
X10881190Y-15864476D02*
X10900238Y-15864476D01*
X10919286Y-15874000D01*
X10928810Y-15883524D01*
X10938333Y-15902571D01*
X10947857Y-15940667D01*
X10947857Y-15988286D01*
X10938333Y-16026381D01*
X10928810Y-16045428D01*
X10919286Y-16054952D01*
X10900238Y-16064476D01*
X10881190Y-16064476D01*
X10862143Y-16054952D01*
X10852619Y-16045428D01*
X10843095Y-16026381D01*
X10833571Y-15988286D01*
X10833571Y-15940667D01*
X10843095Y-15902571D01*
X10852619Y-15883524D01*
X10862143Y-15874000D01*
X10881190Y-15864476D01*
X11014524Y-15864476D02*
X11138333Y-15864476D01*
X11071667Y-15940667D01*
X11100238Y-15940667D01*
X11119286Y-15950190D01*
X11128810Y-15959714D01*
X11138333Y-15978762D01*
X11138333Y-16026381D01*
X11128810Y-16045428D01*
X11119286Y-16054952D01*
X11100238Y-16064476D01*
X11043095Y-16064476D01*
X11024048Y-16054952D01*
X11014524Y-16045428D01*
X11328809Y-16064476D02*
X11214524Y-16064476D01*
X11271667Y-16064476D02*
X11271667Y-15864476D01*
X11252619Y-15893048D01*
X11233571Y-15912095D01*
X11214524Y-15921619D01*
X11509762Y-15864476D02*
X11414524Y-15864476D01*
X11405000Y-15959714D01*
X11414524Y-15950190D01*
X11433571Y-15940667D01*
X11481190Y-15940667D01*
X11500238Y-15950190D01*
X11509762Y-15959714D01*
X11519286Y-15978762D01*
X11519286Y-16026381D01*
X11509762Y-16045428D01*
X11500238Y-16054952D01*
X11481190Y-16064476D01*
X11433571Y-16064476D01*
X11414524Y-16054952D01*
X11405000Y-16045428D01*
X11595476Y-15864476D02*
X11595476Y-15902571D01*
X11671667Y-15864476D02*
X11671667Y-15902571D01*
X11966905Y-16140667D02*
X11957381Y-16131143D01*
X11938333Y-16102571D01*
X11928809Y-16083524D01*
X11919286Y-16054952D01*
X11909762Y-16007333D01*
X11909762Y-15969238D01*
X11919286Y-15921619D01*
X11928809Y-15893048D01*
X11938333Y-15874000D01*
X11957381Y-15845428D01*
X11966905Y-15835905D01*
X12147857Y-16064476D02*
X12033571Y-16064476D01*
X12090714Y-16064476D02*
X12090714Y-15864476D01*
X12071667Y-15893048D01*
X12052619Y-15912095D01*
X12033571Y-15921619D01*
X12243095Y-16064476D02*
X12281190Y-16064476D01*
X12300238Y-16054952D01*
X12309762Y-16045428D01*
X12328809Y-16016857D01*
X12338333Y-15978762D01*
X12338333Y-15902571D01*
X12328809Y-15883524D01*
X12319286Y-15874000D01*
X12300238Y-15864476D01*
X12262143Y-15864476D01*
X12243095Y-15874000D01*
X12233571Y-15883524D01*
X12224048Y-15902571D01*
X12224048Y-15950190D01*
X12233571Y-15969238D01*
X12243095Y-15978762D01*
X12262143Y-15988286D01*
X12300238Y-15988286D01*
X12319286Y-15978762D01*
X12328809Y-15969238D01*
X12338333Y-15950190D01*
X12509762Y-15864476D02*
X12471667Y-15864476D01*
X12452619Y-15874000D01*
X12443095Y-15883524D01*
X12424048Y-15912095D01*
X12414524Y-15950190D01*
X12414524Y-16026381D01*
X12424048Y-16045428D01*
X12433571Y-16054952D01*
X12452619Y-16064476D01*
X12490714Y-16064476D01*
X12509762Y-16054952D01*
X12519286Y-16045428D01*
X12528809Y-16026381D01*
X12528809Y-15978762D01*
X12519286Y-15959714D01*
X12509762Y-15950190D01*
X12490714Y-15940667D01*
X12452619Y-15940667D01*
X12433571Y-15950190D01*
X12424048Y-15959714D01*
X12414524Y-15978762D01*
X12766905Y-16064476D02*
X12766905Y-15864476D01*
X12852619Y-16064476D02*
X12852619Y-15959714D01*
X12843095Y-15940667D01*
X12824048Y-15931143D01*
X12795476Y-15931143D01*
X12776428Y-15940667D01*
X12766905Y-15950190D01*
X12976428Y-16064476D02*
X12957381Y-16054952D01*
X12947857Y-16045428D01*
X12938333Y-16026381D01*
X12938333Y-15969238D01*
X12947857Y-15950190D01*
X12957381Y-15940667D01*
X12976428Y-15931143D01*
X13005000Y-15931143D01*
X13024048Y-15940667D01*
X13033571Y-15950190D01*
X13043095Y-15969238D01*
X13043095Y-16026381D01*
X13033571Y-16045428D01*
X13024048Y-16054952D01*
X13005000Y-16064476D01*
X12976428Y-16064476D01*
X13157381Y-16064476D02*
X13138333Y-16054952D01*
X13128809Y-16035905D01*
X13128809Y-15864476D01*
X13309762Y-16054952D02*
X13290714Y-16064476D01*
X13252619Y-16064476D01*
X13233571Y-16054952D01*
X13224048Y-16035905D01*
X13224048Y-15959714D01*
X13233571Y-15940667D01*
X13252619Y-15931143D01*
X13290714Y-15931143D01*
X13309762Y-15940667D01*
X13319286Y-15959714D01*
X13319286Y-15978762D01*
X13224048Y-15997809D01*
X13395476Y-16054952D02*
X13414524Y-16064476D01*
X13452619Y-16064476D01*
X13471667Y-16054952D01*
X13481190Y-16035905D01*
X13481190Y-16026381D01*
X13471667Y-16007333D01*
X13452619Y-15997809D01*
X13424048Y-15997809D01*
X13405000Y-15988286D01*
X13395476Y-15969238D01*
X13395476Y-15959714D01*
X13405000Y-15940667D01*
X13424048Y-15931143D01*
X13452619Y-15931143D01*
X13471667Y-15940667D01*
X13547857Y-16140667D02*
X13557381Y-16131143D01*
X13576428Y-16102571D01*
X13585952Y-16083524D01*
X13595476Y-16054952D01*
X13605000Y-16007333D01*
X13605000Y-15969238D01*
X13595476Y-15921619D01*
X13585952Y-15893048D01*
X13576428Y-15874000D01*
X13557381Y-15845428D01*
X13547857Y-15835905D01*
D15*
X8380356Y-16273356D02*
X8380356Y-16202644D01*
X8309644Y-16202644D01*
X8309644Y-16273356D01*
X8380356Y-16273356D01*
D11*
X8757381Y-16328476D02*
X8643095Y-16328476D01*
X8700238Y-16328476D02*
X8700238Y-16128476D01*
X8681190Y-16157048D01*
X8662143Y-16176095D01*
X8643095Y-16185619D01*
X8843095Y-16309428D02*
X8852619Y-16318952D01*
X8843095Y-16328476D01*
X8833571Y-16318952D01*
X8843095Y-16309428D01*
X8843095Y-16328476D01*
X8976429Y-16128476D02*
X8995476Y-16128476D01*
X9014524Y-16138000D01*
X9024048Y-16147524D01*
X9033571Y-16166571D01*
X9043095Y-16204667D01*
X9043095Y-16252286D01*
X9033571Y-16290381D01*
X9024048Y-16309428D01*
X9014524Y-16318952D01*
X8995476Y-16328476D01*
X8976429Y-16328476D01*
X8957381Y-16318952D01*
X8947857Y-16309428D01*
X8938333Y-16290381D01*
X8928810Y-16252286D01*
X8928810Y-16204667D01*
X8938333Y-16166571D01*
X8947857Y-16147524D01*
X8957381Y-16138000D01*
X8976429Y-16128476D01*
X9166905Y-16128476D02*
X9185952Y-16128476D01*
X9205000Y-16138000D01*
X9214524Y-16147524D01*
X9224048Y-16166571D01*
X9233571Y-16204667D01*
X9233571Y-16252286D01*
X9224048Y-16290381D01*
X9214524Y-16309428D01*
X9205000Y-16318952D01*
X9185952Y-16328476D01*
X9166905Y-16328476D01*
X9147857Y-16318952D01*
X9138333Y-16309428D01*
X9128810Y-16290381D01*
X9119286Y-16252286D01*
X9119286Y-16204667D01*
X9128810Y-16166571D01*
X9138333Y-16147524D01*
X9147857Y-16138000D01*
X9166905Y-16128476D01*
X9357381Y-16128476D02*
X9376429Y-16128476D01*
X9395476Y-16138000D01*
X9405000Y-16147524D01*
X9414524Y-16166571D01*
X9424048Y-16204667D01*
X9424048Y-16252286D01*
X9414524Y-16290381D01*
X9405000Y-16309428D01*
X9395476Y-16318952D01*
X9376429Y-16328476D01*
X9357381Y-16328476D01*
X9338333Y-16318952D01*
X9328810Y-16309428D01*
X9319286Y-16290381D01*
X9309762Y-16252286D01*
X9309762Y-16204667D01*
X9319286Y-16166571D01*
X9328810Y-16147524D01*
X9338333Y-16138000D01*
X9357381Y-16128476D01*
X9509762Y-16328476D02*
X9509762Y-16195143D01*
X9509762Y-16214190D02*
X9519286Y-16204667D01*
X9538333Y-16195143D01*
X9566905Y-16195143D01*
X9585952Y-16204667D01*
X9595476Y-16223714D01*
X9595476Y-16328476D01*
X9595476Y-16223714D02*
X9605000Y-16204667D01*
X9624048Y-16195143D01*
X9652619Y-16195143D01*
X9671667Y-16204667D01*
X9681190Y-16223714D01*
X9681190Y-16328476D01*
X9776429Y-16328476D02*
X9776429Y-16195143D01*
X9776429Y-16214190D02*
X9785952Y-16204667D01*
X9805000Y-16195143D01*
X9833571Y-16195143D01*
X9852619Y-16204667D01*
X9862143Y-16223714D01*
X9862143Y-16328476D01*
X9862143Y-16223714D02*
X9871667Y-16204667D01*
X9890714Y-16195143D01*
X9919286Y-16195143D01*
X9938333Y-16204667D01*
X9947857Y-16223714D01*
X9947857Y-16328476D01*
X10338333Y-16118952D02*
X10166905Y-16376095D01*
X10595476Y-16128476D02*
X10614524Y-16128476D01*
X10633571Y-16138000D01*
X10643095Y-16147524D01*
X10652619Y-16166571D01*
X10662143Y-16204667D01*
X10662143Y-16252286D01*
X10652619Y-16290381D01*
X10643095Y-16309428D01*
X10633571Y-16318952D01*
X10614524Y-16328476D01*
X10595476Y-16328476D01*
X10576429Y-16318952D01*
X10566905Y-16309428D01*
X10557381Y-16290381D01*
X10547857Y-16252286D01*
X10547857Y-16204667D01*
X10557381Y-16166571D01*
X10566905Y-16147524D01*
X10576429Y-16138000D01*
X10595476Y-16128476D01*
X10747857Y-16309428D02*
X10757381Y-16318952D01*
X10747857Y-16328476D01*
X10738333Y-16318952D01*
X10747857Y-16309428D01*
X10747857Y-16328476D01*
X10881190Y-16128476D02*
X10900238Y-16128476D01*
X10919286Y-16138000D01*
X10928810Y-16147524D01*
X10938333Y-16166571D01*
X10947857Y-16204667D01*
X10947857Y-16252286D01*
X10938333Y-16290381D01*
X10928810Y-16309428D01*
X10919286Y-16318952D01*
X10900238Y-16328476D01*
X10881190Y-16328476D01*
X10862143Y-16318952D01*
X10852619Y-16309428D01*
X10843095Y-16290381D01*
X10833571Y-16252286D01*
X10833571Y-16204667D01*
X10843095Y-16166571D01*
X10852619Y-16147524D01*
X10862143Y-16138000D01*
X10881190Y-16128476D01*
X11014524Y-16128476D02*
X11138333Y-16128476D01*
X11071667Y-16204667D01*
X11100238Y-16204667D01*
X11119286Y-16214190D01*
X11128810Y-16223714D01*
X11138333Y-16242762D01*
X11138333Y-16290381D01*
X11128810Y-16309428D01*
X11119286Y-16318952D01*
X11100238Y-16328476D01*
X11043095Y-16328476D01*
X11024048Y-16318952D01*
X11014524Y-16309428D01*
X11233571Y-16328476D02*
X11271667Y-16328476D01*
X11290714Y-16318952D01*
X11300238Y-16309428D01*
X11319286Y-16280857D01*
X11328809Y-16242762D01*
X11328809Y-16166571D01*
X11319286Y-16147524D01*
X11309762Y-16138000D01*
X11290714Y-16128476D01*
X11252619Y-16128476D01*
X11233571Y-16138000D01*
X11224048Y-16147524D01*
X11214524Y-16166571D01*
X11214524Y-16214190D01*
X11224048Y-16233238D01*
X11233571Y-16242762D01*
X11252619Y-16252286D01*
X11290714Y-16252286D01*
X11309762Y-16242762D01*
X11319286Y-16233238D01*
X11328809Y-16214190D01*
X11500238Y-16195143D02*
X11500238Y-16328476D01*
X11452619Y-16118952D02*
X11405000Y-16261809D01*
X11528809Y-16261809D01*
X11595476Y-16128476D02*
X11595476Y-16166571D01*
X11671667Y-16128476D02*
X11671667Y-16166571D01*
X11966905Y-16404667D02*
X11957381Y-16395143D01*
X11938333Y-16366571D01*
X11928809Y-16347524D01*
X11919286Y-16318952D01*
X11909762Y-16271333D01*
X11909762Y-16233238D01*
X11919286Y-16185619D01*
X11928809Y-16157048D01*
X11938333Y-16138000D01*
X11957381Y-16109428D01*
X11966905Y-16099905D01*
X12128809Y-16195143D02*
X12128809Y-16328476D01*
X12081190Y-16118952D02*
X12033571Y-16261809D01*
X12157381Y-16261809D01*
X12262143Y-16214190D02*
X12243095Y-16204667D01*
X12233571Y-16195143D01*
X12224048Y-16176095D01*
X12224048Y-16166571D01*
X12233571Y-16147524D01*
X12243095Y-16138000D01*
X12262143Y-16128476D01*
X12300238Y-16128476D01*
X12319286Y-16138000D01*
X12328809Y-16147524D01*
X12338333Y-16166571D01*
X12338333Y-16176095D01*
X12328809Y-16195143D01*
X12319286Y-16204667D01*
X12300238Y-16214190D01*
X12262143Y-16214190D01*
X12243095Y-16223714D01*
X12233571Y-16233238D01*
X12224048Y-16252286D01*
X12224048Y-16290381D01*
X12233571Y-16309428D01*
X12243095Y-16318952D01*
X12262143Y-16328476D01*
X12300238Y-16328476D01*
X12319286Y-16318952D01*
X12328809Y-16309428D01*
X12338333Y-16290381D01*
X12338333Y-16252286D01*
X12328809Y-16233238D01*
X12319286Y-16223714D01*
X12300238Y-16214190D01*
X12576428Y-16328476D02*
X12576428Y-16128476D01*
X12662143Y-16328476D02*
X12662143Y-16223714D01*
X12652619Y-16204667D01*
X12633571Y-16195143D01*
X12605000Y-16195143D01*
X12585952Y-16204667D01*
X12576428Y-16214190D01*
X12785952Y-16328476D02*
X12766905Y-16318952D01*
X12757381Y-16309428D01*
X12747857Y-16290381D01*
X12747857Y-16233238D01*
X12757381Y-16214190D01*
X12766905Y-16204667D01*
X12785952Y-16195143D01*
X12814524Y-16195143D01*
X12833571Y-16204667D01*
X12843095Y-16214190D01*
X12852619Y-16233238D01*
X12852619Y-16290381D01*
X12843095Y-16309428D01*
X12833571Y-16318952D01*
X12814524Y-16328476D01*
X12785952Y-16328476D01*
X12966905Y-16328476D02*
X12947857Y-16318952D01*
X12938333Y-16299905D01*
X12938333Y-16128476D01*
X13119286Y-16318952D02*
X13100238Y-16328476D01*
X13062143Y-16328476D01*
X13043095Y-16318952D01*
X13033571Y-16299905D01*
X13033571Y-16223714D01*
X13043095Y-16204667D01*
X13062143Y-16195143D01*
X13100238Y-16195143D01*
X13119286Y-16204667D01*
X13128809Y-16223714D01*
X13128809Y-16242762D01*
X13033571Y-16261809D01*
X13205000Y-16318952D02*
X13224048Y-16328476D01*
X13262143Y-16328476D01*
X13281190Y-16318952D01*
X13290714Y-16299905D01*
X13290714Y-16290381D01*
X13281190Y-16271333D01*
X13262143Y-16261809D01*
X13233571Y-16261809D01*
X13214524Y-16252286D01*
X13205000Y-16233238D01*
X13205000Y-16223714D01*
X13214524Y-16204667D01*
X13233571Y-16195143D01*
X13262143Y-16195143D01*
X13281190Y-16204667D01*
X13357381Y-16404667D02*
X13366905Y-16395143D01*
X13385952Y-16366571D01*
X13395476Y-16347524D01*
X13405000Y-16318952D01*
X13414524Y-16271333D01*
X13414524Y-16233238D01*
X13405000Y-16185619D01*
X13395476Y-16157048D01*
X13385952Y-16138000D01*
X13366905Y-16109428D01*
X13357381Y-16099905D01*
D16*
X8340000Y-16557000D02*
X8395000Y-16502000D01*
X8340000Y-16447000D01*
X8285000Y-16502000D01*
X8340000Y-16557000D01*
D11*
X8757381Y-16592476D02*
X8643095Y-16592476D01*
X8700238Y-16592476D02*
X8700238Y-16392476D01*
X8681190Y-16421048D01*
X8662143Y-16440095D01*
X8643095Y-16449619D01*
X8843095Y-16573428D02*
X8852619Y-16582952D01*
X8843095Y-16592476D01*
X8833571Y-16582952D01*
X8843095Y-16573428D01*
X8843095Y-16592476D01*
X9043095Y-16592476D02*
X8928810Y-16592476D01*
X8985952Y-16592476D02*
X8985952Y-16392476D01*
X8966905Y-16421048D01*
X8947857Y-16440095D01*
X8928810Y-16449619D01*
X9166905Y-16392476D02*
X9185952Y-16392476D01*
X9205000Y-16402000D01*
X9214524Y-16411524D01*
X9224048Y-16430571D01*
X9233571Y-16468667D01*
X9233571Y-16516286D01*
X9224048Y-16554381D01*
X9214524Y-16573428D01*
X9205000Y-16582952D01*
X9185952Y-16592476D01*
X9166905Y-16592476D01*
X9147857Y-16582952D01*
X9138333Y-16573428D01*
X9128810Y-16554381D01*
X9119286Y-16516286D01*
X9119286Y-16468667D01*
X9128810Y-16430571D01*
X9138333Y-16411524D01*
X9147857Y-16402000D01*
X9166905Y-16392476D01*
X9357381Y-16392476D02*
X9376429Y-16392476D01*
X9395476Y-16402000D01*
X9405000Y-16411524D01*
X9414524Y-16430571D01*
X9424048Y-16468667D01*
X9424048Y-16516286D01*
X9414524Y-16554381D01*
X9405000Y-16573428D01*
X9395476Y-16582952D01*
X9376429Y-16592476D01*
X9357381Y-16592476D01*
X9338333Y-16582952D01*
X9328810Y-16573428D01*
X9319286Y-16554381D01*
X9309762Y-16516286D01*
X9309762Y-16468667D01*
X9319286Y-16430571D01*
X9328810Y-16411524D01*
X9338333Y-16402000D01*
X9357381Y-16392476D01*
X9509762Y-16592476D02*
X9509762Y-16459143D01*
X9509762Y-16478190D02*
X9519286Y-16468667D01*
X9538333Y-16459143D01*
X9566905Y-16459143D01*
X9585952Y-16468667D01*
X9595476Y-16487714D01*
X9595476Y-16592476D01*
X9595476Y-16487714D02*
X9605000Y-16468667D01*
X9624048Y-16459143D01*
X9652619Y-16459143D01*
X9671667Y-16468667D01*
X9681190Y-16487714D01*
X9681190Y-16592476D01*
X9776429Y-16592476D02*
X9776429Y-16459143D01*
X9776429Y-16478190D02*
X9785952Y-16468667D01*
X9805000Y-16459143D01*
X9833571Y-16459143D01*
X9852619Y-16468667D01*
X9862143Y-16487714D01*
X9862143Y-16592476D01*
X9862143Y-16487714D02*
X9871667Y-16468667D01*
X9890714Y-16459143D01*
X9919286Y-16459143D01*
X9938333Y-16468667D01*
X9947857Y-16487714D01*
X9947857Y-16592476D01*
X10338333Y-16382952D02*
X10166905Y-16640095D01*
X10595476Y-16392476D02*
X10614524Y-16392476D01*
X10633571Y-16402000D01*
X10643095Y-16411524D01*
X10652619Y-16430571D01*
X10662143Y-16468667D01*
X10662143Y-16516286D01*
X10652619Y-16554381D01*
X10643095Y-16573428D01*
X10633571Y-16582952D01*
X10614524Y-16592476D01*
X10595476Y-16592476D01*
X10576429Y-16582952D01*
X10566905Y-16573428D01*
X10557381Y-16554381D01*
X10547857Y-16516286D01*
X10547857Y-16468667D01*
X10557381Y-16430571D01*
X10566905Y-16411524D01*
X10576429Y-16402000D01*
X10595476Y-16392476D01*
X10747857Y-16573428D02*
X10757381Y-16582952D01*
X10747857Y-16592476D01*
X10738333Y-16582952D01*
X10747857Y-16573428D01*
X10747857Y-16592476D01*
X10881190Y-16392476D02*
X10900238Y-16392476D01*
X10919286Y-16402000D01*
X10928810Y-16411524D01*
X10938333Y-16430571D01*
X10947857Y-16468667D01*
X10947857Y-16516286D01*
X10938333Y-16554381D01*
X10928810Y-16573428D01*
X10919286Y-16582952D01*
X10900238Y-16592476D01*
X10881190Y-16592476D01*
X10862143Y-16582952D01*
X10852619Y-16573428D01*
X10843095Y-16554381D01*
X10833571Y-16516286D01*
X10833571Y-16468667D01*
X10843095Y-16430571D01*
X10852619Y-16411524D01*
X10862143Y-16402000D01*
X10881190Y-16392476D01*
X11119286Y-16459143D02*
X11119286Y-16592476D01*
X11071667Y-16382952D02*
X11024048Y-16525809D01*
X11147857Y-16525809D01*
X11205000Y-16392476D02*
X11328809Y-16392476D01*
X11262143Y-16468667D01*
X11290714Y-16468667D01*
X11309762Y-16478190D01*
X11319286Y-16487714D01*
X11328809Y-16506762D01*
X11328809Y-16554381D01*
X11319286Y-16573428D01*
X11309762Y-16582952D01*
X11290714Y-16592476D01*
X11233571Y-16592476D01*
X11214524Y-16582952D01*
X11205000Y-16573428D01*
X11395476Y-16392476D02*
X11519286Y-16392476D01*
X11452619Y-16468667D01*
X11481190Y-16468667D01*
X11500238Y-16478190D01*
X11509762Y-16487714D01*
X11519286Y-16506762D01*
X11519286Y-16554381D01*
X11509762Y-16573428D01*
X11500238Y-16582952D01*
X11481190Y-16592476D01*
X11424048Y-16592476D01*
X11405000Y-16582952D01*
X11395476Y-16573428D01*
X11595476Y-16392476D02*
X11595476Y-16430571D01*
X11671667Y-16392476D02*
X11671667Y-16430571D01*
X11966905Y-16668667D02*
X11957381Y-16659143D01*
X11938333Y-16630571D01*
X11928809Y-16611524D01*
X11919286Y-16582952D01*
X11909762Y-16535333D01*
X11909762Y-16497238D01*
X11919286Y-16449619D01*
X11928809Y-16421048D01*
X11938333Y-16402000D01*
X11957381Y-16373428D01*
X11966905Y-16363905D01*
X12128809Y-16459143D02*
X12128809Y-16592476D01*
X12081190Y-16382952D02*
X12033571Y-16525809D01*
X12157381Y-16525809D01*
X12385952Y-16592476D02*
X12385952Y-16392476D01*
X12471667Y-16592476D02*
X12471667Y-16487714D01*
X12462143Y-16468667D01*
X12443095Y-16459143D01*
X12414524Y-16459143D01*
X12395476Y-16468667D01*
X12385952Y-16478190D01*
X12595476Y-16592476D02*
X12576428Y-16582952D01*
X12566905Y-16573428D01*
X12557381Y-16554381D01*
X12557381Y-16497238D01*
X12566905Y-16478190D01*
X12576428Y-16468667D01*
X12595476Y-16459143D01*
X12624048Y-16459143D01*
X12643095Y-16468667D01*
X12652619Y-16478190D01*
X12662143Y-16497238D01*
X12662143Y-16554381D01*
X12652619Y-16573428D01*
X12643095Y-16582952D01*
X12624048Y-16592476D01*
X12595476Y-16592476D01*
X12776428Y-16592476D02*
X12757381Y-16582952D01*
X12747857Y-16563905D01*
X12747857Y-16392476D01*
X12928809Y-16582952D02*
X12909762Y-16592476D01*
X12871667Y-16592476D01*
X12852619Y-16582952D01*
X12843095Y-16563905D01*
X12843095Y-16487714D01*
X12852619Y-16468667D01*
X12871667Y-16459143D01*
X12909762Y-16459143D01*
X12928809Y-16468667D01*
X12938333Y-16487714D01*
X12938333Y-16506762D01*
X12843095Y-16525809D01*
X13014524Y-16582952D02*
X13033571Y-16592476D01*
X13071667Y-16592476D01*
X13090714Y-16582952D01*
X13100238Y-16563905D01*
X13100238Y-16554381D01*
X13090714Y-16535333D01*
X13071667Y-16525809D01*
X13043095Y-16525809D01*
X13024048Y-16516286D01*
X13014524Y-16497238D01*
X13014524Y-16487714D01*
X13024048Y-16468667D01*
X13043095Y-16459143D01*
X13071667Y-16459143D01*
X13090714Y-16468667D01*
X13166905Y-16668667D02*
X13176428Y-16659143D01*
X13195476Y-16630571D01*
X13205000Y-16611524D01*
X13214524Y-16582952D01*
X13224048Y-16535333D01*
X13224048Y-16497238D01*
X13214524Y-16449619D01*
X13205000Y-16421048D01*
X13195476Y-16402000D01*
X13176428Y-16373428D01*
X13166905Y-16363905D01*
M02*
