M48
; DRILL file {KiCad (6.0.4)} date Sun Nov 12 14:03:16 2023
; FORMAT={-:-/ absolute / metric / decimal}
; #@! TF.CreationDate,2023-11-12T14:03:16+01:00
; #@! TF.GenerationSoftware,Kicad,Pcbnew,(6.0.4)
; #@! TF.FileFunction,Plated,1,2,PTH
FMAT,2
METRIC
; #@! TA.AperFunction,Plated,PTH,ViaDrill
T1C0.400
; #@! TA.AperFunction,Plated,PTH,ViaDrill
T2C0.500
; #@! TA.AperFunction,Plated,PTH,ComponentDrill
T3C0.800
; #@! TA.AperFunction,Plated,PTH,ComponentDrill
T4C1.000
; #@! TA.AperFunction,Plated,PTH,ComponentDrill
T5C1.100
%
G90
G05
T1
X125.0Y-128.0
T2
X90.0Y-52.0
X90.0Y-60.0
X90.493Y-98.198
X90.626Y-115.172
X91.0Y-81.429
X91.0Y-86.0
X91.0Y-105.85
X97.0Y-108.46
X98.003Y-64.98
X98.145Y-51.145
X98.625Y-90.704
X101.335Y-97.106
X101.343Y-117.779
X101.359Y-76.374
X101.398Y-55.091
X101.983Y-126.379
X103.198Y-65.972
X104.0Y-87.0
X104.0Y-109.46
X112.0Y-49.0
X118.0Y-130.0
X121.0Y-87.85
X122.0Y-66.0
X122.0Y-109.46
X122.384Y-77.621
X122.602Y-56.178
X122.602Y-119.193
X122.656Y-98.37
X128.0Y-131.0
X128.0Y-136.0
X128.0Y-140.0
X128.0Y-145.0
X131.177Y-108.853
X132.0Y-87.5
X134.047Y-118.304
X134.25Y-92.75
X134.484Y-79.041
X134.5Y-101.5
X135.0Y-73.0
X136.0Y-111.61
X136.237Y-57.013
X139.354Y-51.552
T3
X87.0Y-133.517
X87.0Y-136.058
X88.895Y-128.0
X91.275Y-133.438
X91.275Y-141.058
X93.815Y-133.438
X93.815Y-141.058
X93.86Y-49.25
X93.86Y-53.25
X93.86Y-55.79
X93.86Y-59.71
X93.86Y-62.25
X93.86Y-74.25
X93.86Y-76.79
X93.86Y-80.71
X93.86Y-83.25
X93.86Y-91.1
X93.86Y-95.1
X93.86Y-97.64
X93.86Y-101.56
X93.86Y-104.1
X93.86Y-111.86
X93.86Y-115.86
X93.86Y-118.4
X93.86Y-122.32
X93.86Y-124.86
X93.895Y-128.0
X96.355Y-133.438
X96.355Y-141.058
X96.4Y-49.25
X96.4Y-91.1
X96.4Y-111.86
X98.0Y-67.71
X98.0Y-70.25
X98.86Y-53.25
X98.86Y-57.25
X98.86Y-62.25
X98.86Y-74.25
X98.86Y-78.25
X98.86Y-83.25
X98.86Y-95.1
X98.86Y-99.1
X98.86Y-104.1
X98.86Y-115.86
X98.86Y-119.86
X98.86Y-124.86
X98.895Y-133.438
X98.895Y-141.058
X100.0Y-128.0
X101.32Y-49.25
X101.32Y-70.25
X101.32Y-91.1
X101.32Y-111.86
X103.35Y-132.47
X103.35Y-135.01
X103.86Y-49.25
X103.86Y-53.25
X103.86Y-57.25
X103.86Y-62.25
X103.86Y-70.25
X103.86Y-74.25
X103.86Y-78.25
X103.86Y-83.25
X103.86Y-91.1
X103.86Y-95.1
X103.86Y-99.1
X103.86Y-104.1
X103.86Y-111.86
X103.86Y-115.86
X103.86Y-119.86
X103.86Y-124.86
X105.0Y-128.0
X107.55Y-133.438
X107.55Y-141.058
X107.86Y-48.01
X107.86Y-50.55
X107.86Y-53.09
X107.86Y-55.63
X107.86Y-58.17
X107.86Y-60.71
X107.86Y-63.25
X107.86Y-69.01
X107.86Y-71.55
X107.86Y-74.09
X107.86Y-76.63
X107.86Y-79.17
X107.86Y-81.71
X107.86Y-84.25
X107.86Y-89.86
X107.86Y-92.4
X107.86Y-94.94
X107.86Y-97.48
X107.86Y-100.02
X107.86Y-102.56
X107.86Y-105.1
X107.86Y-110.62
X107.86Y-113.16
X107.86Y-115.7
X107.86Y-118.24
X107.86Y-120.78
X107.86Y-123.32
X107.86Y-125.86
X110.09Y-133.438
X110.09Y-141.058
X112.63Y-133.438
X112.63Y-141.058
X115.17Y-133.438
X115.17Y-141.058
X115.48Y-48.01
X115.48Y-50.55
X115.48Y-53.09
X115.48Y-55.63
X115.48Y-58.17
X115.48Y-60.71
X115.48Y-63.25
X115.48Y-69.01
X115.48Y-71.55
X115.48Y-74.09
X115.48Y-76.63
X115.48Y-79.17
X115.48Y-81.71
X115.48Y-84.25
X115.48Y-89.86
X115.48Y-92.4
X115.48Y-94.94
X115.48Y-97.48
X115.48Y-100.02
X115.48Y-102.56
X115.48Y-105.1
X115.48Y-110.62
X115.48Y-113.16
X115.48Y-115.7
X115.48Y-118.24
X115.48Y-120.78
X115.48Y-123.32
X115.48Y-125.86
X120.0Y-49.25
X120.0Y-54.25
X120.0Y-58.25
X120.0Y-62.25
X120.0Y-70.5
X120.0Y-75.25
X120.0Y-79.25
X120.0Y-83.25
X120.0Y-91.1
X120.0Y-96.1
X120.0Y-100.1
X120.0Y-104.1
X120.0Y-112.07
X120.0Y-117.07
X120.0Y-121.07
X120.0Y-125.07
X122.54Y-62.25
X122.54Y-83.25
X122.54Y-104.1
X122.54Y-125.07
X125.0Y-49.25
X125.0Y-54.25
X125.0Y-58.25
X125.0Y-70.5
X125.0Y-75.25
X125.0Y-79.25
X125.0Y-91.1
X125.0Y-96.1
X125.0Y-100.1
X125.0Y-112.07
X125.0Y-117.07
X125.0Y-121.07
X125.0Y-137.01
X125.0Y-139.01
X127.46Y-62.25
X127.46Y-83.25
X127.46Y-104.1
X127.46Y-125.07
X130.0Y-49.25
X130.0Y-51.79
X130.0Y-55.71
X130.0Y-58.25
X130.0Y-62.25
X130.0Y-70.5
X130.0Y-73.04
X130.0Y-76.71
X130.0Y-79.25
X130.0Y-83.25
X130.0Y-91.1
X130.0Y-93.64
X130.0Y-97.475
X130.0Y-100.015
X130.0Y-104.1
X130.0Y-112.07
X130.0Y-114.61
X130.0Y-118.53
X130.0Y-121.07
X130.0Y-125.07
X131.463Y-137.01
X131.463Y-139.01
T4
X87.0Y-55.01
X87.0Y-57.55
X87.0Y-75.0
X87.0Y-79.0
X87.0Y-81.54
X87.0Y-84.08
X87.0Y-86.62
X87.0Y-89.16
X87.0Y-91.7
X87.0Y-100.01
X87.0Y-102.55
X87.0Y-116.01
X87.0Y-118.55
X87.0Y-140.47
X87.0Y-143.01
X89.54Y-75.0
X92.475Y-146.01
X95.015Y-146.01
X97.555Y-146.01
X102.0Y-146.01
X104.54Y-146.01
X109.0Y-146.01
X111.54Y-146.01
X114.08Y-146.01
X138.278Y-132.935
X138.278Y-135.475
X138.278Y-138.015
X138.278Y-140.555
X138.278Y-143.095
X140.817Y-132.935
X140.817Y-135.475
X140.817Y-138.015
X140.817Y-140.555
X140.817Y-143.095
X141.0Y-55.0
X141.0Y-57.54
X141.0Y-70.0
X141.0Y-72.54
X141.0Y-79.0
X141.0Y-81.54
X141.0Y-84.08
X141.0Y-86.62
X141.0Y-89.16
X141.0Y-91.7
X141.0Y-100.01
X141.0Y-102.55
X141.0Y-116.01
X141.0Y-118.55
T5
X121.92Y-132.0
X121.92Y-144.01
X132.08Y-132.0
X132.08Y-144.01
T0
M30
